<svg id="Layer_1" data-name="Layer 1" xmlns="http://www.w3.org/2000/svg" width="254.01" height="250" viewBox="0 0 254.01 250">
  <defs>
    <style>
      .cls-1 {
        fill: #630;
      }

      .cls-2 {
        fill: #f4eded;
      }

      .cls-3 {
        fill: #b26b6b;
      }

      .cls-4 {
        fill: #302d2d;
      }

      .cls-5 {
        fill: #dbd1d1;
      }

      .cls-6 {
        fill: #f4f2f2;
      }

      .cls-7 {
        fill: #19180d;
      }

      .cls-8 {
        fill: #f7f7f7;
        stroke: #b26b6b;
        stroke-width: 0.48px;
      }

      .cls-8, .cls-9 {
        stroke-miterlimit: 10;
      }

      .cls-9 {
        fill: none;
        stroke: #514d4d;
        stroke-width: 1.44px;
      }

      .cls-10 {
        fill: #383535;
      }
    </style>
  </defs>
  <g>
    <path class="cls-1" d="M192.13,102.65a29.93,29.93,0,0,0-3.91,6.49,32.09,32.09,0,0,0-1.33,20.18c2.22,8,5.86,8,6.8,14.73.89,6.46-1.37,14.1-4.68,14.71-5,.91-10.89-14.56-13.52-13.57-1.59.6.35,6.3-1,15.25-.14,1-2,13.3-5.71,13.61s-7.16-12-8.92-11.51c-1.12.32.15,5.36-.47,11.53-.83,8.25-5,18-8.5,18-6.39,0-10.1-32.86-13.6-32.48-2.36.25-1.92,15.22-4.71,15.54-3.36.38-7-21-12.6-20.9-3.6.05-5.27,8.83-8.11,8.51-3.89-.44-3.36-17.22-7.9-18-3.63-.63-6.12,9.7-10.39,9.38-5.1-.39-12-15.93-7.64-27.07,1-2.63,2.67-5,2.06-8.42-.74-4.19-4.17-6.1-6.75-8.9-4.52-4.89-5-10.88-5.66-20-.39-5.17-1.86-24.67,12-41.28,15.33-18.33,38-19.5,44.49-19.83,6-.31,23.2-1.2,38.9,9.8C195.77,55.8,200.42,91.1,192.13,102.65Z"/>
    <ellipse class="cls-2" cx="123.85" cy="83.36" rx="8.8" ry="11.73" transform="translate(-8.14 13.6) rotate(-6.08)"/>
    <path class="cls-3" d="M136.77,121.65c-4.65,2.09-11.38-2.38-10.89-4.8.3-1.43,3.29-2.91,5.27-2.48,1.45.32,1.61,1.49,3.09,1.52,1.27,0,1.62-.83,3.46-1.12.48-.07,2.32-.36,3,.36C141.65,116.28,139.8,120.29,136.77,121.65Z"/>
    <ellipse class="cls-4" cx="125.86" cy="86.44" rx="5.81" ry="8.25" transform="translate(-11.12 19) rotate(-8.27)"/>
    <circle class="cls-5" cx="126.95" cy="91.19" r="3.1"/>
    <ellipse class="cls-6" cx="144.91" cy="83.34" rx="12.83" ry="9.41" transform="translate(41.09 214.35) rotate(-81.51)"/>
    <path class="cls-7" d="M160.58,101.38c2.14,4.27-12,21.74-28.6,20.77-16.17-.93-28.16-19-25.67-23,1.64-2.62,8.73,2,25.43,2.93C150.38,103.16,159.09,98.4,160.58,101.38Z"/>
    <rect class="cls-8" x="135.65" y="102.09" width="5.46" height="8.2"/>
    <rect class="cls-8" x="129.12" y="102.48" width="5.46" height="8.2" transform="translate(9.8 -11.09) rotate(5)"/>
    <path class="cls-9" d="M160.58,101.38c2.14,4.27-12,21.74-28.6,20.77-16.17-.93-28.16-19-25.67-23,1.64-2.62,8.73,2,25.43,2.93C150.38,103.16,159.09,98.4,160.58,101.38Z"/>
    <ellipse class="cls-10" cx="142.43" cy="84.75" rx="8.25" ry="5.81" transform="translate(54.46 225.21) rotate(-88.7)"/>
    <circle class="cls-5" cx="142.3" cy="88.81" r="3.1"/>
  </g>
</svg>
