<svg id="Layer_1" data-name="Layer 1" xmlns="http://www.w3.org/2000/svg" width="254.01" height="250" viewBox="0 0 254.01 250">
  <defs>
    <style>
      .cls-1 {
        fill: #939;
      }

      .cls-2 {
        opacity: 0.35;
      }

      .cls-3 {
        fill: #c6c;
      }

      .cls-4 {
        fill: #f4eded;
      }

      .cls-5 {
        fill: #b26b6b;
      }

      .cls-6 {
        fill: #302d2d;
      }

      .cls-7 {
        fill: #dbd1d1;
      }

      .cls-8 {
        fill: #f4f2f2;
      }

      .cls-9 {
        fill: #19180d;
      }

      .cls-10 {
        fill: #f7f7f7;
        stroke: #b26b6b;
        stroke-width: 0.54px;
      }

      .cls-10, .cls-11 {
        stroke-miterlimit: 10;
      }

      .cls-11 {
        fill: none;
        stroke: #514d4d;
        stroke-width: 1.63px;
      }

      .cls-12 {
        fill: #383535;
      }
    </style>
  </defs>
  <g>
    <g>
      <path class="cls-1" d="M196.48,123.28a34.33,34.33,0,0,0-4.45,7.38,36.46,36.46,0,0,0-1.5,22.94c2.52,9.06,6.66,9,7.72,16.75,1,7.35-1.55,16-5.31,16.72-5.68,1-12.38-16.55-15.38-15.42-1.8.68.4,7.16-1.08,17.34-.17,1.11-2.29,15.12-6.5,15.48s-8.13-13.66-10.14-13.1c-1.27.36.18,6.1-.53,13.11-.95,9.39-5.7,20.5-9.67,20.47-7.27,0-11.48-37.36-15.46-36.94-2.68.29-2.18,17.31-5.35,17.68-3.83.44-7.91-23.87-14.33-23.77-4.1.07-6,10-9.22,9.68-4.43-.5-3.82-19.58-9-20.47-4.12-.72-7,11-11.81,10.66-5.79-.44-13.61-18.11-8.68-30.78,1.16-3,3-5.68,2.34-9.57-.84-4.77-4.74-6.93-7.68-10.11C65.32,125.76,64.81,119,64,108.64c-.44-5.87-2.12-28,13.67-46.93,17.43-20.84,43.16-22.17,50.59-22.55,6.87-.36,26.38-1.36,44.23,11.15C200.63,70,205.91,110.15,196.48,123.28Z"/>
      <g class="cls-2">
        <path class="cls-3" d="M177.8,86.93a18.25,18.25,0,0,0-3.72,3.39,9.86,9.86,0,0,0-1.49,10.43c2,4.08,5.35,4,6.14,7.51.74,3.32-1.45,7.29-4.53,7.64-4.66.54-9.95-7.37-12.4-6.82-1.49.32.24,3.24-1.09,7.87-.14.51-2,6.89-5.48,7.1s-6.5-6.11-8.14-5.83c-1.05.18.07,2.76-.59,6-.87,4.27-4.88,9.36-8.13,9.39-5.94.06-9-16.82-12.23-16.58-2.2.16-2,7.88-4.57,8.08-3.14.24-6.21-10.74-11.46-10.63-3.35.08-5,4.62-7.64,4.5-3.62-.18-2.91-8.84-7.13-9.19-3.36-.28-5.81,5.08-9.77,5-4.74-.13-10.93-8.06-6.76-13.86,1-1.37,2.54-2.61,2-4.37-.64-2.15-3.8-3.09-6.17-4.5-4.14-2.47-4.49-5.55-5-10.22-.3-2.66-1.42-12.7,11.7-21.44C95.83,50.66,116.89,49.78,123,49.52c5.62-.23,21.58-.91,36,4.57C181.77,62.72,185.66,80.87,177.8,86.93Z"/>
      </g>
    </g>
    <ellipse class="cls-4" cx="112.65" cy="89.5" rx="10" ry="13.34" transform="translate(-8.85 12.44) rotate(-6.08)"/>
    <path class="cls-5" d="M127.33,133c-5.29,2.37-12.94-2.72-12.37-5.46.33-1.63,3.73-3.31,6-2.82,1.65.36,1.84,1.69,3.51,1.72,1.45,0,1.85-.94,3.94-1.26.54-.09,2.64-.41,3.35.4C132.88,126.93,130.78,131.49,127.33,133Z"/>
    <ellipse class="cls-6" cx="114.93" cy="93" rx="6.6" ry="9.38" transform="translate(-12.18 17.49) rotate(-8.27)"/>
    <circle class="cls-7" cx="116.17" cy="98.4" r="3.52"/>
    <ellipse class="cls-8" cx="136.59" cy="89.48" rx="14.59" ry="10.7" transform="translate(27.92 211.35) rotate(-81.51)"/>
    <path class="cls-9" d="M154.41,110c2.42,4.86-13.65,24.72-32.52,23.63-18.38-1.07-32-21.58-29.18-26.13,1.85-3,9.92,2.27,28.9,3.34C142.81,112,152.71,106.6,154.41,110Z"/>
    <rect class="cls-10" x="126.06" y="110.79" width="6.21" height="9.32"/>
    <rect class="cls-10" x="118.64" y="111.24" width="6.21" height="9.32" transform="translate(10.57 -10.18) rotate(5)"/>
    <path class="cls-11" d="M154.41,110c2.42,4.86-13.65,24.72-32.52,23.63-18.38-1.07-32-21.58-29.18-26.13,1.85-3,9.92,2.27,28.9,3.34C142.81,112,152.71,106.6,154.41,110Z"/>
    <ellipse class="cls-12" cx="133.76" cy="91.08" rx="9.38" ry="6.6" transform="translate(39.66 222.73) rotate(-88.7)"/>
    <circle class="cls-7" cx="133.62" cy="95.7" r="3.52"/>
  </g>
</svg>
