<svg id="Layer_1" data-name="Layer 1" xmlns="http://www.w3.org/2000/svg" width="254.01" height="250" viewBox="0 0 254.01 250">
  <defs>
    <style>
      .cls-1 {
        fill: #3c6;
      }

      .cls-2 {
        fill: #f4eded;
      }

      .cls-3 {
        fill: #b26b6b;
      }

      .cls-4 {
        fill: #302d2d;
      }

      .cls-5 {
        fill: #dbd1d1;
      }

      .cls-6 {
        fill: #f4f2f2;
      }

      .cls-7 {
        fill: #19180d;
      }

      .cls-8 {
        fill: #f7f7f7;
        stroke: #b26b6b;
        stroke-width: 0.58px;
      }

      .cls-8, .cls-9 {
        stroke-miterlimit: 10;
      }

      .cls-9 {
        fill: none;
        stroke: #514d4d;
        stroke-width: 1.75px;
      }

      .cls-10 {
        fill: #383535;
      }
    </style>
  </defs>
  <g>
    <path class="cls-1" d="M196.08,117.93a35.83,35.83,0,0,0-4.77,7.91c-5.05,11.73-2,23.15-1.62,24.62,2.71,9.71,7.15,9.69,8.29,18,1.09,7.88-1.67,17.2-5.7,17.94-6.1,1.11-13.28-17.76-16.49-16.55-1.94.73.42,7.68-1.17,18.6-.17,1.2-2.45,16.22-7,16.6s-8.72-14.65-10.87-14c-1.37.39.18,6.53-.57,14.06-1,10.07-6.11,22-10.38,22-7.79-.06-12.31-40.08-16.58-39.62-2.88.3-2.34,18.56-5.74,18.95-4.1.47-8.49-25.6-15.37-25.49-4.39.07-6.43,10.77-9.89,10.38-4.75-.53-4.1-21-9.64-22-4.42-.77-7.46,11.83-12.67,11.44-6.22-.48-14.6-19.42-9.31-33,1.24-3.21,3.25-6.1,2.51-10.28-.91-5.1-5.08-7.43-8.24-10.84-5.51-6-6.06-13.28-6.9-24.34-.47-6.3-2.27-30.08,14.67-50.34C87.36,29.53,115,28.1,122.94,27.69c7.36-.38,28.29-1.46,47.43,12C200.52,60.79,206.2,103.85,196.08,117.93Z"/>
    <ellipse class="cls-2" cx="109.32" cy="91.66" rx="10.73" ry="14.31" transform="translate(-9.1 12.1) rotate(-6.08)"/>
    <path class="cls-3" d="M125.07,138.36c-5.67,2.54-13.88-2.91-13.27-5.86.36-1.75,4-3.54,6.42-3,1.76.39,2,1.81,3.76,1.85,1.55,0,2-1,4.22-1.36.59-.09,2.84-.44,3.6.43C131,131.8,128.77,136.7,125.07,138.36Z"/>
    <ellipse class="cls-4" cx="111.76" cy="95.41" rx="7.08" ry="10.06" transform="translate(-12.56 17.06) rotate(-8.27)"/>
    <circle class="cls-5" cx="113.1" cy="101.2" r="3.78"/>
    <ellipse class="cls-6" cx="135" cy="91.63" rx="15.65" ry="11.48" transform="translate(24.44 211.62) rotate(-81.51)"/>
    <path class="cls-7" d="M154.11,113.63c2.61,5.21-14.63,26.51-34.88,25.34-19.72-1.15-34.34-23.15-31.3-28,2-3.2,10.65,2.42,31,3.57C141.67,115.81,152.3,110,154.11,113.63Z"/>
    <rect class="cls-8" x="123.7" y="114.49" width="6.66" height="10"/>
    <rect class="cls-8" x="115.75" y="114.98" width="6.66" height="10" transform="translate(10.92 -9.93) rotate(5)"/>
    <path class="cls-9" d="M154.11,113.63c2.61,5.21-14.63,26.51-34.88,25.34-19.72-1.15-34.34-23.15-31.3-28,2-3.2,10.65,2.42,31,3.57C141.67,115.81,152.3,110,154.11,113.63Z"/>
    <ellipse class="cls-10" cx="131.97" cy="93.35" rx="10.06" ry="7.08" transform="translate(35.64 223.16) rotate(-88.7)"/>
    <circle class="cls-5" cx="131.81" cy="98.3" r="3.78"/>
  </g>
</svg>
