<svg id="Layer_1" data-name="Layer 1" xmlns="http://www.w3.org/2000/svg" width="254.01" height="250" viewBox="0 0 254.01 250">
  <defs>
    <style>
      .cls-1 {
        fill: #f93;
      }

      .cls-2 {
        fill: #f4eded;
      }

      .cls-3 {
        fill: #b26b6b;
      }

      .cls-4 {
        fill: #302d2d;
      }

      .cls-5 {
        fill: #dbd1d1;
      }

      .cls-6 {
        fill: #f4f2f2;
      }

      .cls-7 {
        fill: #19180d;
      }

      .cls-8 {
        fill: #f7f7f7;
        stroke: #b26b6b;
        stroke-width: 0.64px;
      }

      .cls-8, .cls-9 {
        stroke-miterlimit: 10;
      }

      .cls-9 {
        fill: none;
        stroke: #514d4d;
        stroke-width: 1.92px;
      }

      .cls-10 {
        fill: #383535;
      }
    </style>
  </defs>
  <g>
    <path class="cls-1" d="M197.1,115.78a40.18,40.18,0,0,0-5.23,8.68c-5.54,12.87-2.23,25.42-1.78,27,3,10.67,7.85,10.64,9.1,19.72,1.2,8.66-1.83,18.89-6.25,19.7-6.7,1.22-14.59-19.5-18.11-18.17-2.12.8.46,8.44-1.28,20.42-.19,1.31-2.69,17.81-7.65,18.23S156.32,195.29,154,196c-1.5.43.2,7.17-.63,15.43-1.11,11.06-6.7,24.14-11.38,24.11-8.56-.06-13.52-44-18.21-43.49-3.16.33-2.56,20.38-6.3,20.81-4.51.51-9.32-28.11-16.87-28-4.83.08-7.06,11.82-10.86,11.4-5.22-.59-4.5-23.06-10.58-24.11-4.86-.84-8.2,13-13.91,12.55-6.83-.52-16-21.32-10.23-36.24,1.37-3.52,3.57-6.69,2.76-11.27-1-5.61-5.58-8.16-9-11.91-6.05-6.55-6.66-14.58-7.58-26.72-.52-6.91-2.49-33,16.1-55.26,20.53-24.54,50.83-26.11,59.58-26.56,8.09-.42,31.06-1.6,52.08,13.13C202,53.05,208.21,100.32,197.1,115.78Z"/>
    <ellipse class="cls-2" cx="101.86" cy="86.94" rx="11.78" ry="15.71" transform="translate(-8.64 11.29) rotate(-6.08)"/>
    <path class="cls-3" d="M119.15,138.2c-6.23,2.79-15.24-3.19-14.57-6.43.4-1.92,4.4-3.89,7-3.31,1.94.42,2.16,2,4.13,2,1.7,0,2.17-1.1,4.64-1.49.64-.09,3.11-.48,3.95.48C125.69,131,123.22,136.38,119.15,138.2Z"/>
    <ellipse class="cls-4" cx="104.54" cy="91.06" rx="7.77" ry="11.05" transform="translate(-12.01 15.98) rotate(-8.27)"/>
    <circle class="cls-5" cx="106.01" cy="97.41" r="4.15"/>
    <ellipse class="cls-6" cx="130.05" cy="86.91" rx="17.18" ry="12.6" transform="translate(24.89 202.7) rotate(-81.51)"/>
    <path class="cls-7" d="M151,111.05c2.86,5.73-16.06,29.11-38.29,27.82-21.65-1.25-37.7-25.41-34.36-30.76,2.18-3.51,11.69,2.67,34,3.93C137.38,113.45,149,107.07,151,111.05Z"/>
    <rect class="cls-8" x="117.65" y="112.01" width="7.31" height="10.98"/>
    <rect class="cls-8" x="108.92" y="112.54" width="7.31" height="10.98" transform="translate(10.72 -9.37) rotate(5)"/>
    <path class="cls-9" d="M151,111.05c2.86,5.73-16.06,29.11-38.29,27.82-21.65-1.25-37.7-25.41-34.36-30.76,2.18-3.51,11.69,2.67,34,3.93C137.38,113.45,149,107.07,151,111.05Z"/>
    <ellipse class="cls-10" cx="126.73" cy="88.79" rx="11.05" ry="7.77" transform="translate(35.07 213.46) rotate(-88.7)"/>
    <circle class="cls-5" cx="126.55" cy="94.23" r="4.15"/>
  </g>
</svg>
