<svg id="Layer_1" data-name="Layer 1" xmlns="http://www.w3.org/2000/svg" width="254.01" height="250" viewBox="0 0 254.01 250">
  <defs>
    <style>
      .cls-1 {
        fill: #f74f4f;
      }

      .cls-2 {
        fill: #f4eded;
      }

      .cls-3 {
        fill: #b26b6b;
      }

      .cls-4 {
        fill: #302d2d;
      }

      .cls-5 {
        fill: #dbd1d1;
      }

      .cls-6 {
        fill: #f4f2f2;
      }

      .cls-7 {
        fill: #19180d;
      }

      .cls-8 {
        fill: #f7f7f7;
        stroke: #b26b6b;
        stroke-width: 0.52px;
      }

      .cls-8, .cls-9 {
        stroke-miterlimit: 10;
      }

      .cls-9 {
        fill: none;
        stroke: #514d4d;
        stroke-width: 1.56px;
      }

      .cls-10 {
        fill: #383535;
      }

      .cls-11 {
        opacity: 0.3;
      }

      .cls-12 {
        fill: #fad5ed;
      }
    </style>
  </defs>
  <g>
    <path class="cls-1" d="M190.5,117.07a32.4,32.4,0,0,0-4.25,7.05,35,35,0,0,0-1.44,21.93c2.42,8.65,6.37,8.63,7.39,16,1,7-1.49,15.32-5.08,16-5.43,1-11.84-15.82-14.69-14.74-1.73.65.37,6.84-1,16.57-.16,1.06-2.19,14.45-6.22,14.79s-7.77-13.05-9.68-12.51c-1.22.34.16,5.82-.51,12.52-.9,9-5.44,19.6-9.24,19.57-7,0-11-35.71-14.78-35.3-2.56.27-2.08,16.54-5.11,16.89-3.66.42-7.56-22.81-13.69-22.71-3.92.06-5.73,9.59-8.82,9.25-4.23-.48-3.65-18.71-8.58-19.57-3.94-.68-6.65,10.54-11.29,10.19-5.54-.42-13-17.3-8.3-29.41,1.11-2.86,2.9-5.43,2.24-9.15-.81-4.55-4.53-6.62-7.34-9.67-4.91-5.31-5.4-11.83-6.15-21.68-.42-5.61-2-26.8,13.07-44.85C93.65,38.31,118.24,37,125.34,36.67c6.56-.34,25.21-1.3,42.26,10.66C194.46,66.16,199.52,104.52,190.5,117.07Z"/>
    <ellipse class="cls-2" cx="126.96" cy="97.38" rx="9.56" ry="12.75" transform="translate(-9.61 14) rotate(-6.08)"/>
    <path class="cls-3" d="M141,139c-5.05,2.26-12.37-2.6-11.83-5.22.32-1.56,3.57-3.16,5.73-2.69,1.57.34,1.75,1.61,3.35,1.64,1.38,0,1.76-.9,3.76-1.21.52-.08,2.52-.39,3.21.39C146.3,133.15,144.29,137.51,141,139Z"/>
    <ellipse class="cls-4" cx="129.14" cy="100.72" rx="6.31" ry="8.96" transform="translate(-13.14 19.62) rotate(-8.27)"/>
    <circle class="cls-5" cx="130.32" cy="105.88" r="3.37"/>
    <ellipse class="cls-6" cx="149.84" cy="97.36" rx="13.94" ry="10.22" transform="translate(31.42 231.17) rotate(-81.51)"/>
    <path class="cls-7" d="M166.86,117c2.32,4.65-13,23.63-31.07,22.58-17.57-1-30.6-20.62-27.89-25,1.77-2.84,9.49,2.17,27.62,3.19C155.78,118.9,165.25,113.72,166.86,117Z"/>
    <rect class="cls-8" x="139.77" y="117.73" width="5.93" height="8.91"/>
    <rect class="cls-8" x="132.68" y="118.16" width="5.93" height="8.91" transform="translate(11.21 -11.36) rotate(5)"/>
    <path class="cls-9" d="M166.86,117c2.32,4.65-13,23.63-31.07,22.58-17.57-1-30.6-20.62-27.89-25,1.77-2.84,9.49,2.17,27.62,3.19C155.78,118.9,165.25,113.72,166.86,117Z"/>
    <ellipse class="cls-10" cx="147.14" cy="98.89" rx="8.96" ry="6.31" transform="translate(44.93 243.73) rotate(-88.7)"/>
    <circle class="cls-5" cx="147" cy="103.3" r="3.37"/>
    <g class="cls-11">
      <path class="cls-12" d="M116.28,49.06a8.4,8.4,0,0,0-.55,2.24,4.2,4.2,0,0,0,2.11,4.2c1.8,1,3.08,0,4.28,1.06a2.83,2.83,0,0,1,.23,4c-1.64,1.46-5.7,0-6.5.89-.48.53.93,1.12,1.61,3.16.08.23,1,3.06-.27,4.07s-4-.45-4.61.1c-.36.35.74,1,1.31,2.32.76,1.79.53,4.73-.7,5.63-2.26,1.63-7.75-3.68-8.94-2.7-.8.65,1.27,3.4.33,4.18-1.14.94-5.13-2.22-7.11-.75-1.26.94-.73,3-1.77,3.71-1.43.92-3.38-2.42-5.08-1.4-1.36.81-.92,3.43-2.47,4.47-1.84,1.23-6.25,0-6.14-3.2,0-.77.3-1.65-.35-2.14s-2.25-.09-3.52,0c-2.21.23-3.14-.8-4.54-2.35-.79-.89-3.8-4.23-1-11,3.06-7.45,10.88-13.5,13.14-15.24,2.09-1.62,8-6.21,15-8.15C111.58,39.18,117.73,44.72,116.28,49.06Z"/>
    </g>
  </g>
</svg>
