<?xml version="1.0" encoding="utf-8"?>
<!-- Generator: Adobe Illustrator 24.1.2, SVG Export Plug-In . SVG Version: 6.00 Build 0)  -->
<svg version="1.1" id="Layer_1" xmlns="http://www.w3.org/2000/svg" xmlns:xlink="http://www.w3.org/1999/xlink" x="0px" y="0px"
	 viewBox="0 0 254 250" style="enable-background:new 0 0 254 250;" xml:space="preserve">
<style type="text/css">
	.st0{fill:#FFFF33;}
	.st1{fill:#F4EDED;stroke:#333333;stroke-width:0.62;stroke-miterlimit:10;}
	.st2{fill:#B26B6B;}
	.st3{fill:#302D2D;}
	.st4{fill:#DBD1D1;}
	.st5{fill:#F4F2F2;stroke:#333333;stroke-width:0.62;stroke-miterlimit:10;}
	.st6{fill:#19180D;}
	.st7{fill:#F7F7F7;stroke:#B26B6B;stroke-width:0.62;stroke-miterlimit:10;}
	.st8{fill:none;stroke:#514D4D;stroke-width:1.86;stroke-miterlimit:10;}
	.st9{fill:#383535;}
</style>
<g>
	<path class="st0" d="M209.8,119.8c-2.1,2.4-3.9,5.1-5.4,7.9c-5.7,11.8-2.3,23.2-1.8,24.7c3.1,9.7,8.1,9.7,9.3,18
		c1.2,7.9-1.9,17.2-6.4,18c-6.9,1.1-15-17.8-18.6-16.6c-2.2,0.7,0.5,7.7-1.3,18.6c-0.2,1.2-2.8,16.3-7.9,16.6s-9.8-14.7-12.2-14.1
		c-1.6,0.4,0.2,6.6-0.6,14.1c-1.1,10.1-6.9,22-11.7,22c-8.8-0.1-13.9-40.2-18.7-39.7c-3.2,0.3-2.6,18.6-6.5,19
		c-4.6,0.5-9.6-25.6-17.3-25.5c-5,0.1-7.2,10.8-11.1,10.4c-5.3-0.5-4.6-21-10.8-22c-5-0.8-8.4,11.9-14.3,11.5
		c-7-0.5-16.5-19.5-10.5-33.1c1.4-3.2,3.7-6.1,2.8-10.3c-1-5.1-5.7-7.4-9.3-10.9c-6.2-6-6.8-13.3-7.8-24.4
		c-0.5-6.3-2.6-30.1,16.5-50.5c21-22.4,52.1-23.8,61.1-24.2c8.3-0.4,31.9-1.5,53.4,12C214.8,62.6,221.2,105.7,209.8,119.8z"/>
	<ellipse transform="matrix(0.9842 -0.1773 0.1773 0.9842 -14.8 21.3442)" class="st1" cx="112.1" cy="93.5" rx="12.1" ry="14.4"/>
	<path class="st2" d="M129.8,140.3c-6.4,2.6-15.6-2.9-15-5.9c0.4-1.8,4.5-3.6,7.2-3c2,0.4,2.2,1.8,4.2,1.8c1.8,0,2.2-1,4.8-1.4
		c0.6-0.1,3.2-0.4,4,0.4C136.5,133.7,134,138.6,129.8,140.3z"/>
	<ellipse transform="matrix(0.9768 -0.2141 0.2141 0.9768 -18.162 26.8302)" class="st3" cx="114.8" cy="97.3" rx="7.9" ry="10.1"/>
	<ellipse class="st4" cx="116.3" cy="103.1" rx="4.3" ry="3.8"/>
	<ellipse transform="matrix(0.2334 -0.9724 0.9724 0.2334 17.1725 208.7388)" class="st5" cx="141" cy="93.5" rx="15.7" ry="12.9"/>
	<path class="st6" d="M162.5,115.5c2.9,5.2-16.5,26.6-39.3,25.4c-22.2-1.2-38.7-23.2-35.2-28.1c2.2-3.2,12,2.4,34.9,3.6
		C148.5,117.7,160.5,111.9,162.5,115.5z"/>
	<rect x="128.3" y="116.4" class="st7" width="7.5" height="10"/>
	<polygon class="st7" points="126.3,127.2 118.8,126.6 119.8,116.6 127.3,117.2 	"/>
	<path class="st8" d="M162.5,115.5c2.9,5.2-16.5,26.6-39.3,25.4c-22.2-1.2-38.7-23.2-35.2-28.1c2.2-3.2,12,2.4,34.9,3.6
		C148.5,117.7,160.5,111.9,162.5,115.5z"/>
	
		<ellipse transform="matrix(3.455070e-02 -0.9994 0.9994 3.455070e-02 37.6684 229.4159)" class="st9" cx="137.6" cy="95.2" rx="10.1" ry="8"/>
	<ellipse class="st4" cx="137.4" cy="100.2" rx="4.3" ry="3.8"/>
</g>
</svg>
