<svg id="Layer_1" data-name="Layer 1" xmlns="http://www.w3.org/2000/svg" xmlns:xlink="http://www.w3.org/1999/xlink" viewBox="0 0 1988.3 1162.64">
  <defs>
    <style>
      .cls-1, .cls-20, .cls-35, .cls-41, .cls-46 {
        fill: none;
      }

      .cls-10, .cls-2, .cls-4, .cls-5, .cls-7, .cls-9 {
        stroke: #030303;
      }

      .cls-10, .cls-2, .cls-20, .cls-21, .cls-22, .cls-23, .cls-24, .cls-25, .cls-26, .cls-34, .cls-35, .cls-4, .cls-40, .cls-41, .cls-45, .cls-46, .cls-5, .cls-58, .cls-59, .cls-60, .cls-61, .cls-62, .cls-7, .cls-9 {
        stroke-miterlimit: 10;
      }

      .cls-2 {
        stroke-width: 1.01px;
      }

      .cls-24, .cls-25, .cls-26, .cls-3 {
        isolation: isolate;
      }

      .cls-4 {
        fill: #323232;
        stroke-width: 0.91px;
      }

      .cls-5 {
        fill: #191919;
      }

      .cls-6 {
        opacity: 0.62;
      }

      .cls-7 {
        fill: #020202;
      }

      .cls-8 {
        opacity: 0.6;
      }

      .cls-9 {
        fill: #0f0f0f;
      }

      .cls-10 {
        fill: #171717;
      }

      .cls-11 {
        clip-path: url(#clip-path);
      }

      .cls-12 {
        fill: url(#linear-gradient);
      }

      .cls-13 {
        fill: url(#linear-gradient-2);
      }

      .cls-14 {
        fill: #c7b299;
      }

      .cls-15 {
        fill: #666;
      }

      .cls-16, .cls-59, .cls-61 {
        fill: #fff;
      }

      .cls-17 {
        fill: #f90;
      }

      .cls-18 {
        fill: #fc6;
      }

      .cls-19 {
        fill: #ccc;
      }

      .cls-20, .cls-43, .cls-44, .cls-58, .cls-59, .cls-60, .cls-61, .cls-62 {
        stroke: #333;
      }

      .cls-20 {
        stroke-width: 0.71px;
      }

      .cls-21, .cls-22, .cls-24, .cls-25, .cls-26 {
        fill: #fbb03b;
      }

      .cls-21, .cls-22, .cls-23, .cls-24, .cls-25, .cls-26 {
        stroke: #fff;
      }

      .cls-21, .cls-24, .cls-25, .cls-26 {
        stroke-width: 0.86px;
      }

      .cls-22 {
        stroke-width: 1.69px;
      }

      .cls-23 {
        fill: #339;
        stroke-width: 0.15px;
      }

      .cls-24 {
        opacity: 0.77;
      }

      .cls-25 {
        opacity: 0.31;
      }

      .cls-26 {
        opacity: 0.72;
      }

      .cls-27 {
        fill: #f74f4f;
      }

      .cls-28, .cls-43 {
        fill: #f4eded;
      }

      .cls-29 {
        fill: #b26b6b;
      }

      .cls-30 {
        fill: #302d2d;
      }

      .cls-31 {
        fill: #dbd1d1;
      }

      .cls-32, .cls-44 {
        fill: #f4f2f2;
      }

      .cls-33 {
        fill: #19180d;
      }

      .cls-34, .cls-40, .cls-45 {
        fill: #f7f7f7;
        stroke: #b26b6b;
      }

      .cls-34 {
        stroke-width: 0.28px;
      }

      .cls-35, .cls-41, .cls-46 {
        stroke: #514d4d;
      }

      .cls-35 {
        stroke-width: 0.83px;
      }

      .cls-36 {
        fill: #383535;
      }

      .cls-37 {
        opacity: 0.3;
      }

      .cls-38 {
        fill: #fad5ed;
      }

      .cls-39 {
        fill: #693;
      }

      .cls-40 {
        stroke-width: 0.23px;
      }

      .cls-41 {
        stroke-width: 0.7px;
      }

      .cls-42 {
        fill: #ff3;
      }

      .cls-43 {
        stroke-miterlimit: 10;
        stroke-width: 0.26px;
      }

      .cls-44 {
        stroke-miterlimit: 10;
        stroke-width: 0.26px;
      }

      .cls-45 {
        stroke-width: 0.26px;
      }

      .cls-46 {
        stroke-width: 0.8px;
      }

      .cls-47 {
        fill: #e0dfd9;
      }

      .cls-48 {
        clip-path: url(#clip-path-11);
      }

      .cls-49 {
        fill: #393380;
        opacity: 0.59;
      }

      .cls-50 {
        fill: #7a3686;
      }

      .cls-51 {
        fill: #fc3;
      }

      .cls-52 {
        fill: #bf7326;
      }

      .cls-53 {
        fill: #c93;
      }

      .cls-54 {
        fill: #ffc285;
      }

      .cls-55 {
        fill: #dab6e0;
        opacity: 0.54;
      }

      .cls-56 {
        fill: #e0c0a0;
        opacity: 0.38;
      }

      .cls-57 {
        fill: #ffe085;
        opacity: 0.53;
      }

      .cls-58 {
        stroke-width: 0.21px;
      }

      .cls-59 {
        stroke-width: 0.21px;
      }

      .cls-60 {
        stroke-width: 0.29px;
      }

      .cls-61 {
        stroke-width: 0.17px;
      }

      .cls-62 {
        stroke-width: 0.23px;
      }
    </style>
    <clipPath id="clip-path" transform="translate(43.52 1.51)">
      <ellipse class="cls-1" cx="1033.68" cy="634.75" rx="400.49" ry="392.09"/>
    </clipPath>
    <linearGradient id="linear-gradient" x1="-358.05" y1="165.67" x2="1342.92" y2="165.67" gradientTransform="translate(607.72 250.19)" gradientUnits="userSpaceOnUse">
      <stop offset="0" stop-color="#cce0f4"/>
      <stop offset="0.06" stop-color="#c3dcf2"/>
      <stop offset="0.17" stop-color="#a9d2ee"/>
      <stop offset="0.31" stop-color="#80c2e7"/>
      <stop offset="0.46" stop-color="#47acde"/>
      <stop offset="0.57" stop-color="#1e9cd7"/>
      <stop offset="0.87" stop-color="#0075be"/>
      <stop offset="0.99" stop-color="#005b97"/>
    </linearGradient>
    <linearGradient id="linear-gradient-2" x1="-357.94" y1="392.26" x2="1343.01" y2="392.26" gradientTransform="translate(564.2 248.68)" xlink:href="#linear-gradient"/>
    <clipPath id="clip-path-11" transform="translate(43.52 1.51)">
      <ellipse class="cls-1" cx="955.92" cy="649.65" rx="389.73" ry="381.55"/>
    </clipPath>
  </defs>
  <rect class="cls-2" x="40.47" y="0.5" width="1930.26" height="1106.3"/>
  <image class="cls-3" width="784" height="212" transform="translate(0 980.92) scale(1 0.73)" xlink:href="../../../04.01.01%20design/Design/Backgrund%20game/10C2E7D2.png"/>
  <path class="cls-4" d="M213,766.53s30.24-34.15,56.33-34.15,79.25,31.41,159.36,24.22,198.59-16.52,198.59-16.52,20.39-30.9,76.82-7.7,101.28,34.15,101.28,34.15Z" transform="translate(43.52 1.51)"/>
  <path class="cls-5" d="M3.3,0C173.9,5.2,135.6-1.6,173.9,2S318,106.7,310.2,162.8s-29.1-11-29.1-11l-19.5,26.3L245,132.3l-18-12.9-34.9,42-2.1-69-9.6-44.7L139.1,36.6,86.5,39.1s30.4-10.2,85.2,53,51.8-24.8,54.8,63.2,10.5,138-1.2,182.4-35.1,66.4-35.1,66.4l9.8-63.5L173.2,388l3.1-91.2-23,61.3,18.9-140.8-17.6,45.4,1-78.5-36.1,64.3L136.7,165l-10.8-23.5s1.3-21.2-7.2,11.6,6.9,91.3-8.5,32.8-17.9-25.7-17.9-25.7L76.6,201.3l-2.1-77.4L56.4,201.1s55.3,22.9,71.8,77.2,92.5,194,101.7,271.6S196,506.1,196,506.1l-6,80.5L152.2,457.8l-.7,55.1-22.3-74.5-2.7,58.3-29.7-134L71.9,417.6,76.1,317,36.3,435.3,55.6,261.6l-33,60.1A3860.2,3860.2,0,0,1,86,808c5.8,88.2,8.4,172.8,8.4,253.1-3.2,4.5-15.6,21.1-38.8,26.7-29.4,7.1-52.3-9.3-55.6-11.7Z" transform="translate(43.52 1.51)"/>
  <g class="cls-6">
    <g>
      <ellipse class="cls-7" cx="1421.52" cy="332.81" rx="9.1" ry="8.9"/>
      <ellipse class="cls-7" cx="1434.32" cy="327.41" rx="12.7" ry="11.9"/>
      <ellipse class="cls-7" cx="1448.42" cy="327.11" rx="15.2" ry="14.3"/>
      <ellipse class="cls-7" cx="1461.22" cy="332.81" rx="9.1" ry="8.9"/>
    </g>
    <g>
      <ellipse class="cls-7" cx="1423.4" cy="334.54" rx="5.4" ry="8.2" transform="translate(1088.82 1748.5) rotate(-88.24)"/>
      <path class="cls-7" d="M1400.5,330.5c.3,4,7.8,7,13.9,6.4,4.2-.4,8.6-2.6,9-5.7.5-3.8-5.2-7.3-11.2-7.5S1400.2,326.8,1400.5,330.5Z" transform="translate(43.52 1.51)"/>
      <path class="cls-7" d="M1385.4,329.9c.8,3.3,7.4,5.4,12.1,5.8,6.2.5,14.4-1.3,15.5-4.9,1.2-3.9-5.9-8.8-13.5-9S1384.4,325.9,1385.4,329.9Z" transform="translate(43.52 1.51)"/>
      <path class="cls-7" d="M1375.3,333.5c.2,3,6.5,5.8,12,5.3,3.7-.3,8.3-2.1,8.4-5.1s-4.3-5.1-8.1-5.6C1381.9,327.2,1375.1,330.2,1375.3,333.5Z" transform="translate(43.52 1.51)"/>
    </g>
    <g class="cls-8">
      <ellipse class="cls-7" cx="1430.22" cy="333.71" rx="7.6" ry="7.1"/>
      <ellipse class="cls-7" cx="1440.92" cy="329.41" rx="10.6" ry="9.4"/>
      <ellipse class="cls-7" cx="1452.72" cy="329.21" rx="12.7" ry="11.3"/>
      <ellipse class="cls-7" cx="1463.42" cy="333.71" rx="7.6" ry="7.1"/>
    </g>
  </g>
  <g>
    <g>
      <ellipse class="cls-9" cx="1608.62" cy="245.51" rx="47.5" ry="47.7"/>
      <ellipse class="cls-9" cx="1675.22" cy="216.51" rx="66.2" ry="63.3"/>
      <ellipse class="cls-9" cx="1749.02" cy="215.21" rx="79.5" ry="76.2"/>
      <ellipse class="cls-9" cx="1815.62" cy="245.51" rx="47.5" ry="47.7"/>
    </g>
    <g>
      <ellipse class="cls-9" cx="1801.65" cy="261.04" rx="28.8" ry="43" transform="translate(1525.47 2054.71) rotate(-88.13)"/>
      <path class="cls-9" d="M1682.1,239.8c1.5,21.6,40.5,37.5,72.6,34.2,21.6-2.3,44.9-13.8,47.1-30.3,2.7-20.1-27-39.1-58.6-40.1C1711.2,202.5,1680.8,220,1682.1,239.8Z" transform="translate(43.52 1.51)"/>
      <path class="cls-9" d="M1603.4,236.4c4.4,17.9,38.5,28.8,63,31,32.2,3,74.9-6.6,80.8-26.3,6.3-20.9-30.8-47-70.4-48.3S1598.4,215.2,1603.4,236.4Z" transform="translate(43.52 1.51)"/>
      <path class="cls-9" d="M1551,255.5c1,16.3,33.9,30.8,62.6,28.4,19.2-1.6,43.4-11.5,43.9-27.4s-22.6-27.5-42.1-30.2C1585,222.1,1549.9,238.1,1551,255.5Z" transform="translate(43.52 1.51)"/>
    </g>
    <g class="cls-8">
      <ellipse class="cls-9" cx="1654.02" cy="250.11" rx="39.7" ry="37.8"/>
      <ellipse class="cls-9" cx="1709.62" cy="227.21" rx="55.3" ry="50.1"/>
      <ellipse class="cls-9" cx="1771.22" cy="226.11" rx="66.4" ry="60.4"/>
      <ellipse class="cls-9" cx="1826.92" cy="250.11" rx="39.7" ry="37.8"/>
    </g>
  </g>
  <g>
    <g>
      <ellipse class="cls-10" cx="494.24" cy="591.76" rx="13.4" ry="13.5"/>
      <ellipse class="cls-10" cx="513.04" cy="583.56" rx="18.7" ry="17.9"/>
      <ellipse class="cls-10" cx="533.94" cy="583.16" rx="22.5" ry="21.6"/>
      <ellipse class="cls-10" cx="552.74" cy="591.76" rx="13.4" ry="13.5"/>
    </g>
    <g>
      <ellipse class="cls-10" cx="517.56" cy="595.06" rx="8.1" ry="12.2" transform="matrix(0.03, -1, 1, 0.03, -50.55, 1094.44)"/>
      <path class="cls-10" d="M483.82,589.05c.4,6.1,11.5,10.6,20.5,9.7,6.1-.6,12.7-3.9,13.3-8.6.8-5.7-7.6-11.1-16.6-11.3S483.42,583.45,483.82,589.05Z" transform="translate(43.52 1.51)"/>
      <path class="cls-10" d="M461.52,588.05c1.2,5.1,10.9,8.1,17.8,8.8,9.1.8,21.2-1.9,22.9-7.4,1.8-5.9-8.7-13.3-19.9-13.7S460.12,582.05,461.52,588.05Z" transform="translate(43.52 1.51)"/>
      <path class="cls-10" d="M446.72,593.55c.3,4.6,9.6,8.7,17.7,8,5.4-.5,12.3-3.3,12.4-7.7s-6.4-7.8-11.9-8.5C456.32,584.05,446.42,588.55,446.72,593.55Z" transform="translate(43.52 1.51)"/>
    </g>
    <g class="cls-8">
      <ellipse class="cls-10" cx="507.04" cy="593.06" rx="11.2" ry="10.7"/>
      <ellipse class="cls-10" cx="522.74" cy="586.56" rx="15.6" ry="14.2"/>
      <ellipse class="cls-10" cx="540.24" cy="586.26" rx="18.8" ry="17.1"/>
      <ellipse class="cls-10" cx="555.94" cy="593.06" rx="11.2" ry="10.7"/>
    </g>
  </g>
  <g id="Layer_1-2" data-name="Layer 1">
    <g class="cls-11">
      <g>
        <rect class="cls-12" x="249.67" y="184" width="1700.98" height="463.72"/>
        <image class="cls-3" width="1995" height="514" transform="translate(219.27 713) scale(0.89 0.87)" xlink:href="../../../04.01.01%20design/Design/Backgrund%20game/60C10674.png"/>
        <path class="cls-13" d="M1907.12,746.84c-4.52-1.22-96.52,32.3-208.14,75.1-21.67,8.33-52.31,9.64-98.31,2.6-44.49-6.68-390.37-47.92-520.1-47.14-34.55.26-273.95,4.17-380.87-.09-211.17-8.42-501.28-38.72-492.84-33.68-.54-23.53-.71-290.86-.54-290.86H1907.21V746.84Z" transform="translate(43.52 1.51)"/>
        <line class="cls-1" x1="1854.74" y1="526" x2="1907.93" y2="599.45"/>
      </g>
    </g>
    <g class="cls-11">
      <g class="cls-3">
        <image class="cls-3" width="784" height="212" transform="translate(219.37 982.9) scale(0.89 0.81)" xlink:href="../../../04.01.01%20design/Design/Backgrund%20game/60C10675.png"/>
      </g>
    </g>
    <g class="cls-11">
      <g class="cls-3">
        <image class="cls-3" width="249" height="257" transform="translate(335.76 191.73) scale(0.89 0.87)" xlink:href="../../../04.01.01%20design/Design/Backgrund%20game/60C1067C.png"/>
      </g>
    </g>
    <g class="cls-11">
      <path class="cls-14" d="M253.12,767.5s27.8-34.64,51.77-34.64,72.82,31.86,146.43,24.57,182.49-16.76,182.49-16.76,18.74-31.34,70.6-7.81,93.06,34.64,93.06,34.64Z" transform="translate(43.52 1.51)"/>
    </g>
    <g class="cls-11">
      <path class="cls-1" d="M269.55,706l27.35-6.68" transform="translate(43.52 1.51)"/>
    </g>
    <g class="cls-11">
      <path class="cls-14" d="M742.06,719.75s4.7-22.23,8.7-22.23,12.26,20.41,24.69,15.72,30.72-10.77,30.72-10.77,3.2-20.05,11.9-5,15.72,22.22,15.72,22.22H742.06Z" transform="translate(43.52 1.51)"/>
    </g>
    <g class="cls-11">
      <g>
        <g>
          <path class="cls-15" d="M1256.93,831.84l-28.42,2.25,1.42,1.22S1302,831,1304,831s7.81,0,5-1.65S1256.93,831.84,1256.93,831.84Z" transform="translate(43.52 1.51)"/>
          <path class="cls-15" d="M1305.32,840.78c-1.51-.17-1.86-3.39-7.55-9.55-7.1-7.64-14.29-11.29-13.41-12.16,1.16-1,15.28,3.56,21.05,10.42C1310.29,835.4,1307.27,841,1305.32,840.78Z" transform="translate(43.52 1.51)"/>
          <path class="cls-15" d="M1279.75,828.36l-1.07-1c-2.4-2.43-2.13-2.43-2.84-2.86-1.87-1.48-3.2-1.31-4.88-2.78-.8-.7-.54-.78-1.51-2-.89-1-1.51-1.39-4.27-3.73a24.6,24.6,0,0,1-3.9-4.08c-.36-.52-.63-1-.36-1.13.53-.26,2.22.61,3.64,1.13,3.2,1.21,5.33.87,7.55,1.3a89.06,89.06,0,0,1,13.32,3.91,62.22,62.22,0,0,1,15.27,8.59,71.38,71.38,0,0,0-12.16.7A47.17,47.17,0,0,0,1279.75,828.36Z" transform="translate(43.52 1.51)"/>
          <path class="cls-15" d="M1287.56,836.44l.89.87c2,1.82,2,1.82,2.4,2.17.8,1.13-.27,1.39.62,2.43.44.52.8.52,1.69,1.21a15,15,0,0,1,2.13,2.43c1.51,1.83,2,2.17,2.66,2.26a2.18,2.18,0,0,0,1.07-.09,15.49,15.49,0,0,0,3.9-2.34,13.46,13.46,0,0,0,3.91-4.25,9.78,9.78,0,0,0-.09-8.08,54.33,54.33,0,0,1-9.85,2.52A65.87,65.87,0,0,1,1287.56,836.44Z" transform="translate(43.52 1.51)"/>
          <path class="cls-15" d="M1278.06,825.85a9.07,9.07,0,0,0,1,1c2.13,2.34,2.31,2.25,2.57,2.78.8,1.38-.62,1.56.36,2.86.53.61.88.61,2,1.56a14.87,14.87,0,0,1,2.22,3c.71,1,1.51,2.51,2.84,2.86a2.24,2.24,0,0,0,1.33-.09,22.6,22.6,0,0,0,4.18-1.3c5.15-2.78,5.33-2.26,6.84-3.56a10.66,10.66,0,0,0,3.64-6.08,58.38,58.38,0,0,0-14.92-3.47A46.66,46.66,0,0,0,1278.06,825.85Z" transform="translate(43.52 1.51)"/>
          <path class="cls-15" d="M1277.17,832.7c-42.36,1.13-43.69,1.22-43.69,1.22s-1.6.69-1,.61,50.35-1.74,50.35-1.74l-.44-.43Z" transform="translate(43.52 1.51)"/>
        </g>
        <g>
          <path class="cls-16" d="M1240.94,802.92l-15.81,31.52,2.22,1s42.36-78.93,43.78-81.1,5.33-8.07,1.07-7.38S1240.94,802.92,1240.94,802.92Z" transform="translate(43.52 1.51)"/>
          <path class="cls-17" d="M1283.3,768.89c-1.42,1.3-6.75-3.56-19.71-7.12-14.48-4-23.27-2.17-23.63-4.08-.44-2.52,13.68-9.81,26.47-6.25C1278.5,754.91,1285.25,767.07,1283.3,768.89Z" transform="translate(43.52 1.51)"/>
          <path class="cls-17" d="M1248.58,775.49c-.45-.09-1.07-.35-2-.61-4.35-1.39-4.17-1.56-5.24-1.65-2.84-.35-3.46,1.13-6,.52-1.34-.26-1.16-.69-3.11-1.47-1.69-.7-2.31-.61-6.31-1.39a19.12,19.12,0,0,1-6.12-2.17c-.71-.35-1.25-.78-1.25-1.22,0-.78,1.78-1.21,3.11-1.74,3-1.21,3.82-3.64,5.6-5a50.54,50.54,0,0,1,11.81-7,46.9,46.9,0,0,1,19.71-3.22,58.23,58.23,0,0,0-7,13A70.09,70.09,0,0,0,1248.58,775.49Z" transform="translate(43.52 1.51)"/>
          <path class="cls-17" d="M1264.56,780.7a12.53,12.53,0,0,1,1.78.52c4.17,1.13,4.17.87,5,1.3,2.31,1.13,1.87,2.69,4.17,3.56,1.16.44,1.34.09,3.2.35,1.69.26,2.13.69,5.6,2.08,4.35,1.74,5.32,1.83,6,1.39a1.89,1.89,0,0,0,.62-1.47,46.23,46.23,0,0,0-5.15-20.49,35.71,35.71,0,0,0-12.52-12.59,60.93,60.93,0,0,1-3.29,14.15A58.65,58.65,0,0,1,1264.56,780.7Z" transform="translate(43.52 1.51)"/>
          <path class="cls-18" d="M1244.49,773.32c.45.17,1.07.43,1.87.69,4.26,1.48,4.35,1.31,5.15,1.74,2.4,1.39,1.6,3.12,4,4.17,1.16.52,1.43.17,3.38.6,1.77.44,2.22.87,5.68,2.7,2,1,4.8,2.77,6.22,1.91a2,2,0,0,0,.8-1.57c1.24-5,1.15-6.68,1.15-6.68-.44-10,.36-9.38-.53-13a33.54,33.54,0,0,0-6.13-12.76,39.6,39.6,0,0,0-14.38,9.9A36.3,36.3,0,0,0,1244.49,773.32Z" transform="translate(43.52 1.51)"/>
        </g>
        <path class="cls-19" d="M1254,784c-24.68,44.36-25.39,46-25.39,46s-.18,3,.18,2.17,28.94-53.74,28.94-53.74l-.88-.26Z" transform="translate(43.52 1.51)"/>
      </g>
    </g>
    <g class="cls-11">
      <g>
        <g class="cls-3">
          <path class="cls-16" d="M803.33,361.18c-.53.78-.8,1.12-1.33,1.91a4.44,4.44,0,0,0-1,.08c-1.06.35-1.69.52-2.75,1-1.51.61-2.31.87-3.82,1.56-1.78,1.13-2.66,1.74-4.44,2.95L784.68,373c-2.31,2.26-3.37,3.39-5.68,5.65-2,1.56-3,2.34-5.06,4-1.78,2.08-2.67,3.13-4.44,5.3-1.42,1.65-2.13,2.43-3.55,4.08-1.51,2.25-2.31,3.38-3.82,5.64-1.16,1.56-1.69,2.34-2.84,4-1.07,1.48-1.6,2.17-2.76,3.65-.35,1.22-.53,1.82-.89,3.13-.71,1.47-1.06,2.17-1.68,3.64-.89,1.83-1.33,2.69-2.22,4.52-1.07,1.56-1.51,2.34-2.58,3.82-1.33,1.65-2,2.43-3.37,4.08l-3.38,3.3c-1.15.17-1.77.26-3,.52-.71-.44-1.06-.61-1.77-1s-1.07-.7-1.78-1.13c-.62-.7-.89-1-1.51-1.74-.09-1.47-.09-2.17-.17-3.64.08-1.91.17-2.87.26-4.87.45-1.82.62-2.69,1.07-4.51.44-1.3.62-1.91,1.06-3.21.62-1,1-1.57,1.6-2.61,1-2.08,1.51-3.12,2.49-5.21,1-1.39,1.42-2.08,2.4-3.56l3.81-4.17c1.69-1.47,2.49-2.17,4.18-3.55,2.13-1.48,3.19-2.26,5.41-3.65,2.14-1.82,3.29-2.69,5.42-4.43,2.31-2.17,3.55-3.3,5.86-5.47,2-1.65,2.93-2.43,4.89-4,.88-1,1.24-1.48,2.13-2.43,1.15-.61,1.68-.87,2.75-1.48,1.24-1.3,1.86-2,3.11-3.3,1.33-.43,2-.61,3.37-.95,1.25-1,1.87-1.48,3.11-2.44,1.15-.52,1.69-.86,2.84-1.38,2.22-1,3.29-1.39,5.51-2.26,1.06-.7,1.6-1,2.57-1.74l4.44,1.74c.27.87.36,1.21.62,2.08A3.93,3.93,0,0,1,803.33,361.18ZM752.8,368c-.35,1.13-.53,1.73-.8,2.95-.35-.52-.62-.87-1-1.39.26-1.39.35-2.08.62-3.47.44-.09.71-.09,1.15-.18Zm15.72,40.46c-.27,1.21-.44,1.82-.71,3-.18,2.43-.35,3.64-.53,6.07v5.13c-.18,2.69-.27,4.08-.45,6.85v5.73c-.09,1.91-.17,2.87-.26,4.78-.18,1.74-.36,2.6-.54,4.25.18,1.13.27,1.65.54,2.78-.36,1.74-.54,2.61-.89,4.34-.09,2-.09,3-.18,5v4.34c-.18,2.34-.35,3.47-.53,5.82-.09,2.6-.18,3.9-.27,6.42-.09,2-.18,3-.26,5,.08,2.17.08,3.3.26,5.47-.18,2.78-.35,4.16-.53,6.94-.09,2.52-.09,3.82-.18,6.34v5.12c0,2.61.09,3.82.09,6.43.09,2.78.09,4.17.18,6.86-.09,2.78-.18,4.16-.27,7v7.38c-.18,2.69-.26,4-.44,6.68.09,2.35.09,3.48.18,5.74v6.51c0,2.34.08,3.56.08,5.9s-.08,3.65-.17,6.08c-.36,1-.54,1.56-.89,2.69-.09-.43-.18-.69-.27-1.22-.09-1-.18-1.39-.26-2.34.17-1.91.17-2.87.35-4.69.09-2.17.09-3.3.18-5.56-.27-1.12-.36-1.64-.53-2.69.08-2.17.08-3.3.17-5.55-.17-1.13-.17-1.65-.35-2.78-.18-1.56-.18-2.43-.36-4,0-5.64.09-8.5.09-14.15-.18-1.65-.26-2.52-.44-4.16v-5.13c-.09-2.08-.18-3.12-.27-5.21v-6.51c-.09-2.08-.18-3.12-.18-5.21v-5.73c.09-2.34.18-3.56.27-5.9,0-3,0-4.6.09-7.64-.09-3-.09-4.52-.18-7.56,0-4.86.09-7.38.09-12.24,0-1.73-.09-2.6-.09-4.34.18-1.91.36-2.86.53-4.69v-5.38c0-2.69-.08-4-.08-6.68-.45-2.26-.63-3.39-1.07-5.65-.27-2.17-.36-3.3-.62-5.47-.36-1.47-.62-2.26-1-3.73-.09-1.74-.18-2.61-.26-4.43v-3.91l.88-3.9c.62-1.91,1-2.87,1.6-4.78.8-.87,1.24-1.3,2-2.17h1.6c.71.78,1.07,1.13,1.87,1.91.53,1,.8,1.56,1.42,2.69A10.63,10.63,0,0,0,768.52,408.41Z" transform="translate(43.52 1.51)"/>
          <path class="cls-16" d="M829.53,512.68c-.18,1.82-.27,2.69-.45,4.51-.44,1.48-.71,2.17-1.15,3.65-.27.52-.36.78-.62,1.3-.54.26-.8.44-1.25.7-.53-.61-.71-1-1.24-1.65.71-1.39,1.07-2.09,1.87-3.47.08-1.31.08-1.92.17-3.22.09-1,.18-1.39.27-2.34-.27-2.52-.44-3.82-.71-6.34-.09-2.52-.18-3.82-.27-6.34-.26-4.16-.35-6.16-.62-10.33.27-1.91.36-2.95.62-4.86-.71-1.3-1.06-2-1.68-3.3-.09-1.48-.18-2.26-.27-3.73.18-1.13.27-1.74.44-2.87-.26-1.13-.44-1.74-.71-2.95v-4.52c-.18-1.21-.35-1.91-.53-3.12-.53-.78-.71-1.22-1.24-2-.36-.87-.54-1.3-.89-2.08-.62-1.56-.89-2.35-1.51-3.91-.18-1.56-.27-2.34-.36-3.91-.71-.86-1.15-1.21-1.86-2.08-.36-.52-.53-.78-1-1.39l-1.86,1.13L811.15,453c-.63,1-.89,1.57-1.43,2.52-.71,2.69-1.06,4.08-1.77,6.77-.53,3.3-.8,4.95-1.33,8.25-.27,2.08-.36,3.21-.54,5.3-.26,1.21-.35,1.82-.53,2.95-.18,2-.27,3-.44,5.12s-.09,3.13-.18,5.21v3.91c-.09,2-.18,3-.27,5,0,6.34-.09,9.55-.09,15.89.27,4.08.45,6.17.8,10.25.09,1.82.09,2.77.09,4.6s.18,2.78.27,4.69V537c-.09,1.82-.09,2.78-.18,4.6-.27,1.13-.35,1.74-.53,2.87-.36,1.47-.53,2.25-.8,3.73-.62.52-1,.78-1.6,1.3-.44-.17-.62-.35-1.07-.52a17.86,17.86,0,0,1-1-1.82c.26-1.83.35-2.78.53-4.6-.18-1.48-.27-2.17-.35-3.56-.09-3.82-.18-5.73-.27-9.47-.27-1.73-.36-2.6-.62-4.43.26-1.56.35-2.34.53-3.9-.35-1.74-.44-2.61-.8-4.34,0-2.26-.09-3.39-.09-5.56-.26-2.43-.35-3.65-.62-6.08v-5.9c-.09-1-.18-1.48-.27-2.43-.53-4.43-.71-6.6-1.24-11a26.39,26.39,0,0,1-.35-2.78v-5.9c-.18-1.65-.27-2.43-.36-4-.27-2-.35-3-.62-4.95-.09-2.09-.09-3.13-.18-5.3.09-2.43.18-3.65.27-6.08-.18-1-.27-1.47-.45-2.43-.26-3.91-.35-5.9-.62-9.81.18-3.56.27-5.3.45-8.85-.36-1.31-.54-1.91-.89-3.22-.18-2.52-.18-3.73-.36-6.25-.17-2-.26-3-.53-5v-5.65c.09-2.86.09-4.25.18-7.12-.27-1.13-.36-1.65-.62-2.78.26-1.12.35-1.73.62-2.86,0-1.91-.09-2.87-.09-4.78-.44-1.65-.71-2.43-1.16-4.08-.17-2.08-.26-3-.35-5.12-.18-.87-.36-1.3-.53-2.17.09-1.13.09-1.65.17-2.69-.17-2-.26-3-.53-5-.18-2.17-.26-3.21-.53-5.29,0-1.65-.09-2.43-.09-4.08.62-2.09.89-3.13,1.51-5.3.27-1.56.44-2.34.71-3.91.36.09.62.09,1,.18.17-1,.35-1.57.53-2.61.44-1.91.62-2.86,1.07-4.69.79-1.12,1.24-1.65,2-2.77,1-.26,1.42-.44,2.31-.7.88-.43,1.33-.69,2.22-1.13.71.7,1.15,1,1.86,1.74.71,1.39,1,2.08,1.69,3.47.35,1.22.44,1.83.8,3.13.09,2.17.18,3.3.26,5.47-.26,1.65-.35,2.43-.53,4.08-.35,1.65-.53,2.43-.8,4.08-.26,2.34-.44,3.47-.8,5.82-.17,2.69-.26,4.08-.44,6.77-.09,2.26-.18,3.3-.27,5.55v7.47c-.26,2.87-.35,4.26-.53,7.12.27,1.91.35,2.78.62,4.69,0,2.6.09,3.82.09,6.42v7c0,2.43.09,3.64.09,6.16-.09,2.78-.09,4.08-.18,6.86,0,5.9,0,8.86-.09,14.76.62-1.74,1-2.69,1.6-4.43.8-2.52,1.16-3.82,2-6.34l4-5.21c1.69-.69,2.49-1,4.17-1.65,1.16-.34,1.69-.52,2.85-.86a26.49,26.49,0,0,0,2.66.34c1.24.78,1.86,1.13,3.11,1.91.89,1.91,1.24,2.87,2.13,4.69.35,1.13.62,1.74,1,2.87.26,2.95.35,4.51.62,7.46.26,2.09.35,3.22.62,5.3V459c.18,2.87.27,4.26.35,7s.09,4,.09,6.68v5.64c.09,2.09.18,3.13.27,5.21v5.91c-.18,3.3-.27,5-.44,8.33.17,2.43.26,3.65.35,6.08.09,1.91.09,2.95.09,4.86A28.36,28.36,0,0,0,829.53,512.68Z" transform="translate(43.52 1.51)"/>
          <path class="cls-16" d="M883.07,431c-.53,1.65-.8,2.52-1.33,4.17-.89,1.21-1.24,1.82-2.13,3-1.06,1.21-1.51,1.82-2.57,3.12-1.25,1.3-1.87,1.91-3.11,3.21-1.33.79-2,1.22-3.47,2-1.24,1-1.86,1.65-3.1,2.69l-2.22,3c-1,1.13-1.51,1.65-2.58,2.78l-2.13,2.08c-1.33.7-2,1.13-3.37,1.83-1.07.26-1.6.43-2.67.69-.71.44-1.06.7-1.77,1.13-.63.78-1,1.13-1.6,1.82-.27,1.39-.45,2.09-.71,3.48.09,2.34.17,3.47.26,5.73.36,1.12.54,1.65.89,2.77.62,1.22,1,1.83,1.6,3,1.24,2,1.86,3,3.11,4.95.62.87,1,1.3,1.6,2.17,1.24.61,1.86,1,3.1,1.57.63.26,1,.43,1.69.78s1.24.43,2,.69l2.4-1c.89-.87,1.33-1.22,2.22-2.08a16.49,16.49,0,0,0,1.87-1.39c.88-1,1.24-1.48,2.13-2.43.88-.7,1.24-1.05,2.13-1.74a8.12,8.12,0,0,1,1.33-.52c.09.43.09.61.18,1-.27.69-.45,1-.71,1.82-.54.87-.8,1.31-1.33,2.17-.89,1.22-1.34,1.91-2.31,3.13s-1.42,2-2.4,3.39l-2.22,2.6c-.89.78-1.33,1.22-2.22,2.08-1.33.44-1.95.7-3.29,1.22-1.33.09-2,.09-3.28.09-1.07-.52-1.6-.78-2.67-1.39-1.24-1-1.86-1.39-3.1-2.35-1.16-1.3-1.69-1.91-2.76-3.21-.8-.61-1.15-.95-2-1.56-.53-.78-.89-1.13-1.42-1.91-.45-1-.71-1.65-1.24-2.69a8.87,8.87,0,0,0-.89-.79c-.71-2.95-1.07-4.51-1.78-7.46-.62-2.61-.89-3.91-1.51-6.51-.35-2.17-.62-3.22-1-5.39-.17-1.73-.17-2.6-.35-4.34.09-2.08.18-3.12.27-5.21.26-2.25.35-3.38.62-5.64.26-1.91.35-2.87.62-4.86.27-1.39.44-2,.71-3.39s.44-2.26.71-3.82c.27-.78.36-1.21.62-2,.53-1.12.8-1.73,1.33-2.86.36-.35.63-.43,1-.78l1.78-5.65,2-4.42c.89-1.31,1.33-1.91,2.13-3.22,1.07-.86,1.6-1.21,2.66-2.08L858.3,413c1.15-.61,1.69-1,2.84-1.56l3.82-.87c1.24.08,1.86.17,3.11.26,3.46,1.73,5.15,2.6,8.61,4.43.89.69,1.33,1,2.22,1.64.89,1,1.24,1.65,2.13,2.7.45.95.71,1.47,1.16,2.43.26,1.82.44,2.69.71,4.51A40.92,40.92,0,0,1,883.07,431Zm-13.85-2.34c-.53-.79-.71-1.22-1.24-2a18.41,18.41,0,0,0-1.87-1c-.8-.26-1.24-.43-2.13-.78-1,.18-1.42.26-2.4.52-.88.44-1.42.61-2.3,1.05-.8.86-1.25,1.21-2.14,2.08-.8,1-1.24,1.56-2.13,2.6-.71,1.39-1.15,2.09-1.86,3.56-.45.61-.62,1-1.07,1.65-.44,1.22-.71,1.83-1.15,3,.18.61.26,1,.44,1.56a4.16,4.16,0,0,0,1-.78,17.47,17.47,0,0,0,1.69-.52c1.15-.52,1.68-.78,2.84-1.3h2.4c1-.43,1.5-.69,2.48-1.13,1.07-.61,1.6-.87,2.67-1.47,1-.87,1.42-1.31,2.39-2.18.8-.78,1.25-1.21,2.13-2A17,17,0,0,1,869.22,428.64Zm6.22,46.88c-.36.69-.54,1-.89,1.74-.36-.44-.44-.61-.8-1.05.18-.78.27-1.21.44-2l1.07-.44C875.35,474.48,875.35,474.83,875.44,475.52Z" transform="translate(43.52 1.51)"/>
          <path class="cls-16" d="M976.58,404.5a21.13,21.13,0,0,1-.8,2.17,8.43,8.43,0,0,0-.8-1.13,14.26,14.26,0,0,1-.8-1.47,15.4,15.4,0,0,0,1-2.09c.53-.09.8-.17,1.42-.26Zm40.49-16.5c-.08,1.48-.17,2.17-.35,3.65-.36,1.13-.45,1.65-.8,2.78-.8,2.6-1.24,3.91-2.13,6.42-.89.52-1.33.87-2.13,1.39-1.25.09-1.78.18-3,.26a22.63,22.63,0,0,0-2.58-1.21c-.8-.18-1.24-.18-2-.35-1.07-.43-1.6-.61-2.66-1-1,.08-1.42.17-2.4.26a18.69,18.69,0,0,1-1.6,1.21c-1.15,1.22-1.69,1.91-2.75,3.13-.62,1.3-1,1.91-1.6,3.12-.71,1.65-1,2.44-1.69,4.09-.44,1.65-.71,2.43-1.15,4.08-.27,1.3-.36,2-.62,3.3-.18,1-.27,1.38-.45,2.34-.44.69-.62,1-1.06,1.74-.27,2.25-.45,3.38-.71,5.64-.09,1.65-.09,2.43-.18,4.08v7.81c.35,1.65.62,2.44,1,4,.79,1.3,1.15,1.91,2,3.21.71.43,1.06.69,1.77,1.13,1.07.43,1.6.69,2.67,1.13.71.43,1,.69,1.69,1.13,2.3-.26,3.55-.44,5.86-.7,1-.43,1.51-.61,2.57-1,.53-.52.8-.69,1.42-1.22.45-.6.62-.95,1.07-1.56a8.51,8.51,0,0,0,1.51.09,19,19,0,0,0,.8,2.17,14.25,14.25,0,0,1-.36,1.91c-.62.95-.89,1.39-1.51,2.26-.8.78-1.24,1.13-2,2l-2.66,2.17c-1,.61-1.42,1-2.4,1.65-.8.35-1.24.44-2,.78-1.6.44-2.4.7-3.91,1.13-1.51-.08-2.22-.08-3.73-.17-.89-.52-1.33-.78-2.13-1.3s-1.25-.78-2-1.3c-.89-.87-1.34-1.39-2.14-2.26-.62-.35-1-.52-1.59-.87-.36-1.48-.54-2.17-.89-3.65-.36-1.3-.62-1.91-1-3.21-.27-1.56-.35-2.26-.62-3.82-.09-2-.18-3-.27-5-.26-2.17-.44-3.21-.8-5.38-.17-2.43-.26-3.56-.44-6v-4.34c-.09-2.35-.09-3.48-.18-5.73.09-1.83.09-2.69.18-4.52s.27-2.86.44-4.77c.45-1.65.63-2.43,1.07-4.08.18-1.13.27-1.65.44-2.78v-5.3c.27-1.56.45-2.43.71-4,1.25-2,1.78-3,3-5,.54-.52.8-.87,1.42-1.39.45-.26.63-.43,1.07-.69,1.15-.87,1.69-1.39,2.84-2.26.8-.52,1.16-.78,2-1.3.72-.17,1-.26,1.69-.44,1.16-.6,1.69-.95,2.84-1.56,1.16-.87,1.69-1.3,2.85-2.17l2.22-1.3c.88-.52,1.42-.78,2.3-1.3a20.5,20.5,0,0,1,2.22.08c1,.26,1.51.35,2.58.61,1,.44,1.42.7,2.4,1.13.88,1.13,1.42,1.74,2.31,2.87.79.78,1.15,1.21,2,2,.62,1,.89,1.65,1.51,2.69C1016.81,385.92,1016.9,386.61,1017.07,388Z" transform="translate(43.52 1.51)"/>
          <path class="cls-16" d="M1071.07,400.33c-.54,1.39-.8,2.09-1.43,3.56-.88.78-1.33,1.22-2.22,2-1.06.78-1.59,1.13-2.66,1.91-1.33.69-2,1-3.29,1.74l-3.64.43-3.28,1.3-2.31,2c-1.07.61-1.6,1-2.75,1.56-.89.44-1.34.61-2.22,1-1.42.09-2.22.18-3.64.35-1.16-.17-1.69-.26-2.85-.52a14.79,14.79,0,0,0-2,.35c-.71.43-1.07.69-1.69,1.13-.35,1.21-.44,1.82-.8,3.12.09,2.26.18,3.47.27,5.73l.89,3c.71,1.48,1.06,2.26,1.77,3.73,1.34,2.52,2,3.74,3.29,6.25.71,1.13,1,1.65,1.69,2.78,1.33,1.13,2,1.74,3.28,2.87.71.61,1.07.87,1.78,1.47.89.61,1.33,1,2.13,1.57H1054c1-.44,1.42-.61,2.39-1.05.8-.17,1.25-.34,2-.52.88-.6,1.33-.86,2.22-1.39a22.63,22.63,0,0,0,2.22-.78h1.42c.09.44.09.61.17,1.05a11.25,11.25,0,0,1-.8,1.47,18.39,18.39,0,0,1-1.42,1.56c-1,.87-1.42,1.22-2.39,2.09s-1.51,1.3-2.58,2.25c-1,.61-1.42,1-2.4,1.57-.88.43-1.42.61-2.31,1-1.42-.09-2-.17-3.46-.26-1.42-.52-2-.78-3.46-1.3-1.16-1.05-1.69-1.48-2.84-2.52l-3.29-3.65c-1.24-1.73-1.78-2.6-3-4.34-.8-.95-1.24-1.39-2-2.34-.62-1-.89-1.48-1.51-2.52-.53-1.3-.8-1.91-1.33-3.13-.36-.43-.54-.69-.89-1.12-.8-3.22-1.15-4.87-2-8.08-.71-2.78-1-4.17-1.69-7-.45-2.26-.62-3.39-1.07-5.73-.17-1.74-.26-2.61-.35-4.43.09-2,.18-2.95.26-4.95.27-2.08.36-3.12.63-5.29.26-1.83.35-2.7.62-4.43.35-1.22.44-1.83.8-3,.35-1.39.44-2,.8-3.39.26-.7.44-1,.71-1.65.53-.87.8-1.3,1.42-2.17a4.87,4.87,0,0,0,1.06-.35c.8-1.91,1.16-2.86,2-4.77.88-1.39,1.33-2.09,2.22-3.39.88-.87,1.42-1.3,2.31-2.17l2.84-.87H1045c1.24-.09,1.77-.17,3-.26,1.6.35,2.48.52,4.08.78,1.33.7,2,1,3.29,1.65l9.14,8.08c1,1,1.42,1.56,2.4,2.6.89,1.39,1.33,2.17,2.22,3.56.53,1.13.71,1.74,1.24,2.87.27,1.91.45,2.77.8,4.68C1071.07,397.9,1071.07,398.77,1071.07,400.33Zm-14.66-8.25c-.53-.95-.8-1.47-1.33-2.43-.8-.69-1.24-1-2-1.82s-1.33-1-2.22-1.65a21.79,21.79,0,0,0-2.58-.52h-2.48c-.89.43-1.34.69-2.22,1.13-.89.69-1.34.95-2.22,1.65-.8,1-1.25,1.56-2,2.6l-1.15,1.13c-.53,1-.71,1.48-1.24,2.43l.44,1.74c.44-.09.62-.18,1.07-.26.71.08,1.06.17,1.77.26,1.25,0,1.78,0,3-.09,1,.44,1.51.61,2.58,1h2.66c1.16-.08,1.69-.17,2.84-.26,1-.43,1.51-.61,2.58-1,.89-.43,1.33-.61,2.22-1C1056.24,393.73,1056.32,393.21,1056.41,392.08Zm6.75,48.45-.89,1.3c-.35-.52-.53-.78-.88-1.39.17-.69.26-1,.44-1.73H1063C1063.07,439.49,1063.07,439.84,1063.16,440.53Z" transform="translate(43.52 1.51)"/>
          <path class="cls-16" d="M1127.72,423.69c-.36.34-.53.43-.89.78-1.15.26-1.69.35-2.84.61-1.33-.18-2-.35-3.29-.52a18.27,18.27,0,0,1-1.86-1.65h-1.69c-1.15-.26-1.77-.44-3-.7-1.42-.43-2.13-.69-3.55-1.13-1.15.09-1.69.18-2.84.26-1,0-1.51,0-2.49-.08-1.33.26-2,.43-3.28.69h-5l-2,.87c-2,.52-2.93.87-4.88,1.39-1-.09-1.42-.09-2.4-.18-1.78-.6-2.66-.86-4.35-1.38-.71-.61-1.07-.87-1.78-1.48-.44-1-.62-1.48-1.06-2.43-.36-1.39-.54-2-.8-3.39v-5c.44-1.47.62-2.25,1-3.82.89-1,1.43-1.47,2.31-2.51.89-.44,1.34-.7,2.22-1.13,4,.34,6,.52,10,.95,1.15.26,1.68.35,2.84.52,8.79,4.43,17.4,8.95,26,13.63l1.6,1.57c.53.86.8,1.21,1.33,2.08C1127.36,422.56,1127.45,422.91,1127.72,423.69Z" transform="translate(43.52 1.51)"/>
          <path class="cls-16" d="M1136.16,407.19a17.07,17.07,0,0,1-.8,1.82,11.41,11.41,0,0,0-.8-1.3,13.36,13.36,0,0,1-.8-1.73c.35-.7.62-1,1-1.65.53.08.79.17,1.33.26A23.42,23.42,0,0,1,1136.16,407.19Zm39.51-2c-.09,1.39-.18,2.09-.26,3.48-.27.95-.45,1.47-.71,2.43-.8,2.26-1.25,3.38-2,5.55-.8.26-1.24.35-2.13.61-1.15-.35-1.77-.52-2.93-.78-1-.87-1.51-1.3-2.49-2.08-.79-.44-1.15-.61-1.95-1-1.06-.79-1.6-1.22-2.57-2-.89-.26-1.42-.35-2.31-.61-.62.26-1,.43-1.6.7-1.07.86-1.6,1.3-2.75,2.08-.63,1-1,1.47-1.6,2.52-.62,1.39-1,2.08-1.69,3.47-.44,1.39-.71,2.17-1.15,3.56-.27,1.21-.36,1.82-.63,3-.17.87-.26,1.3-.44,2.17-.44.52-.62.78-1.07,1.39-.26,2.08-.44,3.12-.71,5.29-.08,1.57-.08,2.35-.17,3.91v7.64c.35,1.74.62,2.61,1,4.26.8,1.56,1.16,2.34,2,3.82.71.69,1.06,1,1.68,1.73,1.07.78,1.6,1.22,2.67,2.09.62.69,1,1,1.69,1.73,2.3.52,3.46.78,5.68,1.39,1-.09,1.51-.09,2.49-.17.53-.26.79-.44,1.33-.7a14.54,14.54,0,0,0,1.06-1.21c.54.26.89.34,1.42.61.27.95.45,1.47.71,2.43-.08.69-.17,1-.26,1.73-.62.7-.89,1-1.51,1.74a22.74,22.74,0,0,0-2,1.21c-1.07.44-1.6.7-2.67,1.22a23.25,23.25,0,0,0-2.31.78,14.15,14.15,0,0,0-1.95.09c-1.51-.09-2.31-.18-3.82-.26-1.42-.61-2.13-.87-3.64-1.48l-2.13-2.08-2-2c-.8-1.21-1.25-1.74-2.14-2.95-.62-.52-1-.87-1.59-1.39-.36-1.56-.54-2.34-.89-3.91-.36-1.39-.62-2.08-1-3.47-.26-1.56-.35-2.34-.62-3.91-.09-2-.18-2.95-.27-4.95-.26-2.25-.44-3.29-.71-5.55-.17-2.43-.26-3.65-.44-6v-4.26c-.09-2.25-.09-3.38-.18-5.73.09-1.73.09-2.6.18-4.34s.27-2.69.44-4.51c.45-1.48.62-2.17,1.07-3.65.18-1,.27-1.56.44-2.52V401.2c.27-1.48.45-2.17.71-3.65,1.16-1.56,1.78-2.34,2.93-3.82l1.34-.86c.44-.09.62-.18,1.06-.27,1.16-.52,1.69-.69,2.75-1.21.71-.26,1.16-.35,1.87-.61a10.09,10.09,0,0,0,1.69.09c1.15-.18,1.68-.35,2.75-.52,1.15-.44,1.69-.7,2.75-1.13a19.79,19.79,0,0,0,2.22-.52l2.22-.44c.89.35,1.33.52,2.13.87,1,.61,1.51.87,2.49,1.48.89.78,1.42,1.13,2.31,2,.89,1.48,1.33,2.18,2.22,3.65.71,1,1.15,1.56,1.86,2.61.62,1.3.89,1.91,1.51,3.21A8,8,0,0,1,1175.67,405.19Z" transform="translate(43.52 1.51)"/>
          <path class="cls-16" d="M1216.43,418.56a3.88,3.88,0,0,1-1,.09,10.31,10.31,0,0,0-1.34-.78c-.53-.17-.8-.35-1.33-.52-.8-.09-1.15-.17-2-.26-1,.61-1.42,1-2.4,1.56-.44,1-.71,1.48-1.15,2.43a25.53,25.53,0,0,0-2.4,1c-.45.78-.62,1.13-1.07,1.82-.8,1-1.15,1.48-2,2.43-.36,1.22-.53,1.74-.89,2.95s-.35,1.65-.62,2.78v3.91c-.27,1.13-.36,1.65-.62,2.78s-.36,1.73-.62,2.86c-.27,1.3-.36,2-.63,3.3-.08,1.48-.08,2.26-.17,3.73v8.51c-.09,1.48-.09,2.26-.18,3.74-.27,1.47-.36,2.17-.62,3.56-.09,1.47-.09,2.17-.18,3.64s-.18,2.35-.27,4v3.82c-.44,1.39-.62,2.17-1.06,3.56-.53.69-.8,1-1.33,1.82l-2,.43c-.53,0-.8.09-1.33.09-.44-.35-.71-.52-1.15-.87-.45-.95-.63-1.47-1.07-2.43-.27-1-.35-1.56-.62-2.69s-.36-1.65-.62-2.78c.09-1.21.09-1.82.18-2.95-.09-1.74-.09-2.6-.18-4.34v-6.17c-.09-1.12-.09-1.73-.18-3,.09-1.3.09-1.91.18-3.21.09-1.74.09-2.6.18-4.25v-3.65c.08-1.65.17-2.52.26-4.26s.09-2.6.18-4.25c-.09-2-.09-3-.18-4.86V428.2c-.09-1.39-.18-2-.26-3.38-.09-1.22-.09-1.83-.18-3-.54-1.65-.71-2.43-1.25-4.08-.44-1.31-.62-2-1.06-3.39-.27-1.3-.36-2-.62-3.3-.09-1.47-.09-2.17-.18-3.56.09-1.3.18-1.91.27-3.21.26-.87.44-1.3.71-2.08.53-.44.71-.7,1.24-1.13.8-.26,1.24-.35,2-.61.89-.52,1.33-.7,2.31-1.22.8.44,1.16.7,1.95,1.22,1,1.13,1.51,1.65,2.49,2.86.09,1.13.18,1.65.27,2.7.44,1.56.62,2.34,1.06,3.9v5.39c.36.78.54,1.12.89,1.91.36.26.53.34.89.6.53,0,.71-.08,1.24-.08.62-.61.89-1,1.51-1.57l2-1.47a22.54,22.54,0,0,1,2.22-1c.79-.52,1.15-.78,1.86-1.21.89.17,1.33.17,2.22.34,1-.08,1.42-.08,2.4-.08.53.17.8.34,1.33.52l1.78,1.73a21.6,21.6,0,0,1,.53,2.18C1216.43,417.44,1216.43,417.78,1216.43,418.56Z" transform="translate(43.52 1.51)"/>
          <path class="cls-16" d="M1262.34,453.38c-.53,1.13-.71,1.74-1.24,2.87-.8.43-1.24.6-2,1-1,.26-1.42.43-2.4.69-1.16.09-1.78.18-3,.26-1.33-.43-2-.69-3.29-1.13-1.24-.08-1.77-.08-3-.17-.79.35-1.24.52-2.13.95a21.14,21.14,0,0,1-2.48.35,15.63,15.63,0,0,0-2,.09l-3.28-1.3c-1.07-.7-1.6-1-2.58-1.74-.71-.17-1.06-.35-1.77-.52-.62.17-1,.17-1.6.35-.27,1-.44,1.65-.71,2.69.09,2.26.18,3.47.27,5.73.35,1.39.53,2,.88,3.38.62,1.74,1,2.61,1.6,4.35,1.24,3,1.78,4.51,3,7.46.62,1.39.89,2.09,1.51,3.47l3,4.26c.62.87,1,1.3,1.6,2.17.8.95,1.15,1.48,1.95,2.52l2.31,1.13H1249a12.4,12.4,0,0,0,1.78.34l2-.43c.8.09,1.24.17,2,.26l1.25.61c.08.43.08.69.17,1.13-.26.43-.44.6-.71,1a12.81,12.81,0,0,0-1.24.95c-.89.44-1.33.61-2.13,1s-1.42.61-2.31,1a14.74,14.74,0,0,0-2.13.52h-2.13c-1.25-.69-1.87-1-3.2-1.74-1.24-1.12-1.86-1.65-3.2-2.77-1.06-1.48-1.59-2.17-2.57-3.65-1.24-2-1.78-3-3-5-1.07-2.17-1.69-3.3-2.75-5.55-.8-1.3-1.16-1.91-2-3.21-.53-1.22-.89-1.83-1.42-3.13-.44-1.48-.71-2.17-1.24-3.65-.36-.6-.53-.95-.89-1.56-.71-3.47-1.06-5.21-1.78-8.68-.62-3-1-4.52-1.59-7.56-.36-2.43-.63-3.64-1-6-.18-1.82-.18-2.69-.36-4.42.09-1.91.18-2.87.27-4.78.27-1.91.36-2.86.62-4.86.27-1.65.36-2.43.62-4.08.27-1,.45-1.56.71-2.61.27-1.21.45-1.73.71-2.95.27-.52.36-.78.63-1.3.53-.61.8-1,1.33-1.56.44.08.62.08,1,.17.72-1.48,1.07-2.26,1.78-3.82.8-1,1.24-1.39,2-2.34.89-.44,1.25-.7,2.13-1.13l2.67.43c1.33.61,2,1,3.28,1.56,1.07.44,1.69.61,2.76,1,1.51,1,2.22,1.56,3.73,2.6,1.24,1.22,1.77,1.82,3,3,3.28,4.69,5,7.12,8.25,11.89.89,1.48,1.25,2.17,2.14,3.56.79,1.74,1.15,2.69,2,4.43.44,1.3.62,2,1.06,3.3.27,2,.45,2.95.72,4.95A23.37,23.37,0,0,1,1262.34,453.38ZM1249.11,439c-.44-1.22-.71-1.74-1.15-3l-1.78-2.61c-.8-1-1.24-1.56-2-2.6-.89-.7-1.42-1-2.31-1.65-.89-.44-1.33-.61-2.22-1.05-.8,0-1.24.09-2,.09-.8.26-1.25.35-2,.61-.71.69-1.06.95-1.86,1.65l-1.07.61c-.44.78-.71,1.13-1.15,1.82.18.78.27,1.13.44,1.91.36.09.62.09,1,.17.62.44,1,.61,1.6,1,1.06.52,1.69.78,2.75,1.3,1,.87,1.42,1.3,2.31,2.08,1,.44,1.42.7,2.4,1.13s1.6.61,2.57,1c.89,0,1.42.08,2.31.08a17.39,17.39,0,0,0,2-.08C1248.93,440.53,1249,440,1249.11,439Zm6,50.18a7,7,0,0,0-.8.87,9.34,9.34,0,0,0-.8-1.65c.18-.61.27-.87.44-1.48.45.18.63.35,1.07.52A11.8,11.8,0,0,0,1255.15,489.15Z" transform="translate(43.52 1.51)"/>
          <path class="cls-16" d="M1302.75,525.44c-.09.7-.09,1-.18,1.74l-.89,1.3c-.35-.26-.62-.43-1-.69-.44-1.13-.62-1.74-1.06-2.87-.18-1.47-.27-2.26-.53-3.73-.36-1.3-.54-2-.8-3.3-.18-1.65-.27-2.43-.54-4.08-.17-.52-.35-.87-.53-1.39-.35.09-.44.17-.8.26l-1.15.69c-.45.79-.71,1.22-1.16,2.09-.8.34-1.15.61-2,.95L1291,518a19.76,19.76,0,0,0-2,.78c-.89.08-1.42.08-2.31.17a15.48,15.48,0,0,0-2,.09c-.71,0-1.06-.09-1.78-.09-.53.09-.79.17-1.33.26-.53-.61-.8-1-1.42-1.65-.8-.69-1.15-1-1.95-1.65-.89-1.3-1.33-1.91-2.31-3.12-.8-1.48-1.24-2.17-2.13-3.65-.53-1.56-.8-2.34-1.24-3.82-.36-1.65-.54-2.43-1-4-.09-2.26-.09-3.39-.09-5.65v-3.73c.18-1.56.27-2.35.44-3.91.54-1.39.8-2.08,1.34-3.56.53-1.3.71-2,1.24-3.3.71-.78,1.06-1.13,1.69-1.82s1.06-.87,1.77-1.39c1,.26,1.42.35,2.4.61a18.93,18.93,0,0,1,2,.78c1,.17,1.42.26,2.31.43.8-.52,1.24-.69,2-1.21,1.07-.35,1.6-.61,2.58-1,.53-.08.8-.17,1.24-.26s.8.09,1.33.09c.18-1,.36-1.39.54-2.34-.45-1.74-.62-2.7-1.07-4.43s-.71-2.52-1.24-4.17l-2.67-6.51c-1.06-1.3-1.59-2-2.75-3.3-.89-.7-1.33-1-2.22-1.65-.35-.09-.44-.17-.8-.26-.53-.35-.89-.52-1.42-.87-.71.17-1,.35-1.69.52a15.12,15.12,0,0,0-1.51,1c-.71-.26-1.06-.35-1.86-.61-.8-.52-1.24-.7-2-1.22-1-.08-1.42-.08-2.4-.17-.89-.52-1.24-.69-2.13-1.22-.71-1-1.07-1.56-1.69-2.6-.53-1.22-.71-1.82-1.24-3-.09-1.3-.09-2-.09-3.3.18-1,.27-1.56.44-2.6.62-1,.89-1.48,1.42-2.43.63-1.13.89-1.74,1.51-2.87.71-.69,1.16-1,1.87-1.82l2-.87,2.22-2.17a14.74,14.74,0,0,1,2.13-.52l3.82.87c1.33.6,2,.86,3.29,1.56,1,1.13,1.42,1.65,2.3,2.78.8,1.3,1.16,1.91,2,3.21.8,1,1.24,1.56,2,2.6.89,1.83,1.42,2.7,2.31,4.52.44,1.21.71,1.82,1.15,3.12.45,1.83.71,2.7,1.16,4.52.35,2.17.53,3.21.8,5.38.26,2,.35,3,.62,5.13.35,2.69.53,4.08.89,6.77.35,2.08.53,3.12.8,5.21.09,1.65.09,2.43.09,4.08-.09,2-.09,2.95-.18,4.95.26,2.51.35,3.73.62,6.25s.18,3.82.35,6.34c.45,4.51.71,6.85,1.16,11.37.27,1.82.44,2.69.71,4.51.27,1.65.35,2.43.62,4.08.18,1.91.27,3,.53,4.87A8.92,8.92,0,0,1,1302.75,525.44Zm-9.06-33.6c-.18-.78-.36-1.13-.53-1.91-.8-.95-1.16-1.39-2-2.26a10.1,10.1,0,0,0-1.69-.78c-.62.18-.88.18-1.5.35h-1.69c-.71.26-1.07.43-1.78.7-.71-.18-1-.35-1.69-.53-.62.18-.88.35-1.5.53a13.51,13.51,0,0,0-1.25,1,18,18,0,0,0-.8,1.82c-.44,1-.62,1.39-1,2.34-.09,1-.18,1.48-.27,2.44s-.36,1.3-.53,2.17v3.12c.26,1.22.35,1.91.62,3.13.71.87,1.06,1.3,1.77,2.08.8.43,1.16.7,2,1.22.89.08,1.33.17,2.13.26a15.75,15.75,0,0,0,1-1.48c.53.09.8.09,1.33.17l3.11-2.17c.62-.34.88-.6,1.51-.95.44-1,.62-1.56,1.06-2.69l1.16-2c.08-1.39.08-2.08.17-3.56A10.88,10.88,0,0,0,1293.69,491.84Zm3.37,29c-.17.17-.35.26-.53.43-.44-.6-.71-.86-1.15-1.47.17-.52.17-.78.35-1.3a3.1,3.1,0,0,1,.8-.35A21.71,21.71,0,0,1,1297.06,520.84Zm5.33-18.58a4.34,4.34,0,0,0-.8.52c-.26-.43-.44-.61-.71-1v-1.56a7.2,7.2,0,0,0,1.24-.35C1302.21,500.78,1302.3,501.31,1302.39,502.26Z" transform="translate(43.52 1.51)"/>
          <path class="cls-16" d="M1360.47,564.6c-.09,1-.09,1.56-.18,2.52a26.14,26.14,0,0,1-.53,2.69,6.17,6.17,0,0,0-1.07-.52v-4.95c-.09-1.22-.18-1.82-.35-3-.18-1.65-.27-2.43-.54-4.08-.09-2-.09-3-.17-5s-.18-3-.36-5c-.18-1.38-.27-2-.44-3.38-.09-1.74-.18-2.61-.36-4.43-.27-4.77-.35-7.21-.62-12-.27-1.39-.44-2.08-.71-3.56-.45-1.48-.62-2.17-1.07-3.65-.44-.6-.71-1-1.15-1.56a12.3,12.3,0,0,0-1-1.3c-.62-.7-1-1-1.6-1.74-.53-.52-.88-.78-1.42-1.3l-1.51-1.91c-.71.43-1.06.61-1.77,1-.45.17-.62.17-1.07.35-.26,1.21-.35,1.82-.62,3-.27.78-.36,1.13-.62,1.91-.18,1.39-.27,2.08-.53,3.56s-.45,2.25-.71,3.73c-.27,1.13-.36,1.74-.63,3-.17,1.65-.26,2.52-.35,4.17-.09,1.3-.18,1.91-.27,3.21,0,1.91.09,2.78.09,4.69-.09,1-.09,1.39-.18,2.34v6c-.17,1.39-.26,2-.35,3.39-.09,1-.09,1.48-.18,2.43-.35.78-.44,1.22-.8,2a10.22,10.22,0,0,1-1.06-1c-.36-.86-.54-1.3-.89-2.17-.09-.78-.18-1.21-.27-2.08v-7c.09-1.91.09-2.87.18-4.87,0-3.9,0-5.81.09-9.72.09-1.74.09-2.6.18-4.34,0-1.91-.09-2.87-.09-4.86v-4.08c-.09-1.57-.09-2.35-.18-3.82,0-3.65,0-5.56.09-9.21-.18-1.73-.18-2.6-.36-4.25s-.44-2.52-.71-4.17c-.44-.87-.62-1.3-1.06-2.26a19.24,19.24,0,0,0-1.78-.95h-1.51l-1.15,1.13c-.45.61-.71.87-1.16,1.47-.53,1-.8,1.48-1.42,2.44-.44,1-.71,1.56-1.15,2.51-.45,1.39-.63,2-1.07,3.39-.35,1.65-.53,2.43-.89,4.08-.44,2-.62,2.95-1.06,4.95-.18,2.26-.27,3.47-.45,5.73-.09,1.82-.17,2.69-.26,4.51s-.27,2.78-.36,4.69V532c.09,1.74.18,2.7.27,4.43v5.73c-.36,1.22-.53,1.83-.89,3-.62.87-.89,1.22-1.42,2.08a9.11,9.11,0,0,0-1.51-.34c-.62-.44-.89-.7-1.42-1.13-.36-.87-.53-1.22-.89-2.09s-.35-1.38-.62-2.25c-.36-2.61-.53-3.91-.89-6.51-.18-2.52-.18-3.82-.35-6.34l-.45-5.65v-6.07c0-2.43-.09-3.65-.09-6.17-.17-2.52-.17-3.82-.35-6.34,0-2.34-.09-3.56-.09-5.9-.18-2.17-.36-3.3-.53-5.47v-5c.17-1.39.17-2.09.35-3.48-.09-1.3-.18-2-.26-3.3-.27-1.65-.36-2.51-.63-4.16s-.44-2.61-.71-4.26c-.62-2.95-1-4.51-1.6-7.47.18-1.21.27-1.91.45-3.12.35-.7.44-1,.8-1.74.26-.43.35-.61.62-1,.89-.17,1.24-.17,2.13-.35a8.51,8.51,0,0,0,1.51.09l2.22,2.17c1,1.13,1.42,1.74,2.31,2.87.71,1.12,1,1.65,1.69,2.77.71,1.31,1.15,2,1.86,3.3.45,1.31.71,1.91,1.16,3.3.26,1,.44,1.48.71,2.52s.35,1.65.62,2.78c.71.35,1,.52,1.69.87a11.67,11.67,0,0,0,1.77-.09,10.19,10.19,0,0,1,1.6.35l1.15-.7c.89.35,1.34.52,2.31.87.62,1,1,1.56,1.6,2.61s.8,1.73,1.42,2.86c.45,1.3.62,1.91,1.07,3.21.26,1.48.35,2.26.62,3.74v2.51c.18,1.65.27,2.44.44,4.09,0,1.38.09,2.08.09,3.47.36-.61.53-1,.89-1.56.36-.18.62-.27,1-.44.44-.87.71-1.3,1.15-2.17.45-.61.62-.95,1.07-1.56.53-.18.8-.35,1.24-.52a14.87,14.87,0,0,1,1.24-1c.54.09.8.18,1.42.26.45.26.71.35,1.16.61.53.61.71.87,1.24,1.39.45,1,.71,1.56,1.16,2.6.71,1.13,1.06,1.74,1.68,2.87.54,1.47.8,2.26,1.42,3.73.36,1.48.63,2.26,1,3.74.27,1.3.44,2,.71,3.38s.36,2,.53,3.39.09,2.17.18,3.64v3.74c.09,1.47.09,2.25.18,3.82v3.21c.18,1.74.27,2.6.35,4.34.09,1.91.09,2.87.18,4.78.27,1.56.36,2.43.53,4,.09,1.39.18,2.08.36,3.56,0,1.3.09,1.91.09,3.21v4c0,1.39.09,2.17.09,3.56,0,1,.09,1.56.09,2.69C1360.11,563,1360.2,563.56,1360.47,564.6Zm-.62-62.43c-.63-.08-1-.17-1.6-.26-.27-1-.36-1.56-.54-2.6.27-1,.36-1.39.63-2.35.44,1.05.71,1.57,1.24,2.61C1359.67,500.52,1359.76,501.05,1359.85,502.17Z" transform="translate(43.52 1.51)"/>
        </g>
        <g class="cls-3">
          <path class="cls-20" d="M803.33,361.18c-.53.78-.8,1.12-1.33,1.91a4.44,4.44,0,0,0-1,.08c-1.06.35-1.69.52-2.75,1-1.51.61-2.31.87-3.82,1.56-1.78,1.13-2.66,1.74-4.44,2.95L784.68,373c-2.31,2.26-3.37,3.39-5.68,5.65-2,1.56-3,2.34-5.06,4-1.78,2.08-2.67,3.13-4.44,5.3-1.42,1.65-2.13,2.43-3.55,4.08-1.51,2.25-2.31,3.38-3.82,5.64-1.16,1.56-1.69,2.34-2.84,4-1.07,1.48-1.6,2.17-2.76,3.65-.35,1.22-.53,1.82-.89,3.13-.71,1.47-1.06,2.17-1.68,3.64-.89,1.83-1.33,2.69-2.22,4.52-1.07,1.56-1.51,2.34-2.58,3.82-1.33,1.65-2,2.43-3.37,4.08l-3.38,3.3c-1.15.17-1.77.26-3,.52-.71-.44-1.06-.61-1.77-1s-1.07-.7-1.78-1.13c-.62-.7-.89-1-1.51-1.74-.09-1.47-.09-2.17-.17-3.64.08-1.91.17-2.87.26-4.87.45-1.82.62-2.69,1.07-4.51.44-1.3.62-1.91,1.06-3.21.62-1,1-1.57,1.6-2.61,1-2.08,1.51-3.12,2.49-5.21,1-1.39,1.42-2.08,2.4-3.56l3.81-4.17c1.69-1.47,2.49-2.17,4.18-3.55,2.13-1.48,3.19-2.26,5.41-3.65,2.14-1.82,3.29-2.69,5.42-4.43,2.31-2.17,3.55-3.3,5.86-5.47,2-1.65,2.93-2.43,4.89-4,.88-1,1.24-1.48,2.13-2.43,1.15-.61,1.68-.87,2.75-1.48,1.24-1.3,1.86-2,3.11-3.3,1.33-.43,2-.61,3.37-.95,1.25-1,1.87-1.48,3.11-2.44,1.15-.52,1.69-.86,2.84-1.38,2.22-1,3.29-1.39,5.51-2.26,1.06-.7,1.6-1,2.57-1.74l4.44,1.74c.27.87.36,1.21.62,2.08A3.93,3.93,0,0,1,803.33,361.18ZM752.8,368c-.35,1.13-.53,1.73-.8,2.95-.35-.52-.62-.87-1-1.39.26-1.39.35-2.08.62-3.47.44-.09.71-.09,1.15-.18Zm15.72,40.46c-.27,1.21-.44,1.82-.71,3-.18,2.43-.35,3.64-.53,6.07v5.13c-.18,2.69-.27,4.08-.45,6.85v5.73c-.09,1.91-.17,2.87-.26,4.78-.18,1.74-.36,2.6-.54,4.25.18,1.13.27,1.65.54,2.78-.36,1.74-.54,2.61-.89,4.34-.09,2-.09,3-.18,5v4.34c-.18,2.34-.35,3.47-.53,5.82-.09,2.6-.18,3.9-.27,6.42-.09,2-.18,3-.26,5,.08,2.17.08,3.3.26,5.47-.18,2.78-.35,4.16-.53,6.94-.09,2.52-.09,3.82-.18,6.34v5.12c0,2.61.09,3.82.09,6.43.09,2.78.09,4.17.18,6.86-.09,2.78-.18,4.16-.27,7v7.38c-.18,2.69-.26,4-.44,6.68.09,2.35.09,3.48.18,5.74v6.51c0,2.34.08,3.56.08,5.9s-.08,3.65-.17,6.08c-.36,1-.54,1.56-.89,2.69-.09-.43-.18-.69-.27-1.22-.09-1-.18-1.39-.26-2.34.17-1.91.17-2.87.35-4.69.09-2.17.09-3.3.18-5.56-.27-1.12-.36-1.64-.53-2.69.08-2.17.08-3.3.17-5.55-.17-1.13-.17-1.65-.35-2.78-.18-1.56-.18-2.43-.36-4,0-5.64.09-8.5.09-14.15-.18-1.65-.26-2.52-.44-4.16v-5.13c-.09-2.08-.18-3.12-.27-5.21v-6.51c-.09-2.08-.18-3.12-.18-5.21v-5.73c.09-2.34.18-3.56.27-5.9,0-3,0-4.6.09-7.64-.09-3-.09-4.52-.18-7.56,0-4.86.09-7.38.09-12.24,0-1.73-.09-2.6-.09-4.34.18-1.91.36-2.86.53-4.69v-5.38c0-2.69-.08-4-.08-6.68-.45-2.26-.63-3.39-1.07-5.65-.27-2.17-.36-3.3-.62-5.47-.36-1.47-.62-2.26-1-3.73-.09-1.74-.18-2.61-.26-4.43v-3.91l.88-3.9c.62-1.91,1-2.87,1.6-4.78.8-.87,1.24-1.3,2-2.17h1.6c.71.78,1.07,1.13,1.87,1.91.53,1,.8,1.56,1.42,2.69A10.63,10.63,0,0,0,768.52,408.41Z" transform="translate(43.52 1.51)"/>
          <path class="cls-20" d="M829.53,512.68c-.18,1.82-.27,2.69-.45,4.51-.44,1.48-.71,2.17-1.15,3.65-.27.52-.36.78-.62,1.3-.54.26-.8.44-1.25.7-.53-.61-.71-1-1.24-1.65.71-1.39,1.07-2.09,1.87-3.47.08-1.31.08-1.92.17-3.22.09-1,.18-1.39.27-2.34-.27-2.52-.44-3.82-.71-6.34-.09-2.52-.18-3.82-.27-6.34-.26-4.16-.35-6.16-.62-10.33.27-1.91.36-2.95.62-4.86-.71-1.3-1.06-2-1.68-3.3-.09-1.48-.18-2.26-.27-3.73.18-1.13.27-1.74.44-2.87-.26-1.13-.44-1.74-.71-2.95v-4.52c-.18-1.21-.35-1.91-.53-3.12-.53-.78-.71-1.22-1.24-2-.36-.87-.54-1.3-.89-2.08-.62-1.56-.89-2.35-1.51-3.91-.18-1.56-.27-2.34-.36-3.91-.71-.86-1.15-1.21-1.86-2.08-.36-.52-.53-.78-1-1.39l-1.86,1.13L811.15,453c-.63,1-.89,1.57-1.43,2.52-.71,2.69-1.06,4.08-1.77,6.77-.53,3.3-.8,4.95-1.33,8.25-.27,2.08-.36,3.21-.54,5.3-.26,1.21-.35,1.82-.53,2.95-.18,2-.27,3-.44,5.12s-.09,3.13-.18,5.21v3.91c-.09,2-.18,3-.27,5,0,6.34-.09,9.55-.09,15.89.27,4.08.45,6.17.8,10.25.09,1.82.09,2.77.09,4.6s.18,2.78.27,4.69V537c-.09,1.82-.09,2.78-.18,4.6-.27,1.13-.35,1.74-.53,2.87-.36,1.47-.53,2.25-.8,3.73-.62.52-1,.78-1.6,1.3-.44-.17-.62-.35-1.07-.52a17.86,17.86,0,0,1-1-1.82c.26-1.83.35-2.78.53-4.6-.18-1.48-.27-2.17-.35-3.56-.09-3.82-.18-5.73-.27-9.47-.27-1.73-.36-2.6-.62-4.43.26-1.56.35-2.34.53-3.9-.35-1.74-.44-2.61-.8-4.34,0-2.26-.09-3.39-.09-5.56-.26-2.43-.35-3.65-.62-6.08v-5.9c-.09-1-.18-1.48-.27-2.43-.53-4.43-.71-6.6-1.24-11a26.39,26.39,0,0,1-.35-2.78v-5.9c-.18-1.65-.27-2.43-.36-4-.27-2-.35-3-.62-4.95-.09-2.09-.09-3.13-.18-5.3.09-2.43.18-3.65.27-6.08-.18-1-.27-1.47-.45-2.43-.26-3.91-.35-5.9-.62-9.81.18-3.56.27-5.3.45-8.85-.36-1.31-.54-1.91-.89-3.22-.18-2.52-.18-3.73-.36-6.25-.17-2-.26-3-.53-5v-5.65c.09-2.86.09-4.25.18-7.12-.27-1.13-.36-1.65-.62-2.78.26-1.12.35-1.73.62-2.86,0-1.91-.09-2.87-.09-4.78-.44-1.65-.71-2.43-1.16-4.08-.17-2.08-.26-3-.35-5.12-.18-.87-.36-1.3-.53-2.17.09-1.13.09-1.65.17-2.69-.17-2-.26-3-.53-5-.18-2.17-.26-3.21-.53-5.29,0-1.65-.09-2.43-.09-4.08.62-2.09.89-3.13,1.51-5.3.27-1.56.44-2.34.71-3.91.36.09.62.09,1,.18.17-1,.35-1.57.53-2.61.44-1.91.62-2.86,1.07-4.69.79-1.12,1.24-1.65,2-2.77,1-.26,1.42-.44,2.31-.7.88-.43,1.33-.69,2.22-1.13.71.7,1.15,1,1.86,1.74.71,1.39,1,2.08,1.69,3.47.35,1.22.44,1.83.8,3.13.09,2.17.18,3.3.26,5.47-.26,1.65-.35,2.43-.53,4.08-.35,1.65-.53,2.43-.8,4.08-.26,2.34-.44,3.47-.8,5.82-.17,2.69-.26,4.08-.44,6.77-.09,2.26-.18,3.3-.27,5.55v7.47c-.26,2.87-.35,4.26-.53,7.12.27,1.91.35,2.78.62,4.69,0,2.6.09,3.82.09,6.42v7c0,2.43.09,3.64.09,6.16-.09,2.78-.09,4.08-.18,6.86,0,5.9,0,8.86-.09,14.76.62-1.74,1-2.69,1.6-4.43.8-2.52,1.16-3.82,2-6.34l4-5.21c1.69-.69,2.49-1,4.17-1.65,1.16-.34,1.69-.52,2.85-.86a26.49,26.49,0,0,0,2.66.34c1.24.78,1.86,1.13,3.11,1.91.89,1.91,1.24,2.87,2.13,4.69.35,1.13.62,1.74,1,2.87.26,2.95.35,4.51.62,7.46.26,2.09.35,3.22.62,5.3V459c.18,2.87.27,4.26.35,7s.09,4,.09,6.68v5.64c.09,2.09.18,3.13.27,5.21v5.91c-.18,3.3-.27,5-.44,8.33.17,2.43.26,3.65.35,6.08.09,1.91.09,2.95.09,4.86A28.36,28.36,0,0,0,829.53,512.68Z" transform="translate(43.52 1.51)"/>
          <path class="cls-20" d="M883.07,431c-.53,1.65-.8,2.52-1.33,4.17-.89,1.21-1.24,1.82-2.13,3-1.06,1.21-1.51,1.82-2.57,3.12-1.25,1.3-1.87,1.91-3.11,3.21-1.33.79-2,1.22-3.47,2-1.24,1-1.86,1.65-3.1,2.69l-2.22,3c-1,1.13-1.51,1.65-2.58,2.78l-2.13,2.08c-1.33.7-2,1.13-3.37,1.83-1.07.26-1.6.43-2.67.69-.71.44-1.06.7-1.77,1.13-.63.78-1,1.13-1.6,1.82-.27,1.39-.45,2.09-.71,3.48.09,2.34.17,3.47.26,5.73.36,1.12.54,1.65.89,2.77.62,1.22,1,1.83,1.6,3,1.24,2,1.86,3,3.11,4.95.62.87,1,1.3,1.6,2.17,1.24.61,1.86,1,3.1,1.57.63.26,1,.43,1.69.78s1.24.43,2,.69l2.4-1c.89-.87,1.33-1.22,2.22-2.08a16.49,16.49,0,0,0,1.87-1.39c.88-1,1.24-1.48,2.13-2.43.88-.7,1.24-1.05,2.13-1.74a8.12,8.12,0,0,1,1.33-.52c.09.43.09.61.18,1-.27.69-.45,1-.71,1.82-.54.87-.8,1.31-1.33,2.17-.89,1.22-1.34,1.91-2.31,3.13s-1.42,2-2.4,3.39l-2.22,2.6c-.89.78-1.33,1.22-2.22,2.08-1.33.44-1.95.7-3.29,1.22-1.33.09-2,.09-3.28.09-1.07-.52-1.6-.78-2.67-1.39-1.24-1-1.86-1.39-3.1-2.35-1.16-1.3-1.69-1.91-2.76-3.21-.8-.61-1.15-.95-2-1.56-.53-.78-.89-1.13-1.42-1.91-.45-1-.71-1.65-1.24-2.69a8.87,8.87,0,0,0-.89-.79c-.71-2.95-1.07-4.51-1.78-7.46-.62-2.61-.89-3.91-1.51-6.51-.35-2.17-.62-3.22-1-5.39-.17-1.73-.17-2.6-.35-4.34.09-2.08.18-3.12.27-5.21.26-2.25.35-3.38.62-5.64.26-1.91.35-2.87.62-4.86.27-1.39.44-2,.71-3.39s.44-2.26.71-3.82c.27-.78.36-1.21.62-2,.53-1.12.8-1.73,1.33-2.86.36-.35.63-.43,1-.78l1.78-5.65,2-4.42c.89-1.31,1.33-1.91,2.13-3.22,1.07-.86,1.6-1.21,2.66-2.08L858.3,413c1.15-.61,1.69-1,2.84-1.56l3.82-.87c1.24.08,1.86.17,3.11.26,3.46,1.73,5.15,2.6,8.61,4.43.89.69,1.33,1,2.22,1.64.89,1,1.24,1.65,2.13,2.7.45.95.71,1.47,1.16,2.43.26,1.82.44,2.69.71,4.51A40.92,40.92,0,0,1,883.07,431Zm-13.85-2.34c-.53-.79-.71-1.22-1.24-2a18.41,18.41,0,0,0-1.87-1c-.8-.26-1.24-.43-2.13-.78-1,.18-1.42.26-2.4.52-.88.44-1.42.61-2.3,1.05-.8.86-1.25,1.21-2.14,2.08-.8,1-1.24,1.56-2.13,2.6-.71,1.39-1.15,2.09-1.86,3.56-.45.61-.62,1-1.07,1.65-.44,1.22-.71,1.83-1.15,3,.18.61.26,1,.44,1.56a4.16,4.16,0,0,0,1-.78,17.47,17.47,0,0,0,1.69-.52c1.15-.52,1.68-.78,2.84-1.3h2.4c1-.43,1.5-.69,2.48-1.13,1.07-.61,1.6-.87,2.67-1.47,1-.87,1.42-1.31,2.39-2.18.8-.78,1.25-1.21,2.13-2A17,17,0,0,1,869.22,428.64Zm6.22,46.88c-.36.69-.54,1-.89,1.74-.36-.44-.44-.61-.8-1.05.18-.78.27-1.21.44-2l1.07-.44C875.35,474.48,875.35,474.83,875.44,475.52Z" transform="translate(43.52 1.51)"/>
          <path class="cls-20" d="M976.58,404.5a21.13,21.13,0,0,1-.8,2.17,8.43,8.43,0,0,0-.8-1.13,14.26,14.26,0,0,1-.8-1.47,15.4,15.4,0,0,0,1-2.09c.53-.09.8-.17,1.42-.26Zm40.49-16.5c-.08,1.48-.17,2.17-.35,3.65-.36,1.13-.45,1.65-.8,2.78-.8,2.6-1.24,3.91-2.13,6.42-.89.52-1.33.87-2.13,1.39-1.25.09-1.78.18-3,.26a22.63,22.63,0,0,0-2.58-1.21c-.8-.18-1.24-.18-2-.35-1.07-.43-1.6-.61-2.66-1-1,.08-1.42.17-2.4.26a18.69,18.69,0,0,1-1.6,1.21c-1.15,1.22-1.69,1.91-2.75,3.13-.62,1.3-1,1.91-1.6,3.12-.71,1.65-1,2.44-1.69,4.09-.44,1.65-.71,2.43-1.15,4.08-.27,1.3-.36,2-.62,3.3-.18,1-.27,1.38-.45,2.34-.44.69-.62,1-1.06,1.74-.27,2.25-.45,3.38-.71,5.64-.09,1.65-.09,2.43-.18,4.08v7.81c.35,1.65.62,2.44,1,4,.79,1.3,1.15,1.91,2,3.21.71.43,1.06.69,1.77,1.13,1.07.43,1.6.69,2.67,1.13.71.43,1,.69,1.69,1.13,2.3-.26,3.55-.44,5.86-.7,1-.43,1.51-.61,2.57-1,.53-.52.8-.69,1.42-1.22.45-.6.62-.95,1.07-1.56a8.51,8.51,0,0,0,1.51.09,19,19,0,0,0,.8,2.17,14.25,14.25,0,0,1-.36,1.91c-.62.95-.89,1.39-1.51,2.26-.8.78-1.24,1.13-2,2l-2.66,2.17c-1,.61-1.42,1-2.4,1.65-.8.35-1.24.44-2,.78-1.6.44-2.4.7-3.91,1.13-1.51-.08-2.22-.08-3.73-.17-.89-.52-1.33-.78-2.13-1.3s-1.25-.78-2-1.3c-.89-.87-1.34-1.39-2.14-2.26-.62-.35-1-.52-1.59-.87-.36-1.48-.54-2.17-.89-3.65-.36-1.3-.62-1.91-1-3.21-.27-1.56-.35-2.26-.62-3.82-.09-2-.18-3-.27-5-.26-2.17-.44-3.21-.8-5.38-.17-2.43-.26-3.56-.44-6v-4.34c-.09-2.35-.09-3.48-.18-5.73.09-1.83.09-2.69.18-4.52s.27-2.86.44-4.77c.45-1.65.63-2.43,1.07-4.08.18-1.13.27-1.65.44-2.78v-5.3c.27-1.56.45-2.43.71-4,1.25-2,1.78-3,3-5,.54-.52.8-.87,1.42-1.39.45-.26.63-.43,1.07-.69,1.15-.87,1.69-1.39,2.84-2.26.8-.52,1.16-.78,2-1.3.72-.17,1-.26,1.69-.44,1.16-.6,1.69-.95,2.84-1.56,1.16-.87,1.69-1.3,2.85-2.17l2.22-1.3c.88-.52,1.42-.78,2.3-1.3a20.5,20.5,0,0,1,2.22.08c1,.26,1.51.35,2.58.61,1,.44,1.42.7,2.4,1.13.88,1.13,1.42,1.74,2.31,2.87.79.78,1.15,1.21,2,2,.62,1,.89,1.65,1.51,2.69C1016.81,385.92,1016.9,386.61,1017.07,388Z" transform="translate(43.52 1.51)"/>
          <path class="cls-20" d="M1072.66,404.33c-.53,1.38-.8,2.08-1.42,3.56-.89.78-1.33,1.21-2.22,2-1.06.78-1.6,1.13-2.66,1.91l-3.29,1.74-3.64.43c-1.33.52-2,.78-3.28,1.31-.89.78-1.42,1.21-2.31,2-1.07.61-1.6,1-2.76,1.56-.88.44-1.33.61-2.22,1.05-1.42.08-2.22.17-3.64.26-1.15-.18-1.68-.26-2.84-.52a14.75,14.75,0,0,0-2,.34c-.71.44-1.07.7-1.69,1.13-.35,1.22-.44,1.83-.8,3.13.09,2.26.18,3.47.27,5.73.35,1.21.53,1.82.89,3,.71,1.47,1.06,2.25,1.77,3.73l3.29,6.25c.71,1.13,1,1.65,1.69,2.78,1.33,1.13,2,1.74,3.28,2.86.71.61,1.07.87,1.78,1.48.89.61,1.33,1,2.13,1.56h2.57c1-.43,1.42-.6,2.4-1a17,17,0,0,0,2-.52c.89-.61,1.34-.87,2.22-1.39a20.93,20.93,0,0,0,2.22-.78h1.42c.09.43.09.61.18,1a10.74,10.74,0,0,1-.8,1.48c-.53.61-.8.95-1.42,1.56-1,.87-1.42,1.22-2.4,2.08s-1.5,1.31-2.57,2.26c-1,.61-1.42,1-2.4,1.56-.89.44-1.42.61-2.31,1.05-1.42-.09-2-.18-3.46-.26-1.42-.52-2-.79-3.46-1.31-1.16-1-1.69-1.47-2.85-2.51l-3.28-3.65c-1.24-1.74-1.78-2.61-3-4.34-.8-1-1.24-1.39-2-2.35-.62-.95-.89-1.47-1.51-2.51-.53-1.31-.8-1.91-1.33-3.13-.36-.43-.54-.69-.89-1.13-.8-3.21-1.16-4.86-2-8.07-.71-2.78-1-4.26-1.68-7-.45-2.26-.62-3.39-1.07-5.74-.18-1.73-.26-2.6-.35-4.42.08-2,.17-2.95.26-4.95.27-2.09.36-3.13.62-5.21.27-1.74.36-2.69.63-4.43.35-1.21.44-1.82.8-2.95.35-1.39.44-2,.79-3.39.27-.69.45-.95.71-1.65.54-.86.8-1.3,1.43-2.17.44-.08.62-.17,1.06-.26.8-1.91,1.16-2.86,2-4.77.89-1.39,1.34-2.09,2.22-3.39.89-.87,1.43-1.3,2.31-2.17l2.85-.87h3.64c1.24-.08,1.77-.17,3-.26,1.59.35,2.48.52,4.08.87,1.33.69,1.95,1,3.29,1.65,3.64,3.21,5.5,4.86,9.14,8.16,1,1,1.42,1.56,2.4,2.61.89,1.38,1.33,2.17,2.22,3.56.53,1.12.71,1.73,1.24,2.86.27,1.91.45,2.78.8,4.69C1072.66,402,1072.66,402.76,1072.66,404.33ZM1058,396.08c-.53-1-.8-1.48-1.33-2.43-.8-.7-1.24-1-2-1.83s-1.34-.95-2.22-1.65a24,24,0,0,0-2.58-.52h-2.48c-.89.44-1.34.7-2.22,1.13-.89.7-1.34,1-2.22,1.65-.8,1-1.25,1.56-2.05,2.61l-1.15,1.12c-.53,1-.71,1.48-1.24,2.44l.44,1.73c.44-.08.62-.17,1.06-.26.72.09,1.07.18,1.78.26h3c1,.44,1.51.61,2.58,1H1050c1.15-.08,1.69-.17,2.84-.26,1-.43,1.51-.6,2.58-1,.88-.43,1.33-.61,2.22-1C1057.83,397.73,1057.92,397.21,1058,396.08Zm6.75,48.44-.89,1.31c-.35-.52-.53-.78-.89-1.39l.45-1.74h1.15C1064.67,443.48,1064.67,443.83,1064.76,444.52Z" transform="translate(43.52 1.51)"/>
          <path class="cls-20" d="M1129.32,424c-.36.34-.53.43-.89.78-1.15.26-1.69.35-2.84.61-1.33-.26-1.95-.35-3.29-.52-.8-.7-1.15-1-1.86-1.65h-1.69c-1.15-.26-1.77-.44-3-.7-1.42-.43-2.13-.69-3.55-1.13-1.15.09-1.69.18-2.84.26-1,0-1.51,0-2.49-.08-1.33.26-1.95.43-3.28.69h-5l-1.95.87c-2,.52-2.93.78-4.88,1.39-1-.09-1.42-.09-2.4-.18-1.78-.6-2.67-.86-4.35-1.38-.71-.61-1.07-.87-1.78-1.48-.44-1-.62-1.48-1.06-2.43-.36-1.39-.54-2-.8-3.39v-4.95c.44-1.47.62-2.25,1-3.82.89-.95,1.42-1.47,2.31-2.51.89-.44,1.33-.7,2.22-1.13,4,.34,6,.52,10,.95,1.15.26,1.68.35,2.84.61,8.7,4.43,17.4,9,25.93,13.72l1.6,1.56c.53.87.8,1.22,1.33,2.08A12.42,12.42,0,0,1,1129.32,424Z" transform="translate(43.52 1.51)"/>
          <path class="cls-20" d="M1137.75,407.45a15.18,15.18,0,0,1-.79,1.82,11.41,11.41,0,0,0-.8-1.3,13.36,13.36,0,0,1-.8-1.73c.35-.7.62-1,1-1.65.54.08.8.17,1.34.26C1137.75,405.89,1137.75,406.41,1137.75,407.45Zm39.43-1.82c-.09,1.39-.18,2.08-.26,3.47-.27,1-.45,1.48-.71,2.43-.8,2.26-1.25,3.39-2,5.56-.8.26-1.24.35-2,.61-1.15-.35-1.78-.52-2.93-.79-1-.86-1.51-1.3-2.49-2.08l-2-1c-1.07-.78-1.6-1.22-2.58-2-.88-.26-1.42-.34-2.3-.61-.63.27-1,.44-1.6.7-1.07.87-1.6,1.21-2.67,2.08-.62,1-1,1.48-1.6,2.52-.62,1.39-1,2.08-1.68,3.47l-1.16,3.56c-.26,1.22-.35,1.83-.62,3-.18.87-.27,1.3-.44,2.17-.45.52-.62.78-1.07,1.3-.26,2.09-.44,3.13-.71,5.21-.09,1.57-.09,2.35-.18,3.91v7.64c.36,1.74.63,2.61,1,4.34.8,1.57,1.16,2.35,2,3.82.71.7,1.07,1,1.69,1.74,1.07.78,1.6,1.21,2.67,2.08.62.7,1,1,1.68,1.74,2.31.52,3.47.87,5.69,1.39,1-.09,1.51-.09,2.48-.18.54-.26.8-.43,1.33-.69.45-.43.63-.69,1.07-1.13.53.26.89.35,1.42.61.27.95.44,1.48.71,2.43-.09.7-.18,1-.27,1.74-.62.69-.88,1-1.5,1.73-.8.44-1.25.7-2,1.22-1.06.43-1.6.69-2.57,1.13l-2.31.69a14.07,14.07,0,0,0-1.95.09c-1.51-.09-2.31-.17-3.82-.26-1.42-.61-2.13-.87-3.64-1.48l-2.14-2.08-2-2c-.8-1.21-1.24-1.73-2.13-2.95-.62-.52-1-.87-1.6-1.39-.35-1.56-.53-2.34-.89-3.91-.35-1.39-.62-2.08-1-3.47-.27-1.56-.36-2.34-.62-3.91-.09-2-.18-2.95-.27-4.94-.27-2.26-.44-3.3-.71-5.56-.18-2.43-.27-3.65-.44-6v-4.26c-.09-2.25-.09-3.38-.18-5.73.09-1.73.09-2.6.18-4.34s.26-2.69.44-4.51c.44-1.48.62-2.17,1.06-3.65.18-1,.27-1.56.45-2.52v-5.12c.27-1.48.44-2.17.71-3.65,1.15-1.56,1.78-2.34,2.93-3.82l1.33-.86c.45-.09.62-.18,1.07-.26,1.15-.53,1.68-.7,2.75-1.22.71-.26,1.15-.35,1.86-.61.63.09,1,.09,1.69.18,1.16-.18,1.69-.35,2.75-.53,1.16-.43,1.69-.69,2.76-1.12a16.19,16.19,0,0,0,2.13-.52l2.22-.44c.89.35,1.33.52,2.13.87,1,.61,1.51.87,2.49,1.48.88.78,1.42,1.21,2.31,2,.88,1.48,1.33,2.17,2.22,3.65.71,1,1.15,1.56,1.86,2.6.62,1.31.89,1.91,1.51,3.22A11.65,11.65,0,0,1,1177.18,405.63Z" transform="translate(43.52 1.51)"/>
          <path class="cls-20" d="M1217.94,419.17a3.92,3.92,0,0,1-1,.09,9.6,9.6,0,0,0-1.33-.78c-.53-.18-.8-.35-1.33-.52-.8-.09-1.15-.18-2-.26-1,.6-1.42.95-2.4,1.56-.44.95-.71,1.48-1.15,2.43a25.53,25.53,0,0,0-2.4,1c-.45.69-.62,1.12-1.07,1.82-.8.95-1.15,1.47-1.95,2.43-.36,1.21-.53,1.74-.89,3s-.35,1.65-.62,2.78v3.91c-.27,1.13-.36,1.65-.62,2.77s-.36,1.74-.62,2.87c-.27,1.3-.36,2-.63,3.3-.08,1.48-.08,2.26-.17,3.73v8.51c-.09,1.48-.09,2.26-.18,3.73-.27,1.48-.36,2.18-.62,3.56-.09,1.48-.09,2.17-.18,3.65s-.18,2.34-.27,4v3.82c-.44,1.39-.62,2.18-1.06,3.56l-1.33,1.74a16.79,16.79,0,0,1-2,.35c-.53,0-.8.08-1.33.08-.44-.34-.71-.52-1.15-.86-.45-1-.63-1.48-1.07-2.43-.27-1.05-.36-1.65-.62-2.7s-.36-1.65-.62-2.77c.09-1.22.09-1.74.17-3-.08-1.73-.08-2.6-.17-4.34V460c-.09-1.13-.09-1.74-.18-3,.09-1.31.09-1.91.18-3.22.09-1.73.09-2.6.17-4.25v-3.65c.09-1.65.18-2.51.27-4.25s.09-2.61.18-4.26c-.09-2-.09-2.95-.18-4.86v-3.9c-.09-1.39-.18-2-.27-3.39-.08-1.22-.08-1.82-.17-3-.54-1.65-.71-2.43-1.25-4.08-.44-1.3-.62-2-1.06-3.39-.27-1.3-.36-2-.62-3.29-.09-1.48-.09-2.18-.18-3.56.09-1.31.18-1.91.27-3.22.26-.87.44-1.3.71-2.08.53-.43.71-.7,1.24-1.13.8-.26,1.24-.35,2-.61.89-.52,1.33-.69,2.31-1.21.8.52,1.16.69,1.95,1.21l2.49,2.87c.09,1.13.18,1.65.27,2.69.44,1.56.62,2.34,1.06,3.91v5.38c.36.78.54,1.13.89,1.91.36.26.53.35.89.61.53,0,.71-.09,1.24-.09.62-.61.89-.95,1.42-1.56l2-1.48a22.44,22.44,0,0,1,2.22-.95c.8-.52,1.15-.78,1.86-1.22.89.17,1.33.17,2.22.35a21.4,21.4,0,0,1,2.4-.09c.53.18.8.35,1.33.52l1.78,1.74a21.42,21.42,0,0,1,.53,2.17C1217.94,418,1217.94,418.39,1217.94,419.17Z" transform="translate(43.52 1.51)"/>
          <path class="cls-20" d="M1263.67,454.16c-.53,1.13-.71,1.74-1.24,2.87-.8.43-1.24.6-2,1-1,.26-1.42.44-2.4.7-1.15.08-1.78.17-3,.26-1.33-.44-2-.7-3.28-1.13-1.25-.09-1.78-.09-3-.18-.8.35-1.25.53-2.13,1-1,.17-1.51.17-2.49.35a17.39,17.39,0,0,0-2,.08l-3.29-1.3c-1.06-.69-1.6-1-2.57-1.74a14.94,14.94,0,0,0-1.78-.52c-.62.18-1,.18-1.6.35-.27,1-.44,1.56-.71,2.69.09,2.26.18,3.48.27,5.73.35,1.39.53,2,.8,3.39.62,1.74,1,2.6,1.59,4.34,1.25,3,1.78,4.51,3,7.47.63,1.39.89,2.08,1.51,3.47,1.25,1.74,1.78,2.6,3,4.25.62.87,1,1.31,1.6,2.17.8,1.05,1.16,1.48,2,2.52l2.31,1.13h2.13a14.34,14.34,0,0,0,1.78.35l2-.44c.8.09,1.25.18,2.05.26l1.24.61c.09.44.09.7.18,1.13-.27.43-.45.61-.71,1a11.61,11.61,0,0,0-1.25,1c-.89.35-1.33.61-2.13.95s-1.42.61-2.31,1a16.17,16.17,0,0,0-2.13.53h-2.13l-3.11-1.74c-1.24-1.13-1.86-1.65-3.19-2.78-1.07-1.48-1.6-2.17-2.58-3.65-1.24-2-1.78-3-3-5-1.06-2.17-1.69-3.3-2.75-5.56-.8-1.3-1.16-1.91-2-3.21-.53-1.22-.88-1.82-1.42-3.13-.44-1.47-.71-2.17-1.24-3.64-.35-.61-.53-1-.89-1.57-.71-3.47-1.06-5.2-1.77-8.68-.62-3-1-4.51-1.6-7.55-.36-2.43-.62-3.65-1-6-.18-1.82-.18-2.69-.35-4.43.08-1.91.17-2.86.26-4.77.27-1.91.36-2.87.62-4.87.27-1.65.36-2.43.63-4.08.26-1,.44-1.56.71-2.6.26-1.22.44-1.74.71-2.95.26-.52.35-.79.62-1.31.53-.6.8-.95,1.33-1.56.44.09.62.09,1,.17.71-1.47,1.06-2.25,1.77-3.73.8-.95,1.25-1.39,2-2.34.88-.44,1.24-.7,2.13-1.13l2.66.43c1.33.61,2,1,3.29,1.57,1.06.43,1.68.6,2.75,1,1.51,1,2.22,1.56,3.73,2.6,1.24,1.22,1.77,1.83,3,3,3.28,4.78,5,7.12,8.26,11.9.88,1.47,1.24,2.17,2.13,3.64.8,1.74,1.15,2.69,2,4.43.45,1.3.62,2,1.07,3.3.26,2,.44,2.95.71,4.95A21.05,21.05,0,0,1,1263.67,454.16Zm-13.05-14.5c-.44-1.21-.71-1.73-1.15-3l-1.78-2.6c-.8-1.05-1.24-1.57-2-2.61-.89-.69-1.42-.95-2.31-1.65-.89-.43-1.33-.61-2.22-1-.8,0-1.24.09-2,.09-.8.26-1.25.34-2,.6-.71.7-1.06,1-1.86,1.65l-1.07.61c-.44.78-.71,1.13-1.15,1.82.18.79.27,1.13.44,1.91.36.09.62.09,1,.18.62.43,1,.61,1.6,1,1.06.52,1.69.78,2.75,1.3.89.87,1.42,1.31,2.31,2.17,1,.44,1.42.7,2.4,1.13s1.6.61,2.57,1c.89,0,1.42.09,2.31.09h2A26.47,26.47,0,0,1,1250.62,439.66Zm6,50.19a7,7,0,0,0-.8.86,9.69,9.69,0,0,0-.8-1.65c.18-.6.27-.86.45-1.47.44.17.62.35,1.06.52A11.34,11.34,0,0,0,1256.57,489.85Z" transform="translate(43.52 1.51)"/>
          <path class="cls-20" d="M1299.73,525.36c-.09.69-.09,1-.18,1.73l-.89,1.3c-.35-.26-.62-.43-1-.69-.44-1.13-.62-1.74-1.06-2.87-.18-1.47-.27-2.25-.53-3.73-.36-1.3-.54-2-.89-3.3-.18-1.65-.27-2.43-.53-4.08-.18-.52-.36-.87-.54-1.39-.35.09-.44.18-.8.26l-1.15.7c-.45.87-.71,1.21-1.24,2.08-.8.35-1.16.61-2,1-.44.6-.71.95-1.24,1.56-.8.35-1.24.43-2,.78-1,.09-1.42.17-2.31.26a15.4,15.4,0,0,0-2,.09,11.73,11.73,0,0,1-1.78-.09c-.53.09-.8.17-1.33.26-.54-.61-.89-1-1.42-1.65-.8-.69-1.16-.95-2-1.65l-2.31-3.12c-.8-1.48-1.24-2.17-2.13-3.65-.53-1.56-.8-2.34-1.24-3.82-.36-1.65-.53-2.43-1-4-.09-2.26-.09-3.39-.09-5.65v-3.73l.45-3.91c.53-1.39.8-2.08,1.33-3.56.53-1.3.71-2,1.24-3.3.71-.78,1.07-1.13,1.69-1.91.71-.6,1.07-.87,1.78-1.47,1,.26,1.42.34,2.39.6.8.27,1.25.44,2.14.7s1.42.26,2.39.35c.8-.52,1.25-.7,2-1.22,1.06-.35,1.59-.61,2.57-.95.53-.09.8-.18,1.24-.26a7.54,7.54,0,0,1,1.34.08c.17-.95.35-1.39.53-2.34-.45-1.74-.62-2.69-1.07-4.43s-.71-2.52-1.24-4.17c-1.07-2.6-1.6-3.9-2.66-6.42-1.07-1.3-1.6-1.91-2.76-3.21-.89-.61-1.33-1-2.22-1.65-.35-.09-.44-.18-.8-.26-.53-.35-.88-.53-1.42-.87a13.5,13.5,0,0,1-1.68.52,14.54,14.54,0,0,0-1.51.95,12.42,12.42,0,0,0-1.87-.52c-.8-.43-1.24-.69-2-1.13-1-.08-1.42-.08-2.4-.17a23.16,23.16,0,0,1-2.13-1.22c-.71-1-1.07-1.56-1.69-2.6-.53-1.22-.71-1.82-1.24-3-.09-1.3-.09-2-.09-3.3.18-1,.27-1.56.44-2.6.63-1,.89-1.48,1.43-2.43.62-1.13.88-1.74,1.51-3l1.86-1.82,2-.87,2.22-2.17c.89-.26,1.25-.34,2.13-.61l3.82.87c1.33.61,2,.87,3.29,1.48,1,1.13,1.42,1.65,2.31,2.78.8,1.3,1.15,1.91,2,3.12.8,1,1.24,1.57,2,2.61.89,1.82,1.42,2.69,2.31,4.43.45,1.21.71,1.82,1.16,3.12.44,1.82.71,2.69,1.15,4.52.36,2.17.53,3.21.8,5.29s.35,3,.62,5c.36,2.69.53,4.08.89,6.77.35,2.08.53,3.12.8,5.21.09,1.65.09,2.43.09,4.08-.09,2-.09,2.95-.18,4.95.27,2.52.35,3.73.62,6.25s.27,3.82.36,6.34c.44,4.51.71,6.77,1.15,11.37.27,1.82.44,2.69.71,4.52.27,1.65.36,2.43.62,4.08.18,1.91.27,2.95.54,4.86A8.62,8.62,0,0,1,1299.73,525.36Zm-9-33.52c-.18-.78-.36-1.13-.53-1.91-.8-.87-1.16-1.39-2-2.26-.62-.34-1-.43-1.69-.78a8.92,8.92,0,0,1-1.51.35h-1.68a15.28,15.28,0,0,0-1.78.78,12.13,12.13,0,0,1-1.69-.52c-.62.17-.88.35-1.51.52-.53.44-.79.61-1.24,1-.35.79-.53,1.13-.8,1.83-.44.95-.62,1.39-1.06,2.34-.09,1-.18,1.48-.27,2.43s-.35,1.3-.53,2.17V501c.26,1.21.44,1.82.71,3.12a20.56,20.56,0,0,0,1.86,2.09c.8.43,1.16.69,2,1.13.88.08,1.33.17,2.13.26a13.87,13.87,0,0,0,1-1.48c.54.09.8.09,1.34.17l3.1-2.17a17,17,0,0,1,1.51-.95c.45-1,.63-1.65,1.07-2.69.44-.78.71-1.22,1.15-2,.09-1.39.09-2.08.18-3.56A29.63,29.63,0,0,0,1290.76,491.84Zm3.37,29c-.18.17-.35.26-.53.43-.44-.6-.71-.86-1.15-1.47.17-.52.17-.78.35-1.3a3.1,3.1,0,0,1,.8-.35C1293.78,519.1,1294,519.71,1294.13,520.84Zm5.33-18.67a4.93,4.93,0,0,0-.8.52c-.27-.43-.44-.6-.71-1v-1.56a6.4,6.4,0,0,0,1.24-.35C1299.28,500.7,1299.37,501.22,1299.46,502.17Z" transform="translate(43.52 1.51)"/>
          <path class="cls-20" d="M1357.8,562.08c-.09,1-.09,1.56-.17,2.52a23.69,23.69,0,0,1-.54,2.69c-.44-.17-.62-.35-1.06-.52v-4.95c-.09-1.22-.18-1.82-.36-3-.18-1.65-.26-2.43-.53-4.08-.09-2-.09-3-.18-5s-.18-3-.35-5c-.18-1.39-.27-2-.45-3.39-.09-1.74-.18-2.6-.35-4.43-.27-4.77-.36-7.2-.62-12-.27-1.39-.45-2.08-.72-3.56-.44-1.47-.62-2.17-1.06-3.65l-1.16-1.56a12.16,12.16,0,0,0-1-1.3c-.62-.69-1-1-1.6-1.65s-.89-.78-1.42-1.3c-.62-.78-.89-1.13-1.51-1.83-.71.44-1.07.61-1.78,1.05a4.83,4.83,0,0,1-1.06.34c-.27,1.22-.36,1.83-.62,3-.27.78-.36,1.13-.63,1.91-.17,1.39-.26,2.09-.53,3.56s-.44,2.26-.71,3.74c-.27,1.12-.35,1.73-.62,2.95-.18,1.65-.27,2.52-.36,4.17-.08,1.3-.17,1.91-.26,3.21,0,1.91.09,2.78.09,4.69-.09.95-.09,1.39-.18,2.34v6c-.18,1.39-.27,2-.36,3.39-.08.95-.08,1.47-.17,2.43-.36.78-.45,1.21-.8,2a10.14,10.14,0,0,1-1.07-1c-.35-.87-.53-1.3-.89-2.08-.09-.79-.17-1.22-.26-2.09v-7c.09-1.91.09-2.87.17-4.86,0-3.91,0-5.82.09-9.73.09-1.73.09-2.6.18-4.34,0-1.91-.09-2.86-.09-4.86v-4.08c-.09-1.56-.09-2.34-.18-3.82v-9.2c-.17-1.74-.17-2.61-.35-4.26s-.44-2.52-.71-4.17c-.45-.86-.62-1.3-1.07-2.17a19.09,19.09,0,0,0-1.77-1h-1.6l-1.16,1.13c-.44.61-.71.87-1.15,1.47-.53,1-.8,1.48-1.42,2.52-.44,1-.71,1.56-1.16,2.61-.44,1.39-.62,2-1.06,3.38l-.89,4.08c-.44,2-.62,3-1.06,4.95-.18,2.26-.27,3.47-.45,5.73-.09,1.83-.18,2.69-.26,4.52s-.27,2.86-.45,4.69V530c.09,1.73.18,2.69.27,4.42v5.74c-.36,1.21-.54,1.82-.89,3-.62.87-.89,1.31-1.51,2.09a9.15,9.15,0,0,0-1.51-.35,17.19,17.19,0,0,1-1.42-1.13c-.36-.87-.53-1.21-.89-2.08s-.35-1.39-.62-2.26c-.36-2.6-.53-3.91-.89-6.51-.18-2.52-.18-3.82-.35-6.34-.18-2.26-.27-3.39-.54-5.64v-6.08c0-2.43-.08-3.65-.08-6.16-.18-2.52-.18-3.82-.36-6.34,0-2.35-.09-3.56-.09-5.91-.27-2.17-.35-3.3-.53-5.47v-5c.18-1.39.18-2.09.35-3.47-.08-1.31-.17-2-.26-3.3-.27-1.65-.36-2.52-.62-4.17s-.45-2.61-.8-4.26c-.63-2.95-1-4.51-1.6-7.46.18-1.3.26-1.91.44-3.13.36-.69.45-1,.8-1.73.27-.44.36-.61.62-1.05a17.78,17.78,0,0,1,2.13-.34c.63,0,.89.08,1.51.08l2.22,2.17c1,1.13,1.42,1.65,2.31,2.78.71,1.13,1.07,1.65,1.69,2.69.8,1.31,1.15,2,1.86,3.3.45,1.31.71,1.91,1.16,3.22.27,1,.44,1.47.71,2.51s.35,1.65.62,2.78c.71.35,1,.52,1.69.87.71,0,1.06-.09,1.77-.09s1,.18,1.6.26l1.16-.69c.89.35,1.42.52,2.31.87.62,1,1,1.56,1.59,2.6s.8,1.74,1.43,2.87c.44,1.3.62,1.91,1.06,3.21.27,1.48.36,2.26.62,3.73v2.52c.18,1.65.27,2.43.45,4.08,0,1.39.09,2.08.09,3.47.35-.6.53-.95.88-1.56.36-.17.62-.26,1-.43.44-.87.71-1.31,1.15-2.17.45-.61.63-1,1.07-1.57.53-.17.8-.34,1.24-.52a15.08,15.08,0,0,1,1.25-.95c.53.08.8.17,1.42.26.44.26.71.35,1.24.61.53.52.71.86,1.24,1.39.45,1,.71,1.56,1.16,2.6.71,1.13,1.06,1.74,1.69,2.86.53,1.48.88,2.26,1.42,3.74.35,1.47.62,2.26,1,3.73.27,1.3.45,2,.71,3.39s.36,2,.54,3.38.08,2.17.17,3.65v3.73c.09,1.48.09,2.26.18,3.82v3.22c.18,1.73.27,2.6.36,4.34.09,1.91.09,2.86.17,4.77.27,1.57.36,2.43.54,4,.09,1.39.17,2.08.35,3.56,0,1.3.09,1.91.09,3.21v4c0,1.39.09,2.17.09,3.56,0,1,.09,1.56.09,2.69A3.83,3.83,0,0,1,1357.8,562.08Zm-.53-62.51c-.62-.09-1-.17-1.6-.26a26.23,26.23,0,0,1-.53-2.61c.27-.95.35-1.38.62-2.34.53,1,.71,1.56,1.24,2.6A12.78,12.78,0,0,0,1357.27,499.57Z" transform="translate(43.52 1.51)"/>
        </g>
      </g>
    </g>
    <g class="cls-11">
      <g>
        <path class="cls-21" d="M929.07,488.46l32.68-20.23a1.25,1.25,0,0,1,1.6.17h0a.9.9,0,0,1-.18,1.22c-.09,0-.09.08-.18.08l-32.67,20.23a1.25,1.25,0,0,1-1.51-.17h0a.93.93,0,0,1,.08-1.3Z" transform="translate(43.52 1.51)"/>
        <path class="cls-21" d="M933.16,464.32l11.72,15.37c.18.17.09.34,0,.52l-.09.08h0a.68.68,0,0,1-.71-.08l-11.72-15.46a.53.53,0,0,1,0-.52h.09A.56.56,0,0,1,933.16,464.32Z" transform="translate(43.52 1.51)"/>
        <path class="cls-22" d="M917.44,340.77l30,44.37a1.77,1.77,0,0,1,.09,2.17h0c-.44.52-1.15.35-1.68-.44l-30-44.36a1.8,1.8,0,0,1-.09-2.17h0A1.12,1.12,0,0,1,917.44,340.77Z" transform="translate(43.52 1.51)"/>
        <path class="cls-21" d="M888.14,441.31l-12-26.48a3.59,3.59,0,0,1,1-3.82h0c1.07-.95,2.31-.87,2.76.26l12,26.48a3.44,3.44,0,0,1-1,3.74h0C889.91,442.53,888.67,442.44,888.14,441.31Z" transform="translate(43.52 1.51)"/>
        <path class="cls-21" d="M891.15,437.4l16.79,8.6a3.31,3.31,0,0,1,1.6,3.82h0a2.28,2.28,0,0,1-2.22,1.74,1.75,1.75,0,0,1-1.07-.35l-16.87-8.68a3.32,3.32,0,0,1-1.6-3.82h0A2.27,2.27,0,0,1,890,437,5.21,5.21,0,0,1,891.15,437.4Z" transform="translate(43.52 1.51)"/>
        <path class="cls-21" d="M957.31,448.78l-3.55,9.29a1.54,1.54,0,0,0,.8,1.91h0a1.37,1.37,0,0,0,1.69-.35.71.71,0,0,0,.17-.35L960,450a1.55,1.55,0,0,0-.8-1.91h0a1.39,1.39,0,0,0-1.69.35A.45.45,0,0,0,957.31,448.78Z" transform="translate(43.52 1.51)"/>
        <path class="cls-23" d="M921.08,441.92c1.78.87,2.31,1.13,3-.17l.62-1.83c2-6.25,1.24-5.9,1.24-5.9h0" transform="translate(43.52 1.51)"/>
        <path class="cls-23" d="M942.84,441.66l1.68-2a1.16,1.16,0,0,0,.18-1l-2.22-7.3" transform="translate(43.52 1.51)"/>
        <path class="cls-21" d="M971.16,433.06c-5.32,21.62-3.55,23.53-8.88,46.28-6.39,27.26-9.68,40.89-15,41.24-10.93.87-16.08-33.08-49.29-87-2.57-4.16-9.5-15.28-6.57-20,2.49-3.91,10.39-.26,33.12.43,1.78.09,4.62.17,6.93.09,26.55-.44,40.58-17.28,45.56-12.59C980.13,404.67,976.14,412.66,971.16,433.06Z" transform="translate(43.52 1.51)"/>
        <path class="cls-21" d="M975.34,405.54A170.39,170.39,0,0,0,948,409.27c-18.83,4.26-21.85,8.51-32.06,6.69a72.59,72.59,0,0,0-19.36-1.65,49.88,49.88,0,0,0-5.68.61c-3.2-1-5.95-3.39-5.95-5.73.09-2.95,2.84-5.65,6.3-6h0l82.68-8c3.37-.35,6.12,1.82,6.12,4.77S978.8,405.19,975.34,405.54Z" transform="translate(43.52 1.51)"/>
        <path class="cls-21" d="M922.86,455.29l17.58-17a.69.69,0,0,1,.8,0h0a.63.63,0,0,1,0,.78h0l-17.58,17a.66.66,0,0,1-.8,0h0a.63.63,0,0,1,0-.78Z" transform="translate(43.52 1.51)"/>
        <path class="cls-21" d="M931.83,460.59l9.94-12.77c.09-.17.36-.08.45.09h0a.52.52,0,0,1,.08.61l-9.85,12.67c0,.18-.27.09-.45-.08h0C931.83,460.93,931.74,460.76,931.83,460.59Z" transform="translate(43.52 1.51)"/>
        <path class="cls-21" d="M930.85,481.25l28.86-25.18a1.36,1.36,0,0,1,1.6-.09h0a1,1,0,0,1,0,1.31c0,.08-.09.08-.18.08l-28.86,25.18a1.23,1.23,0,0,1-1.6.09h0a.93.93,0,0,1,0-1.3C930.76,481.34,930.85,481.34,930.85,481.25Z" transform="translate(43.52 1.51)"/>
        <path class="cls-21" d="M921.17,443.4l35.61,36a1.41,1.41,0,0,1,.26,1.65h0a.86.86,0,0,1-1.24.08l-.09-.08L920.1,445.22a1.41,1.41,0,0,1-.26-1.65h0a.85.85,0,0,1,1.15-.17A.12.12,0,0,1,921.17,443.4Z" transform="translate(43.52 1.51)"/>
        <path class="cls-24" d="M970.54,408.84a152.37,152.37,0,0,0-24.15,3.21c-16.61,3.74-19.27,7.56-28.24,5.91a62.4,62.4,0,0,0-17-1.48A47,47,0,0,0,896,417c-2.75-.87-5.24-3-5.24-5a5.92,5.92,0,0,1,5.59-5.3h0l72.91-6.95c3-.26,5.42,1.57,5.42,4.26C974.54,406.5,973.47,408.58,970.54,408.84Z" transform="translate(43.52 1.51)"/>
        <path class="cls-25" d="M915.75,451.38c6,15.8,7.11,17.89,13.5,34.65,7.55,20.05,11.37,30,10,28.65-2.75-3-16-32.13-43.95-86.74-2.13-4.17-7.9-15.45-8.7-18.23-.63-2.35,2.84,3.12,9.5,11.2l2,2.34c7.37,8.34,5.42-.78,8.53,4.6C908.47,431.24,910.16,436.45,915.75,451.38Z" transform="translate(43.52 1.51)"/>
        <path class="cls-26" d="M966.19,434.37c-1.42,11.2-1.86,12.67-3.37,24.57-1.87,14.15-2.76,21.27-2.22,20.14,1.15-2.17,5-23,13.85-62.34.71-3,2.49-11.11,2.66-13.11C977.2,402,976,406,973.3,412c-.18.43-.54,1.21-.8,1.73-3,6.25-3-.08-4,3.82C967.88,420.13,967.61,423.86,966.19,434.37Z" transform="translate(43.52 1.51)"/>
        <g>
          <path class="cls-27" d="M941,390.78a16.5,16.5,0,0,0-1.33,4,14.92,14.92,0,0,0,2.4,10.59c2.57,3.64,4.79,3,6.39,6.34s1.42,7.46-.44,8.33c-2.84,1.39-8.88-5.47-10.3-4.51-.89.6,1.24,3.12,1.77,8,.09.52.89,7.12-1.33,8s-6.22-4.86-7.19-4.34c-.62.35,1,2.69,1.51,6,.8,4.34-.09,10.07-2.22,10.68-3.91,1.13-11.28-15-13.32-14.24-1.42.52,1.24,8.16-.36,8.77-1.95.78-7.55-9.46-10.92-8.51-2.13.7-1.78,5.47-3.55,5.82-2.4.43-4.8-8.25-7.64-7.82-2.31.35-2.13,6.08-4.79,6.6-3.2.7-9.86-6-8.88-12.5.26-1.56.79-2.95-.09-4.69-1.07-2-3.47-2.43-5.51-3.38-3.46-1.74-4.71-4.69-6.57-9.21a26.73,26.73,0,0,1,.71-23.27c6.3-12.06,19.8-16.66,23.71-18,3.55-1.22,13.76-4.69,25-1.91C935.82,366.12,944.17,383.4,941,390.78Z" transform="translate(43.52 1.51)"/>
          <ellipse class="cls-28" cx="902.87" cy="391.86" rx="5.47" ry="6.29" transform="translate(-24.21 556.63) rotate(-33.01)"/>
          <path class="cls-29" d="M916.73,409.1c-2.49,1.91-7.19.78-7.37-.52,0-.78,1.51-2.08,2.75-2.17.89-.09,1.24.43,2.13.26s.8-.69,2-1.22c.26-.08,1.33-.6,1.86-.34C918.86,405.54,918.42,407.89,916.73,409.1Z" transform="translate(43.52 1.51)"/>
          <ellipse class="cls-30" cx="904.54" cy="393.04" rx="3.62" ry="4.46" transform="matrix(0.83, -0.55, 0.55, 0.83, -22.89, 567.55)"/>
          <ellipse class="cls-31" cx="905.99" cy="395.4" rx="1.95" ry="1.65" transform="translate(-25.55 234.4) rotate(-14.12)"/>
          <ellipse class="cls-32" cx="915.54" cy="388.08" rx="5.86" ry="6.86" transform="matrix(1, -0.04, 0.04, 1, 29.35, 36.81)"/>
          <path class="cls-33" d="M928,394.51c2,1.83-3.82,13.29-13.94,15.72-9.86,2.34-20-4.69-19.1-7.21.54-1.65,5.6-.6,15.81-2.95C922.06,397.29,926.5,393.3,928,394.51Z" transform="translate(43.52 1.51)"/>
          <polygon class="cls-34" points="961.14 404.01 957.76 405.05 956.52 400.8 959.81 399.84 961.14 404.01"/>
          <polygon class="cls-34" points="957.05 405.57 953.68 406.36 952.79 402.01 956.16 401.32 957.05 405.57"/>
          <path class="cls-35" d="M928,394.51c2,1.83-3.82,13.29-13.94,15.72-9.86,2.34-20-4.69-19.1-7.21.54-1.65,5.6-.6,15.81-2.95C922.06,397.29,926.5,393.3,928,394.51Z" transform="translate(43.52 1.51)"/>
          <ellipse class="cls-36" cx="914.33" cy="389.28" rx="3.63" ry="4.44" transform="translate(-29.69 279.85) rotate(-16.65)"/>
          <ellipse class="cls-31" cx="914.87" cy="391.49" rx="1.95" ry="1.65" transform="translate(-24.33 236.45) rotate(-14.12)"/>
          <g class="cls-37">
            <path class="cls-38" d="M889.91,370.81a2.4,2.4,0,0,0,0,1.13,2.06,2.06,0,0,0,1.78,1.65c1.15.17,1.68-.52,2.48-.17A1.18,1.18,0,0,1,895,375c0,.09-.09.17-.09.26-.71,1-3.19,1-3.46,1.48s.71.34,1.33,1.21c0,.09,1,1.3.45,2s-2.31.43-2.58.78.53.35,1.07.87,1,2.17.44,2.78c-1,1.13-4.88-.44-5.33.17-.35.43,1.25,1.39.8,1.91s-3.19-.17-4.08.87c-.53.61,0,1.56-.45,2s-2.22-.61-3,.17,0,1.74-.71,2.52-3.46,1-3.9-.52c-.09-.35-.09-.79-.54-1s-1.24.35-1.95.61a3,3,0,0,1-2.84-.35c-.53-.26-2.75-1.39-2.22-5,.62-4,4.08-8.08,5.06-9.29a27.2,27.2,0,0,1,7.19-6.26C885.92,367,890.09,368.56,889.91,370.81Z" transform="translate(43.52 1.51)"/>
          </g>
        </g>
        <g>
          <path class="cls-39" d="M982.26,386.35a14.65,14.65,0,0,0-2,3.13,15.24,15.24,0,0,0-.62,9.72c1.15,3.91,2.93,3.91,3.46,7.21s-.62,6.77-2.31,7.12c-2.48.43-5.41-7.21-6.75-6.69-.79.26.18,3-.44,7.38-.09.44-1.06,6.43-2.84,6.52s-3.55-5.91-4.44-5.65c-.53.18.09,2.61-.18,5.56-.44,4-2.49,8.68-4.17,8.68-3.2-.09-5.15-16-6.75-15.8-1.16.09-.89,7.38-2.31,7.47-1.69.17-3.46-10.25-6.3-10.25-1.78,0-2.58,4.25-4,4-1.95-.26-1.69-8.42-3.91-8.76-1.77-.35-3,4.68-5.15,4.42-2.48-.26-6-7.81-3.82-13.19a7.17,7.17,0,0,0,1-4.08c-.36-2-2-3-3.37-4.35-2.22-2.43-2.49-5.29-2.85-9.72a27.16,27.16,0,0,1,5.78-19.88c7.54-8.77,18.73-9.12,21.93-9.29a30.73,30.73,0,0,1,19.18,5C984,363.69,986.35,380.8,982.26,386.35Z" transform="translate(43.52 1.51)"/>
          <ellipse class="cls-28" cx="947.02" cy="375.32" rx="4.35" ry="5.73" transform="translate(-0.31 140.34) rotate(-8.2)"/>
          <path class="cls-29" d="M953.49,394c-2.31,1-5.68-1.21-5.41-2.43.08-.69,1.59-1.39,2.57-1.13.71.09.8.7,1.51.79s.8-.44,1.69-.53c.26,0,1.15-.17,1.51.27S955,393.39,953.49,394Z" transform="translate(43.52 1.51)"/>
          <ellipse class="cls-30" cx="948.1" cy="376.81" rx="2.84" ry="4" transform="translate(-7.63 172.44) rotate(-10.03)"/>
          <ellipse class="cls-31" cx="992.14" cy="380.62" rx="1.51" ry="1.48"/>
          <ellipse class="cls-32" cx="957.48" cy="375.47" rx="6.17" ry="4.7" transform="translate(501.97 1276.27) rotate(-82.39)"/>
          <path class="cls-33" d="M965.21,384.36c1.07,2.08-5.86,10.42-14.11,9.81s-13.86-9.38-12.7-11.29c.8-1.21,4.35,1,12.61,1.56C960.15,385.14,964.5,382.88,965.21,384.36Z" transform="translate(43.52 1.51)"/>
          <polygon class="cls-40" points="999.14 390.03 996.39 390.03 996.39 386.04 999.14 386.04 999.14 390.03"/>
          <polygon class="cls-40" points="995.77 390.29 993.02 390.03 993.37 386.04 996.04 386.3 995.77 390.29"/>
          <path class="cls-41" d="M965.21,384.36c1.07,2.08-5.86,10.42-14.11,9.81s-13.86-9.38-12.7-11.29c.8-1.21,4.35,1,12.61,1.56C960.15,385.14,964.5,382.88,965.21,384.36Z" transform="translate(43.52 1.51)"/>
          <ellipse class="cls-36" cx="999.68" cy="377.7" rx="2.84" ry="3.99"/>
          <ellipse class="cls-31" cx="999.69" cy="379.6" rx="1.51" ry="1.48"/>
        </g>
        <g>
          <path class="cls-42" d="M949.67,347.54a15.95,15.95,0,0,0-1.24,14.94c1.78,4.25,3.82,4.08,4.8,7.72s.17,7.91-1.69,8.34c-2.75.78-7-7.47-8.44-6.77-.88.43.62,3.47.45,8.42,0,.52-.27,7.38-2.31,7.81s-4.8-6.25-5.77-5.81c-.63.26.44,2.95.53,6.33.09,4.61-1.69,10.16-3.55,10.34-3.55.34-7.82-17.54-9.77-17.11-1.33.26-.09,8.51-1.6,8.77-1.86.44-5.24-11.2-8.44-10.85-2,.17-2.39,5.12-3.9,5.12-2.22,0-3-9.29-5.6-9.46-2-.18-2.75,5.64-5.24,5.73-2.84.08-7.72-8.08-6-14.41.35-1.48,1.15-3,.62-4.78-.71-2.26-2.76-3.13-4.35-4.51-2.85-2.44-3.47-5.74-4.44-10.68-.54-2.78-2.67-13.46,4-23.36,7.37-10.85,20-12.76,23.62-13.28,3.38-.52,12.88-1.91,22.38,3.3C948.7,321.67,953.67,340.77,949.67,347.54Z" transform="translate(43.52 1.51)"/>
          <ellipse class="cls-43" cx="908.48" cy="339.53" rx="4.88" ry="6.52" transform="translate(-13.23 246.49) rotate(-14.9)"/>
          <path class="cls-29" d="M918.15,359.87c-2.49,1.39-6.57-.69-6.39-2.08.09-.78,1.59-1.74,2.75-1.65.8.17,1,.69,1.86.69s.8-.52,1.87-.78c.27-.08,1.24-.34,1.69,0C920.55,356.66,919.84,358.92,918.15,359.87Z" transform="translate(43.52 1.51)"/>
          <ellipse class="cls-30" cx="909.77" cy="340.91" rx="3.28" ry="4.61" transform="translate(-16.07 277.3) rotate(-16.7)"/>
          <ellipse class="cls-31" cx="954.19" cy="345.19" rx="1.78" ry="1.74"/>
          <ellipse class="cls-44" cx="920.3" cy="338.29" rx="7.12" ry="5.33" transform="translate(615.96 1256.53) rotate(-89.4)"/>
          <path class="cls-33" d="M930.23,347.46c1.51,2.25-5.33,12.59-14.66,12.93s-17-8.94-15.89-11.28c.71-1.57,5,.6,14.39.26C924.54,348.93,929.16,345.89,930.23,347.46Z" transform="translate(43.52 1.51)"/>
          <polygon class="cls-45" points="963.45 354.87 960.34 355.13 959.81 350.62 962.91 350.36 963.45 354.87"/>
          <polygon class="cls-45" points="959.63 355.56 956.52 355.65 956.43 351.14 959.45 351.05 959.63 355.56"/>
          <path class="cls-46" d="M930.23,347.46c1.51,2.25-5.33,12.59-14.66,12.93s-17-8.94-15.89-11.28c.71-1.57,5,.6,14.39.26C924.54,348.93,929.16,345.89,930.23,347.46Z" transform="translate(43.52 1.51)"/>
          <ellipse class="cls-36" cx="919.08" cy="339.18" rx="3.28" ry="4.6" transform="translate(9.85 112.62) rotate(-6.79)"/>
          <ellipse class="cls-31" cx="962.64" cy="343.1" rx="1.78" ry="1.74"/>
        </g>
      </g>
    </g>
    <g class="cls-11">
      <g>
        <g>
          <ellipse class="cls-16" cx="1159.16" cy="579.83" rx="22.82" ry="22.4"/>
          <ellipse class="cls-16" cx="1191.04" cy="566.28" rx="31.7" ry="29.69"/>
          <ellipse class="cls-16" cx="1226.39" cy="565.67" rx="38.1" ry="35.77"/>
          <ellipse class="cls-16" cx="1258.35" cy="579.83" rx="22.82" ry="22.4"/>
        </g>
        <g>
          <ellipse class="cls-47" cx="1229.05" cy="586.33" rx="13.46" ry="20.6" transform="translate(648.64 1798.24) rotate(-88.23)"/>
          <path class="cls-47" d="M1171.68,576.32c.71,10.16,19.44,17.62,34.81,16,10.39-1,21.49-6.42,22.55-14.15,1.33-9.37-13-18.32-28.06-18.84C1185.71,558.87,1171.05,567.12,1171.68,576.32Z" transform="translate(43.52 1.51)"/>
          <path class="cls-47" d="M1133.94,574.76c2,8.42,18.47,13.45,30.19,14.5,15.45,1.39,35.87-3.13,38.72-12.33,3-9.81-14.75-22.06-33.75-22.66S1131.54,564.86,1133.94,574.76Z" transform="translate(43.52 1.51)"/>
          <path class="cls-47" d="M1108.81,583.7c.53,7.64,16.25,14.5,30,13.28,9.15-.78,20.78-5.38,21-12.85S1149,571.28,1139.71,570C1125.14,568.07,1108.36,575.63,1108.81,583.7Z" transform="translate(43.52 1.51)"/>
        </g>
        <g class="cls-8">
          <ellipse class="cls-47" cx="1180.83" cy="582" rx="19" ry="17.71"/>
          <ellipse class="cls-47" cx="1207.56" cy="571.32" rx="26.46" ry="23.53"/>
          <ellipse class="cls-47" cx="1237.13" cy="570.8" rx="31.88" ry="28.3"/>
          <ellipse class="cls-47" cx="1263.77" cy="582" rx="19" ry="17.71"/>
        </g>
      </g>
    </g>
    <g>
      <g>
        <ellipse class="cls-16" cx="1527.87" cy="417.21" rx="41.05" ry="40.3"/>
        <ellipse class="cls-16" cx="1585.42" cy="392.71" rx="57.21" ry="53.48"/>
        <ellipse class="cls-16" cx="1649.2" cy="391.53" rx="68.7" ry="64.38"/>
        <ellipse class="cls-16" cx="1706.75" cy="417.21" rx="41.05" ry="40.3"/>
      </g>
      <g>
        <ellipse class="cls-47" cx="1688.77" cy="430.09" rx="24.33" ry="37.16" transform="translate(1250.39 2106.32) rotate(-88.23)"/>
        <path class="cls-47" d="M1585.46,412.07c1.29,18.25,35,31.68,62.73,28.9,18.67-2,38.81-11.66,40.71-25.6,2.33-17-23.34-33-50.64-33.88C1610.6,380.56,1584.33,395.43,1585.46,412.07Z" transform="translate(43.52 1.51)"/>
        <path class="cls-47" d="M1517.45,409.28c3.8,15.13,33.27,24.34,54.44,26.19,27.83,2.54,64.73-5.57,69.82-22.22,5.45-17.66-26.61-39.71-60.83-40.81S1513.13,391.37,1517.45,409.28Z" transform="translate(43.52 1.51)"/>
        <path class="cls-47" d="M1472.17,425.42c.86,13.77,29.29,26,54.09,24,16.59-1.35,37.51-9.71,37.94-23.15s-19.53-23.23-36.38-25.51C1501.55,397.2,1471.22,410.72,1472.17,425.42Z" transform="translate(43.52 1.51)"/>
      </g>
      <g class="cls-8">
        <ellipse class="cls-47" cx="1567.1" cy="421.1" rx="34.31" ry="31.94"/>
        <ellipse class="cls-47" cx="1615.15" cy="401.75" rx="47.79" ry="42.33"/>
        <ellipse class="cls-47" cx="1668.38" cy="400.82" rx="57.38" ry="51.03"/>
        <ellipse class="cls-47" cx="1716.52" cy="421.1" rx="34.31" ry="31.94"/>
      </g>
    </g>
    <g class="cls-48">
      <g>
        <g>
          <ellipse class="cls-16" cx="525.54" cy="703.88" rx="11.58" ry="11.41"/>
          <ellipse class="cls-16" cx="541.79" cy="696.96" rx="16.16" ry="15.12"/>
          <ellipse class="cls-16" cx="559.85" cy="696.62" rx="19.44" ry="18.25"/>
          <ellipse class="cls-16" cx="576.09" cy="703.88" rx="11.58" ry="11.41"/>
        </g>
        <g>
          <ellipse class="cls-47" cx="539.79" cy="706.43" rx="6.84" ry="10.54" transform="translate(-139.42 1225.69) rotate(-88.23)"/>
          <path class="cls-47" d="M510.62,701.36c.35,5.16,9.94,9,17.72,8.2,5.27-.51,11-3.3,11.49-7.27.69-4.81-6.57-9.38-14.34-9.55C517.71,692.41,510.28,696.63,510.62,701.36Z" transform="translate(43.52 1.51)"/>
          <path class="cls-47" d="M491.35,700.52c1,4.31,9.42,6.84,15.38,7.43,7.87.68,18.32-1.6,19.79-6.25,1.56-5-7.51-11.24-17.19-11.57S490.14,695.45,491.35,700.52Z" transform="translate(43.52 1.51)"/>
          <path class="cls-47" d="M478.56,705.08c.26,3.89,8.3,7.35,15.3,6.76,4.67-.42,10.63-2.79,10.71-6.51s-5.53-6.59-10.28-7.18C486.86,697.14,478.3,700.94,478.56,705.08Z" transform="translate(43.52 1.51)"/>
        </g>
        <g class="cls-8">
          <ellipse class="cls-47" cx="536.6" cy="704.98" rx="9.68" ry="9.04"/>
          <ellipse class="cls-47" cx="550.17" cy="699.49" rx="13.48" ry="12"/>
          <ellipse class="cls-47" cx="565.29" cy="699.24" rx="16.25" ry="14.45"/>
          <ellipse class="cls-47" cx="578.86" cy="704.98" rx="9.68" ry="9.04"/>
        </g>
      </g>
    </g>
    <g class="cls-48">
      <g>
        <g>
          <ellipse class="cls-16" cx="1427.72" cy="661.64" rx="9.16" ry="12.34"/>
          <ellipse class="cls-16" cx="1440.59" cy="654.12" rx="12.79" ry="16.39"/>
          <ellipse class="cls-16" cx="1454.76" cy="653.78" rx="15.3" ry="19.69"/>
          <ellipse class="cls-16" cx="1467.64" cy="661.64" rx="9.16" ry="12.34"/>
        </g>
        <g>
          <ellipse class="cls-47" cx="1429.75" cy="664.62" rx="7.44" ry="8.29" transform="translate(637.23 2002.9) rotate(-82.91)"/>
          <path class="cls-47" d="M1406.75,659c.26,5.58,7.78,9.72,14,8.87,4.15-.59,8.64-3.54,9.07-7.85.52-5.16-5.18-10.14-11.32-10.4S1406.49,654,1406.75,659Z" transform="translate(43.52 1.51)"/>
          <path class="cls-47" d="M1391.54,658.19c.87,4.65,7.43,7.43,12.1,8,6.22.77,14.43-1.68,15.55-6.84,1.21-5.41-6-12.17-13.56-12.5S1390.59,652.7,1391.54,658.19Z" transform="translate(43.52 1.51)"/>
          <path class="cls-47" d="M1381.52,663.09c.17,4.22,6.56,7.94,12,7.35,3.71-.42,8.38-3,8.47-7.1s-4.32-7.09-8.13-7.77C1388,654.47,1381.26,658.61,1381.52,663.09Z" transform="translate(43.52 1.51)"/>
        </g>
        <g class="cls-8">
          <ellipse class="cls-47" cx="1436.44" cy="662.82" rx="7.69" ry="9.8"/>
          <ellipse class="cls-47" cx="1447.16" cy="656.91" rx="10.63" ry="12.93"/>
          <ellipse class="cls-47" cx="1459.09" cy="656.66" rx="12.79" ry="15.63"/>
          <ellipse class="cls-47" cx="1469.8" cy="662.82" rx="7.69" ry="9.8"/>
        </g>
      </g>
    </g>
  </g>
  <g>
    <g>
      <ellipse class="cls-10" cx="1428.4" cy="657.65" rx="13.4" ry="13.5"/>
      <ellipse class="cls-10" cx="1447.2" cy="649.45" rx="18.7" ry="17.9"/>
      <ellipse class="cls-10" cx="1468.1" cy="649.05" rx="22.5" ry="21.6"/>
      <ellipse class="cls-10" cx="1486.9" cy="657.65" rx="13.4" ry="13.5"/>
    </g>
    <g>
      <ellipse class="cls-10" cx="1451.72" cy="660.95" rx="8.1" ry="12.2" transform="matrix(0.03, -1, 1, 0.03, 787.27, 2091.84)"/>
      <path class="cls-10" d="M1418,654.94c.4,6.1,11.5,10.6,20.5,9.7,6.1-.6,12.7-3.9,13.3-8.6.8-5.7-7.6-11.1-16.6-11.3S1417.58,649.34,1418,654.94Z" transform="translate(43.52 1.51)"/>
      <path class="cls-10" d="M1395.68,653.94c1.2,5.1,10.9,8.1,17.8,8.8,9.1.8,21.2-1.9,22.9-7.4,1.8-5.9-8.7-13.3-19.9-13.7S1394.28,647.94,1395.68,653.94Z" transform="translate(43.52 1.51)"/>
      <path class="cls-10" d="M1380.88,659.44c.3,4.6,9.6,8.7,17.7,8,5.4-.5,12.3-3.3,12.4-7.7s-6.4-7.8-11.9-8.5C1390.48,649.94,1380.58,654.44,1380.88,659.44Z" transform="translate(43.52 1.51)"/>
    </g>
    <g class="cls-8">
      <ellipse class="cls-10" cx="1441.2" cy="658.95" rx="11.2" ry="10.7"/>
      <ellipse class="cls-10" cx="1456.9" cy="652.45" rx="15.6" ry="14.2"/>
      <ellipse class="cls-10" cx="1474.4" cy="652.15" rx="18.8" ry="17.1"/>
      <ellipse class="cls-10" cx="1490.1" cy="658.95" rx="11.2" ry="10.7"/>
    </g>
  </g>
  <g>
    <path class="cls-49" d="M1069,1059.92a3.1,3.1,0,0,1,1.55,3.2c-.59,2.57-5.67,2.05-16.63,3.83-15.73,2.56-18.32,5.28-25.11,3.68-10.27-2.43-7.35-8.65-16.83-10.5-6-1.17-9.77.52-31.22,2-21.08,1.47-58.86,2.77-57.9.18.56-1.49,15.43-3.73,24-4.75,21.87-2.64,36.79-1.38,78.16,1.91,9.92.79,14.84,1.15,20.1.31,4.54-.73,4.56-1.65,8.64-2.08C1058.93,1057.15,1066.16,1057.92,1069,1059.92Z" transform="translate(43.52 1.51)"/>
    <g>
      <path class="cls-50" d="M1078.59,1039.34c-11,17.21-33.93,20.17-36.53,20.51a79.87,79.87,0,0,1-11.11.58c-9.81-.29-13.67-2.62-22.18-1.62-2.65.32-8.41,1-8.73,3-.59,3.72,19.22,7.34,18.91,12.92-.15,2.64-4.88,5.47-9.09,5.35-13.41-.36-31.09-31.66-22.55-47.64,7.73-14.46,32.21-8.31,37.51-21.34,6.71-16.5-27-36.35-21.07-48.37,4.36-8.88,28.81-11.06,41.5-.51,4.1,3.41,5.57,7,15.16,16.11,6.52,6.17,9.18,7.66,11.84,10.19C1082.93,998.64,1089.84,1021.74,1078.59,1039.34Z" transform="translate(43.52 1.51)"/>
      <path class="cls-51" d="M958.92,959.56c2.82,6.93-5.51,10.28-19.22,32.24-8,12.88-12.19,23.07-15.94,21.32-2.73-1.26-1.53-7-7.19-13.88-3.55-4.3-5.38-3.66-14.22-10.34a156,156,0,0,1-13.13-11.38c-7.37-6.82-7.4-7.56-13.38-13.17-12.58-11.81-15.24-11.19-19.08-17.29s-6.72-15.39-4.39-21.34c4.84-12.38,30-3.69,35.36-1.84,13.51,4.67,14.38,9,32.58,17.94C945.17,954,955.84,952,958.92,959.56Z" transform="translate(43.52 1.51)"/>
      <path class="cls-52" d="M1043,1002c.44,5.72,1.18,15.41-4.71,22.44-1.44,1.72-1.77,1.47-13.92,9.33-6,3.88-9,5.81-10.19,7-6.15,6-4.15,10.2-8.43,15.71-6.21,8-19.17,10.3-28.07,8.72-7.15-1.28-8.38-4.46-15.61-4.34-5.9.11-7.37,2.29-12.67,1.34s-9-4-11.08-5.66c-5-4-4.47-6-8.07-9.09-9-7.92-19.21-1.79-24.57-9.21-1.21-1.68-2.63-4.64-1.79-6.32,1.54-3.06,8.86,1.49,14.1-2.84,2-1.63,2.33-3.42,4.61-3.89,3-.62,4.48,2,6.42,1.3,2.93-1,1-7.48,4.41-14.2a18,18,0,0,1,11.23-9.3c4.89-1.21,6.31,1.33,10.19,1,11.59-1,11.93-25.19,29-34.4.9-.48,11.76-6.14,22.26-2.26,6.68,2.47,7.1,6.53,17.24,11.28,7.78,3.65,9.95,2.4,13.58,6C1042,989.52,1042.58,996.62,1043,1002Z" transform="translate(43.52 1.51)"/>
      <path class="cls-53" d="M981.4,975q-13.23,17.75-25.41,34.07a19.35,19.35,0,0,1-10.35,1.48,20.15,20.15,0,0,1-9.36-3.93,84.61,84.61,0,0,1-2.17,9.81c-1.74,6.1-2.77,6.95-3.66,7.12-1.36.26-2.78-1-3.66-2a6.67,6.67,0,0,1-5.71-1.93,8.38,8.38,0,0,1-2-7.81L958,959.88a22.7,22.7,0,0,1,7.81-4.63,20.45,20.45,0,0,1,7.78-1.06l6.77,6a6.53,6.53,0,0,1,6.11,4.16C987.76,967.93,985.74,973,981.4,975Z" transform="translate(43.52 1.51)"/>
      <path class="cls-54" d="M998.2,970.8c3.54,0,9.52,0,13.58,4.06,1,1,.82,1.19,5.11,9.28a58,58,0,0,0,3.85,6.81c3.43,4.19,6.08,3.12,9.27,6.1,4.64,4.33,5.47,12.66,4.1,18.24-1.1,4.48-3.11,5.11-3.36,9.7-.2,3.75,1.07,4.79.25,8.11a15.73,15.73,0,0,1-4,6.76c-2.71,3-3.86,2.55-5.95,4.68-5.27,5.37-2,12.12-6.77,15.17-1.08.68-3,1.44-4,.82-1.81-1.12,1.31-5.55-1.11-9.08-.92-1.34-2-1.64-2.19-3.11-.24-1.93,1.43-2.75,1.09-4-.51-1.91-4.55-1-8.53-3.47a11.48,11.48,0,0,1-5.21-7.58c-.52-3.16,1.1-3.94,1.07-6.42-.11-7.41-15-8.78-19.84-20.09-.26-.59-3.24-7.76-.39-14.24,1.81-4.11,4.33-4.19,7.71-10.4,2.59-4.77,1.91-6.2,4.27-8.33C990.51,970.81,994.9,970.8,998.2,970.8Z" transform="translate(43.52 1.51)"/>
      <path class="cls-55" d="M1076,1030.29c-3.24,11.45-9.75,15.61-10.48,16.08a14.22,14.22,0,0,1-3.15,1.51c-2.77.85-3.84-.14-6.25,1.35-.75.46-2.39,1.47-2.49,2.68-.2,2.29,5.37,2.39,5.24,5.76-.06,1.6-1.42,3.79-2.61,4.16-3.79,1.18-8.54-15.71-6-26.16,2.3-9.46,9.17-8.34,10.77-16.69,2-10.57-7.34-18.94-5.58-26.74,1.3-5.78,8.23-9.63,11.73-4.64,1.13,1.61,1.52,3.63,4.16,8.06,1.79,3,2.53,3.62,3.27,4.86C1077.52,1005.48,1079.3,1018.59,1076,1030.29Z" transform="translate(43.52 1.51)"/>
      <path class="cls-56" d="M981.22,978.6l-27,32.42a21.62,21.62,0,0,1-8.79,3.06,11,11,0,0,1-7-1.54c-1.27,3.47-2.54,6.32-3.54,8.42-2.52,5.3-3.52,6.18-4.29,6.48a2.37,2.37,0,0,1-2.65-1c-.3.11-2.84,1-4.36-.56-1.22-1.26-1.31-3.61-.22-6l41.36-49.44a33.86,33.86,0,0,1,7.26-5.18,21.84,21.84,0,0,1,6.6-2.27l4.5,3.74c2.29-.43,4,.44,4.29,2.3C987.72,971.67,985.16,976.17,981.22,978.6Z" transform="translate(43.52 1.51)"/>
      <path class="cls-57" d="M937.88,975.73c3.1,5.35-2.51,6.49-9.31,20.08-4,8-5.52,14.6-8.53,12.8-2.19-1.31-2.17-5.24-7.33-11-3.25-3.58-4.49-3.4-12-9.46-3.82-3.1-6.48-5.57-11.32-10.06-6.41-5.95-6.54-6.47-11.77-11.36-11-10.27-12.84-10.22-16.55-15.14s-7.22-11.94-6.4-15.83c1.72-8.09,21.46,1.83,25.67,4,10.6,5.33,11.89,8.55,26.56,17.61C927,969.74,934.49,969.88,937.88,975.73Z" transform="translate(43.52 1.51)"/>
    </g>
    <path class="cls-58" d="M975.24,1055a11.79,11.79,0,0,1,8.12,1.87c1.94,1.23,4.11,3.33,3.72,4.05s-3-.62-7.57-1.37c-6.59-1.09-10.29.17-10.58-.82S971.88,1055.55,975.24,1055Z" transform="translate(43.52 1.51)"/>
    <g>
      <path class="cls-59" d="M973.43,1039.75c1.38,6.28-3.68,13-9.41,15-4.68,1.65-10.58.45-11-1.77-.31-1.45,1.88-2.45,4.16-5.22,6-7.3,2.72-14.83,6-16.34C966.06,1030.1,972.2,1034.13,973.43,1039.75Z" transform="translate(43.52 1.51)"/>
      <path class="cls-60" d="M968.45,1047.63c-.18,4.78-4.62,8.39-8.69,8.51-3.33.1-7-2.1-6.9-3.79,0-1.1,1.65-1.31,3.61-2.76,5.15-3.82,4.3-9.93,6.72-10.24C965.3,1039.08,968.6,1043.35,968.45,1047.63Z" transform="translate(43.52 1.51)"/>
    </g>
    <g>
      <path class="cls-61" d="M986.77,1047c.21,6.25,4.51,11.24,8.44,11.66,3.2.34,6.68-2.3,6.6-4.51-.06-1.44-1.6-1.82-3.49-3.83-5-5.31-4.23-13.24-6.57-13.79C989.73,1036,986.58,1041.35,986.77,1047Z" transform="translate(43.52 1.51)"/>
      <path class="cls-62" d="M991.23,1053.07c.93,4.45,4.32,6.69,6.88,5.76,2.1-.76,4-3.77,3.66-5.33-.22-1-1.25-.81-2.72-1.67-3.87-2.26-4.39-8.22-5.95-7.89C991.74,1044.23,990.4,1049.09,991.23,1053.07Z" transform="translate(43.52 1.51)"/>
    </g>
  </g>
</svg>
