<svg id="Layer_1" data-name="Layer 1" xmlns="http://www.w3.org/2000/svg" width="254.01" height="250" viewBox="0 0 254.01 250">
  <defs>
    <style>
      .cls-1 {
        fill: #fff;
      }

      .cls-2 {
        fill: #e0dfd9;
      }

      .cls-3 {
        opacity: 0.6;
      }
    </style>
  </defs>
  <g>
    <g>
      <ellipse class="cls-1" cx="49.6" cy="144.26" rx="32.78" ry="32.13"/>
      <ellipse class="cls-1" cx="95.54" cy="124.74" rx="45.64" ry="42.63"/>
      <ellipse class="cls-1" cx="146.39" cy="123.84" rx="54.83" ry="51.34"/>
      <ellipse class="cls-1" cx="192.34" cy="144.26" rx="32.78" ry="32.13"/>
    </g>
    <g>
      <ellipse class="cls-2" cx="212.71" cy="155.8" rx="19.39" ry="29.65" transform="translate(50.46 363.63) rotate(-88.24)"/>
      <path class="cls-2" d="M130.29,141.41c1,14.53,27.91,25.26,50.08,23,14.91-1.54,30.93-9.29,32.45-20.37,1.86-13.53-18.63-26.34-40.41-27C150.36,116.3,129.35,128.11,130.29,141.41Z"/>
      <path class="cls-2" d="M76,139.14c3,12.05,26.53,19.38,43.43,20.87,22.2,2,51.64-4.47,55.72-17.73,4.32-14.07-21.24-31.66-48.56-32.53S72.53,124.86,76,139.14Z"/>
      <path class="cls-2" d="M39.89,152c.71,11,23.37,20.77,43.13,19.1,13.21-1.11,29.91-7.75,30.27-18.44s-15.6-18.5-29-20.31C63.32,129.5,39.14,140.32,39.89,152Z"/>
    </g>
    <g class="cls-3">
      <ellipse class="cls-2" cx="80.88" cy="147.4" rx="27.38" ry="25.44"/>
      <ellipse class="cls-2" cx="119.27" cy="131.95" rx="38.12" ry="33.76"/>
      <ellipse class="cls-2" cx="161.74" cy="131.23" rx="45.8" ry="40.66"/>
      <ellipse class="cls-2" cx="200.12" cy="147.4" rx="27.38" ry="25.44"/>
    </g>
  </g>
</svg>
