<svg id="Layer_1" data-name="Layer 1" xmlns="http://www.w3.org/2000/svg" width="254.01" height="250" viewBox="0 0 254.01 250">
  <defs>
    <style>
      .cls-1 {
        fill: #fff;
      }

      .cls-2 {
        fill: #e0dfd9;
      }

      .cls-3 {
        opacity: 0.6;
      }
    </style>
  </defs>
  <g>
    <g>
      <g>
        <ellipse class="cls-1" cx="78.64" cy="114.72" rx="36.57" ry="21.38" transform="translate(-37.34 191.48) rotate(-89.07)"/>
        <ellipse class="cls-1" cx="109.91" cy="97.51" rx="48.55" ry="29.77" transform="translate(11.51 206.62) rotate(-89.53)"/>
        <ellipse class="cls-1" cx="142.95" cy="101.91" rx="58.46" ry="35.76" transform="translate(39.81 243.97) rotate(-89.5)"/>
        <ellipse class="cls-1" cx="171.19" cy="129.94" rx="36.57" ry="21.38" transform="translate(38.48 298.99) rotate(-89.07)"/>
      </g>
      <g>
        <ellipse class="cls-2" cx="132.27" cy="117.47" rx="19.29" ry="22.13" transform="translate(-10.89 13.55) rotate(-5.63)"/>
        <path class="cls-2" d="M78.54,101.07c.67,16.56,18.19,28.78,32.65,26.18,9.71-1.75,20.16-10.57,21.15-23.2,1.22-15.41-12.15-30-26.35-30.78C91.62,72.48,77.92,85.93,78.54,101.07Z"/>
        <path class="cls-2" d="M43.17,98.5c1.92,13.72,17.29,22.07,28.31,23.77,14.47,2.23,33.67-5.1,36.32-20.2C110.62,86,94,66,76.15,65S40.89,82.23,43.17,98.5Z"/>
        <path class="cls-2" d="M19.61,113.13c.46,12.51,15.23,23.66,28.11,21.76,8.61-1.27,19.5-8.83,19.74-21S57.29,92.8,48.55,90.74C34.88,87.51,19.12,99.84,19.61,113.13Z"/>
      </g>
      <g class="cls-3">
        <ellipse class="cls-2" cx="126.17" cy="127.06" rx="17.85" ry="28.98"/>
        <ellipse class="cls-2" cx="151.19" cy="109.45" rx="24.85" ry="38.46"/>
        <ellipse class="cls-2" cx="178.88" cy="108.64" rx="29.86" ry="46.31"/>
        <ellipse class="cls-2" cx="203.9" cy="127.06" rx="17.85" ry="28.98"/>
      </g>
    </g>
    <g>
      <g>
        <ellipse class="cls-1" cx="135.18" cy="112.06" rx="15.77" ry="32.48"/>
        <ellipse class="cls-1" cx="157.29" cy="92.32" rx="21.95" ry="43.11"/>
        <ellipse class="cls-1" cx="181.75" cy="91.41" rx="26.38" ry="51.91"/>
        <ellipse class="cls-1" cx="203.85" cy="112.06" rx="15.77" ry="32.48"/>
      </g>
      <g>
        <ellipse class="cls-2" cx="213.65" cy="123.73" rx="14.25" ry="19.62" transform="translate(-4.92 8.91) rotate(-2.36)"/>
        <path class="cls-2" d="M174,109.17c.5,14.7,13.42,25.55,24.09,23.24,7.17-1.55,14.88-9.38,15.61-20.59.9-13.68-9-26.63-19.44-27.33S173.55,95.73,174,109.17Z"/>
        <path class="cls-2" d="M147.9,106.89c1.42,12.18,12.76,19.59,20.89,21.1,10.68,2,24.84-4.52,26.8-17.93,2.08-14.23-10.22-32-23.35-32.9S146.22,92.45,147.9,106.89Z"/>
        <path class="cls-2" d="M130.52,119.88c.34,11.1,11.24,21,20.74,19.31,6.35-1.12,14.39-7.84,14.56-18.64s-7.5-18.72-13.95-20.55C141.78,97.14,130.15,108.08,130.52,119.88Z"/>
      </g>
      <g class="cls-3">
        <ellipse class="cls-2" cx="150.56" cy="109.71" rx="13.17" ry="25.72"/>
        <ellipse class="cls-2" cx="169.03" cy="94.08" rx="18.34" ry="34.14"/>
        <ellipse class="cls-2" cx="189.46" cy="93.36" rx="22.03" ry="41.11"/>
        <ellipse class="cls-2" cx="207.92" cy="109.71" rx="13.17" ry="25.72"/>
      </g>
    </g>
  </g>
</svg>
