<svg id="Layer_1" data-name="Layer 1" xmlns="http://www.w3.org/2000/svg" width="254.01" height="250" viewBox="0 0 254.01 250">
  <defs>
    <style>
      .cls-1 {
        fill: #f7931e;
      }

      .cls-2 {
        fill: none;
        stroke-width: 0.2px;
      }

      .cls-10, .cls-11, .cls-2 {
        stroke: #000;
      }

      .cls-13, .cls-2, .cls-6 {
        stroke-miterlimit: 10;
      }

      .cls-3 {
        fill: #fbb03b;
      }

      .cls-4 {
        fill: #fabe78;
      }

      .cls-5 {
        fill: #666;
      }

      .cls-6 {
        fill: #963;
        stroke-width: 0.38px;
      }

      .cls-13, .cls-6 {
        stroke: #c96;
      }

      .cls-7, .cls-8 {
        fill: #7c4416;
      }

      .cls-7 {
        opacity: 0.68;
      }

      .cls-16, .cls-8 {
        opacity: 0.72;
      }

      .cls-9 {
        fill: #efeeed;
      }

      .cls-10, .cls-11 {
        fill: #161514;
      }

      .cls-10 {
        stroke-miterlimit: 10.06;
        stroke-width: 0.04px;
      }

      .cls-11 {
        stroke-miterlimit: 10;
        stroke-width: 0.04px;
      }

      .cls-12 {
        fill: #001300;
      }

      .cls-12, .cls-14 {
        opacity: 0.77;
      }

      .cls-13 {
        fill: #c2a385;
        stroke-width: 0.22px;
        opacity: 0.34;
      }

      .cls-14 {
        fill: #f9a94b;
      }

      .cls-15 {
        fill: #fff5e0;
        opacity: 0.31;
      }

      .cls-16 {
        fill: #c2a366;
      }
    </style>
  </defs>
  <g>
    <path class="cls-1" d="M84.59,125.76,69.88,92.69c-.64-1.32-.07-3.14,1.53-4.91h0c1.45-1.33,3.13-1.29,3.7.11L89.82,121c.63,1.33.06,3.15-1.54,4.92h0C86.9,127.19,85.21,127.14,84.59,125.76Z"/>
    <path class="cls-1" d="M88.84,120.55l22,9.88a3.86,3.86,0,0,1,2,4.74h0a3.26,3.26,0,0,1-3,2.34,2.51,2.51,0,0,1-1.37-.31l-22-9.89a3.88,3.88,0,0,1-2-4.74h0a3.31,3.31,0,0,1,3.07-2.34A2.38,2.38,0,0,1,88.84,120.55Z"/>
    <path class="cls-1" d="M176.3,130.4l-5.2,12.19a1.82,1.82,0,0,0,1,2.42h0a2,2,0,0,0,2.28-.61,1.68,1.68,0,0,0,.27-.46l5.19-12.2a1.83,1.83,0,0,0-1-2.42h0a2,2,0,0,0-2.27.59A1.63,1.63,0,0,0,176.3,130.4Z"/>
    <path class="cls-2" d="M128.43,124.13c2.33,1,3,1.33,4-.39l.9-2.41c3-8.15,1.92-7.66,1.92-7.66h0"/>
    <path class="cls-2" d="M157.45,122.3l2.36-2.72a1.3,1.3,0,0,0,.34-1.21l-2.61-9.18"/>
    <path class="cls-3" d="M194.85,107.09c-8.1,28.08-5.83,30.36-14,59.93-9.83,35.38-14.75,53.06-21.94,54-14.6,1.83-19.88-41.23-61.57-108-3.19-5.12-11.92-18.9-7.77-25,3.53-5.18,13.8-1.07,44.13-1.77,2.34-.06,6.12-.15,9.25-.36,35.37-2.38,54.78-25,61.2-19.36C208.14,70,202.48,80.62,194.85,107.09Z"/>
    <path class="cls-1" d="M202.41,73.8a240.11,240.11,0,0,0-36.61,6.74c-25.28,6.75-29.53,12.47-43,10.81a101,101,0,0,0-25.71-.8c-3.23.34-5.87.79-7.61,1.12-4.19-1-7.8-4-7.63-6.91.22-3.81,4.1-7.44,8.68-8.11h0L200.93,60.59c4.58-.66,8.1,1.89,7.88,5.7S206.92,73.17,202.41,73.8Z"/>
    <path class="cls-4" d="M114.24,136.39l24.22-23a.77.77,0,0,1,1,0h0a.66.66,0,0,1,0,1l-24.22,23a.77.77,0,0,1-1,0h0A.67.67,0,0,1,114.24,136.39Z"/>
    <path class="cls-4" d="M118.91,148.16l13.87-17.09c.15-.18.42-.15.61.08h0a.6.6,0,0,1,.09.73L119.6,149c-.15.18-.42.14-.61-.08h0A.61.61,0,0,1,118.91,148.16Z"/>
    <path class="cls-4" d="M139.66,173.93l39.65-34.22a1.75,1.75,0,0,1,2.13-.23h0c.53.44.44,1.24-.21,1.8L141.58,175.5a1.73,1.73,0,0,1-2.13.22h0C138.92,175.29,139,174.49,139.66,173.93Z"/>
    <path class="cls-4" d="M138.63,187.66l39.65-34.23a1.76,1.76,0,0,1,2.13-.22h0c.53.43.44,1.23-.21,1.79l-39.65,34.23a1.75,1.75,0,0,1-2.12.22h0A1.15,1.15,0,0,1,138.63,187.66Z"/>
    <path class="cls-4" d="M151.4,156.89l18,16.21a.46.46,0,0,1-.11.73h0a.76.76,0,0,1-.91,0l-18-16.21a.47.47,0,0,1,.12-.74h0A.78.78,0,0,1,151.4,156.89Z"/>
    <path class="cls-4" d="M115.52,137.44l45.74,43.45a1.55,1.55,0,0,1,.28,2h0a1.14,1.14,0,0,1-1.75,0l-45.74-43.45a1.55,1.55,0,0,1-.28-2h0A1.13,1.13,0,0,1,115.52,137.44Z"/>
    <path class="cls-4" d="M131,164.43l23.89,24.22a1.17,1.17,0,0,1,.24,1.4h0c-.25.38-.77.37-1.16,0L130,165.81a1.2,1.2,0,0,1-.24-1.4h0A.74.74,0,0,1,131,164.43Z"/>
    <path class="cls-5" d="M74.39,98.24A6.06,6.06,0,0,1,70,97.18a7.94,7.94,0,0,1-1.94-1.74,10.82,10.82,0,0,1-1.71-3.31c-.12-.39-.26-1.14-.55-2.63-.31-1.67-.57-3.26-.57-3.26l0,.07c0-.09.27-.72.75-.64s.93.88,1.09,1.19c.86,1.61.26,2.54.9,4.36a7.51,7.51,0,0,0,1.73,2.71,4.58,4.58,0,0,0,4,1.64c1.85-.47,2.28-3.29,2.5-4.68,1.27-8.34-5.9-31.14-7-34.51a.75.75,0,0,1,.72-.89h0a.73.73,0,0,1,.4.07c1.29.64,2,5,2.36,7.29,1.37,8.13,3.59,16.32,5.14,24.47.06.29.47,2.43.52,2.72a10.65,10.65,0,0,1-.6,5.14A5,5,0,0,1,74.39,98.24Z"/>
    <path class="cls-6" d="M66.43,63a.08.08,0,0,1,.06-.07c.4-.11,1.51,3.55,2.71,7.95a.08.08,0,0,0,.08.07s0,0,.06,0l.32-.78A25.84,25.84,0,0,1,75.27,62l0,0h.06c.6.17,1.39,2.68,1.39,2.68.43,1.35,1.47,2.14,3.56,3.72a18.47,18.47,0,0,0,5.45,2.8h.11a.51.51,0,0,0,.32-.37l3.2-5.56a.09.09,0,0,1,.1,0,22,22,0,0,0,5.58,3.9,25.54,25.54,0,0,0,7.21,2.27.07.07,0,0,0,.07,0l0,0v0a25.53,25.53,0,0,0,2.55-6.13,22.78,22.78,0,0,0,.8-5.44s0,0,.05-.06h0a.05.05,0,0,1,0,0l7.76,10.62c0,.07.14,0,.14-.07L113.5,62c0-.07.07-.12.13-.09a20.19,20.19,0,0,0,6.82,5.52,23.58,23.58,0,0,0,5.91,2,.1.1,0,0,0,.08,0l0,0a.08.08,0,0,0,0,0c.68-24-11.16-29.35-11.16-29.35a46.47,46.47,0,0,0-9.09-1.77c-6.6-.62-12.41.19-19.7,1.25-9.42,1.37-11.55,2.4-14,.87a14.48,14.48,0,0,1-5.56-7c-.45-1.31-.74-2.85-2.3-3.93a5,5,0,0,0-4-.81,5.34,5.34,0,0,0-2.43,1.54c-2.77,2.92-3,8.08-5,10.48C46.94,48.5,34.69,54.27,33.08,55A10.27,10.27,0,0,0,27,62.73c-1,5.22.31,17.15.61,19.7a.08.08,0,0,0,.16,0c.67-3.22,4.72-21.2,9.47-17.62,5.22,3.93,4,6.92,5.42,9.71,1.24,2.53,6.31-7.24,7.2-9,0-.09.13-.07.14,0,0,.26.55,8.22,2,8.69a1.14,1.14,0,0,0,.28,0c2.1.09,3.37-2.17,6.73-5.1C61.78,66.83,66,63.94,66.43,63Z"/>
    <ellipse class="cls-7" cx="133.32" cy="120.64" rx="8.9" ry="11.37" transform="translate(-28.77 42.82) rotate(-16.5)"/>
    <ellipse class="cls-8" cx="152.7" cy="116.38" rx="7.61" ry="10.79" transform="translate(-17.81 28.13) rotate(-9.95)"/>
    <ellipse class="cls-9" cx="135.26" cy="125.36" rx="6.39" ry="5.37" transform="translate(-48.04 145.68) rotate(-49.15)"/>
    <ellipse class="cls-9" cx="153.72" cy="121.07" rx="4.81" ry="6.13" transform="matrix(0.98, -0.19, 0.19, 0.98, -20.59, 32.17)"/>
    <ellipse class="cls-10" cx="153.39" cy="122.09" rx="3.01" ry="3.46" transform="translate(-34.53 66.22) rotate(-21.96)"/>
    <ellipse class="cls-11" cx="135.84" cy="127.34" rx="3" ry="3.44" transform="translate(-40.46 67.44) rotate(-24.38)"/>
    <path class="cls-12" d="M164.58,143.74c8.51-4,11.74-9.39,12.52-8.74,1.31,1.1-3.34,20.08-18.38,24.35-16.07,4.56-31.74-11.16-31-13.37.51-1.55,9.39,3.05,23.88,1.24A44,44,0,0,0,164.58,143.74Z"/>
    <path class="cls-13" d="M60.29,55.33l.05,0c.27-.06.56,1.85.81,4.15,0,0,0,0,0,0l.05,0,.29-.42a20.31,20.31,0,0,1,4.56-4.42l0,0h0c.37.08.58,1.39.58,1.39.12.7.69,1.1,1.85,1.9a9.75,9.75,0,0,0,3.17,1.37h.06a.38.38,0,0,0,.25-.2l2.72-3a.07.07,0,0,1,.06,0A10.33,10.33,0,0,0,78,58,15.81,15.81,0,0,0,82.33,59h0l0,0h0a17.85,17.85,0,0,0,2.35-3.29,12.52,12.52,0,0,0,1.16-2.89,0,0,0,0,1,0,0h0l0,0,3.73,5.46s.09,0,.1,0l.79-4.34a.08.08,0,0,1,.09,0,8.92,8.92,0,0,0,3.73,2.78,14,14,0,0,0,3.55.95.11.11,0,0,0,.06,0h0a0,0,0,0,0,0,0c3.26-12.67-3.7-15.29-3.7-15.29a32,32,0,0,0-5.63-.75A64.29,64.29,0,0,0,76,42.52c-6.21.91-7.69,1.49-9.1.73a5.74,5.74,0,0,1-2.75-3.6c-.14-.68-.14-1.49-1-2a3.32,3.32,0,0,0-2.47-.34,4.7,4.7,0,0,0-1.74.86c-2.12,1.59-2.89,4.32-4.42,5.63-5,4.27-13.53,7.56-14.64,8A8.2,8.2,0,0,0,35,56c-1.23,2.77-1.81,9-1.92,10.39,0,0,.07.06.1,0,.81-1.71,5.52-11.29,8.15-9.49,2.89,2,1.78,3.58,2.33,5s4.91-3.94,5.68-4.88c0-.05.1,0,.09,0s-.61,4.33.29,4.54h.18c1.34,0,2.42-1.22,4.92-2.83C56.86,57.43,59.89,55.82,60.29,55.33Z"/>
    <path class="cls-14" d="M195.77,78.37a211.57,211.57,0,0,0-32.28,5.91c-22.3,5.94-26,11-37.92,9.51a89.38,89.38,0,0,0-22.68-.72c-2.85.29-5.18.69-6.71,1-3.69-.88-6.88-3.52-6.74-6.12.19-3.36,3.61-6.56,7.65-7.15h0L194.45,66.7c4-.58,7.15,1.67,7,5S199.75,77.81,195.77,78.37Z"/>
    <path class="cls-15" d="M120.9,136.68c7.2,19.83,8.63,22.44,16.31,43.43,9.18,25.11,13.77,37.66,12,35.92-3.58-3.52-19.73-40-54.42-108-2.65-5.21-9.85-19.29-10.72-22.78-.75-3,3.61,3.86,12.11,13.67.65.75,1.71,2,2.54,2.88,9.39,10.18,7.29-1.41,11.06,5.35C112.15,111.4,114.11,118,120.9,136.68Z"/>
    <path class="cls-16" d="M188.87,111.37c-2.46,14.43-3,16.4-5.66,31.68-3.14,18.29-4.71,27.43-3.89,26,1.66-2.89,7.71-29.85,21.42-80.78,1-3.9,3.9-14.45,4.12-16.93.19-2.11-1.65,3.13-5.48,11-.3.61-.78,1.59-1.15,2.32-4.28,8.23-4,.1-5.5,5.21C191.77,93,191.18,97.76,188.87,111.37Z"/>
  </g>
</svg>
