<svg id="Layer_1" data-name="Layer 1" xmlns="http://www.w3.org/2000/svg" viewBox="0 0 541.56 473.99">
  <defs>
    <style>
      .cls-1 {
        fill: #ee2f24;
        stroke: #333;
        stroke-miterlimit: 10;
        stroke-width: 5px;
      }

      .cls-2 {
        fill: #f5b346;
      }

      .cls-3 {
        fill: #ffcd34;
      }

      .cls-4 {
        fill: #0f1a0f;
      }

      .cls-5 {
        fill: #fff;
      }

      .cls-6 {
        fill: #231f20;
      }

      .cls-7 {
        fill: none;
      }

      .cls-8 {
        fill: #cb9866;
      }

      .cls-9 {
        fill: #fac039;
        opacity: 0.54;
      }

      .cls-13, .cls-14, .cls-15, .cls-9 {
        isolation: isolate;
      }

      .cls-10, .cls-13, .cls-14 {
        opacity: 0.5;
      }

      .cls-11, .cls-13, .cls-15 {
        fill: #fff0ce;
      }

      .cls-12 {
        opacity: 0.4;
      }

      .cls-14 {
        fill: #c9ab6e;
      }

      .cls-15 {
        opacity: 0.2;
      }
    </style>
  </defs>
  <path class="cls-1" d="M276.24,99.47c-149-256.54-520.48,132.38-.53,382.55v.63l.68-.34.62.34V482C796.67,231.85,425.37-157.07,276.24,99.47Z" transform="translate(-5.5 -12.85)"/>
  <g>
    <path class="cls-2" d="M368.1,200.18a33.65,33.65,0,0,0,31.84-9.13c14.17-14.37,15-18.66,16.65-30.81s-10.25-22.85-3.35-26.81,15,12.3,13,16.52,6.32-3.26,11.64,2.77,8.38,22.75,7.66,26.32-10.39,12.42-18.21,7-5.73-11.73-7.84-5.44S407.59,218.78,400,222.7s-30.32,16.42-39,17.39-8.65-.45-8.65-.45l12-39.24Z" transform="translate(-5.5 -12.85)"/>
    <path class="cls-2" d="M159.42,206.89l23.46,4.75L204,209.15l3.62,2.34,10.8,35.19L185,236.24S153.47,218,151.8,213.59s-13,16.6-22.05,10.37S110.41,195.63,115,188.67s11-13.1,17.06-9.19,5.68-19.14,12.67-23.81,8.37,6.2,8.37,6.2a86.4,86.4,0,0,0-5.9,9.83c-.7,2.13-3.68,15.65.36,23.06A37.19,37.19,0,0,0,159.42,206.89Z" transform="translate(-5.5 -12.85)"/>
    <path class="cls-3" d="M190,172.52s4.63,17.88,11.33,40.67c7.92,27.41,18.65,62,27.38,80.85,16,34.67,31,62.1,49.81,71.72s31.21-7,35.72-11.73,40.21-110.2,40.21-110.2l21.13-72.4,8,.42s15.87-26.52,14.83-31.61-231.65-7.07-231.65-7.07-3.17,2-2.88,10.63S169,170.71,169,170.71Z" transform="translate(-5.5 -12.85)"/>
    <path class="cls-2" d="M249.06,334.44c-.1,51.71-9,72.83-9,72.83s-31.23,7.73-33.9,12.62-6.53,9,2.08,10.19,36-19,36-19l26.42-51.55Z" transform="translate(-5.5 -12.85)"/>
    <path class="cls-2" d="M320.07,332.77s5.84,30.76,10.28,43.94,8.38,22.76,8.38,22.76,30.41-2.73,28.94,3.67,8.53,19.16-11.53,10.2l-20.11-9a130.26,130.26,0,0,1-23.72-26.44l-11.13-16.42,13.09-14.36Z" transform="translate(-5.5 -12.85)"/>
    <path class="cls-4" d="M316.92,193.26c8,1.68,13.27,11.1,11.73,21s-10.86,26.39-18.87,24.66S298.05,217.81,299.63,208,308.88,191.56,316.92,193.26Z" transform="translate(-5.5 -12.85)"/>
    <path class="cls-4" d="M270.46,192.61c8.14-.45,15.08,7.36,15.48,17.44s-5.45,28.85-13.57,29.31-15.5-17.6-15.9-27.67S262.33,193.06,270.46,192.61Z" transform="translate(-5.5 -12.85)"/>
    <ellipse class="cls-5" cx="311.05" cy="226.79" rx="11.21" ry="7.42" transform="translate(53.52 504.92) rotate(-85.2)"/>
    <ellipse class="cls-5" cx="272.32" cy="228.23" rx="7.38" ry="11.24" transform="matrix(1, -0.08, 0.08, 1, -22.83, 9.59)"/>
    <ellipse class="cls-4" cx="304.98" cy="219.2" rx="3.49" ry="4.1"/>
    <ellipse class="cls-4" cx="267.3" cy="220.66" rx="3.49" ry="4.1"/>
    <g>
      <path class="cls-6" d="M334.41,239.41l.94,11.56c.38,4.76-2.63,9-6.7,9.45l-4.93.55a6.67,6.67,0,0,1-4.86-1.47l-.22,3.9c-.25,4.76-3.8,8.38-7.87,8.09l-4.93-.37a7,7,0,0,1-5.17-3.05c-.69,4.41-4.21,7.56-8.08,7.08l-4.93-.62a8,8,0,0,1-6.46-6.86,7,7,0,0,1-5.57,3h-5c-4.09,0-7.43-3.91-7.43-8.66v-3.62h-3.7c-4.09,0-7.42-3.89-7.42-8.67v-13a35,35,0,0,1-3.62-6.35.82.82,0,0,0-1.56.5c2.08,34.23,22.45,61.1,47.32,61.12,26.25,0,49.31-27,49.34-64A141.52,141.52,0,0,1,334.41,239.41Z" transform="translate(-5.5 -12.85)"/>
      <path class="cls-7" d="M297,227l-4.93-.6c-4.05-.52-7.72,3-8.16,7.69l-.84,9.26v10.19a80.37,80.37,0,0,0,11.28.77c1.67,0,3.35,0,5-.13l1.27-23.27a9.92,9.92,0,0,1,.32-2A7,7,0,0,0,297,227Z" transform="translate(-5.5 -12.85)"/>
      <path class="cls-5" d="M298.92,261.93l.42-7.73c-1.67.09-3.27.14-5,.14a81.8,81.8,0,0,1-11.28-.77v8.37a9.44,9.44,0,0,1-1.86,5.7,8,8,0,0,0,6.47,6.85l4.92.62c3.87.49,7.39-2.66,8.08-7.07A9.64,9.64,0,0,1,298.92,261.93Z" transform="translate(-5.5 -12.85)"/>
      <path class="cls-7" d="M302,254a62.92,62.92,0,0,0,13.52-2.63l-2.28-28.18-4.69-.35A7.57,7.57,0,0,0,301,229a9.41,9.41,0,0,1,2.65,7.57Z" transform="translate(-5.5 -12.85)"/>
      <path class="cls-5" d="M315.66,253.15l-.15-1.78A62.92,62.92,0,0,1,302,254l-1.22,13.4a1.58,1.58,0,0,1-.09.64,7.09,7.09,0,0,0,5.18,3l4.93.37c4.07.32,7.62-3.35,7.87-8.09l.22-3.91A9,9,0,0,1,315.66,253.15Z" transform="translate(-5.5 -12.85)"/>
      <path class="cls-7" d="M300.93,229a10.46,10.46,0,0,0-.31,1.94l-1.28,23.27c.91,0,1.79-.12,2.65-.2l1.59-17.44A9.41,9.41,0,0,0,300.93,229Z" transform="translate(-5.5 -12.85)"/>
      <path class="cls-5" d="M302,254c-.86,0-1.68.15-2.65.2l-.42,7.73a9.6,9.6,0,0,0,1.76,6.14,1.56,1.56,0,0,1,.09-.63Z" transform="translate(-5.5 -12.85)"/>
      <path class="cls-7" d="M275.65,222.25H272v27.44a11.81,11.81,0,0,1,0,1.19,57.76,57.76,0,0,0,10.29,2.55l.92-10.05V230.91C283.07,226.15,279.72,222.25,275.65,222.25Z" transform="translate(-5.5 -12.85)"/>
      <path class="cls-5" d="M281.1,265l1-11.56a58,58,0,0,1-10.29-2.55c-.5,4.21-3.6,7.48-7.33,7.48H263.3V262c0,4.75,3.35,8.66,7.42,8.66h5a7,7,0,0,0,5.56-3A10,10,0,0,1,281.1,265Z" transform="translate(-5.5 -12.85)"/>
      <path class="cls-7" d="M282.15,253.43l.92.14V243.38Z" transform="translate(-5.5 -12.85)"/>
      <path class="cls-5" d="M283.07,253.57l-.92-.14-1,11.56a10.44,10.44,0,0,0,.11,2.68,9.33,9.33,0,0,0,1.86-5.69Z" transform="translate(-5.5 -12.85)"/>
      <path class="cls-7" d="M319.4,250a39.91,39.91,0,0,0,15.08-10.54l-1.56-19.35c-.39-4.75-4-8.26-8.09-7.81l-4.91.53c-4.07.46-7.07,4.71-6.71,9.45v1h.21c4.07.3,7.18,4.44,6.92,9.2Z" transform="translate(-5.5 -12.85)"/>
      <path class="cls-5" d="M318.88,259.5a6.67,6.67,0,0,0,4.86,1.47l4.91-.47c4.05-.45,7.07-4.69,6.7-9.45l-.94-11.56A39.83,39.83,0,0,1,319.33,250Z" transform="translate(-5.5 -12.85)"/>
      <path class="cls-7" d="M313.43,223.21h-.2l2.28,28.18c1.37-.44,2.66-.92,3.89-1.43l1-17.54C320.62,227.65,317.5,223.51,313.43,223.21Z" transform="translate(-5.5 -12.85)"/>
      <path class="cls-5" d="M315.51,251.37l.15,1.78a9.05,9.05,0,0,0,3.22,6.35l.52-9.55C318.17,250.45,316.92,250.93,315.51,251.37Z" transform="translate(-5.5 -12.85)"/>
      <path class="cls-7" d="M264.53,210h-5c-4.09,0-7.42,3.9-7.42,8.66v18.05a37.88,37.88,0,0,0,11.12,10.2v-16c0-4.76,3.35-8.66,7.42-8.66h1.24v-3.64C272,213.87,268.61,210,264.53,210Z" transform="translate(-5.5 -12.85)"/>
      <path class="cls-5" d="M259.58,258.36h3.72V246.88a37.88,37.88,0,0,1-11.12-10.2v13C252.16,254.47,255.49,258.36,259.58,258.36Z" transform="translate(-5.5 -12.85)"/>
      <path class="cls-7" d="M270.71,222.25c-4.09,0-7.42,3.9-7.42,8.66v16a46.07,46.07,0,0,0,8.57,4,7.88,7.88,0,0,0,0-1.19V222.25Z" transform="translate(-5.5 -12.85)"/>
      <path class="cls-5" d="M271.86,250.88a46.07,46.07,0,0,1-8.57-4v11.48h1.24C268.33,258.36,271.36,255.09,271.86,250.88Z" transform="translate(-5.5 -12.85)"/>
    </g>
    <path class="cls-8" d="M302.53,289.24c6.26-3.59,7-9.45,2.89-10.54-3.35-.91-8,4.94-11.24,2.21-7.24-6.18-13,1.07-11,5.85C284.87,290.66,292.61,294.9,302.53,289.24Z" transform="translate(-5.5 -12.85)"/>
    <path class="cls-9" d="M397.81,150.29l-230.7-2.88-5.79-38.84L403,114.33Q400.39,132.3,397.81,150.29Z" transform="translate(-5.5 -12.85)"/>
    <g class="cls-10">
      <path class="cls-11" d="M215.94,121.19l-22.39-4.39a.36.36,0,0,1-.35-.46h0a.53.53,0,0,1,.6-.28l22.37,4.39a.38.38,0,0,1,.37.47h0A.54.54,0,0,1,215.94,121.19Z" transform="translate(-5.5 -12.85)"/>
      <path class="cls-11" d="M217.54,120.08l-22.36-4.39a.38.38,0,0,1-.37-.47h0a.55.55,0,0,1,.62-.27l22.37,4.39a.36.36,0,0,1,.36.45h0A.56.56,0,0,1,217.54,120.08Z" transform="translate(-5.5 -12.85)"/>
      <path class="cls-11" d="M205.26,109.84l-10.48,15.63a.59.59,0,0,1-.68.17h0c-.25-.1-.35-.32-.21-.5l10.49-15.63a.54.54,0,0,1,.67-.17h0a.34.34,0,0,1,.26.4A.47.47,0,0,1,205.26,109.84Z" transform="translate(-5.5 -12.85)"/>
      <path class="cls-11" d="M208,110.51l-10.49,15.63a.57.57,0,0,1-.67.17h0a.32.32,0,0,1-.22-.5l10.49-15.63a.57.57,0,0,1,.67-.17h0C208.1,110.09,208.2,110.33,208,110.51Z" transform="translate(-5.5 -12.85)"/>
      <path class="cls-11" d="M210.37,111.38,199.89,127a.64.64,0,0,1-.69.16h0a.36.36,0,0,1-.24-.46.14.14,0,0,1,0-.06L209.49,111a.6.6,0,0,1,.67-.17h0a.38.38,0,0,1,.24.47Z" transform="translate(-5.5 -12.85)"/>
    </g>
    <g class="cls-10">
      <path class="cls-11" d="M280.79,127.05l-37.86-6.13c-.45,0-.72-.37-.6-.66h0a1,1,0,0,1,1-.38L281.21,126c.46,0,.74.35.62.63h0A1,1,0,0,1,280.79,127.05Z" transform="translate(-5.5 -12.85)"/>
      <path class="cls-11" d="M283.54,125.49l-37.86-6.13c-.46,0-.72-.37-.61-.65h0a1,1,0,0,1,1-.39L284,124.47c.45,0,.72.35.6.64h0A.94.94,0,0,1,283.54,125.49Z" transform="translate(-5.5 -12.85)"/>
      <path class="cls-11" d="M262.75,111.18,245,133.06a1.12,1.12,0,0,1-1.14.24h0c-.4-.13-.57-.47-.37-.72l17.76-21.88a1.12,1.12,0,0,1,1.14-.24h0C262.8,110.6,263,110.91,262.75,111.18Z" transform="translate(-5.5 -12.85)"/>
      <path class="cls-11" d="M267.49,112.12,249.73,134a1.11,1.11,0,0,1-1.14.24h0c-.42-.14-.58-.45-.37-.72L266,111.64a1.12,1.12,0,0,1,1.14-.24h0C267.52,111.53,267.69,111.85,267.49,112.12Z" transform="translate(-5.5 -12.85)"/>
      <path class="cls-11" d="M271.39,113.39l-17.76,21.89a1.11,1.11,0,0,1-1.13.23h0c-.42-.13-.59-.45-.37-.72l17.76-21.88a1.16,1.16,0,0,1,1.14-.24h0C271.43,112.81,271.68,113.14,271.39,113.39Z" transform="translate(-5.5 -12.85)"/>
    </g>
    <g class="cls-10">
      <path class="cls-11" d="M322.6,126.58l-18.8-5.14a.45.45,0,0,1-.3-.54h0a.41.41,0,0,1,.48-.34h0l18.78,5.17a.45.45,0,0,1,.3.54h0A.42.42,0,0,1,322.6,126.58Z" transform="translate(-5.5 -12.85)"/>
      <path class="cls-11" d="M324,125.26l-18.76-5.16a.47.47,0,0,1-.3-.56h0a.42.42,0,0,1,.49-.32h0l18.78,5.17a.43.43,0,0,1,.31.51v0h0a.41.41,0,0,1-.46.34Z" transform="translate(-5.5 -12.85)"/>
      <path class="cls-11" d="M313.57,113.21l-8.82,18.43a.39.39,0,0,1-.52.22l-.05,0h0a.47.47,0,0,1-.18-.6l8.81-18.43a.42.42,0,0,1,.56-.21h0A.47.47,0,0,1,313.57,113.21Z" transform="translate(-5.5 -12.85)"/>
      <path class="cls-11" d="M316,114l-8.81,18.43a.4.4,0,0,1-.51.21l-.05,0h0a.43.43,0,0,1-.19-.58v0l8.81-18.43a.4.4,0,0,1,.53-.21h0a.44.44,0,0,1,.18.61Z" transform="translate(-5.5 -12.85)"/>
      <path class="cls-11" d="M317.92,115.09l-8.81,18.43a.42.42,0,0,1-.55.21h0a.47.47,0,0,1-.18-.61l8.81-18.43a.4.4,0,0,1,.53-.2l0,0h0A.46.46,0,0,1,317.92,115.09Z" transform="translate(-5.5 -12.85)"/>
    </g>
    <g class="cls-12">
      <path class="cls-11" d="M378.11,125.73l-16.41-11.2c-.2-.13-.28-.35-.2-.48h0c0-.14.32-.14.52,0l16.42,11.19a.4.4,0,0,1,.19.49h0C378.54,125.86,378.31,125.86,378.11,125.73Z" transform="translate(-5.5 -12.85)"/>
      <path class="cls-11" d="M379.55,125.42l-16.42-11.19c-.19-.13-.29-.35-.19-.48h0c.09-.14.32-.14.51,0l16.42,11.19c.2.13.28.35.2.48h0C380,125.56,379.75,125.56,379.55,125.42Z" transform="translate(-5.5 -12.85)"/>
      <path class="cls-11" d="M371.89,113.19l-10.76,8.53a.47.47,0,0,1-.55-.1h0c-.17-.17-.2-.37,0-.47l10.76-8.54a.44.44,0,0,1,.53.1h0C372,112.88,372,113.06,371.89,113.19Z" transform="translate(-5.5 -12.85)"/>
      <path class="cls-11" d="M373.88,114.73l-10.75,8.55a.44.44,0,0,1-.54-.12h0c-.18-.15-.22-.37-.08-.47l10.75-8.52a.43.43,0,0,1,.56.1h0A.26.26,0,0,1,373.88,114.73Z" transform="translate(-5.5 -12.85)"/>
      <path class="cls-11" d="M375.56,116.19l-10.79,8.6a.46.46,0,0,1-.54-.1h0c-.16-.17-.21-.39-.08-.49l10.76-8.53a.51.51,0,0,1,.55.1h0C375.56,115.89,375.66,116.09,375.56,116.19Z" transform="translate(-5.5 -12.85)"/>
    </g>
    <path class="cls-13" d="M205.5,216.55c5.54,33,13.52,55.18,19.69,69.18,16,36.23,41.38,66.71,41.88,67.36h0c-16.12-37-23.67-63.67-31-78-1.68-3.35-9.29-7.21-14.43-18.58C214.24,240.4,208.92,226.22,205.5,216.55Z" transform="translate(-5.5 -12.85)"/>
    <path class="cls-14" d="M362.29,238.72l32.52-22.59,24.09-36.22c-1.67,6.7-10.84,41.27-38.33,54.19A50.2,50.2,0,0,1,362.29,238.72Z" transform="translate(-5.5 -12.85)"/>
    <path class="cls-15" d="M311,338.29l-43.65-35.18c-.52-.42-.27-2.26.57-4.11h0c.84-1.84,1.94-3,2.46-2.59L314,331.59c.52.42.25,2.28-.57,4.12h0C312.61,337.57,311.51,338.71,311,338.29Z" transform="translate(-5.5 -12.85)"/>
    <path class="cls-15" d="M307.17,354.33,257,316.66c-.61-.45-.56-2,.1-3.51h0c.65-1.5,1.67-2.33,2.28-1.9l50.13,37.67c.6.45.55,2-.11,3.52h0C308.79,353.91,307.75,354.75,307.17,354.33Z" transform="translate(-5.5 -12.85)"/>
    <path class="cls-15" d="M288.43,302l-17.6,36c-.22.42-1.33-.4-2.47-1.82h0c-1.14-1.43-1.89-2.95-1.67-3.35l17.62-36c.2-.42,1.31.4,2.45,1.83h0C287.86,300.08,288.64,301.6,288.43,302Z" transform="translate(-5.5 -12.85)"/>
    <path class="cls-15" d="M307.74,304.06l-20.58,44.3c-.25.52-1.46-.13-2.68-1.45h0c-1.22-1.33-2-2.85-1.78-3.35l20.58-44.29c.25-.53,1.44.14,2.66,1.46h0C307.18,302.09,308,303.61,307.74,304.06Z" transform="translate(-5.5 -12.85)"/>
    <path class="cls-15" d="M318,310.28l-18.85,49.38c-.22.58-1.49,0-2.82-1.11h0c-1.32-1.19-2.23-2.65-2-3.23L313.18,306c.24-.61,1.49-.1,2.83,1.09h0C317.34,308.24,318.22,309.69,318,310.28Z" transform="translate(-5.5 -12.85)"/>
    <path class="cls-13" d="M171.74,215c32.55,10.63,35.5,6.7,35.5,6.7l-4.79-13.09-30.93.44-11.23-2.45Z" transform="translate(-5.5 -12.85)"/>
    <path class="cls-14" d="M296.93,366.06l15.82-29.64q5.73-18.6,11.44-37.2c.84,5.92,4.72,36.86-13.71,56.8A45.67,45.67,0,0,1,296.93,366.06Z" transform="translate(-5.5 -12.85)"/>
    <path class="cls-13" d="M166.74,133.37c-4.49,22.67-1.29,31.34,3.19,34.68,5.78,4.32,12.68-1.06,18.75,4.41,6.7,6,2.58,16.38,10.27,22.26,3.18,2.45,8,3.82,9.83,2,3.05-3.1-2.44-14.93-6.41-21.29-4.85-7.83-9.44-11.19-14.3-21-1.07-2.16-2-4.19-2.73-6A101.21,101.21,0,0,0,179,135.7c-7.39-13.84-10.29-27.52-12.17-27.13C165.77,108.79,165.05,113.33,166.74,133.37Z" transform="translate(-5.5 -12.85)"/>
    <path class="cls-13" d="M116.33,204.17c-4.17-6.9-3-10.94-2.46-12.38s1.12-1.42,6.26-7.86c2.92-3.62,3.1-4.09,4.12-4.52,4.14-1.68,7.64,3.05,10.41,1.49,3.58-2,1.91-12.45,2.8-12.48l.18.1c1.27.37,5.14-13.15,6.94-12.89s4.27,11.5-.86,19.57c-2.31,3.64-6.08,7-8.94,12.84-.64,1.25-1.14,2.43-1.56,3.48a52.37,52.37,0,0,1-3.72,7.41c-4.53,8.38-4.53,15.38-6.87,15.63C121.46,214.68,119.5,213.12,116.33,204.17Z" transform="translate(-5.5 -12.85)"/>
  </g>
</svg>
