<svg id="Layer_1" data-name="Layer 1" xmlns="http://www.w3.org/2000/svg" viewBox="0 0 556.23 124.89">
  <defs>
    <style>
      .cls-1, .cls-4, .cls-5, .cls-6 {
        fill: #333;
      }

      .cls-2 {
        fill: #3c6;
      }

      .cls-3, .cls-4, .cls-5, .cls-6 {
        isolation: isolate;
      }

      .cls-4, .cls-5 {
        font-size: 57.55px;
      }

      .cls-4, .cls-5, .cls-6 {
        font-family: MyriadPro-Regular, Myriad Pro;
      }

      .cls-5 {
        letter-spacing: -0.01em;
      }

      .cls-6 {
        font-size: 57.55px;
      }
    </style>
  </defs>
  <g>
    <g>
      <path class="cls-1" d="M72.82,187.66c-32.88-.33-59.29-26.34-59.07-58.17v-.83C14.08,97,40.63,71.53,73.31,71.47L505.56,75c32.88.32,59.3,26.33,59.08,58.17V134c-.34,31.64-26.89,57.13-59.57,57.2Z" transform="translate(-11.1 -68.89)"/>
      <path class="cls-2" d="M73.33,74.06h.49l431.72,3.56c31.42.29,56.66,25.14,56.43,55.56V134c-.35,30.2-25.69,54.53-56.88,54.63h-.51L72.87,185.07c-31.43-.26-56.69-25.12-56.43-55.55v-.83c.36-30.21,25.7-54.54,56.9-54.63m0-5.17c-34.17,0-61.94,26.67-62.24,59.75v.82c-.28,33.27,27.35,60.47,61.72,60.75l431.71,3.57h.56c34.17,0,61.95-26.68,62.24-59.76v-.83c.27-33.27-27.36-60.46-61.72-60.75L73.88,68.89Z" transform="translate(-11.1 -68.89)"/>
    </g>
    <g class="cls-3">
      <text class="cls-4" transform="matrix(0.98, 0.01, -0.01, 1, 34.59, 80.9)">Li</text>
      <text class="cls-5" transform="matrix(0.98, 0.01, -0.01, 1, 74.31, 81.19)">v</text>
      <text class="cls-6" transform="matrix(0.98, 0.01, -0.01, 1, 100.95, 81.19)">es</text>
    </g>
  </g>
</svg>
