<svg id="Layer_1" data-name="Layer 1" xmlns="http://www.w3.org/2000/svg" width="254.01" height="250" viewBox="0 0 254.01 250">
  <defs>
    <style>
      .cls-1 {
        fill: #393380;
        opacity: 0.59;
      }

      .cls-2 {
        fill: #7a3686;
      }

      .cls-3 {
        fill: #fc3;
      }

      .cls-4 {
        fill: #bf7326;
      }

      .cls-5 {
        fill: #c93;
      }

      .cls-6 {
        fill: #ffc285;
      }

      .cls-7 {
        fill: #dab6e0;
        opacity: 0.54;
      }

      .cls-8 {
        fill: #e0c0a0;
        opacity: 0.38;
      }

      .cls-9 {
        fill: #ffe085;
        opacity: 0.53;
      }

      .cls-10, .cls-11, .cls-12, .cls-13, .cls-14 {
        stroke: #333;
        stroke-miterlimit: 10;
      }

      .cls-10 {
        stroke-width: 0.18px;
      }

      .cls-11, .cls-13 {
        fill: #fff;
      }

      .cls-11 {
        stroke-width: 0.19px;
      }

      .cls-12 {
        stroke-width: 0.25px;
      }

      .cls-13 {
        stroke-width: 0.15px;
      }

      .cls-14 {
        stroke-width: 0.2px;
      }
    </style>
  </defs>
  <g>
    <path class="cls-1" d="M213.5,164.94a2.68,2.68,0,0,1,1.35,2.78c-.51,2.23-5,1.78-14.57,3.33-13.79,2.22-16.05,4.58-22,3.19-9-2.11-6.43-7.52-14.74-9.12-5.25-1-8.56.45-27.36,1.75-18.47,1.27-51.57,2.41-50.73.16.48-1.3,13.52-3.24,21-4.13,19.16-2.29,32.24-1.2,68.49,1.66,8.69.68,13,1,17.62.27,4-.64,4-1.43,7.57-1.81C204.66,162.53,211,163.2,213.5,164.94Z"/>
    <g>
      <path class="cls-2" d="M221.89,147.07c-9.64,15-29.73,17.51-32,17.81a70.82,70.82,0,0,1-9.74.5c-8.59-.25-12-2.27-19.43-1.4-2.33.27-7.37.86-7.65,2.57-.52,3.23,16.84,6.38,16.57,11.22-.13,2.3-4.28,4.75-8,4.65-11.75-.31-27.24-27.49-19.76-41.37,6.78-12.55,28.23-7.22,32.87-18.53,5.88-14.33-23.64-31.57-18.46-42,3.82-7.71,25.25-9.61,36.36-.44,3.6,3,4.88,6.11,13.29,14,5.71,5.35,8,6.64,10.37,8.84C225.69,111.73,231.75,131.79,221.89,147.07Z"/>
      <path class="cls-3" d="M117,77.8c2.47,6-4.83,8.92-16.85,28-7,11.18-10.68,20-14,18.51-2.38-1.1-1.34-6.11-6.3-12-3.11-3.73-4.71-3.18-12.46-9A137.59,137.59,0,0,1,56,93.39C49.49,87.47,49.47,86.83,44.22,82c-11-10.25-13.35-9.71-16.71-15s-5.89-13.37-3.85-18.53c4.25-10.76,26.29-3.21,31-1.6,11.83,4,12.6,7.83,28.54,15.58C105,73,114.32,71.21,117,77.8Z"/>
      <path class="cls-4" d="M190.69,114.6c.39,5,1,13.39-4.13,19.49-1.26,1.49-1.55,1.28-12.19,8.1-5.25,3.36-7.86,5-8.93,6.08-5.39,5.24-3.64,8.87-7.39,13.65-5.44,7-16.79,8.94-24.59,7.57-6.27-1.11-7.35-3.87-13.68-3.76-5.17.08-6.46,2-11.1,1.16S100.79,163.42,99,162c-4.4-3.5-3.91-5.16-7.06-7.89-7.94-6.88-16.84-1.56-21.54-8-1.06-1.46-2.3-4-1.56-5.49,1.34-2.66,7.76,1.29,12.35-2.46,1.74-1.42,2-3,4-3.38,2.63-.54,3.93,1.72,5.63,1.13,2.56-.91.87-6.5,3.86-12.33a15.75,15.75,0,0,1,9.84-8.08c4.29-1,5.53,1.16,8.93.86,10.16-.88,10.45-21.87,25.45-29.87.78-.42,10.3-5.33,19.51-2,5.84,2.14,6.21,5.67,15.1,9.79,6.82,3.17,8.72,2.08,11.9,5.19C189.85,103.81,190.33,110,190.69,114.6Z"/>
      <path class="cls-5" d="M136.73,91.21l-22.27,29.58a17,17,0,0,1-9.07,1.29,17.83,17.83,0,0,1-8.21-3.42,72.7,72.7,0,0,1-1.89,8.53c-1.53,5.29-2.43,6-3.21,6.18-1.2.22-2.43-.9-3.21-1.76a5.89,5.89,0,0,1-5-1.68,7.22,7.22,0,0,1-1.72-6.78l34.11-45.08a19.92,19.92,0,0,1,6.84-4,18.13,18.13,0,0,1,6.82-.92l5.92,5.25A5.74,5.74,0,0,1,141.2,82C142.29,85.06,140.53,89.45,136.73,91.21Z"/>
      <path class="cls-6" d="M151.44,87.55c3.1,0,8.35,0,11.9,3.53.87.87.73,1,4.48,8.06a53.39,53.39,0,0,0,3.37,5.91c3,3.64,5.33,2.71,8.13,5.3,4.07,3.76,4.79,11,3.59,15.83-1,3.9-2.73,4.44-2.94,8.43-.18,3.25.94,4.16.22,7a13.61,13.61,0,0,1-3.49,5.87c-2.36,2.6-3.37,2.22-5.21,4.07-4.62,4.66-1.72,10.51-5.93,13.16-.95.6-2.59,1.26-3.47.72-1.59-1,1.15-4.82-1-7.89-.8-1.16-1.75-1.42-1.92-2.7-.21-1.67,1.25-2.39,1-3.48-.45-1.66-4-.86-7.48-3a10,10,0,0,1-4.57-6.58c-.45-2.75,1-3.43.94-5.58-.09-6.43-13.09-7.62-17.38-17.44-.23-.51-2.85-6.74-.34-12.36,1.58-3.58,3.79-3.64,6.75-9,2.27-4.14,1.68-5.39,3.75-7.24C144.71,87.56,148.56,87.55,151.44,87.55Z"/>
      <path class="cls-7" d="M219.6,139.21c-2.84,9.95-8.54,13.56-9.18,14a12.64,12.64,0,0,1-2.76,1.31c-2.43.73-3.37-.12-5.48,1.17-.66.4-2.09,1.27-2.18,2.33-.18,2,4.71,2.07,4.59,5-.05,1.39-1.24,3.28-2.29,3.61-3.31,1-7.48-13.64-5.25-22.72,2-8.21,8-7.24,9.43-14.49,1.77-9.18-6.43-16.44-4.89-23.22,1.14-5,7.21-8.36,10.28-4,1,1.4,1.33,3.15,3.65,7,1.57,2.62,2.22,3.15,2.86,4.22C221,117.67,222.51,129.05,219.6,139.21Z"/>
      <path class="cls-8" d="M136.57,94.33Q124.23,109,112.88,122.48a19,19,0,0,1-7.7,2.66A9.63,9.63,0,0,1,99,123.8c-1.12,3-2.23,5.49-3.1,7.31-2.22,4.6-3.09,5.37-3.76,5.62a2.08,2.08,0,0,1-2.33-.87c-.26.1-2.48.88-3.82-.48-1.07-1.09-1.15-3.14-.19-5.24l36.24-42.92a29.55,29.55,0,0,1,6.37-4.51,19.36,19.36,0,0,1,5.78-2L138.16,84c2-.37,3.51.38,3.76,2C142.26,88.31,140,92.21,136.57,94.33Z"/>
      <path class="cls-9" d="M98.59,91.84c2.71,4.64-2.2,5.63-8.16,17.43C86.94,116.19,85.6,122,83,120.39c-1.92-1.14-1.9-4.55-6.43-9.51-2.84-3.11-3.93-3-10.48-8.22-3.35-2.69-5.68-4.83-9.92-8.73-5.62-5.17-5.74-5.62-10.32-9.87-9.62-8.91-11.24-8.87-14.5-13.14S25,60.54,25.71,57.17c1.5-7,18.8,1.59,22.49,3.43C57.49,65.23,58.61,68,71.47,75.89,89,86.63,95.62,86.75,98.59,91.84Z"/>
    </g>
    <path class="cls-10" d="M131.32,160.67a10.4,10.4,0,0,1,7.12,1.63c1.7,1.06,3.6,2.89,3.26,3.51s-2.61-.54-6.63-1.19c-5.77-.94-9,.15-9.27-.72S128.38,161.14,131.32,160.67Z"/>
    <g>
      <path class="cls-11" d="M129.74,147.43c1.21,5.45-3.22,11.26-8.24,13-4.1,1.43-9.27.39-9.69-1.54-.27-1.26,1.65-2.13,3.65-4.53,5.26-6.34,2.38-12.88,5.29-14.19C123.28,139.05,128.66,142.54,129.74,147.43Z"/>
      <path class="cls-12" d="M125.37,154.27c-.15,4.15-4,7.28-7.61,7.39-2.92.09-6.11-1.83-6-3.29,0-1,1.44-1.14,3.16-2.4,4.51-3.31,3.77-8.62,5.89-8.89C122.62,146.84,125.51,150.55,125.37,154.27Z"/>
    </g>
    <g>
      <path class="cls-13" d="M141.43,153.68c.18,5.43,3.95,9.76,7.39,10.12,2.81.3,5.86-2,5.79-3.91-.05-1.25-1.4-1.58-3.06-3.33-4.38-4.61-3.71-11.49-5.75-12C144,144.16,141.26,148.82,141.43,153.68Z"/>
      <path class="cls-14" d="M145.34,159c.81,3.86,3.78,5.81,6,5,1.84-.66,3.5-3.27,3.21-4.63-.2-.89-1.1-.7-2.39-1.45-3.39-2-3.84-7.13-5.22-6.85C145.78,151.31,144.61,155.53,145.34,159Z"/>
    </g>
  </g>
</svg>
