<svg id="Layer_1" data-name="Layer 1" xmlns="http://www.w3.org/2000/svg" width="1920" height="1080" viewBox="0 0 1920 1080">
  <defs>
    <style>
      .cls-1 {
        stroke: #909;
      }

      .cls-1, .cls-10, .cls-11, .cls-12, .cls-13, .cls-14, .cls-15, .cls-16, .cls-18, .cls-3, .cls-4, .cls-5, .cls-6, .cls-7, .cls-8, .cls-9 {
        stroke-miterlimit: 10;
      }

      .cls-2 {
        fill: #ff3;
      }

      .cls-3 {
        fill: #393380;
        opacity: 0.59;
      }

      .cls-10, .cls-11, .cls-12, .cls-13, .cls-14, .cls-15, .cls-16, .cls-3, .cls-4, .cls-5, .cls-6, .cls-7, .cls-8, .cls-9 {
        stroke: #fff;
      }

      .cls-4 {
        fill: #7a3686;
      }

      .cls-5 {
        fill: #fc3;
      }

      .cls-6 {
        fill: #bf7326;
      }

      .cls-7 {
        fill: #c93;
      }

      .cls-8 {
        fill: #ffc285;
      }

      .cls-9 {
        fill: #dab6e0;
        opacity: 0.54;
      }

      .cls-10 {
        fill: #e0c0a0;
        opacity: 0.38;
      }

      .cls-11 {
        fill: #ffe085;
        opacity: 0.53;
      }

      .cls-12 {
        stroke-width: 0.39px;
      }

      .cls-13, .cls-15 {
        fill: #fff;
      }

      .cls-13 {
        stroke-width: 0.41px;
      }

      .cls-14 {
        stroke-width: 0.55px;
      }

      .cls-15 {
        stroke-width: 0.32px;
      }

      .cls-16 {
        stroke-width: 0.44px;
      }

      .cls-17, .cls-18 {
        fill: #333;
      }

      .cls-18 {
        stroke: #333;
        stroke-width: 1px;
      }
    </style>
  </defs>
  <rect class="cls-1" x="-0.5" y="-0.5" width="1920" height="1080"/>
  <g>
    <g>
      <path class="cls-2" d="M580.37,419.54c-11.18,0-21.86-3.61-31.76-10.73a65.25,65.25,0,0,1-16.46-16.89,68.06,68.06,0,0,1-10.76-32c-.63-6.71-1.34-14.32,1.64-23.12.48-1.41,4.22-8.13,10.42-19.25,4.09-7.36,5.08-9,7.18-11a21,21,0,0,1,6.07-4.11,15.73,15.73,0,0,0,6.2-4.73,13,13,0,0,0,2.87-7.35,18.11,18.11,0,0,1,2.47-7.56c3.44-6.12,8.58-9.83,11.87-10.32a21,21,0,0,1,3-.2h.18a19.25,19.25,0,0,1,2.77.4,43.45,43.45,0,0,0,9.09.83c.77,0,1.6,0,2.5,0a80.26,80.26,0,0,0,17-2.33,32,32,0,0,1,7-1.11,14.16,14.16,0,0,1,4.4.72c4,1.28,5.64,3.29,8.16,6.33a52.78,52.78,0,0,0,7.85,8c7.5,6.08,17,10.1,28.22,12l-22.74,24.2c-19.28-17.9-25.12-20.24-28-20.24a3.78,3.78,0,0,0-2.43.8c-2.1,1.67-1.42,4.73-.71,8,.75,3.44,1.6,7.34-.38,9.48a7,7,0,0,1-5,1.88,7.1,7.1,0,0,1-3-.61c-1.8-.84-2.46-2.38-3.23-4.17s-1.71-4-4.11-4.82a5.62,5.62,0,0,0-1.88-.32c-4.39,0-10,4.9-16.8,14.54l-.24.34c-6.83,9.5-9.67,19.1-8.42,28.54s6.43,17.57,15.42,24c3.32,2.39,6.15,3.55,8.65,3.55a7.05,7.05,0,0,0,5.9-3.13,5.93,5.93,0,0,0,1-5.62,10.42,10.42,0,0,0-4.08-4.81l-7.08-5.1,18.7-26L634,360.79c.26,14.19-3.31,26.54-10.62,36.7-8.68,12.06-20.33,19.27-34.62,21.42A56.69,56.69,0,0,1,580.37,419.54Z"/>
      <path d="M611.58,272a12,12,0,0,1,3.79.63c3.41,1.09,4.77,2.73,7.22,5.7a54.7,54.7,0,0,0,8.14,8.29c6.95,5.64,15.51,9.56,25.52,11.7L646,309.25l-8.61,9.16C618.9,301.42,613,299,609.43,299a5.85,5.85,0,0,0-3.68,1.23c-3.07,2.45-2.19,6.45-1.42,10,.62,2.82,1.39,6.32.12,7.69a5.18,5.18,0,0,1-3.58,1.24,5.28,5.28,0,0,1-2.15-.42c-1-.47-1.43-1.28-2.23-3.15s-2.06-4.78-5.28-5.92a7.8,7.8,0,0,0-2.55-.43c-5.15,0-11.18,5-18.44,15.4l-.22.31c-7.14,9.93-10.1,20-8.79,30s6.79,18.6,16.24,25.4c3.67,2.64,6.89,3.92,9.82,3.92a9,9,0,0,0,7.52-4,8,8,0,0,0,1.22-7.45,12.36,12.36,0,0,0-4.8-5.78l-5.46-3.92,16.36-22.74L632,361.82c.07,13.34-3.37,24.93-10.25,34.5-8.47,11.77-19.36,18.51-33.3,20.61a54,54,0,0,1-8,.61c-10.75,0-21-3.48-30.59-10.35a63.35,63.35,0,0,1-16-16.37,66,66,0,0,1-10.43-31.13c-.65-6.83-1.31-13.89,1.53-22.28.48-1.33,4.38-8.34,10.28-18.94,4.17-7.49,5-8.77,6.82-10.51a19.18,19.18,0,0,1,5.56-3.76,17.52,17.52,0,0,0,6.89-5.28,15,15,0,0,0,3.29-8.33,16.05,16.05,0,0,1,2.22-6.84c3.48-6.17,8.24-9,10.43-9.32a18.86,18.86,0,0,1,2.66-.18h.09a19.26,19.26,0,0,1,2.5.36,45.05,45.05,0,0,0,9.45.87c.81,0,1.67,0,2.56,0A82.68,82.68,0,0,0,605,273.06a30.83,30.83,0,0,1,6.55-1.06m0-4c-5.7,0-10.92,3-24,3.44-.88,0-1.69,0-2.44,0-7,0-8.81-1.09-11.83-1.23h-.21a23.7,23.7,0,0,0-3.26.22c-3.87.58-9.49,4.53-13.31,11.32-4.24,7.53-1.26,9.67-5.18,14.66-3.61,4.6-6.64,3.42-12.07,8.62-2.3,2.21-3.38,4-7.54,11.45-6.69,12-10,18-10.57,19.6-3.12,9.2-2.39,17-1.74,23.95A69.65,69.65,0,0,0,530.48,393a67,67,0,0,0,17,17.42q15.45,11.1,32.93,11.1a58.06,58.06,0,0,0,8.65-.66q22.37-3.36,35.94-22.22,11.67-16.23,11-38.91l-34.73-25-21,29.24,8.71,6.26c3.59,2.58,4.47,5.13,2.67,7.65a5.06,5.06,0,0,1-4.28,2.29c-2,0-4.54-1.05-7.49-3.17q-12.82-9.24-14.6-22.67t8.07-27.12c.94-1.3,9.49-14,15.41-14a3.6,3.6,0,0,1,1.22.21c3.36,1.18,2.49,6.74,7.15,8.91a9.11,9.11,0,0,0,3.84.8,9,9,0,0,0,6.51-2.52c4.67-5-1.78-15.14.86-17.25a1.86,1.86,0,0,1,1.19-.36c3.13,0,10.84,4.88,28.14,21.06l26.73-28.46c-15.72-1.86-25.25-7.37-31-12.08-8.66-7-8.93-12.21-16.66-14.69a15.92,15.92,0,0,0-5-.82Z"/>
    </g>
    <g>
      <path class="cls-2" d="M736.44,425.27a38.51,38.51,0,0,0-29.08-5.65V379.73c0-5.27-1.28-9.58-3.79-12.8A12.83,12.83,0,0,0,693,361.84a13.87,13.87,0,0,0-10.36,4.57,16,16,0,0,0-.37,21.47,16,16,0,0,0,3.8,2.89,11.87,11.87,0,0,0,5.41,1.11h0a22.42,22.42,0,0,0,6.86-1.15V421.5c-1.86.16-3.74.36-5.59.59a114,114,0,0,0-12.86,2.29A18.75,18.75,0,0,1,676,425a5.36,5.36,0,0,1-1.65-.27c-1.43-.45-2.21-1.46-10.26-12.33l-2.33-3.14-4.11-5.53c-3-4-3.06-4.12-3.41-4.78a48,48,0,0,1-5.19-22.57c0-12.69,4.26-23.59,12.68-32.41l.15-.15c3.72-3.9,7.93-8.32,14.16-9.94a16.5,16.5,0,0,1,4.21-.55c2.94,0,5.89.76,10,1.81l1.14.29a244.3,244.3,0,0,0,25.47,5.35c4.46.69,5.53.85,7.77,2.53C735.39,351.42,736.4,368,736,377.17Z"/>
      <path d="M680.28,335.37c2.68,0,5.54.73,9.49,1.75l1.14.29a244.82,244.82,0,0,0,25.66,5.38c4.54.71,5.1.83,6.88,2.16,10,7.52,10.93,23.36,10.59,32.14v.19l.25,29.74.12,14.71a40.55,40.55,0,0,0-19.29-4.9,41,41,0,0,0-5.76.41V379.73c0-5.73-1.42-10.45-4.21-14a14.92,14.92,0,0,0-12.2-5.86A15.82,15.82,0,0,0,681.14,365a18,18,0,0,0-.37,24.23,17.48,17.48,0,0,0,4.31,3.27,13.75,13.75,0,0,0,6.35,1.35,23.06,23.06,0,0,0,4.86-.54v26.34c-1.28.13-2.56.27-3.83.43a113,113,0,0,0-13.07,2.32A18.19,18.19,0,0,1,676,423a3.25,3.25,0,0,1-1-.18c-.82-.25-2.59-2.61-9.25-11.6l-2.33-3.16-4.12-5.54c-2.85-3.82-3-4-3.24-4.5a46.09,46.09,0,0,1-5-21.64c0-12.33,4-22.48,12.13-31l.14-.16c3.54-3.7,7.55-7.9,13.22-9.38a14.88,14.88,0,0,1,3.71-.48m0-4a18.49,18.49,0,0,0-4.72.61c-6.86,1.79-11.47,6.69-15.25,10.65q-13.23,13.86-13.23,33.79a49.72,49.72,0,0,0,5.42,23.5c.57,1.09.63,1.06,7.68,10.57C670.9,425,671.52,426,673.79,426.68A7.41,7.41,0,0,0,676,427c2.76,0,5.86-1.59,16.92-3,3.13-.39,5.7-.61,7.34-.74V387.81a21.92,21.92,0,0,1-8.86,2.07A10,10,0,0,1,687,389a14,14,0,0,1-3.26-2.48,14,14,0,0,1,.35-18.73,11.89,11.89,0,0,1,8.91-4,10.87,10.87,0,0,1,9,4.32q3.36,4.3,3.37,11.57v42.42a36.55,36.55,0,0,1,33.11,7.12q-.21-26-.43-52c.29-7.43,0-26.34-12.19-35.49-5.17-3.88-5.86-1-34-8.23-4.72-1.2-8.15-2.16-11.62-2.16Z"/>
    </g>
    <g>
      <path class="cls-2" d="M845.94,420.15v-47.4c0-4.16-.45-7-1.36-8.82a6.12,6.12,0,0,0-5.89-3.28c-3.42,0-7.5,2.11-7.5,12.19v47.31H802.51v-47.4c0-4.17-.46-7.06-1.42-8.84a6.19,6.19,0,0,0-5.91-3.26c-3.38,0-7.42,2.11-7.42,12.19v47.31H759.08V365.52c-.94-7.39,0-12.49,2.93-15.15a9.62,9.62,0,0,1,4.84-2.13,13.72,13.72,0,0,0,7.56-3.82,14.7,14.7,0,0,0,3.73-7.29c.53-2,.91-3.44,2.47-4.74,1.8-1.49,4.16-1.7,6.44-1.7.65,0,1.29,0,1.93,0l1.93,0c9,0,17.29,4.1,24.55,12.19l.47.53.7.11a55.2,55.2,0,0,0,8.8.74,41.21,41.21,0,0,0,15.57-2.9,52.77,52.77,0,0,0,7.86-4.14c2.88-1.75,5.16-3.13,7.66-3.13a7.11,7.11,0,0,1,1.36.13c3.57.65,6,3.74,8.25,6.73.39.5.77,1,1.16,1.48,4.87,6.1,7.34,15.22,7.34,27.12v50.53Z"/>
      <path d="M787,332.69c.63,0,1.25,0,1.87,0l2,0c8.56,0,16.1,3.77,23.06,11.53l.94,1,1.4.23a58,58,0,0,0,9.12.76,43.22,43.22,0,0,0,16.33-3.05,55,55,0,0,0,8.14-4.28c3-1.81,4.77-2.84,6.62-2.84a5,5,0,0,1,1,.1c2.81.51,4.86,3.17,7,6,.39.51.78,1,1.17,1.51,4.58,5.73,6.91,14.44,6.91,25.87v48.53H847.94v-45.4c0-4.55-.51-7.64-1.58-9.73a8.16,8.16,0,0,0-7.67-4.37c-3.55,0-9.5,1.84-9.5,14.19v45.31H804.51v-45.4c0-4.57-.53-7.68-1.65-9.79a8.26,8.26,0,0,0-7.68-4.31c-3.52,0-9.42,1.84-9.42,14.19v45.31H761.08V365.51l0-.25c-.58-4.61-.66-10.68,2.31-13.41,1-1,2-1.23,3.93-1.66a15.8,15.8,0,0,0,8.54-4.37,16.78,16.78,0,0,0,4.24-8.18c.51-2,.78-2.86,1.81-3.71s2.52-1.24,5.16-1.24m0-4c-2.73,0-5.47.3-7.72,2.16-4.08,3.39-2.1,7.83-6.35,12.17s-8.41,2.28-12.32,5.88c-2.49,2.3-4.84,6.85-3.57,16.87v56.38h32.68V372.84q0-10.2,5.42-10.19a4.3,4.3,0,0,1,4.15,2.2q1.18,2.2,1.18,7.9v49.4h32.68V372.84q0-10.2,5.5-10.19a4.21,4.21,0,0,1,4.11,2.2q1.14,2.2,1.14,7.9v49.4h32.68V369.62q0-18.63-7.78-28.37c-2.84-3.55-5.63-8-10.61-8.93a9.5,9.5,0,0,0-1.72-.16c-5.16,0-8.84,4.39-16.27,7.41a38.76,38.76,0,0,1-14.82,2.76,53,53,0,0,1-8.48-.71q-11.54-12.86-26-12.86c-1.24,0-2.55-.07-3.86-.07Z"/>
    </g>
    <g>
      <path class="cls-2" d="M927.06,454a43.72,43.72,0,0,1-6-.43l-1.27-.18c-6.14-.85-11.94-1.65-15.75-5.71a7.24,7.24,0,0,1-1.91-3.52,24.34,24.34,0,0,0-2.48-5.79,26.08,26.08,0,0,0-8.35-9,19.06,19.06,0,0,1-5.77-5.77c-3.48-5.56-5.18-14.42-1.69-20.58,1.39-2.47,2.93-3.25,4.89-4.25A16.74,16.74,0,0,0,895.8,393c3.16-4.52,3.24-8.56,3.32-12.11.07-3.32.13-6.17,2.51-9.38,4.16-5.59,11.37-7,14.28-7.29a15.36,15.36,0,0,1,1.68-.11,15.59,15.59,0,0,1,4.43.8,73.91,73.91,0,0,0,8.74,1.9,71.36,71.36,0,0,0,12.48,1c3.12,0,4.84,0,7.71,1.39,5.4,2.6,8.6,7.08,11.43,11a45.38,45.38,0,0,1,6.17,12.13,47.08,47.08,0,0,1,.82,25.64l-45.76-6.45a23.2,23.2,0,0,1,.06-5.3,24.31,24.31,0,0,1,2-6.79L943,401.84l-.07-2.37c-.3-9.94-6.21-12.85-11.11-13.54a14.49,14.49,0,0,0-2.06-.15,13.84,13.84,0,0,0-10.31,4.78C916.15,394.1,914,399,913.19,405c-.89,6.25-.27,11.62,1.84,15.95,2.24,4.59,5.74,7.26,10.4,7.92A11.84,11.84,0,0,0,927,429a14.3,14.3,0,0,0,8.19-2.89l13,22.19A42.78,42.78,0,0,1,927.06,454Z"/>
      <path d="M917.59,366.08h0a14.16,14.16,0,0,1,3.91.73,74.57,74.57,0,0,0,9,1.94,72.68,72.68,0,0,0,12.79,1c3.1,0,4.38,0,6.84,1.19,4.94,2.38,7.86,6.46,10.68,10.39a44,44,0,0,1,5.89,11.59,44.66,44.66,0,0,1,1.16,22.78l-42.31-6a17.94,17.94,0,0,1,.16-3.26,22.35,22.35,0,0,1,1.25-4.87l13.48,1.9,4.7.66-.14-4.74c-.27-8.84-4.82-14.33-12.83-15.46a17,17,0,0,0-2.34-.17A15.76,15.76,0,0,0,918,389.19c-3.6,3.85-5.89,9.06-6.8,15.51-.94,6.65-.26,12.41,2,17.1,2.51,5.16,6.63,8.28,11.92,9A14.26,14.26,0,0,0,927,431a15.37,15.37,0,0,0,7.51-2.1l10.89,18.61A40.18,40.18,0,0,1,927.06,452a41.33,41.33,0,0,1-5.73-.41l-1.28-.18c-5.78-.8-11.24-1.55-14.56-5.1A5.19,5.19,0,0,1,904,443.6a26.51,26.51,0,0,0-2.67-6.21,28.19,28.19,0,0,0-8.91-9.6,17.34,17.34,0,0,1-5.25-5.21c-3.08-4.94-4.71-13.11-1.64-18.54,1.09-1.94,2.14-2.47,4.06-3.44a18.79,18.79,0,0,0,7.81-6.49c3.51-5,3.6-9.56,3.68-13.21.07-3.21.12-5.53,2.12-8.22,3.79-5.11,10.83-6.27,12.9-6.5a11.4,11.4,0,0,1,1.45-.1m0-4a17,17,0,0,0-1.9.12c-1.39.16-10.54,1.2-15.66,8.09-5.54,7.45-.26,13.5-5.87,21.53-4.34,6.23-8.74,4.35-12.08,10.25-3.78,6.7-2.19,16.34,1.74,22.63,4.31,6.9,9.11,6.05,14.08,14.68,3.09,5.35,1.76,6.58,4.67,9.69,4.58,4.88,11.53,5.56,18.2,6.5a43.93,43.93,0,0,0,30.14-6.6l-15.14-25.88Q931.24,427,927,427a9.32,9.32,0,0,1-1.29-.09q-6-.84-8.88-6.82t-1.66-14.79q1.19-8.46,5.76-13.33a11.83,11.83,0,0,1,8.85-4.15,12,12,0,0,1,1.78.13q9.08,1.27,9.39,11.62l-16.44-2.32a25.07,25.07,0,0,0-2.7,16l49.05,6.92a49.73,49.73,0,0,0-.41-28.5A47.76,47.76,0,0,0,964,379c-2.91-4.05-6.33-8.83-12.19-11.66-6-2.92-7.87-.48-20.75-2.53-8.32-1.32-10-2.72-13.48-2.72Z"/>
    </g>
    <g>
      <path class="cls-2" d="M1097.59,423.27c-6.74,0-11.59-1.29-21.26-3.88l-.45-.12c-14.07-3.75-21.13-5.64-27.42-10.55-3.34-2.61-12.21-9.54-13-19.3-.32-3.8.71-5.63,2.41-8.67a42,42,0,0,0,4.43-10.47c2.42-8.95,1.18-15.19.09-20.7s-2.09-10.53.36-17.88a38.56,38.56,0,0,1,12-17.36c3.44-2.75,5.75-3.47,9.59-4.67a105.07,105.07,0,0,0,14-5.37c5-2.32,8.58-4.34,11.18-5.82,3.43-2,5.32-3,7.27-3a6.45,6.45,0,0,1,1.51.18c2.77.62,3.86,2.23,5.5,4.67a25.54,25.54,0,0,0,8,8.18A23.27,23.27,0,0,0,1125,312.1c1,0,1.93,0,2.89-.06s1.82-.06,2.73-.06a17.84,17.84,0,0,1,10.45,2.77c5.86,3.72,8.28,9.48,11.93,18.19l.3.71a66.14,66.14,0,0,1,5,25.78c0,17.69-6,32.92-17.71,45.27S1114.36,423.27,1097.59,423.27Zm0-94.67a26.29,26.29,0,0,0-20.09,9.1,32.8,32.8,0,0,0,0,43.47c5.53,6,12.27,9.1,20,9.1a26.32,26.32,0,0,0,20.14-9.06,33.15,33.15,0,0,0,0-43.56A26.35,26.35,0,0,0,1097.59,328.6Z"/>
      <path d="M1096.7,297.45a4.92,4.92,0,0,1,1.07.14c1.9.42,2.59,1.32,4.29,3.84a27.44,27.44,0,0,0,8.58,8.75A25.17,25.17,0,0,0,1125,314.1c1,0,2,0,3-.06s1.8-.06,2.67-.06a16.11,16.11,0,0,1,9.38,2.45c5.33,3.39,7.65,8.92,11.16,17.28l.3.72a64.24,64.24,0,0,1,4.81,25c0,17.16-5.77,31.93-17.16,43.89s-25.06,17.95-41.49,17.95c-6.48,0-11.24-1.27-20.74-3.81l-.45-.12c-13.81-3.68-20.74-5.53-26.71-10.2-3.15-2.46-11.52-9-12.28-17.89-.27-3.18.54-4.63,2.16-7.52a43.84,43.84,0,0,0,4.62-10.93c2.55-9.4,1.26-15.89.12-21.61-1.07-5.37-2-10,.3-16.86a36.36,36.36,0,0,1,11.31-16.42c3.14-2.52,5.08-3.13,8.93-4.34a105.73,105.73,0,0,0,14.24-5.45c5.11-2.36,8.7-4.41,11.33-5.9,3.37-1.92,4.91-2.76,6.28-2.77m.89,94.82a28.24,28.24,0,0,0,21.62-9.72,35.13,35.13,0,0,0,0-46.24,28.83,28.83,0,0,0-43.19,0,34.81,34.81,0,0,0,0,46.17c5.92,6.47,13.16,9.75,21.52,9.75m-.89-98.82c-4.26,0-7.46,3.57-19.29,9-14.38,6.65-17.25,4.89-24,10.29a40.72,40.72,0,0,0-12.61,18.28c-5.2,15.6,4.16,21.57-.48,38.7-2.92,10.75-7.57,12-6.9,19.83.91,10.63,10.22,17.91,13.8,20.7,6.61,5.17,13.79,7.09,28.14,10.92,10.07,2.69,15.11,4.06,22.22,4.06q26.13,0,44.39-19.19t18.26-46.65a68,68,0,0,0-5.12-26.55c-3.83-9.11-6.45-15.65-13-19.82a19.89,19.89,0,0,0-11.52-3.08c-1.87,0-3.73.12-5.62.12a21.19,21.19,0,0,1-12.2-3.3c-8.3-5.25-7.35-11.6-14.13-13.12a9.13,9.13,0,0,0-1.94-.23Zm.89,94.82q-10.83,0-18.57-8.45a30.8,30.8,0,0,1,0-40.77,24.82,24.82,0,0,1,37.27-.05,31.14,31.14,0,0,1,0,40.86,24.3,24.3,0,0,1-18.66,8.41Z"/>
    </g>
    <g>
      <path class="cls-2" d="M1163.51,336.08c4,2.43,7.4,3.62,10.17,3.62a7.77,7.77,0,0,0,3.91-1,11.73,11.73,0,0,0,3.08-2.85,8.83,8.83,0,0,1,4-3.16,8.13,8.13,0,0,1,2.72-.45,11.21,11.21,0,0,1,1.38.1l10.65,28.41,11.14-27.15a42.66,42.66,0,0,0,22.69,6.49,46.18,46.18,0,0,0,5.24-.31,273.7,273.7,0,0,0-39.58,80Z"/>
      <path d="M1187.31,334.26l3.9,10.39,4.52,12.05,3.58,9.54,3.86-9.42,8.34-20.31a44.27,44.27,0,0,0,21.71,5.6l1.17,0c-4.63,6.65-9,13.52-13,20.51A276.13,276.13,0,0,0,1198.61,414l-15.81-37.41-15.33-36.29a16.82,16.82,0,0,0,6.21,1.38,9.78,9.78,0,0,0,4.9-1.24,13.16,13.16,0,0,0,3.62-3.31,6.91,6.91,0,0,1,3.11-2.55,6.17,6.17,0,0,1,2-.34m0-4a10.18,10.18,0,0,0-3.38.56c-4,1.41-4.89,4.74-7.39,6.16a5.69,5.69,0,0,1-2.91.72c-3,0-7.55-1.73-14.66-7.1l40.19,95.13A271.76,271.76,0,0,1,1243,337a43.19,43.19,0,0,1-9.78,1.13,40.6,40.6,0,0,1-23.61-7.51l-10.14,24.7q-4.62-12.35-9.26-24.7a13,13,0,0,0-2.85-.34Z"/>
    </g>
    <g>
      <path class="cls-2" d="M1284.41,422a41.75,41.75,0,0,1-31.16-13.07,45.1,45.1,0,0,1-8-11.23c-1.91-3.88-5.82-11.78-4.69-21a16.34,16.34,0,0,1,2.62-7.22,66.4,66.4,0,0,0,6-13.72c.84-2.52,1.36-4.39,1.77-5.89.8-2.86,1.16-4.16,2.61-6.25a25.36,25.36,0,0,1,13.28-9.41,13.33,13.33,0,0,1,3.68-.57,26.05,26.05,0,0,1,3.53.34,71,71,0,0,0,10.54.73h.66a73,73,0,0,0,10.32-.74,24.38,24.38,0,0,1,3.26-.32,10.85,10.85,0,0,1,3.36.57c5.68,1.76,9.49,5.77,12.84,9.32a45.85,45.85,0,0,1,7.81,11.15,47,47,0,0,1,4.39,25.28h-46.21a22.83,22.83,0,0,1-.67-5.26,24.53,24.53,0,0,1,1-7h17.52l-.4-2.34c-1.68-9.8-7.94-11.86-12.89-11.86-4.75,0-8.65,2.13-11.6,6.32-2.79,4-4.21,9.06-4.21,15.15,0,6.32,1.37,11.54,4.06,15.54,2.86,4.24,6.69,6.39,11.4,6.39,3.23,0,6.35-1.39,9.28-4.12l16,20.16A42.22,42.22,0,0,1,1284.41,422Z"/>
      <path d="M1270.55,335.6a23.8,23.8,0,0,1,3.26.32,72.41,72.41,0,0,0,10.81.75h.67a74.32,74.32,0,0,0,10.58-.76,23.75,23.75,0,0,1,3-.3,8.89,8.89,0,0,1,2.77.48c5.18,1.6,8.64,5.25,12,8.78a43,43,0,0,1,11.8,33.06h-42.73a19.18,19.18,0,0,1-.3-3.26,22.72,22.72,0,0,1,.56-5h18.36l-.81-4.68c-1.49-8.72-6.77-13.52-14.86-13.52a15.74,15.74,0,0,0-13.23,7.16c-3,4.32-4.58,9.8-4.58,16.31,0,6.72,1.48,12.33,4.4,16.65,3.21,4.76,7.72,7.28,13.06,7.28a14.67,14.67,0,0,0,9-3.26l13.4,16.91a39.37,39.37,0,0,1-23.26,7.46c-11.92,0-21.63-4.08-29.72-12.46a42.79,42.79,0,0,1-7.6-10.72l0-.08c-1.8-3.63-5.53-11.17-4.46-19.82a14,14,0,0,1,2.37-6.48,68.27,68.27,0,0,0,6.15-14.08c.85-2.57,1.38-4.47,1.8-6,.78-2.78,1.07-3.83,2.32-5.64a23.7,23.7,0,0,1,12.18-8.63,11.37,11.37,0,0,1,3.14-.49m0-4a15.19,15.19,0,0,0-4.22.64,27.53,27.53,0,0,0-14.39,10.2c-2.47,3.56-2.19,5.26-4.62,12.66-4.81,14.59-7.77,13.73-8.7,21.32-1.22,9.9,3,18.3,4.88,22.16a46.74,46.74,0,0,0,8.31,11.72Q1265,424,1284.41,424q15.9,0,28.92-10.75l-18.61-23.51q-4.54,5.14-9.44,5.15-6,0-9.74-5.51T1271.82,375q0-8.54,3.85-14t10-5.47q9.16,0,10.92,10.2H1280a25.28,25.28,0,0,0-.44,16.25h49.54a49.81,49.81,0,0,0-4.38-28.17,48.25,48.25,0,0,0-8.15-11.64c-3.47-3.66-7.53-7.94-13.71-9.85a13,13,0,0,0-4-.66c-2.85,0-5.66,1-13.6,1.06h-.64c-8.08,0-10.93-1.07-14.07-1.07Z"/>
    </g>
    <g>
      <path class="cls-2" d="M1344.6,420.15V372.81c4.76-5.93,7.52-12.1,8.2-18.36a45.73,45.73,0,0,0,.17-5.82c-.06-3.42,0-5.27,1.4-6.79.74-.79,1.26-.92,2.94-1.22a28.84,28.84,0,0,0,6.33-1.78,30.75,30.75,0,0,0,7.75-4.56c1.73-1.31,2.77-2.1,4.54-2.2h.38c2.44,0,5.12,1.39,8,4.13l3.64,26.85a11.61,11.61,0,0,0-3.73-.66c-5,0-10.91,2.83-10.91,16.33v41.43Z"/>
      <path d="M1376.31,334.07c2.12,0,4.35,1.54,6.08,3.11l3.16,23.29a12.55,12.55,0,0,0-1.36-.08c-4.82,0-12.91,2.38-12.91,18.33v39.43H1346.6V373.51c4.73-6.07,7.49-12.4,8.19-18.85a48,48,0,0,0,.18-6.06c-.06-3.19,0-4.48.86-5.39.29-.32.32-.35,1.83-.62a29.8,29.8,0,0,0,6.73-1.9,33.2,33.2,0,0,0,8.21-4.81c1.74-1.32,2.34-1.74,3.44-1.8h.27m0-4-.49,0c-4.54.25-5.49,3.87-12.94,6.89-5.92,2.41-7.73,1.1-10,3.49-3.07,3.27-1.43,7.61-2.1,13.76-.48,4.43-2.25,10.65-8.21,17.87v50h32.68V378.72q0-14.33,8.91-14.33a12.37,12.37,0,0,1,6.2,2q-2.1-15.57-4.22-31.15c-4.25-4.29-7.59-5.19-9.86-5.19Z"/>
    </g>
  </g>
  <g>
    <path class="cls-3" d="M1153.74,679.49c3.64,2.55,3,5.66,2.93,6-1.11,4.87-10.73,3.89-31.5,7.26-29.78,4.84-34.67,10-47.54,7-19.44-4.59-13.9-16.39-31.86-19.88-11.34-2.21-18.51,1-59.12,3.81-39.92,2.78-111.44,5.25-109.63.34,1.05-2.82,29.21-7.06,45.35-9,41.4-5,69.66-2.61,148,3.62,18.77,1.5,28.1,2.19,38.06.59,8.6-1.38,8.64-3.11,16.36-3.94C1134.66,674.24,1148.35,675.69,1153.74,679.49Z"/>
    <g>
      <path class="cls-4" d="M1171.88,640.51c-20.83,32.6-64.25,38.2-69.17,38.83a150.81,150.81,0,0,1-21,1.11c-18.57-.56-25.88-5-42-3.06-5,.59-15.93,1.87-16.53,5.61-1.12,7,36.4,13.9,35.81,24.47-.28,5-9.24,10.35-17.21,10.14-25.4-.68-58.88-60-42.7-90.22,14.63-27.38,61-15.74,71-40.41,12.71-31.24-51.09-68.84-39.9-91.59,8.27-16.82,54.56-20.95,78.58-1,7.77,6.47,10.55,13.33,28.71,30.52,12.34,11.67,17.38,14.49,22.43,19.29C1180.09,563.45,1193.18,607.19,1171.88,640.51Z"/>
      <path class="cls-5" d="M945.28,489.45c5.34,13.11-10.43,19.46-36.4,61-15.23,24.39-23.08,43.69-30.19,40.38-5.16-2.4-2.9-13.34-13.61-26.3-6.72-8.13-10.18-6.93-26.93-19.56-8.55-6.45-14.33-11.81-24.86-21.55-13.95-12.92-14-14.32-25.34-25-23.82-22.35-28.85-21.18-36.11-32.74-7.13-11.35-12.74-29.14-8.33-40.4,9.18-23.45,56.82-7,67-3.49,25.58,8.84,27.23,17.08,61.68,34C919.24,479,939.44,475.09,945.28,489.45Z"/>
      <path class="cls-6" d="M1104.46,569.71c.84,10.84,2.25,29.19-8.92,42.49-2.73,3.26-3.35,2.79-26.35,17.67-11.34,7.34-17,11-19.29,13.27-11.65,11.42-7.87,19.32-16,29.75-11.78,15.16-36.3,19.5-53.16,16.51-13.55-2.41-15.87-8.44-29.55-8.21-11.17.2-14,4.34-24,2.54-9.84-1.77-17-7.55-21-10.72-9.5-7.63-8.46-11.27-15.26-17.21-17.15-15-36.38-3.4-46.54-17.45-2.3-3.17-5-8.78-3.38-12,2.91-5.8,16.78,2.81,26.7-5.38,3.75-3.1,4.4-6.47,8.73-7.37,5.66-1.17,8.48,3.77,12.15,2.46,5.55-2,1.88-14.16,8.35-26.88,4.64-9.12,13-15.58,21.26-17.62,9.26-2.28,12,2.53,19.29,1.89,22-1.93,22.6-47.7,55-65.15,1.7-.91,22.27-11.62,42.16-4.27,12.63,4.66,13.43,12.37,32.63,21.36,14.74,6.9,18.84,4.53,25.72,11.3C1102.65,546.17,1103.69,559.62,1104.46,569.71Z"/>
      <path class="cls-7" d="M987.85,518.7l-48.12,64.52A36.67,36.67,0,0,1,920.14,586a38.09,38.09,0,0,1-17.74-7.44,160.21,160.21,0,0,1-4.1,18.59c-3.3,11.54-5.25,13.15-6.93,13.47-2.59.49-5.26-2-6.93-3.84a12.65,12.65,0,0,1-10.82-3.65,15.88,15.88,0,0,1-3.72-14.79q34.54-46.07,73.71-98.3a42.93,42.93,0,0,1,14.8-8.76,38.35,38.35,0,0,1,14.72-2l12.81,11.45c5.31.17,9.92,3.19,11.57,7.88C999.88,505.29,996.06,514.87,987.85,518.7Z"/>
      <path class="cls-8" d="M1019.65,510.72c6.7,0,18,0,25.71,7.7,1.88,1.89,1.57,2.26,9.68,17.58,4,7.54,6,11.3,7.29,12.87,6.49,8,11.52,5.93,17.56,11.56,8.79,8.2,10.36,24,7.76,34.54-2.08,8.48-5.89,9.67-6.36,18.37-.38,7.1,2,9.07.48,15.35s-5.41,10.46-7.53,12.81c-5.12,5.67-7.3,4.83-11.26,8.87-10,10.16-3.72,22.93-12.81,28.7-2.06,1.31-5.62,2.74-7.5,1.57-3.44-2.12,2.47-10.51-2.11-17.2-1.74-2.53-3.78-3.1-4.14-5.89-.47-3.66,2.69-5.21,2.06-7.6-1-3.62-8.62-1.87-16.15-6.59a21.72,21.72,0,0,1-9.87-14.34c-1-6,2.09-7.47,2-12.16-.2-14-28.3-16.63-37.56-38-.49-1.12-6.15-14.69-.74-27,3.43-7.79,8.2-7.93,14.59-19.69,4.91-9,3.63-11.74,8.1-15.79C1005.1,510.74,1013.42,510.73,1019.65,510.72Z"/>
      <path class="cls-9" d="M1166.94,623.38c-6.14,21.68-18.46,29.56-19.85,30.45a26.75,26.75,0,0,1-6,2.86c-5.24,1.61-7.27-.27-11.84,2.55-1.43.88-4.52,2.78-4.72,5.08-.37,4.33,10.18,4.52,9.93,10.91-.12,3-2.69,7.16-4.94,7.86-7.17,2.24-16.17-29.74-11.36-49.53,4.35-17.91,17.35-15.78,20.38-31.59,3.84-20-13.9-35.87-10.56-50.65,2.47-10.93,15.58-18.23,22.22-8.78,2.14,3.06,2.87,6.88,7.87,15.27,3.4,5.7,4.8,6.86,6.19,9.2C1169.86,576.41,1173.22,601.22,1166.94,623.38Z"/>
      <path class="cls-10" d="M987.5,525.5l-51.19,61.38c-3,1.79-9.35,5.18-16.64,5.8-6.93.59-11.29-1.63-13.28-2.91-2.41,6.56-4.82,12-6.71,15.94-4.78,10-6.67,11.7-8.12,12.26-2.21.87-4-.65-5-1.89-.57.21-5.38,1.91-8.26-1.05-2.31-2.38-2.48-6.85-.42-11.43L956.18,510a63.91,63.91,0,0,1,13.76-9.81,41.55,41.55,0,0,1,12.49-4.29l8.51,7.07c4.34-.81,7.6.83,8.12,4.37C999.81,512.37,995,520.89,987.5,525.5Z"/>
      <path class="cls-11" d="M905.44,520.07c5.86,10.12-4.77,12.29-17.64,38-7.55,15.08-10.44,27.64-16.15,24.23-4.14-2.47-4.1-9.92-13.88-20.73-6.14-6.78-8.5-6.44-22.66-17.92-7.23-5.86-12.27-10.54-21.43-19-12.15-11.27-12.39-12.27-22.29-21.52-20.79-19.44-24.31-19.36-31.35-28.67-6.91-9.13-13.66-22.62-12.1-30,3.25-15.32,40.64,3.47,48.6,7.48,20.07,10.09,22.51,16.2,50.28,33.34C884.78,508.72,899,509,905.44,520.07Z"/>
    </g>
    <path class="cls-12" d="M976.17,670.17c7.61-1.23,13.52,2.37,15.38,3.54,3.68,2.32,7.79,6.31,7,7.66s-5.64-1.17-14.32-2.59c-12.48-2.06-19.49.33-20-1.56S969.81,671.2,976.17,670.17Z"/>
    <g>
      <path class="cls-13" d="M972.76,641.29c2.61,11.88-7,24.56-17.82,28.38-8.86,3.12-20,.85-20.93-3.35-.58-2.75,3.57-4.64,7.88-9.89,11.37-13.81,5.14-28.08,11.44-30.94C958.8,623,970.42,630.64,972.76,641.29Z"/>
      <path class="cls-14" d="M963.32,656.21c-.34,9-8.74,15.88-16.46,16.12-6.31.19-13.19-4-13.05-7.18.09-2.08,3.11-2.48,6.82-5.23,9.76-7.22,8.15-18.8,12.74-19.39C957.36,640,963.61,648.1,963.32,656.21Z"/>
    </g>
    <g>
      <path class="cls-15" d="M998,654.93c.4,11.83,8.55,21.27,16,22.07,6.07.65,12.66-4.36,12.5-8.54-.11-2.73-3-3.44-6.61-7.25-9.46-10.05-8-25.06-12.43-26.12C1003.61,634.17,997.65,644.32,998,654.93Z"/>
      <path class="cls-16" d="M1006.46,666.51c1.75,8.42,8.17,12.67,13,10.9,4-1.44,7.56-7.13,6.93-10.09-.41-1.94-2.37-1.54-5.16-3.16-7.33-4.28-8.3-15.57-11.27-14.94C1007.41,649.77,1004.89,659,1006.46,666.51Z"/>
    </g>
  </g>
  <g>
    <g>
      <ellipse class="cls-17" cx="1337.63" cy="191.29" rx="36.25" ry="35.49"/>
      <ellipse class="cls-17" cx="1388.46" cy="169.7" rx="50.45" ry="47.12"/>
      <ellipse class="cls-17" cx="1444.64" cy="168.71" rx="60.57" ry="56.71"/>
      <ellipse class="cls-17" cx="1495.39" cy="191.29" rx="36.25" ry="35.49"/>
    </g>
    <ellipse class="cls-17" cx="1517.92" cy="204.1" rx="21.45" ry="32.77" transform="translate(1267.3 1715.03) rotate(-88.24)"/>
    <path class="cls-17" d="M1426.82,188.12c1.13,16.09,30.81,27.94,55.35,25.38,16.47-1.67,34.21-10.27,35.88-22.51,2-15-20.62-29.07-44.64-29.83C1449,160.41,1425.76,173.4,1426.82,188.12Z"/>
    <path class="cls-17" d="M1366.86,185.63c3.25,13.29,29.3,21.37,48,23,24.54,2.19,57.09-4.91,61.55-19.56,4.75-15.55-23.49-35-53.7-35.94S1363,169.85,1366.86,185.63Z"/>
    <path class="cls-17" d="M1326.91,199.83c.75,12.16,25.83,22.95,47.65,21.07,14.58-1.21,33.08-8.54,33.46-20.39s-17.22-20.47-32-22.43C1352.81,175,1326.08,186.91,1326.91,199.83Z"/>
    <ellipse class="cls-17" cx="1372.22" cy="194.77" rx="30.28" ry="28.09"/>
    <ellipse class="cls-17" cx="1414.66" cy="177.7" rx="42.14" ry="37.31"/>
    <ellipse class="cls-17" cx="1461.56" cy="176.87" rx="50.6" ry="44.93"/>
    <ellipse class="cls-17" cx="1504" cy="194.77" rx="30.28" ry="28.09"/>
  </g>
  <g>
    <g>
      <ellipse class="cls-17" cx="322.52" cy="468.45" rx="19.14" ry="20.34"/>
      <ellipse class="cls-17" cx="349.35" cy="456.07" rx="26.63" ry="27.01"/>
      <ellipse class="cls-17" cx="379.02" cy="455.5" rx="31.97" ry="32.5"/>
      <ellipse class="cls-17" cx="405.81" cy="468.45" rx="19.14" ry="20.34"/>
    </g>
    <ellipse class="cls-17" cx="417.7" cy="475.78" rx="12.29" ry="17.3" transform="translate(-73.8 874.87) rotate(-87.79)"/>
    <path class="cls-17" d="M369.61,466.63c.6,9.22,16.26,16,29.22,14.54,8.69-.95,18.06-5.89,18.94-12.9,1.08-8.57-10.89-16.66-23.56-17.09C381.29,450.74,369.05,458.19,369.61,466.63Z"/>
    <path class="cls-17" d="M338,465.2c1.72,7.62,15.47,12.25,25.36,13.2,13,1.25,30.14-2.81,32.49-11.21,2.51-8.92-12.4-20-28.35-20.6S335.92,456.15,338,465.2Z"/>
    <path class="cls-17" d="M316.86,473.34c.4,7,13.64,13.15,25.16,12.07,7.69-.69,17.46-4.89,17.66-11.68s-9.09-11.73-16.9-12.86C330.54,459.1,316.42,465.93,316.86,473.34Z"/>
    <ellipse class="cls-17" cx="340.78" cy="470.44" rx="15.99" ry="16.1"/>
    <ellipse class="cls-17" cx="363.19" cy="460.65" rx="22.25" ry="21.38"/>
    <ellipse class="cls-17" cx="387.95" cy="460.18" rx="26.71" ry="25.75"/>
    <ellipse class="cls-17" cx="410.35" cy="470.44" rx="15.99" ry="16.1"/>
  </g>
  <path class="cls-17" d="M1926.5,1079.5H-.5l76-17c390.87-22.08,584.39-56,688-86a1062.78,1062.78,0,0,1,220-41c35.93-2.86,100-6.1,191,2C1429.59,960.2,1894.94,1071.87,1926.5,1079.5Z"/>
  <path class="cls-18" d="M1922.6-1.28C1853.12,1.49,1827.6,1,1815,.4a77.25,77.25,0,0,0-13.1-.63,80.91,80.91,0,0,0-28.73,8.14c-23.78,12-99.47,83.37-92.36,152.51.15,1.51,2.34,21.33,7.17,22.15,7.17,1.21,15.8-32.94,15.8-32.94l15.43,26.07,13-45.44,14.17-12.87,27.56,41.7,1.6-68.43L1783,46.32l32.49-11.1,41.46,2.53s-24-10.12-67,52.59-40.84-24.65-43.06,62.81-8,137,1.21,181S1775.88,400,1775.88,400L1768,336.9l21.2,47-2.62-90.44,18.22,60.84-15.11-139.74,14.1,45-.91-77.9,28.55,63.72-13.66-82.86,8.52-23.22s-1.08-21,5.66,11.55-5.36,90.65,6.74,32.46,14.07-25.52,14.07-25.52l12.4,40.92,1.51-76.9L1881,198.39s-43.52,22.77-56.43,76.68-72.65,192.45-79.72,269.55,26.55-43.46,26.55-43.46l4.87,79.88,29.59-127.84.64,54.68L1824,434l2.25,57.87,23.21-132.91,19.75,54.36-3.6-99.91,31.61,117.3-15.48-172.3L1907.87,318a4763.57,4763.57,0,0,0-49.26,482.57c-4.48,87.57-6.3,171.44-6.27,251.13,2.51,4.48,12.37,20.9,30.6,26.45,23.24,6.95,41.2-9.32,43.78-11.71Q1924.79,532.58,1922.6-1.28Z"/>
  <path class="cls-17" d="M-1.53.36c86.2,1.9,117.83,1.1,133.46.33a118.6,118.6,0,0,1,16.25-.78,120,120,0,0,1,35.71,7.75c29.62,11.66,124.25,81.93,116.17,151-.18,1.51-2.68,21.32-8.66,22.19-8.88,1.3-19.94-32.66-19.94-32.66l-18.87,26.2L236,129.21l-17.72-12.66-33.73,42-2.71-68.25-9.7-44.14L131.71,35.44,80.33,38.49S109.94,28.08,164,90.11,214.4,65,218.08,152.23s11.43,136.55.43,180.58-33.82,66-33.82,66l9.14-63L168.05,383l2.28-90.27-22,60.93L165.63,214l-17,45.07.3-77.72L114.2,245.3l16-82.84-10.81-23.05s1.12-21-6.89,11.59,7.61,90.37-8,32.47-17.73-25.29-17.73-25.29l-14.94,41-2.69-76.7L52.16,199s54.22,22.18,70.8,75.79S215.1,465.92,224.69,542.75s-33.39-43-33.39-43l-5.18,79.75L148.06,452.31l-.21,54.56-22.46-73.54-2.18,57.76L93,358.78,69.09,413.26l3.41-99.71L34.55,431,51.9,258.88,20.13,318.69A3854.72,3854.72,0,0,1,86.37,799.51c6.49,87.3,9.64,171,10.46,250.45-3.07,4.5-15.12,21-37.67,26.78C30.42,1084,8,1068,4.74,1065.6Q1.45,533-1.53.36Z"/>
</svg>
