<svg id="Layer_1" data-name="Layer 1" xmlns="http://www.w3.org/2000/svg" width="1920" height="1080" viewBox="0 0 1920 1080">
  <defs>
    <style>
      .cls-1 {
        fill: #333;
      }

      .cls-2 {
        fill: #ff3;
      }

      .cls-3 {
        fill: #393380;
        opacity: 0.59;
      }

      .cls-4 {
        fill: #7a3686;
      }

      .cls-5 {
        fill: #fc3;
      }

      .cls-6 {
        fill: #eab132;
      }

      .cls-7 {
        fill: #bf7326;
      }

      .cls-8 {
        fill: #a85f1d;
      }

      .cls-9 {
        fill: #c93;
      }

      .cls-10 {
        fill: #ffc285;
      }

      .cls-11 {
        fill: #eaa66a;
      }

      .cls-12 {
        fill: #f7dabf;
      }

      .cls-13 {
        fill: #a36daf;
      }

      .cls-14 {
        fill: #e0c0a0;
        opacity: 0.38;
      }

      .cls-15 {
        fill: #ffe085;
        opacity: 0.53;
      }

      .cls-16, .cls-17 {
        fill: #fff;
      }

      .cls-17 {
        stroke: #fff;
        stroke-miterlimit: 10;
        stroke-width: 0.32px;
      }

      .cls-18 {
        fill: #b5103c;
      }
    </style>
  </defs>
  <rect x="-0.5" y="-0.5" width="1920" height="1080"/>
  <path class="cls-1" d="M1532.45,185.12a27.4,27.4,0,0,0-2.7-5.14,36,36,0,0,0-22.38-22.19,44.27,44.27,0,0,0-5.76-8.36c-8.43-21.83-30.75-37.43-57-37.43a62.79,62.79,0,0,0-39,13.37,53.42,53.42,0,0,0-17.14-2.8c-22.72,0-41.93,14-48.25,33.33-.85-.06-1.71-.1-2.58-.1-20,0-36.25,15.89-36.25,35.49s16.23,35.5,36.25,35.5a36.57,36.57,0,0,0,21-6.58c.39.06.78.13,1.18.18a32.12,32.12,0,0,0,12.4,2.47,31.79,31.79,0,0,0,17.55-5.2c.89-.31,1.76-.65,2.62-1a52.86,52.86,0,0,0,13-2.57c1.25.25,2.51.45,3.8.59a63,63,0,0,0,35.45,10.75,63.89,63.89,0,0,0,21.92-3.85,56,56,0,0,0,8-1.27,36.87,36.87,0,0,0,33.83,4.13,48,48,0,0,0,8.91,1.09c18.09.56,33-8.59,33.42-20.43C1550.94,196.53,1543.47,188.89,1532.45,185.12Z"/>
  <path class="cls-1" d="M425.36,464.92a16.18,16.18,0,0,0-1.42-2.93,19.8,19.8,0,0,0-11.8-12.72,25.47,25.47,0,0,0-3.05-4.82A32,32,0,0,0,379,423a31.49,31.49,0,0,0-20.61,7.66,26.51,26.51,0,0,0-34.53,17.52c-.45,0-.9-.08-1.36-.08-10.57,0-19.14,9.11-19.14,20.35s8.57,20.34,19.14,20.34A18.28,18.28,0,0,0,333.6,485l.66.12A15.81,15.81,0,0,0,350,483.55c.46-.18.92-.36,1.37-.56a26.12,26.12,0,0,0,6.88-1.48c.66.14,1.33.26,2,.34a31.48,31.48,0,0,0,30.29,3.95,26.45,26.45,0,0,0,4.21-.73,18.33,18.33,0,0,0,11,3.72,18.08,18.08,0,0,0,6.82-1.36,24,24,0,0,0,4.72.64c9.56.32,17.45-4.93,17.65-11.71C435.14,471.44,431.18,467.07,425.36,464.92Z"/>
  <path class="cls-1" d="M1762.83-6c-30.54,21-96.17,89.28-89.35,155.59.16,1.59,2.46,22.43,7.54,23.28,7.54,1.28,16.61-34.62,16.61-34.62l16.23,27.41,13.66-47.76,14.91-13.53,1.67,2.53c-.47,6.52-.75,17.39-1.2,35.06-2.33,91.93-8.45,144,1.28,190.25s29.25,69.17,29.25,69.17l-8.31-66.27,21.88,48.5c-20.51,58.9-42,124.48-46.17,169.84-7.43,81.06,27.92-45.69,27.92-45.69l5.11,84L1805,457.37l.67,57.48L1824,437.14l2.37,60.83,24.39-139.71,20.77,57.14-3.79-105,29.48,109.41q-26.46,200-36.84,402.72c-4.64,90.7-6.56,177.63-6.58,260.3h69.27V-6Zm9.82,100.54.43-18.27,7.82-46.61L1815,18l36.28,2.22c-10.51,1.32-32.11,10.51-63.16,55.72C1782.21,84.63,1777.08,90.57,1772.65,94.56Zm14.69,288.07-2.7-93.18L1801,343.86C1796.61,356.22,1792,369.25,1787.34,382.63Zm37.29-112.5c-4,16.78-12.36,41.36-22.29,69.75l-14.42-133.36,14.81,47.31-1-81.88,30,67-14.36-87.1,9-24.41s-1.13-22.09,5.95,12.14-5.63,95.29,7.09,34.13,14.8-26.83,14.8-26.83l13,43,1.59-80.84,15.11,80.5S1838.2,213.47,1824.63,270.13Zm74.09,138.4-14-156,27.47,62.68Q1905,361.8,1898.72,408.53Z"/>
  <g>
    <path class="cls-1" d="M1926.5,1079.5H-.5l76-17c390.87-22.08,584.39-56,688-86a1062.78,1062.78,0,0,1,220-41c35.93-2.86,100-6.1,191,2C1429.59,960.2,1894.94,1071.87,1926.5,1079.5Z"/>
    <path class="cls-1" d="M202.92-2.07H-4.21V671.56Q-3,875.23-1.77,1078.9h87.3a68.6,68.6,0,0,0,8.24-9.92c-.84-82.45-4.11-169.22-10.84-259.76Q68.18,610,33.63,413.22l34.91-108L65,408.61l24.81-56.5,31.32,137.23,2.26-59.91,23.3,76.27.22-56.59L186.38,581l5.38-82.71s44.59,124.32,34.64,44.63c-5.57-44.6-32.57-108.9-58.28-166.62l26.26-48-9.47,65.33s23.65-22.79,35.07-68.45,3.38-96.82-.44-187.29c-.74-17.38-1.19-28.08-1.84-34.49l2-2.51L238.1,114l17.23,46.85,19.57-27.19s11.47,35.23,20.68,33.88c6.2-.9,8.8-21.44,9-23C311.62,84.19,243.05,22.94,202.92-2.07ZM31.68,402.18q-8.19-45.92-17.45-91.65l33-62ZM120.88,265c-17.2-55.61-73.43-78.61-73.43-78.61L65.1,107l2.79,79.55,15.49-42.5s2.19-33.83,18.39,26.22,0,.1,8.31-33.68,7.15-12,7.15-12l11.22,23.91-16.66,85.92,36-66.3-.31,80.61L165.13,202,148.89,333.43C136.43,305.6,126,281.51,120.88,265Zm46.81,110.28c-5.85-13.11-11.62-25.88-17.05-38L170,283.57ZM163.46,73.45C125,29.33,98.47,20.54,85.6,19.38L130,16.75l41.9,11.06,10.06,45.78.72,18C177.18,87.7,170.84,81.92,163.46,73.45Z"/>
  </g>
  <g>
    <g>
      <path class="cls-2" d="M1087,377.53c6.78,1.51,5.83,7.86,14.13,13.11,11.06,7,18.82-.43,29.34,6.26,6.56,4.17,9.18,10.71,13,19.82a67.78,67.78,0,0,1,5.13,26.55q0,27.47-18.26,46.65T1086,509.11c-7.11,0-12.15-1.37-22.22-4.06-14.35-3.83-21.53-5.75-28.14-10.92-3.58-2.79-12.9-10.07-13.8-20.69-.67-7.87,4-9.09,6.9-19.84,4.64-17.13-4.72-23.1.48-38.69a40.62,40.62,0,0,1,12.61-18.28c6.74-5.4,9.61-3.65,24-10.3C1079.34,380.07,1081.57,376.31,1087,377.53Zm-1,36.91a24.27,24.27,0,0,0-18.61,8.45,30.8,30.8,0,0,0,0,40.77q7.74,8.44,18.57,8.45a24.29,24.29,0,0,0,18.66-8.4,31.15,31.15,0,0,0,0-40.87A24.29,24.29,0,0,0,1086,414.44Z"/>
      <path class="cls-2" d="M1231.39,420.83a271.82,271.82,0,0,0-43.79,88.74q-20.1-47.56-40.19-95.13c10,7.52,14.91,7.91,17.57,6.39,2.5-1.43,3.37-4.75,7.39-6.17a11.26,11.26,0,0,1,6.23-.22q4.64,12.35,9.26,24.7l10.14-24.7a40.83,40.83,0,0,0,11,5.52A42.14,42.14,0,0,0,1231.39,420.83Z"/>
      <path class="cls-2" d="M1317.44,465.77H1267.9a26.3,26.3,0,0,1-1.14-7.25,26.58,26.58,0,0,1,1.58-9h16.6q-1.76-10.2-10.92-10.19-6.12,0-10,5.46t-3.85,14q0,8.91,3.72,14.42t9.74,5.51q4.89,0,9.43-5.14l18.62,23.5q-13,10.76-28.93,10.75-19.39,0-32.59-13.68a46.72,46.72,0,0,1-8.31-11.73c-1.91-3.86-6.1-12.25-4.88-22.16.93-7.59,3.89-6.73,8.69-21.32,2.44-7.4,2.16-9.09,4.63-12.65a27.51,27.51,0,0,1,14.39-10.21c6-1.69,7,.52,18.93.43,11.23-.07,12.19-2.05,17.55-.4,6.18,1.91,10.24,6.19,13.7,9.85a48.08,48.08,0,0,1,8.16,11.64A49.82,49.82,0,0,1,1317.44,465.77Z"/>
      <path class="cls-2" d="M1374.56,419.1q2.12,15.58,4.22,31.15a12.47,12.47,0,0,0-6.2-2q-8.91,0-8.91,14.33V506H1331V456c6-7.22,7.73-13.45,8.21-17.87.66-6.15-1-10.49,2.1-13.77,2.24-2.39,4-1.07,10-3.48,7.45-3,8.4-6.65,12.94-6.9C1366.48,413.8,1370,414.49,1374.56,419.1Z"/>
    </g>
    <g>
      <path class="cls-2" d="M623.59,416.61l34.73,25q.7,22.7-11,38.91-13.58,18.86-35.94,22.23t-41.58-10.45a67.14,67.14,0,0,1-17-17.41,69.59,69.59,0,0,1-11.08-33c-.65-6.94-1.39-14.74,1.74-24,.53-1.58,3.88-7.59,10.56-19.6,4.17-7.47,5.24-9.24,7.55-11.44,5.43-5.21,8.46-4,12.07-8.63,3.92-5,.94-7.12,5.18-14.66,3.82-6.79,9.43-10.73,13.31-11.32a24.36,24.36,0,0,1,3.47-.22c3.34.16,5.19,1.47,14.26,1.19,16.75-.52,20.63-5.32,29.05-2.62,7.73,2.48,8,7.66,16.66,14.7,5.8,4.7,15.33,10.22,31.05,12.07L660,405.89c-20.11-18.81-27.27-22.34-29.33-20.7-2.64,2.11,3.8,12.22-.86,17.25-2.38,2.57-7.12,3.23-10.35,1.73-4.66-2.18-3.79-7.73-7.15-8.92-5.89-2.08-15.63,12.44-16.63,13.84q-9.84,13.67-8.07,27.11t14.6,22.67q8.18,5.88,11.76.88c1.81-2.52.92-5.06-2.67-7.65l-8.7-6.26Z"/>
      <path class="cls-2" d="M722.68,469.65v35.54c-1.64.12-4.21.34-7.34.73-14,1.73-15.24,3.82-19.16,2.6-2.28-.7-2.89-1.73-13.61-16.19-7.05-9.51-7.11-9.48-7.68-10.57a49.7,49.7,0,0,1-5.43-23.5q0-19.92,13.24-33.79c3.78-4,8.39-8.86,15.25-10.64,5.43-1.42,9.56-.19,16.34,1.55,28.09,7.18,28.78,4.34,33.94,8.22,12.21,9.16,12.48,28.07,12.19,35.49q.23,26,.44,52A36.65,36.65,0,0,0,727.74,504V461.57q0-7.26-3.36-11.57a10.87,10.87,0,0,0-9-4.32,11.92,11.92,0,0,0-8.92,3.95,14,14,0,0,0-.34,18.73,14,14,0,0,0,3.26,2.48C711.75,472.11,717,472.24,722.68,469.65Z"/>
      <path class="cls-2" d="M899,504H866.33v-49.4q0-5.7-1.14-7.9a4.21,4.21,0,0,0-4.11-2.2q-5.51,0-5.5,10.19V504H822.9v-49.4q0-5.7-1.18-7.9a4.3,4.3,0,0,0-4.15-2.2q-5.42,0-5.42,10.19V504H779.47V447.61c-1.27-10,1.08-14.57,3.57-16.86,3.91-3.61,8.12-1.6,12.32-5.89s2.26-8.77,6.35-12.16c3.32-2.76,7.74-2.1,11.58-2.1q14.51,0,26,12.86c10.83,1.75,18.38,0,23.3-2,8.22-3.34,11.85-8.36,18-7.25,5,.91,7.77,5.38,10.61,8.93q7.77,9.74,7.77,28.38Z"/>
      <path class="cls-2" d="M993.25,502l-49.06-6.93a25.18,25.18,0,0,1,2.71-16l16.44,2.32Q963,471,954,469.75q-6.06-.86-10.63,4t-5.76,13.33q-1.24,8.82,1.66,14.79t8.88,6.82q4.83.69,10.06-3.77l15.14,25.87q-14.38,8.82-30.14,6.6c-6.67-.94-13.62-1.61-18.2-6.5-2.91-3.1-1.58-4.33-4.67-9.68-5-8.63-9.77-7.79-14.08-14.69-3.93-6.29-5.52-15.92-1.74-22.63,3.34-5.9,7.74-4,12.08-10.25,5.6-8,.33-14.08,5.86-21.53,5.13-6.89,14.27-7.93,15.67-8.09,5.06-.57,5.7,1.07,15.38,2.61,12.88,2,14.71-.39,20.75,2.52,5.86,2.83,9.28,7.61,12.19,11.67a47.83,47.83,0,0,1,6.44,12.66A49.77,49.77,0,0,1,993.25,502Z"/>
    </g>
  </g>
  <g>
    <path class="cls-3" d="M1129.44,689.88c3,1.52,2.84,3.9,2.82,4.19-.31,3.74-7.58,4-22.67,8.74-21.65,6.74-24.74,11.1-34.64,10.19-14.94-1.36-12.07-10.72-25.8-11.42-8.67-.45-13.66,2.68-43.58,9.08-29.41,6.28-82.36,15.67-81.53,11.83.48-2.21,21-8.34,32.79-11.49,30.27-8.09,51.55-9.3,110.49-12.94,14.12-.87,21.14-1.34,28.38-3.58,6.25-1.93,6.1-3.23,11.75-4.66C1114.68,688,1125,687.63,1129.44,689.88Z"/>
    <path class="cls-4" d="M1138.82,659c-12.06,26.45-43.77,35.2-47.36,36.19a112.56,112.56,0,0,1-15.54,3.05c-13.88,1.55-19.78-1-31.57,2.16-3.67,1-11.66,3.08-11.71,5.92-.09,5.36,28.55,6.5,29.23,14.42.32,3.76-5.78,8.68-11.73,9.36-19,2.18-50.14-38.39-41.3-62.61,8-21.91,43.71-18.15,48.57-37.56,6.15-24.59-45.28-45.82-39.36-63.92,4.38-13.39,38.38-21.36,58.36-9,6.47,4,9.26,8.8,24.58,19.67,10.42,7.39,14.46,9,18.72,12C1136.79,600.77,1151.14,631.93,1138.82,659Z"/>
    <path class="cls-5" d="M954.28,570.52c5.35,9.19-5.71,15.57-20.64,49.26-8.75,19.75-12.55,34.93-18.2,33.23-4.08-1.24-3.56-9.62-12.9-18.13-5.86-5.34-8.31-4.08-22.1-11.71-7-3.9-11.91-7.27-20.77-13.41-11.74-8.14-11.93-9.17-21.49-15.88-20.08-14.12-23.7-12.71-30.32-20.55S795.3,553,797.39,544.15c4.36-18.41,41.54-11.2,49.46-9.66,20,3.87,22.06,9.83,49.48,18.76C933.79,565.46,948.41,560.45,954.28,570.52Z"/>
    <path class="cls-6" d="M849.36,545.52c24.6,4.78,27.19,12.11,61,23.12a284.1,284.1,0,0,0,44.51,10.67c1.18-3.28,1.12-5.89-.56-8.79-5.87-10.07-20.49-5.06-57.95-17.27-27.42-8.93-29.52-14.89-49.48-18.76-7.92-1.54-45.1-8.75-49.46,9.66a18.06,18.06,0,0,0-.37,2.48C812.2,538.32,841.75,544.05,849.36,545.52Z"/>
    <path class="cls-7" d="M1081.18,613.42c1.76,8,4.75,21.47-2.15,32.55-1.69,2.71-2.2,2.43-17.74,15.93-7.66,6.66-11.46,10-13,11.91-7.46,9.72-3.81,15.21-8.73,23.82-7.16,12.52-24.95,18.34-37.8,17.89-10.34-.36-12.71-4.6-22.86-3-8.29,1.33-9.93,4.7-17.58,4.42s-13.48-3.81-16.75-5.76c-7.88-4.67-7.49-7.48-13.17-11.19C917.1,690.67,904,701.33,895,692c-2-2.12-4.62-6-3.78-8.54,1.55-4.63,12.78.32,19.29-6.83,2.47-2.69,2.6-5.27,5.72-6.4,4.09-1.47,6.71,1.91,9.3.55,3.92-2.05-.1-10.74,3.37-20.88,2.49-7.28,8-13,14-15.36,6.65-2.68,9.16.62,14.55-.63,16.13-3.75,11.78-37.88,34-54.28,1.17-.86,15.34-11,30.91-7.63,9.89,2.13,11.3,7.78,26.54,12.44,11.7,3.58,14.49,1.38,20.33,5.69C1077.35,596.09,1079.54,606,1081.18,613.42Z"/>
    <g>
      <path class="cls-8" d="M924.32,689.75c1.84-3.87,1.1-6.8,4.22-9.14,4.09-3.05,8.17-.16,10.62-2.57,3.69-3.64-3.79-12-3.37-24.57a30.88,30.88,0,0,1,7.38-19.1l-.33.12c-6,2.4-11.47,8.08-14,15.36-3.47,10.14.55,18.83-3.37,20.88-2.59,1.36-5.21-2-9.3-.55-3.12,1.13-3.25,3.71-5.72,6.4-6.51,7.15-17.74,2.2-19.29,6.83-.84,2.53,1.74,6.42,3.78,8.54,6.26,6.49,14.45,3.39,23.66,4A14.5,14.5,0,0,0,924.32,689.75Z"/>
      <path class="cls-8" d="M955.85,708.86a29.66,29.66,0,0,0-15.2-.35,35.41,35.41,0,0,0,4,2.69c3.27,1.95,9.24,5.49,16.75,5.76a18.48,18.48,0,0,0,8.3-1.5C963.6,713.2,962.11,710.67,955.85,708.86Z"/>
      <path class="cls-8" d="M1078,639.42a30.4,30.4,0,0,0-2.08,10A12.88,12.88,0,0,0,1079,646a30.71,30.71,0,0,0,4.33-16.17C1080.36,634.67,1078.68,637.6,1078,639.42Z"/>
      <path class="cls-8" d="M1013.42,706.64c-6.56,3.21-8.63,6.43-12.8,8.82.38,0,.78,0,1.19.06,10.8.38,25.07-3.67,33.61-12.4C1027,704.34,1022.69,702.12,1013.42,706.64Z"/>
    </g>
    <path class="cls-9" d="M989,587.79l-29,53.07A27.46,27.46,0,0,1,945.77,645a28.65,28.65,0,0,1-14-3.66,118,118,0,0,1-1.09,14.26c-1.23,8.94-2.51,10.34-3.72,10.76-1.88.63-4.12-.9-5.57-2.12a9.51,9.51,0,0,1-8.43-1.58,11.9,11.9,0,0,1-4.33-10.61l44.46-80.92a32.18,32.18,0,0,1,10.08-8.08,28.94,28.94,0,0,1,10.74-3l10.74,7.16a9.3,9.3,0,0,1,9.44,4.64C996.57,576.54,994.74,584.07,989,587.79Z"/>
    <path class="cls-10" d="M1011.85,578.49c5-.72,13.42-1.93,19.94,3,1.6,1.21,1.4,1.51,9.06,12,3.77,5.2,5.66,7.78,6.78,8.82,5.67,5.22,9.2,3.18,14.29,6.74,7.41,5.17,10.24,16.74,9.42,24.87-.65,6.54-3.36,7.82-2.79,14.34.46,5.32,2.47,6.53,2,11.37a22.56,22.56,0,0,1-4.25,10.33c-3.21,4.76-4.92,4.37-7.44,7.79-6.36,8.61-.35,17.45-6.5,22.71-1.39,1.18-3.89,2.62-5.42,2-2.78-1.22.74-8.09-3.38-12.58-1.56-1.7-3.14-1.91-3.7-3.95-.74-2.67,1.45-4.15.72-5.87-1.09-2.59-6.61-.48-12.7-3.19a16.39,16.39,0,0,1-8.87-9.63c-1.36-4.35.77-5.78.23-9.26-1.63-10.42-22.81-9.38-32-24.33-.48-.78-6.12-10.28-3.4-20,1.73-6.16,5.27-6.77,8.78-16.19,2.7-7.24,1.46-9.12,4.36-12.6C1001,580,1007.21,579.15,1011.85,578.49Z"/>
    <path class="cls-11" d="M1009.42,646.55a11,11,0,0,0,.69-1.72c2.34-7.5-3.11-14-8.89-20.83-4.13-4.89-8.64-10.27-11.2-16.72l-.86,1.18A16.42,16.42,0,0,0,986,614.3c-2.48,8.85,2.92,17.82,3.15,18.19,4.35,7.1,11.8,10.36,18.38,13.24Z"/>
    <g>
      <path class="cls-12" d="M1046.48,700.28a15.91,15.91,0,0,1-.28-2.18c-.23-2.8-.56-6.64-3.72-9.47a12.6,12.6,0,0,0-2.16-1.53c-.93-.55-1.13-.7-1.31-1.17a3,3,0,0,1,.15-2,5.1,5.1,0,0,0-.12-4.13c-1.35-2.49-4.12-2.38-6.8-2.28l-.6,0,.84.06c2.68.16,5.44.32,6.54,2.92a5.06,5.06,0,0,1-.28,4.13,3,3,0,0,0-.34,2c.13.49.31.65,1.18,1.29a12.73,12.73,0,0,1,2,1.73c2.87,3.13,2.82,7,2.78,9.79a17.14,17.14,0,0,0,.06,2.2,7.29,7.29,0,0,0,2.84-1.57,5.76,5.76,0,0,0,.44-.41A4.83,4.83,0,0,1,1046.48,700.28Z"/>
      <path class="cls-12" d="M1057,612.23a14.68,14.68,0,0,0-5.34-2.19,18.59,18.59,0,0,1-9.19-4.74c-1.26-1.17-3-3.51-7.08-9.15-2.74-3.77-4.49-6.26-5.65-7.91-2.09-3-2.23-3.13-2.94-3.67-5.76-4.36-13.54-3.25-17.72-2.66l-.54.08c-3.25.47-7.06,1-10.25,2.91l.79-.19.53-.13c4.1-1,11.74-2.86,17.9.91.76.47.91.62,3.28,3.37,1.32,1.53,3.3,3.83,6.4,7.32,4.63,5.22,6.57,7.37,7.94,8.41a18.54,18.54,0,0,0,9.6,3.82,14.62,14.62,0,0,1,5.53,1.66c6.94,3.9,10.67,14.18,10.66,21.87a22.05,22.05,0,0,1-.88,6,18.35,18.35,0,0,0-.47,9,23.93,23.93,0,0,0,1.82,5.63,10.72,10.72,0,0,1,1.22,5.07,20.21,20.21,0,0,1-3,9.63,16.12,16.12,0,0,1-3.46,4.56,16.72,16.72,0,0,0-3.14,3.83,18.31,18.31,0,0,0-2.51,7.87,18,18,0,0,1,2.84-5.75,16.88,16.88,0,0,1,3.49-3.51,16.09,16.09,0,0,0,3.89-4.2,20.22,20.22,0,0,0,3.88-9.29,10.82,10.82,0,0,0-.72-5.17,23.75,23.75,0,0,1-1.26-5.78,18.28,18.28,0,0,1,1.34-8.91,22.09,22.09,0,0,0,1.46-5.85C1066.25,627.38,1063.55,616.79,1057,612.23Z"/>
    </g>
    <path class="cls-13" d="M1133.33,646.75c-2.28,16.78-10.61,23.94-11.55,24.75a20.41,20.41,0,0,1-4.13,2.75c-3.73,1.75-5.44.58-8.54,3.15-1,.8-3.07,2.55-3,4.28.18,3.26,8,2.29,8.53,7.07.23,2.26-1.24,5.61-2.84,6.37-5.1,2.43-15.17-20.42-13.69-35.65,1.35-13.79,11.25-13.58,11.83-25.66.74-15.3-14.13-25.22-13.21-36.57.69-8.39,9.67-15.21,15.6-8.87,1.92,2,2.87,4.81,7.48,10.52,3.12,3.89,4.29,4.6,5.57,6.2C1130.54,611.49,1135.66,629.59,1133.33,646.75Z"/>
    <path class="cls-14" d="M989.49,592.88,957.89,644A30.46,30.46,0,0,1,946.12,650a15.56,15.56,0,0,1-10.18-.76c-1.1,5.13-2.32,9.41-3.31,12.56-2.5,8-3.73,9.41-4.74,10-1.56.88-3-.06-3.94-.88-.4.22-3.8,2-6.26.09-2-1.53-2.57-4.83-1.52-8.46q22.68-36.49,48.39-77.91a47.64,47.64,0,0,1,9.19-8.76,31.44,31.44,0,0,1,8.84-4.5l7.08,4.35c3.14-1,5.74-.18,6.51,2.4C997.27,581.81,994.55,588.66,989.49,592.88Z"/>
    <path class="cls-14" d="M996.18,578.14c-.77-2.58-3.37-3.45-6.51-2.4l-7.08-4.35a26.87,26.87,0,0,0-3.11,1.19,3.78,3.78,0,0,1,1.61,1.81c1.56,3.5-.23,10.65-4.7,15.49q-12.84,28.51-24.65,54.77a34.43,34.43,0,0,1-6.91,5.63c.42-.07.85-.15,1.29-.25A30.46,30.46,0,0,0,957.89,644l31.6-51.07C994.55,588.66,997.27,581.81,996.18,578.14Z"/>
    <path class="cls-15" d="M927.87,597.5c5.43,6.92-2.25,9.65-9.11,30.15-4,12-4.85,21.68-9.45,19.74-3.34-1.4-4.11-6.94-12.52-14-5.29-4.4-7-3.89-18.75-10.94-6-3.6-10.24-6.54-18-11.89-10.23-7.1-10.51-7.82-18.85-13.66-17.52-12.27-20.13-11.83-26.35-18s-12.56-15.39-12.18-21c.81-11.74,30.6-1.71,36.95.43,16,5.39,18.46,9.67,40.94,19.5C911.3,591.25,921.92,589.93,927.87,597.5Z"/>
    <path class="cls-15" d="M843.08,559.76c16.87,10.57,18.51,16.16,41.6,33.6,18.2,13.75,30.06,20,37.76,24.87,5.51-12.19,9.89-15.05,5.43-20.73-6-7.57-16.57-6.25-47.28-19.67-21.21-9.27-24.6-13.61-38.36-18.6Z"/>
    <g>
      <path class="cls-16" d="M990.76,680.58c3.19,8.57-2.59,19-10.26,23-6.27,3.26-14.82,2.75-15.93-.29-.72-2,2.17-3.83,4.82-8.18,7-11.48.86-21.44,5.24-24.23C978.44,668.46,987.89,672.91,990.76,680.58Z"/>
      <path d="M985.31,692.68c.7,6.77-4.83,12.74-10.55,13.73-4.67.81-10.23-1.57-10.46-4-.16-1.56,2.05-2.18,4.52-4.61,6.5-6.41,4.08-14.85,7.43-15.78C979.16,681.26,984.67,686.61,985.31,692.68Z"/>
    </g>
    <g>
      <path class="cls-17" d="M1011,688.06c1.55,8.76,8.61,14.93,14.22,14.73,4.59-.15,9-4.57,8.4-7.67-.37-2-2.61-2.24-5.68-4.7-8.11-6.48-8.61-17.8-12-18.12C1013,672,1009.6,680.21,1011,688.06Z"/>
      <path d="M1018.49,695.79c2.2,6.07,7.42,8.56,10.85,6.73,2.8-1.49,4.87-6.1,4.09-8.24-.51-1.4-1.93-.89-4.17-1.81-5.91-2.4-7.82-10.7-10-9.92C1017.43,683.23,1016.53,690.34,1018.49,695.79Z"/>
    </g>
    <path d="M1007.89,701.84c-1.62-.88-6.7-3.57-12-1.19-4.47,2-8.12,7.07-7.34,8.82.43,1,2,.4,5-.31-.28-2.25,2.94-4.56,7.23-5.17s8.08.73,8.4,3a2.44,2.44,0,0,1-.26,1.41c3.52.47,5.6,1,5.79,0C1014.91,706.94,1011.07,703.59,1007.89,701.84Z"/>
    <path class="cls-18" d="M1000.71,704c-4.29.61-7.51,2.92-7.23,5.17a39,39,0,0,1,10.08-1.18,44.92,44.92,0,0,1,5.29.41,2.44,2.44,0,0,0,.26-1.41C1008.79,704.72,1005,703.38,1000.71,704Z"/>
  </g>
</svg>
