<svg id="Layer_1" data-name="Layer 1" xmlns="http://www.w3.org/2000/svg" width="578.43" height="250" viewBox="0 0 578.43 250">
  <defs>
    <style>
      .cls-1, .cls-4 {
        fill: #333;
      }

      .cls-2 {
        fill: #3c6;
      }

      .cls-3 {
        fill: #fff;
      }

      .cls-4 {
        font-size: 53.42px;
        font-family: MyriadPro-Regular, Myriad Pro;
      }

      .cls-5 {
        letter-spacing: -0.01em;
      }

      .cls-6 {
        fill: #c03;
        stroke: #fff;
        stroke-miterlimit: 10;
        stroke-width: 0.29px;
      }

      .cls-7 {
        fill: #f5b346;
      }

      .cls-8 {
        fill: #fc3;
      }

      .cls-9 {
        fill: #001300;
      }

      .cls-10 {
        fill: #231f20;
      }

      .cls-11 {
        fill: none;
      }

      .cls-12 {
        fill: #c96;
      }

      .cls-13 {
        fill: #fcc139;
        opacity: 0.54;
      }

      .cls-14, .cls-17, .cls-18 {
        opacity: 0.5;
      }

      .cls-15, .cls-17, .cls-19 {
        fill: #feefcd;
      }

      .cls-16 {
        opacity: 0.4;
      }

      .cls-18 {
        fill: #c9ab6d;
      }

      .cls-19 {
        opacity: 0.2;
      }
    </style>
  </defs>
  <g>
    <g>
      <path class="cls-1" d="M151.09,162.94a39,39,0,0,1-38.6-39.26v-.56a39,39,0,0,1,38.92-38.6l282.43,2.41a39,39,0,0,1,38.6,39.26v.55a39,39,0,0,1-38.92,38.6Z"/>
      <path class="cls-2" d="M151.42,86.27h.32l282.09,2.4a37.23,37.23,0,0,1,36.87,37.5v.56a37.29,37.29,0,0,1-37.17,36.87h-.33l-282.08-2.41a37.18,37.18,0,0,1-36.87-37.5v-.55a37.3,37.3,0,0,1,37.18-36.87m0-3.49a40.68,40.68,0,0,0-40.67,40.33v.55a40.67,40.67,0,0,0,40.33,41l282.08,2.41h.36a40.68,40.68,0,0,0,40.67-40.33v-.56a40.68,40.68,0,0,0-40.33-41l-282.09-2.4Z"/>
    </g>
    <rect class="cls-3" x="125.04" y="96.89" width="140.13" height="54.31" rx="26.97" transform="translate(1.06 -1.66) rotate(0.49)"/>
    <text class="cls-4" transform="translate(137.6 138.41) rotate(0.49) scale(0.83 1)">Li<tspan class="cls-5" x="37.71" y="0">v</tspan><tspan x="62.87" y="0">es</tspan></text>
    <rect class="cls-3" x="271.04" y="94.51" width="189.75" height="63.48" rx="31.74" transform="translate(1.09 -3.11) rotate(0.49)"/>
    <g>
      <text/>      <path class="cls-6" d="M423.33,147.72c-15.88-.69-29.29-22.67-24.4-34.14,2.12-5,8.4-9.68,13.91-9,5.67.66,6.52,6.5,12.13,6.89,6,.4,7.92-6.06,14.63-6.19,4.45-.09,9.36,2.63,11.19,6.08C456.09,121.32,441.44,148.5,423.33,147.72Z"/>
      <g>
        <path class="cls-7" d="M432,123.75a2.48,2.48,0,0,0,2.55-.76,3.94,3.94,0,0,0,1.38-2.72c.15-1.08-.78-2-.22-2.39s1.17,1.12,1,1.49.5-.28.92.26a4.88,4.88,0,0,1,.56,2.36c-.07.31-.85,1.09-1.46.59s-.44-1.06-.61-.5-1,3.39-1.63,3.72a14.3,14.3,0,0,1-3.14,1.49c-.69.08-.68-.05-.68-.05l1-3.48Z"/>
        <path class="cls-7" d="M415.37,124l1.84.46,1.69-.19.28.22.8,3.14-2.64-1a15.7,15.7,0,0,1-2.6-2.06c-.12-.39-1.06,1.46-1.77.89s-1.49-2.56-1.11-3.17.9-1.15,1.38-.79.48-1.69,1-2.1.66.57.66.57a7.63,7.63,0,0,0-.49.86,3.72,3.72,0,0,0,0,2A3.21,3.21,0,0,0,415.37,124Z"/>
        <path class="cls-8" d="M417.85,121s.34,1.6.83,3.64a66.27,66.27,0,0,0,2,7.23c1.21,3.11,2.36,5.58,3.84,6.46s2.49-.57,2.86-1,3.38-9.75,3.38-9.75l1.82-6.4.64,0a12.32,12.32,0,0,0,1.24-2.79c-.08-.45-18.42-1-18.42-1s-.25.18-.24,1a16.26,16.26,0,0,0,.36,2.4Z"/>
        <path class="cls-7" d="M422.27,135.51a21,21,0,0,1-.84,6.47s-2.5.63-2.72,1.07-.53.79.15.91,2.89-1.64,2.89-1.64l2.19-4.54Z"/>
        <path class="cls-7" d="M427.92,135.47s.41,2.75.74,3.93.63,2,.63,2,2.42-.2,2.29.37.65,1.72-.93.89l-1.58-.83a11,11,0,0,1-1.84-2.39l-.86-1.48,1.07-1.26Z"/>
        <path class="cls-9" d="M427.91,123.06a1.61,1.61,0,0,1,.89,1.88c-.14.87-.91,2.33-1.54,2.16s-.9-1.89-.76-2.76S427.27,122.89,427.91,123.06Z"/>
        <path class="cls-9" d="M424.22,122.93c.64,0,1.18.67,1.2,1.57s-.49,2.56-1.13,2.59-1.21-1.59-1.22-2.49S423.57,123,424.22,122.93Z"/>
        <ellipse class="cls-3" cx="427.38" cy="126.03" rx="1" ry="0.59" transform="matrix(0.08, -1, 1, 0.08, 265.81, 541.28)"/>
        <ellipse class="cls-3" cx="424.29" cy="125.99" rx="0.58" ry="1" transform="translate(-5.23 19.19) rotate(-2.58)"/>
        <ellipse class="cls-9" cx="427.33" cy="126.5" rx="0.37" ry="0.28" transform="matrix(0.02, -1, 1, 0.02, 292.5, 551.27)"/>
        <ellipse class="cls-9" cx="424.33" cy="126.57" rx="0.37" ry="0.28" transform="translate(289.49 548.34) rotate(-88.88)"/>
        <g>
          <path class="cls-10" d="M429.22,127.19l0,1a.74.74,0,0,1-.54.83l-.4,0A.5.5,0,0,1,428,129l0,.35c0,.42-.32.74-.64.71l-.4,0a.57.57,0,0,1-.4-.28.64.64,0,0,1-.66.61l-.39-.06a.68.68,0,0,1-.5-.62.55.55,0,0,1-.45.26h-.39a.72.72,0,0,1-.58-.78v-.33h-.29a.7.7,0,0,1-.58-.78l0-1.16a4,4,0,0,1-.27-.57c0-.09-.13,0-.13,0,.11,3,1.68,5.47,3.66,5.51s4-2.33,4-5.62A12,12,0,0,1,429.22,127.19Z"/>
          <path class="cls-11" d="M426.27,126l-.39-.06c-.33-.06-.62.25-.67.67l-.08.82,0,.91a4.94,4.94,0,0,0,.9.08c.14,0,.27,0,.4,0l.14-2.07a.47.47,0,0,1,0-.17A.55.55,0,0,0,426.27,126Z"/>
          <path class="cls-3" d="M426.36,129.14l.05-.69c-.13,0-.26,0-.4,0a4.94,4.94,0,0,1-.9-.08v.75a1,1,0,0,1-.16.5.68.68,0,0,0,.5.62l.39.06a.64.64,0,0,0,.66-.61A.85.85,0,0,1,426.36,129.14Z"/>
          <path class="cls-11" d="M426.62,128.44a4.8,4.8,0,0,0,1.08-.22l-.14-2.51-.37,0a.62.62,0,0,0-.61.54.89.89,0,0,1,.19.68Z"/>
          <path class="cls-3" d="M427.7,128.38v-.16a4.8,4.8,0,0,1-1.08.22l-.12,1.19a.13.13,0,0,0,0,.06.57.57,0,0,0,.4.28l.4,0c.32,0,.61-.29.64-.71l0-.35A.86.86,0,0,1,427.7,128.38Z"/>
          <path class="cls-11" d="M426.58,126.21a.47.47,0,0,0,0,.17l-.14,2.07h.21l.15-1.55A.89.89,0,0,0,426.58,126.21Z"/>
          <path class="cls-3" d="M426.62,128.44h-.21l-.05.69a.85.85,0,0,0,.13.55.13.13,0,0,1,0-.06Z"/>
          <path class="cls-11" d="M424.58,125.57h-.3l0,2.45v.1a4.3,4.3,0,0,0,.81.24l.09-.89,0-1.11A.7.7,0,0,0,424.58,125.57Z"/>
          <path class="cls-3" d="M424.94,129.38l.1-1a4.3,4.3,0,0,1-.81-.24.68.68,0,0,1-.6.66h-.1v.33a.72.72,0,0,0,.58.78h.39a.55.55,0,0,0,.45-.26A1,1,0,0,1,424.94,129.38Z"/>
          <path class="cls-11" d="M425,128.35l.07,0,0-.91Z"/>
          <path class="cls-3" d="M425.11,128.37l-.07,0-.1,1a1,1,0,0,0,0,.24,1,1,0,0,0,.16-.5Z"/>
          <path class="cls-11" d="M428,128.1a3.2,3.2,0,0,0,1.21-.91l-.09-1.73c0-.42-.31-.74-.63-.7l-.39,0a.74.74,0,0,0-.55.83v.08h0a.74.74,0,0,1,.53.83Z"/>
          <path class="cls-3" d="M428,129a.5.5,0,0,0,.38.14l.4,0a.74.74,0,0,0,.54-.83l0-1a3.2,3.2,0,0,1-1.21.91Z"/>
          <path class="cls-11" d="M427.58,125.71h0l.14,2.51a1.66,1.66,0,0,0,.31-.12l.1-1.56A.74.74,0,0,0,427.58,125.71Z"/>
          <path class="cls-3" d="M427.7,128.22v.16a.86.86,0,0,0,.25.57l.06-.85A1.66,1.66,0,0,1,427.7,128.22Z"/>
          <path class="cls-11" d="M423.71,124.46h-.39a.7.7,0,0,0-.6.76l0,1.61a3.1,3.1,0,0,0,.87.92l0-1.42a.71.71,0,0,1,.6-.76h.1v-.32A.7.7,0,0,0,423.71,124.46Z"/>
          <path class="cls-3" d="M423.24,128.76h.29l0-1a3.1,3.1,0,0,1-.87-.92l0,1.16A.7.7,0,0,0,423.24,128.76Z"/>
          <path class="cls-11" d="M424.18,125.56a.71.71,0,0,0-.6.76l0,1.42a3.14,3.14,0,0,0,.68.37V128l0-2.45Z"/>
          <path class="cls-3" d="M424.23,128.11a3.14,3.14,0,0,1-.68-.37l0,1h.1A.68.68,0,0,0,424.23,128.11Z"/>
        </g>
        <path class="cls-12" d="M426.6,131.57c.5-.31.57-.83.25-.93s-.65.43-.9.18a.51.51,0,0,0-.89.5C425.19,131.67,425.8,132.06,426.6,131.57Z"/>
        <path class="cls-13" d="M434.42,119.36l-18.34-.62-.4-3.46,19.21.89Z"/>
        <g class="cls-14">
          <path class="cls-15" d="M420,116.49l-1.77-.43s0,0,0,0h0a0,0,0,0,1,.05,0l1.78.42s0,0,0,0h0S420,116.49,420,116.49Z"/>
          <path class="cls-15" d="M420.13,116.39l-1.77-.43s0,0,0,0h0s0,0,0,0l1.78.42a0,0,0,0,1,0,.05h0S420.16,116.39,420.13,116.39Z"/>
          <path class="cls-15" d="M419.18,115.46l-.87,1.37a0,0,0,0,1-.05,0h0a0,0,0,0,1,0,0l.87-1.37s0,0,.05,0h0A0,0,0,0,1,419.18,115.46Z"/>
          <path class="cls-15" d="M419.4,115.52l-.86,1.38s0,0-.06,0h0a0,0,0,0,1,0,0l.86-1.38a0,0,0,0,1,.05,0h0S419.41,115.51,419.4,115.52Z"/>
          <path class="cls-15" d="M419.58,115.61l-.86,1.37a0,0,0,0,1-.06,0h0s0,0,0,0l.86-1.37a0,0,0,0,1,.05,0h0A0,0,0,0,1,419.58,115.61Z"/>
        </g>
        <g class="cls-14">
          <path class="cls-15" d="M425.15,117.11l-3-.61a.05.05,0,0,1,0-.06h0s0,0,.09,0l3,.61a0,0,0,0,1,0,.06h0A.07.07,0,0,1,425.15,117.11Z"/>
          <path class="cls-15" d="M425.37,117l-3-.6s-.05,0,0-.06h0s0,0,.08,0l3,.6a.07.07,0,0,1,0,.06h0S425.41,117,425.37,117Z"/>
          <path class="cls-15" d="M423.74,115.67l-1.45,1.92s-.05,0-.09,0h0s0,0,0-.07l1.45-1.92s.05,0,.09,0h0S423.76,115.65,423.74,115.67Z"/>
          <path class="cls-15" d="M424.12,115.76l-1.45,1.92a.1.1,0,0,1-.09,0h0a0,0,0,0,1,0-.07l1.45-1.92a.1.1,0,0,1,.09,0h0S424.14,115.74,424.12,115.76Z"/>
          <path class="cls-15" d="M424.43,115.88,423,117.8a.1.1,0,0,1-.09,0h0s-.05,0,0-.07l1.45-1.92a.1.1,0,0,1,.09,0h0A.06.06,0,0,1,424.43,115.88Z"/>
        </g>
        <g class="cls-14">
          <path class="cls-15" d="M428.48,117.13l-1.49-.49s0,0,0,0h0s0,0,0,0l1.48.48a.05.05,0,0,1,0,0h0S428.49,117.14,428.48,117.13Z"/>
          <path class="cls-15" d="M428.59,117l-1.49-.49a0,0,0,0,1,0,0h0s0,0,0,0l1.48.49a.05.05,0,0,1,0,0h0A.05.05,0,0,1,428.59,117Z"/>
          <path class="cls-15" d="M427.79,115.93l-.74,1.62s0,0,0,0h0s0,0,0,0l.73-1.63s0,0,0,0h0A0,0,0,0,1,427.79,115.93Z"/>
          <path class="cls-15" d="M428,116l-.73,1.63s0,0-.05,0h0a0,0,0,0,1,0,0l.73-1.63a0,0,0,0,1,0,0h0A0,0,0,0,1,428,116Z"/>
          <path class="cls-15" d="M428.12,116.1l-.73,1.63a0,0,0,0,1,0,0h0a0,0,0,0,1,0,0l.74-1.63s0,0,0,0h0S428.13,116.08,428.12,116.1Z"/>
        </g>
        <g class="cls-16">
          <path class="cls-15" d="M432.89,117.14l-1.28-1s0,0,0,0h0a0,0,0,0,1,0,0l1.29,1s0,0,0,0h0S432.91,117.15,432.89,117.14Z"/>
          <path class="cls-15" d="M433,117.12l-1.29-1s0,0,0,0h0l1.28,1s0,0,0,.05h0Z"/>
          <path class="cls-15" d="M432.42,116l-.87.74s0,0,0,0h0s0,0,0,0l.87-.75h0S432.43,116,432.42,116Z"/>
          <path class="cls-15" d="M432.58,116.15l-.87.75h0a0,0,0,0,1,0,0l.87-.74s0,0,0,0h0S432.59,116.14,432.58,116.15Z"/>
          <path class="cls-15" d="M432.7,116.29l-.87.74a0,0,0,0,1,0,0h0s0,0,0,0l.87-.74s0,0,.05,0h0A0,0,0,0,1,432.7,116.29Z"/>
        </g>
        <path class="cls-17" d="M419,125a28.26,28.26,0,0,0,1.44,6.18,30.18,30.18,0,0,0,3.21,6.06h0c-1.22-3.32-1.77-5.71-2.33-7a6.69,6.69,0,0,1-1.12-1.68C419.66,127.09,419.26,125.82,419,125Z"/>
        <path class="cls-18" d="M431.44,127.16l2.62-2,2-3.19c-.14.59-.93,3.66-3.14,4.76A3.64,3.64,0,0,1,431.44,127.16Z"/>
        <path class="cls-19" d="M427.19,136l-3.41-3.2s0-.21.05-.37h0c.07-.16.16-.26.2-.22l3.41,3.2s0,.2-.06.36h0C427.32,135.88,427.23,136,427.19,136Z"/>
        <path class="cls-19" d="M426.85,137.37l-3.92-3.43a.34.34,0,0,1,0-.31h0c.05-.13.13-.21.18-.17l3.92,3.43c.05,0,0,.18,0,.31h0C427,137.34,426.9,137.41,426.85,137.37Z"/>
        <path class="cls-19" d="M425.45,132.69,424,135.86s-.1,0-.19-.17h0c-.09-.12-.15-.26-.13-.3l1.46-3.17s.11,0,.2.16h0C425.41,132.51,425.47,132.65,425.45,132.69Z"/>
        <path class="cls-19" d="M427,132.91l-1.72,3.9c0,.05-.11,0-.21-.13h0c-.09-.12-.15-.26-.13-.3l1.71-3.91c0-.05.11,0,.21.13h0C426.94,132.72,427,132.86,427,132.91Z"/>
        <path class="cls-19" d="M427.79,133.47l-1.58,4.36s-.12,0-.22-.1h0c-.11-.11-.18-.24-.16-.29l1.59-4.36c0-.06.11,0,.22.1h0C427.74,133.29,427.81,133.42,427.79,133.47Z"/>
        <path class="cls-17" d="M416.33,124.76c2.57,1,2.81.65,2.81.65l-.36-1.16h-2.46l-.89-.24Z"/>
        <path class="cls-18" d="M426,138.39l1.31-2.61,1-3.29c.06.53.31,3.29-1.19,5A3.62,3.62,0,0,1,426,138.39Z"/>
        <path class="cls-17" d="M416.07,117.49c-.39,2-.16,2.79.19,3.09s1-.07,1.49.42.17,1.47.78,2c.24.22.63.35.77.19s-.16-1.33-.47-1.9a18.61,18.61,0,0,1-1.1-1.89l-.21-.54a8.11,8.11,0,0,0-.48-1.14c-.56-1.24-.77-2.46-.92-2.43S416,115.71,416.07,117.49Z"/>
        <path class="cls-17" d="M411.94,123.71a1.3,1.3,0,0,1-.17-1.1c.05-.14.09-.13.51-.69.24-.32.25-.36.33-.4.33-.15.61.29.83.15s.17-1.1.24-1.1h0c.1,0,.43-1.16.57-1.13a1.94,1.94,0,0,1-.1,1.74,9.68,9.68,0,0,0-.74,1.13,2.45,2.45,0,0,0-.12.31c-.13.34-.28.57-.31.65-.38.74-.39,1.36-.58,1.38S412.18,124.52,411.94,123.71Z"/>
      </g>
    </g>
    <g>
      <text/>      <path class="cls-6" d="M307.8,145.71c-15.88-.68-29.29-22.67-24.41-34.14,2.12-5,8.41-9.67,13.92-9,5.67.65,6.52,6.5,12.12,6.88,6,.41,7.92-6.06,14.64-6.19,4.44-.09,9.35,2.63,11.18,6.08C340.55,119.31,325.9,146.5,307.8,145.71Z"/>
      <g>
        <path class="cls-7" d="M316.43,121.74A2.46,2.46,0,0,0,319,121a3.9,3.9,0,0,0,1.38-2.72c.16-1.07-.77-2-.21-2.39s1.17,1.12,1,1.49.51-.28.92.27a4.73,4.73,0,0,1,.56,2.35c-.06.32-.84,1.09-1.46.59s-.43-1.06-.61-.49-1,3.38-1.63,3.72a14.89,14.89,0,0,1-3.13,1.48c-.7.08-.69,0-.69,0l1-3.47Z"/>
        <path class="cls-7" d="M299.83,122l1.85.47,1.68-.19.28.21.8,3.15-2.64-1a15.38,15.38,0,0,1-2.59-2.07c-.13-.39-1.07,1.46-1.77.89s-1.49-2.55-1.11-3.16.9-1.15,1.37-.79.48-1.7,1.05-2.1.66.56.66.56a7.63,7.63,0,0,0-.49.86,3.8,3.8,0,0,0,0,2A3.09,3.09,0,0,0,299.83,122Z"/>
        <path class="cls-8" d="M302.32,119s.34,1.59.82,3.63a67.15,67.15,0,0,0,2,7.24c1.22,3.11,2.36,5.57,3.84,6.46s2.49-.58,2.86-1,3.39-9.74,3.39-9.74l1.82-6.4.64,0a12.55,12.55,0,0,0,1.23-2.79c-.07-.46-18.41-1-18.41-1s-.26.17-.25.94a17.79,17.79,0,0,0,.36,2.4Z"/>
        <path class="cls-7" d="M306.73,133.5a21,21,0,0,1-.84,6.47s-2.5.64-2.72,1.07-.53.79.15.91,2.9-1.63,2.9-1.63l2.19-4.55Z"/>
        <path class="cls-7" d="M312.38,133.46s.41,2.75.74,3.93.63,2,.63,2,2.42-.2,2.3.37.64,1.72-.94.89l-1.58-.83a11.32,11.32,0,0,1-1.84-2.39l-.86-1.48,1.07-1.25Z"/>
        <path class="cls-9" d="M312.37,121.05a1.62,1.62,0,0,1,.9,1.88c-.14.87-.91,2.33-1.55,2.17s-.89-1.9-.75-2.77S311.74,120.88,312.37,121.05Z"/>
        <path class="cls-9" d="M308.68,120.92c.65,0,1.19.68,1.2,1.57s-.48,2.56-1.13,2.59-1.2-1.59-1.22-2.49S308,121,308.68,120.92Z"/>
        <ellipse class="cls-3" cx="311.85" cy="124.02" rx="1" ry="0.59" transform="translate(162 424.32) rotate(-85.17)"/>
        <ellipse class="cls-3" cx="308.75" cy="123.98" rx="0.58" ry="1" transform="matrix(1, -0.04, 0.04, 1, -5.26, 14)"/>
        <ellipse class="cls-9" cx="311.79" cy="124.49" rx="0.37" ry="0.28" transform="translate(181.23 433.79) rotate(-88.88)"/>
        <ellipse class="cls-9" cx="308.79" cy="124.56" rx="0.37" ry="0.28" transform="translate(178.22 430.86) rotate(-88.88)"/>
        <g>
          <path class="cls-10" d="M313.68,125.18l.06,1a.75.75,0,0,1-.55.83l-.39,0a.49.49,0,0,1-.39-.14l0,.35c0,.42-.32.74-.64.71l-.39,0a.56.56,0,0,1-.41-.28.65.65,0,0,1-.65.62l-.39-.07a.69.69,0,0,1-.51-.62.55.55,0,0,1-.44.26h-.4a.7.7,0,0,1-.57-.78v-.32h-.3c-.32,0-.58-.36-.57-.78l0-1.16a3,3,0,0,1-.28-.57c0-.08-.13,0-.12,0,.1,3,1.68,5.47,3.65,5.51s4-2.33,4-5.61A12.23,12.23,0,0,1,313.68,125.18Z"/>
          <path class="cls-11" d="M310.73,124l-.39-.06c-.32,0-.62.25-.66.67l-.09.83v.9a6,6,0,0,0,.89.09h.4l.14-2.07,0-.17A.58.58,0,0,0,310.73,124Z"/>
          <path class="cls-3" d="M310.82,127.13l.05-.69h-.4a6,6,0,0,1-.89-.09l0,.75a.83.83,0,0,1-.16.5.69.69,0,0,0,.51.62l.39.07a.65.65,0,0,0,.65-.62A1,1,0,0,1,310.82,127.13Z"/>
          <path class="cls-11" d="M311.08,126.43a4.6,4.6,0,0,0,1.08-.21l-.13-2.51-.38,0a.61.61,0,0,0-.61.53,1,1,0,0,1,.2.68Z"/>
          <path class="cls-3" d="M312.17,126.37v-.15a4.6,4.6,0,0,1-1.08.21l-.12,1.19s0,0,0,.06a.56.56,0,0,0,.41.28l.39,0c.32,0,.61-.29.64-.71l0-.35A.84.84,0,0,1,312.17,126.37Z"/>
          <path class="cls-11" d="M311,124.2l0,.17-.14,2.07h.21l.16-1.55A1,1,0,0,0,311,124.2Z"/>
          <path class="cls-3" d="M311.08,126.43h-.21l-.05.69a1,1,0,0,0,.13.55s0,0,0-.06Z"/>
          <path class="cls-11" d="M309,123.56h-.29L308.7,126s0,.07,0,.11a4.3,4.3,0,0,0,.81.24l.09-.89,0-1.11C309.62,123.92,309.37,123.57,309,123.56Z"/>
          <path class="cls-3" d="M309.4,127.38l.1-1a4.3,4.3,0,0,1-.81-.24.67.67,0,0,1-.6.65H308v.32a.7.7,0,0,0,.57.78h.4a.55.55,0,0,0,.44-.26A.88.88,0,0,1,309.4,127.38Z"/>
          <path class="cls-11" d="M309.5,126.35h.08v-.9Z"/>
          <path class="cls-3" d="M309.58,126.36h-.08l-.1,1a.88.88,0,0,0,0,.23.83.83,0,0,0,.16-.5Z"/>
          <path class="cls-11" d="M312.47,126.1a3.22,3.22,0,0,0,1.21-.92l-.09-1.72c0-.43-.3-.74-.63-.71l-.39,0a.75.75,0,0,0-.55.83v.09h0a.72.72,0,0,1,.54.83Z"/>
          <path class="cls-3" d="M312.41,126.94a.49.49,0,0,0,.39.14l.39,0a.75.75,0,0,0,.55-.83l-.06-1a3.22,3.22,0,0,1-1.21.92Z"/>
          <path class="cls-11" d="M312,123.71h0l.13,2.51.31-.12.11-1.56A.72.72,0,0,0,312,123.71Z"/>
          <path class="cls-3" d="M312.16,126.22v.15a.84.84,0,0,0,.24.57l.06-.84Z"/>
          <path class="cls-11" d="M308.18,122.45h-.4c-.32,0-.59.33-.6.76l0,1.6a3.11,3.11,0,0,0,.87.93l0-1.42c0-.43.28-.77.61-.76h.1v-.32A.71.71,0,0,0,308.18,122.45Z"/>
          <path class="cls-3" d="M307.7,126.75h.3l0-1a3.11,3.11,0,0,1-.87-.93l0,1.16C307.12,126.39,307.38,126.75,307.7,126.75Z"/>
          <path class="cls-11" d="M308.65,123.56c-.33,0-.6.33-.61.76l0,1.42a3.8,3.8,0,0,0,.67.37s0-.07,0-.11l.05-2.44Z"/>
          <path class="cls-3" d="M308.69,126.11a3.8,3.8,0,0,1-.67-.37l0,1h.09A.67.67,0,0,0,308.69,126.11Z"/>
        </g>
        <path class="cls-12" d="M311.06,129.56c.51-.3.57-.83.25-.93s-.65.43-.9.18c-.56-.56-1,.08-.88.5S310.26,130.05,311.06,129.56Z"/>
        <path class="cls-13" d="M318.88,117.35l-18.34-.61-.39-3.47,19.2.89Z"/>
        <g class="cls-14">
          <path class="cls-15" d="M304.47,114.48l-1.77-.43s0,0,0,0h0s0,0,.05,0l1.77.42a.05.05,0,0,1,0,0h0Z"/>
          <path class="cls-15" d="M304.6,114.38l-1.77-.42s0,0,0,0h0a.05.05,0,0,1,.05,0l1.77.43s0,0,0,0h0A0,0,0,0,1,304.6,114.38Z"/>
          <path class="cls-15" d="M303.64,113.45l-.86,1.38a.06.06,0,0,1-.06,0h0s0,0,0,0l.86-1.38a0,0,0,0,1,.05,0h0S303.65,113.44,303.64,113.45Z"/>
          <path class="cls-15" d="M303.86,113.52l-.86,1.37s0,0-.05,0h0a0,0,0,0,1,0,0l.86-1.37s0,0,0,0h0A0,0,0,0,1,303.86,113.52Z"/>
          <path class="cls-15" d="M304,113.6l-.86,1.38a0,0,0,0,1-.05,0h0s0,0,0,0l.86-1.38s0,0,.06,0h0A0,0,0,0,1,304,113.6Z"/>
        </g>
        <g class="cls-14">
          <path class="cls-15" d="M309.62,115.1l-3-.6s-.06,0-.05-.06h0a.06.06,0,0,1,.08,0l3,.6s.06,0,.05.06h0A.08.08,0,0,1,309.62,115.1Z"/>
          <path class="cls-15" d="M309.84,115l-3-.61a0,0,0,0,1,0-.06h0a.08.08,0,0,1,.08,0l3,.61a0,0,0,0,1,.05.06h0S309.87,115,309.84,115Z"/>
          <path class="cls-15" d="M308.21,113.66l-1.45,1.92a.1.1,0,0,1-.09,0h0s-.05,0,0-.06l1.45-1.92a.07.07,0,0,1,.09,0h0S308.23,113.64,308.21,113.66Z"/>
          <path class="cls-15" d="M308.58,113.75l-1.45,1.92s-.05,0-.09,0h0a0,0,0,0,1,0-.06l1.45-1.92s.06,0,.1,0h0S308.6,113.73,308.58,113.75Z"/>
          <path class="cls-15" d="M308.89,113.87l-1.45,1.92a.1.1,0,0,1-.09,0h0a0,0,0,0,1,0-.06l1.45-1.92a.08.08,0,0,1,.09,0h0S308.91,113.85,308.89,113.87Z"/>
        </g>
        <g class="cls-14">
          <path class="cls-15" d="M312.94,115.12l-1.49-.48a.08.08,0,0,1,0,0h0s0,0,0,0l1.49.49s0,0,0,0h0S313,115.13,312.94,115.12Z"/>
          <path class="cls-15" d="M313.05,115l-1.49-.49a.08.08,0,0,1,0,0h0a.05.05,0,0,1,0,0l1.49.49a0,0,0,0,1,0,0h0S313.07,115,313.05,115Z"/>
          <path class="cls-15" d="M312.25,113.92l-.73,1.63s0,0,0,0h0a0,0,0,0,1,0,0l.73-1.63s0,0,.05,0h0A0,0,0,0,1,312.25,113.92Z"/>
          <path class="cls-15" d="M312.44,114l-.74,1.62s0,0,0,0h0s0,0,0-.06l.74-1.62s0,0,0,0h0S312.44,114,312.44,114Z"/>
          <path class="cls-15" d="M312.59,114.09l-.73,1.63a0,0,0,0,1-.05,0h0s0,0,0-.06l.73-1.62s0,0,0,0h0S312.6,114.08,312.59,114.09Z"/>
        </g>
        <g class="cls-16">
          <path class="cls-15" d="M317.36,115.14l-1.29-1a0,0,0,0,1,0,0h0l1.28,1a.06.06,0,0,1,0,0h0A0,0,0,0,1,317.36,115.14Z"/>
          <path class="cls-15" d="M317.47,115.11l-1.29-1s0,0,0,0h0a0,0,0,0,1,0,0l1.29,1s0,0,0,0h0S317.49,115.12,317.47,115.11Z"/>
          <path class="cls-15" d="M316.88,114l-.87.74a0,0,0,0,1,0,0h0s0,0,0,0l.87-.74s0,0,.05,0h0A0,0,0,0,1,316.88,114Z"/>
          <path class="cls-15" d="M317,114.15l-.87.74s0,0,0,0h0s0,0,0,0l.87-.75H317A0,0,0,0,1,317,114.15Z"/>
          <path class="cls-15" d="M317.17,114.28l-.87.75s0,0-.05,0h0a0,0,0,0,1,0,0l.87-.74s0,0,0,0h0S317.18,114.27,317.17,114.28Z"/>
        </g>
        <path class="cls-17" d="M303.47,123a27.83,27.83,0,0,0,1.45,6.18,29.07,29.07,0,0,0,3.21,6.06h0c-1.22-3.32-1.78-5.71-2.34-7a6.92,6.92,0,0,1-1.11-1.67C304.13,125.08,303.73,123.81,303.47,123Z"/>
        <path class="cls-18" d="M315.9,125.16l2.63-2,2-3.19c-.15.59-.94,3.66-3.15,4.76A3.47,3.47,0,0,1,315.9,125.16Z"/>
        <path class="cls-19" d="M311.65,133.94l-3.41-3.2s0-.2.05-.36h0c.07-.17.16-.27.2-.23l3.41,3.2s0,.2,0,.37h0C311.78,133.88,311.69,134,311.65,133.94Z"/>
        <path class="cls-19" d="M311.32,135.36l-3.92-3.43s0-.18,0-.31h0c.06-.13.14-.21.19-.16l3.92,3.42a.37.37,0,0,1,0,.32h0C311.45,135.33,311.36,135.4,311.32,135.36Z"/>
        <path class="cls-19" d="M309.92,130.68l-1.47,3.17s-.1,0-.19-.16h0a.62.62,0,0,1-.13-.31l1.47-3.17s.1,0,.19.17h0A.6.6,0,0,1,309.92,130.68Z"/>
        <path class="cls-19" d="M311.45,130.9l-1.71,3.91s-.12,0-.21-.14h0c-.1-.12-.16-.25-.14-.3l1.71-3.91s.12,0,.21.14h0C311.41,130.72,311.47,130.85,311.45,130.9Z"/>
        <path class="cls-19" d="M312.26,131.46l-1.59,4.36c0,.06-.12,0-.22-.1h0c-.1-.11-.17-.24-.15-.29l1.58-4.36s.12,0,.22.1h0A.47.47,0,0,1,312.26,131.46Z"/>
        <path class="cls-17" d="M300.79,122.75c2.57,1,2.81.65,2.81.65l-.36-1.16h-2.46l-.88-.24Z"/>
        <path class="cls-18" d="M310.48,136.39l1.31-2.62,1-3.29c.05.53.31,3.3-1.19,5A3.81,3.81,0,0,1,310.48,136.39Z"/>
        <path class="cls-17" d="M300.54,115.49c-.4,2-.16,2.78.19,3.09s1-.08,1.48.42.18,1.46.78,2c.25.22.63.35.78.18s-.17-1.32-.47-1.9a16,16,0,0,1-1.11-1.89c-.08-.19-.14-.37-.2-.54a9,9,0,0,0-.49-1.14c-.56-1.24-.77-2.46-.92-2.43S300.44,113.7,300.54,115.49Z"/>
        <path class="cls-17" d="M296.4,121.71a1.32,1.32,0,0,1-.17-1.11c0-.14.09-.12.51-.69.24-.31.25-.36.34-.39.33-.15.6.28.82.15s.18-1.11.25-1.11h0c.1,0,.43-1.16.57-1.14a1.91,1.91,0,0,1-.1,1.74,9.78,9.78,0,0,0-.73,1.13,2.58,2.58,0,0,0-.13.31,4.52,4.52,0,0,1-.31.65c-.37.74-.39,1.36-.57,1.38S296.64,122.51,296.4,121.71Z"/>
      </g>
    </g>
    <g>
      <text/>      <path class="cls-6" d="M364.85,147.36c-15.88-.69-29.29-22.67-24.4-34.14,2.11-5,8.4-9.68,13.91-9,5.67.66,6.52,6.5,12.13,6.88,6,.41,7.91-6.06,14.63-6.19,4.44-.08,9.35,2.64,11.18,6.09C397.61,121,383,148.14,364.85,147.36Z"/>
      <g>
        <path class="cls-7" d="M373.49,123.39a2.47,2.47,0,0,0,2.55-.77,3.9,3.9,0,0,0,1.38-2.71c.15-1.08-.78-2-.22-2.39s1.17,1.12,1,1.49.51-.28.92.26a4.79,4.79,0,0,1,.57,2.36c-.07.31-.85,1.08-1.46.59s-.44-1.06-.62-.5-1,3.38-1.63,3.72a14.93,14.93,0,0,1-3.13,1.49c-.69.07-.69-.06-.69-.06l1-3.47Z"/>
        <path class="cls-7" d="M356.88,123.66l1.85.46,1.69-.19.28.22.8,3.14-2.64-1a16.25,16.25,0,0,1-2.6-2.06c-.12-.4-1.06,1.45-1.77.89s-1.49-2.56-1.11-3.17.9-1.15,1.37-.79.49-1.69,1.05-2.1.66.57.66.57a8.3,8.3,0,0,0-.49.85,3.76,3.76,0,0,0,0,2.06A3.24,3.24,0,0,0,356.88,123.66Z"/>
        <path class="cls-8" d="M359.37,120.65s.34,1.6.82,3.63a68.66,68.66,0,0,0,2,7.24c1.21,3.11,2.36,5.57,3.84,6.46s2.49-.58,2.86-1,3.38-9.74,3.38-9.74l1.82-6.4.64,0A11.92,11.92,0,0,0,376,118.1c-.07-.45-18.41-1-18.41-1s-.25.17-.25.94a17.26,17.26,0,0,0,.37,2.41Z"/>
        <path class="cls-7" d="M363.79,135.15a20.86,20.86,0,0,1-.84,6.46s-2.5.64-2.72,1.07-.54.8.15.91,2.89-1.63,2.89-1.63l2.19-4.55Z"/>
        <path class="cls-7" d="M369.43,135.11s.42,2.74.75,3.93.63,2,.63,2,2.42-.19,2.29.37.65,1.72-.93.89l-1.59-.83a11.41,11.41,0,0,1-1.84-2.38l-.85-1.48,1.06-1.26Z"/>
        <path class="cls-9" d="M369.42,122.69a1.62,1.62,0,0,1,.9,1.88c-.14.88-.91,2.34-1.54,2.17s-.9-1.89-.76-2.77S368.79,122.53,369.42,122.69Z"/>
        <path class="cls-9" d="M365.73,122.56c.65,0,1.19.68,1.2,1.58s-.48,2.56-1.13,2.58-1.2-1.58-1.21-2.48S365.09,122.59,365.73,122.56Z"/>
        <ellipse class="cls-3" cx="368.9" cy="125.67" rx="1" ry="0.59" transform="translate(212.62 482.68) rotate(-85.17)"/>
        <ellipse class="cls-3" cx="365.8" cy="125.63" rx="0.58" ry="1" transform="translate(-5.28 16.56) rotate(-2.58)"/>
        <ellipse class="cls-9" cx="368.85" cy="126.13" rx="0.37" ry="0.28" transform="translate(235.53 492.45) rotate(-88.88)"/>
        <ellipse class="cls-9" cx="365.85" cy="126.2" rx="0.37" ry="0.28" transform="matrix(0.02, -1, 1, 0.02, 232.52, 489.52)"/>
        <g>
          <path class="cls-10" d="M370.74,126.83l.05,1a.75.75,0,0,1-.55.83l-.39,0a.5.5,0,0,1-.38-.14l0,.35c0,.42-.31.74-.64.7l-.39,0a.52.52,0,0,1-.4-.28c-.07.39-.35.67-.66.62l-.39-.06a.67.67,0,0,1-.5-.62.52.52,0,0,1-.45.25h-.39a.71.71,0,0,1-.58-.79v-.32h-.3a.71.71,0,0,1-.57-.79l0-1.16a3.2,3.2,0,0,1-.27-.57c0-.08-.13,0-.13.05.11,3,1.68,5.47,3.66,5.51s4-2.33,4-5.62C371.49,125.82,371.25,126.19,370.74,126.83Z"/>
          <path class="cls-11" d="M367.78,125.67l-.39-.07c-.32,0-.62.26-.66.68l-.08.82,0,.91a7.72,7.72,0,0,0,.9.08h.39l.15-2.07a.88.88,0,0,1,0-.17A.46.46,0,0,0,367.78,125.67Z"/>
          <path class="cls-3" d="M367.88,128.77l0-.68h-.39a7.72,7.72,0,0,1-.9-.08v.74a1,1,0,0,1-.16.51.67.67,0,0,0,.5.62l.39.06c.31.05.59-.23.66-.62A.84.84,0,0,1,367.88,128.77Z"/>
          <path class="cls-11" d="M368.13,128.07a4.6,4.6,0,0,0,1.08-.21l-.13-2.51-.37,0a.63.63,0,0,0-.62.54.85.85,0,0,1,.2.67Z"/>
          <path class="cls-3" d="M369.22,128v-.16a4.6,4.6,0,0,1-1.08.21l-.12,1.2v0a.52.52,0,0,0,.4.28l.39,0c.33,0,.61-.28.64-.7l0-.35A.86.86,0,0,1,369.22,128Z"/>
          <path class="cls-11" d="M368.09,125.85a.88.88,0,0,0,0,.17l-.15,2.07.21,0,.16-1.55A.85.85,0,0,0,368.09,125.85Z"/>
          <path class="cls-3" d="M368.13,128.07l-.21,0,0,.68a.84.84,0,0,0,.13.55v0Z"/>
          <path class="cls-11" d="M366.1,125.21h-.3l-.05,2.44a.41.41,0,0,1,0,.11,4.19,4.19,0,0,0,.82.24l.09-.89,0-1.11C366.68,125.57,366.42,125.21,366.1,125.21Z"/>
          <path class="cls-3" d="M366.45,129l.11-1a4.19,4.19,0,0,1-.82-.24.66.66,0,0,1-.59.65h-.1v.32a.71.71,0,0,0,.58.79H366a.52.52,0,0,0,.45-.25A1.93,1.93,0,0,1,366.45,129Z"/>
          <path class="cls-11" d="M366.56,128l.07,0,0-.91Z"/>
          <path class="cls-3" d="M366.63,128l-.07,0-.11,1a1.93,1.93,0,0,0,0,.24,1,1,0,0,0,.16-.51Z"/>
          <path class="cls-11" d="M369.53,127.74a3.29,3.29,0,0,0,1.21-.91l-.09-1.73c0-.42-.31-.74-.63-.71l-.39,0a.75.75,0,0,0-.55.83v.09h0a.73.73,0,0,1,.53.83Z"/>
          <path class="cls-3" d="M369.47,128.59a.5.5,0,0,0,.38.14l.39,0a.75.75,0,0,0,.55-.83l-.05-1a3.29,3.29,0,0,1-1.21.91Z"/>
          <path class="cls-11" d="M369.1,125.35h0l.13,2.51.32-.12.1-1.56A.73.73,0,0,0,369.1,125.35Z"/>
          <path class="cls-3" d="M369.21,127.86V128a.86.86,0,0,0,.25.57l.06-.85Z"/>
          <path class="cls-11" d="M365.23,124.1h-.39c-.33,0-.6.34-.61.76l0,1.6a3.13,3.13,0,0,0,.87.93l0-1.42c0-.42.28-.77.6-.76h.1v-.32C365.81,124.46,365.56,124.1,365.23,124.1Z"/>
          <path class="cls-3" d="M364.75,128.4h.3l0-1a3.13,3.13,0,0,1-.87-.93l0,1.16A.71.71,0,0,0,364.75,128.4Z"/>
          <path class="cls-11" d="M365.7,125.2c-.32,0-.59.34-.6.76l0,1.42a3.54,3.54,0,0,0,.67.37.41.41,0,0,0,0-.11l.05-2.44Z"/>
          <path class="cls-3" d="M365.74,127.75a3.54,3.54,0,0,1-.67-.37l0,1h.1A.66.66,0,0,0,365.74,127.75Z"/>
        </g>
        <path class="cls-12" d="M368.11,131.21c.51-.31.58-.83.25-.93s-.64.42-.89.18c-.57-.57-1,.07-.89.5S367.32,131.7,368.11,131.21Z"/>
        <path class="cls-13" d="M375.93,119l-18.33-.61-.4-3.46,19.21.88Z"/>
        <g class="cls-14">
          <path class="cls-15" d="M361.52,116.12l-1.77-.42a.05.05,0,0,1,0,0h0a.05.05,0,0,1,0,0l1.77.43s0,0,0,0h0S361.54,116.13,361.52,116.12Z"/>
          <path class="cls-15" d="M361.65,116l-1.77-.43s0,0,0,0h0a0,0,0,0,1,0,0l1.77.42s0,0,0,0h0S361.67,116,361.65,116Z"/>
          <path class="cls-15" d="M360.69,115.1l-.86,1.37s0,0-.05,0h0a0,0,0,0,1,0,0l.86-1.37a0,0,0,0,1,.06,0h0S360.7,115.08,360.69,115.1Z"/>
          <path class="cls-15" d="M360.92,115.16l-.87,1.38a0,0,0,0,1-.05,0h0a0,0,0,0,1,0,0l.87-1.37s0,0,0,0h0A0,0,0,0,1,360.92,115.16Z"/>
          <path class="cls-15" d="M361.1,115.25l-.86,1.37s0,0-.06,0h0s0,0,0,0l.86-1.38a0,0,0,0,1,.05,0h0A0,0,0,0,1,361.1,115.25Z"/>
        </g>
        <g class="cls-14">
          <path class="cls-15" d="M366.67,116.75l-3-.61s-.06,0-.05-.06h0a.08.08,0,0,1,.09,0l3,.61s.05,0,0,0h0S366.71,116.75,366.67,116.75Z"/>
          <path class="cls-15" d="M366.89,116.61l-3-.6s-.06,0-.05-.06h0s.05,0,.09,0l3,.6s.05,0,0,.06h0A.07.07,0,0,1,366.89,116.61Z"/>
          <path class="cls-15" d="M365.26,115.31l-1.45,1.91a.06.06,0,0,1-.09,0h0a0,0,0,0,1,0-.06l1.45-1.92a.1.1,0,0,1,.09,0h0S365.28,115.28,365.26,115.31Z"/>
          <path class="cls-15" d="M365.64,115.4l-1.45,1.92a.1.1,0,0,1-.09,0h0s-.05,0,0-.07l1.45-1.92a.1.1,0,0,1,.09,0h0A.05.05,0,0,1,365.64,115.4Z"/>
          <path class="cls-15" d="M366,115.52l-1.45,1.92a.09.09,0,0,1-.1,0h0s0,0,0-.06l1.45-1.92s.05,0,.09,0h0A.05.05,0,0,1,366,115.52Z"/>
        </g>
        <g class="cls-14">
          <path class="cls-15" d="M370,116.77l-1.48-.49a0,0,0,0,1,0,0h0s0,0,0,0l1.48.49a.05.05,0,0,1,0,0h0A.05.05,0,0,1,370,116.77Z"/>
          <path class="cls-15" d="M370.1,116.65l-1.48-.49s0,0,0,0h0s0,0,0,0l1.48.49s0,0,0,0h0A0,0,0,0,1,370.1,116.65Z"/>
          <path class="cls-15" d="M369.3,115.57l-.73,1.62s0,0,0,0h0a0,0,0,0,1,0-.06l.74-1.62a0,0,0,0,1,0,0h0S369.31,115.55,369.3,115.57Z"/>
          <path class="cls-15" d="M369.49,115.64l-.73,1.62a0,0,0,0,1-.05,0h0a0,0,0,0,1,0,0l.73-1.63s0,0,.05,0h0A0,0,0,0,1,369.49,115.64Z"/>
          <path class="cls-15" d="M369.64,115.74l-.73,1.62a0,0,0,0,1-.05,0h0a0,0,0,0,1,0,0l.73-1.63a0,0,0,0,1,.05,0h0S369.65,115.72,369.64,115.74Z"/>
        </g>
        <g class="cls-16">
          <path class="cls-15" d="M374.41,116.78l-1.29-1s0,0,0,0h0a0,0,0,0,1,0,0l1.29,1s0,0,0,0h0S374.43,116.79,374.41,116.78Z"/>
          <path class="cls-15" d="M374.53,116.76l-1.29-1a0,0,0,0,1,0,0h0l1.28,1s0,0,0,.05h0Z"/>
          <path class="cls-15" d="M373.94,115.65l-.87.75s0,0-.05,0h0a0,0,0,0,1,0,0l.87-.74s0,0,0,0h0S374,115.65,373.94,115.65Z"/>
          <path class="cls-15" d="M374.1,115.79l-.87.74s0,0-.05,0h0a0,0,0,0,1,0,0l.87-.74a0,0,0,0,1,0,0h0S374.11,115.78,374.1,115.79Z"/>
          <path class="cls-15" d="M374.22,115.93l-.87.74s0,0,0,0h0a0,0,0,0,1,0,0l.87-.74s0,0,.05,0h0A0,0,0,0,1,374.22,115.93Z"/>
        </g>
        <path class="cls-17" d="M360.53,124.59a28.23,28.23,0,0,0,1.44,6.19,29.94,29.94,0,0,0,3.21,6.05h0c-1.22-3.31-1.77-5.7-2.33-7a6.9,6.9,0,0,1-1.12-1.68C361.18,126.72,360.78,125.46,360.53,124.59Z"/>
        <path class="cls-18" d="M373,126.8l2.62-2,2-3.18c-.14.59-.93,3.65-3.14,4.76A3.68,3.68,0,0,1,373,126.8Z"/>
        <path class="cls-19" d="M368.7,135.59l-3.41-3.21s0-.2.06-.36h0c.07-.16.16-.27.2-.23L369,135s0,.21-.06.37h0C368.83,135.52,368.74,135.62,368.7,135.59Z"/>
        <path class="cls-19" d="M368.37,137l-3.92-3.43c-.05,0,0-.18,0-.32h0c0-.13.13-.2.18-.16l3.92,3.43c.05,0,0,.18,0,.31h0C368.5,137,368.42,137.05,368.37,137Z"/>
        <path class="cls-19" d="M367,132.32l-1.46,3.18s-.11,0-.19-.17h0c-.09-.13-.15-.26-.13-.3l1.46-3.17s.11,0,.19.16h0C366.93,132.15,367,132.29,367,132.32Z"/>
        <path class="cls-19" d="M368.5,132.54l-1.71,3.91c0,.05-.11,0-.21-.13h0c-.09-.12-.16-.26-.14-.31l1.72-3.9c0-.05.11,0,.21.13h0C368.46,132.36,368.52,132.5,368.5,132.54Z"/>
        <path class="cls-19" d="M369.31,133.11l-1.58,4.36c0,.05-.12,0-.23-.1h0c-.1-.11-.17-.24-.15-.29l1.58-4.37c0-.05.12,0,.23.1h0C369.26,132.92,369.33,133.05,369.31,133.11Z"/>
        <path class="cls-17" d="M357.84,124.4c2.57,1,2.82.65,2.82.65l-.36-1.17h-2.46l-.89-.23Z"/>
        <path class="cls-18" d="M367.54,138l1.31-2.61,1-3.29c.06.53.31,3.29-1.19,5A3.62,3.62,0,0,1,367.54,138Z"/>
        <path class="cls-17" d="M357.59,117.13c-.4,2-.16,2.79.19,3.09s1-.07,1.49.42.17,1.46.77,2c.25.22.63.35.78.19s-.17-1.33-.47-1.91a18.39,18.39,0,0,1-1.1-1.88c-.08-.2-.15-.38-.21-.55a8.35,8.35,0,0,0-.48-1.13c-.56-1.25-.77-2.47-.92-2.44S357.49,115.35,357.59,117.13Z"/>
        <path class="cls-17" d="M353.46,123.35a1.37,1.37,0,0,1-.18-1.1,5.53,5.53,0,0,1,.52-.69c.23-.32.25-.36.33-.4.33-.15.6.28.83.15s.17-1.11.24-1.11h0c.11,0,.44-1.16.58-1.13a1.94,1.94,0,0,1-.1,1.74,9.44,9.44,0,0,0-.74,1.12l-.13.31a4.3,4.3,0,0,1-.31.66c-.37.74-.38,1.36-.57,1.38S353.69,124.15,353.46,123.35Z"/>
      </g>
    </g>
  </g>
</svg>
