<svg id="Layer_1" data-name="Layer 1" xmlns="http://www.w3.org/2000/svg" width="254.01" height="250" viewBox="0 0 254.01 250">
  <defs>
    <style>
      .cls-1 {
        fill: #a67c52;
      }

      .cls-2, .cls-3 {
        fill: #fff;
      }

      .cls-3 {
        font-size: 30.04px;
        stroke: #fff;
        stroke-miterlimit: 10;
        stroke-width: 2.37px;
        font-family: MyriadPro-Regular, Myriad Pro;
      }

      .cls-4 {
        letter-spacing: -0.03em;
      }
    </style>
  </defs>
  <g>
    <g>
      <g>
        <rect class="cls-1" x="63.95" y="50.15" width="138.74" height="128.65"/>
        <path class="cls-2" d="M201.5,51.33V177.61H65.13V51.33H201.5M203.87,49H62.76V180H203.87V49Z"/>
      </g>
      <path class="cls-2" d="M133.08,89.77c22.2,0,40.27,17.46,40.27,38.92s-18.07,38.92-40.27,38.92S92.8,150.15,92.8,128.69s18.07-38.92,40.28-38.92m0-2.11c-23.41,0-42.39,18.37-42.39,41s19,41,42.39,41,42.38-18.37,42.38-41-19-41-42.38-41Z"/>
      <text class="cls-3" transform="translate(87.9 77.82) scale(1.14 1)"> <tspan class="cls-4" x="6.37" y="0">P</tspan><tspan x="21.57" y="0">ause</tspan></text>
    </g>
    <path class="cls-2" d="M129.26,110.32v33.07h-6.13V110.32h6.13m2.58-2.58H120.55V146h11.29V107.74Z"/>
    <path class="cls-2" d="M147.05,110.32v33.07h-6.12V110.32h6.12m2.58-2.58H138.35V146h11.28V107.74Z"/>
  </g>
</svg>
