<svg id="Layer_1" data-name="Layer 1" xmlns="http://www.w3.org/2000/svg" viewBox="0 0 906 352">
  <defs>
    <style>
      .cls-1 {
        fill: #390;
      }

      .cls-2 {
        fill: #85c285;
      }

      .cls-3 {
        font-size: 88.48px;
        font-family: Bauhaus93, "Bauhaus 93";
      }

      .cls-3, .cls-4 {
        fill: #fff;
      }

      .cls-4 {
        opacity: 0.85;
      }
    </style>
  </defs>
  <rect class="cls-1" x="32.5" y="8.27" width="829" height="338.73" rx="114"/>
  <path class="cls-2" d="M142.24,63.28c25.34-22.67,67.7-14.5,68.85-8.26.93,5.06-25.69,6.39-51.59,30.33-24.72,22.85-28.42,47.48-33.07,46.12C120.45,129.73,116.66,86.17,142.24,63.28Z"/>
  <path class="cls-2" d="M802.07,304.77c-14.3,18.83-50.61,13.3-53.21,8.32-2.12-4,19-5.76,33.38-25.62,13.75-19,10.1-38.83,14.22-37.85C801.74,250.87,816.52,285.77,802.07,304.77Z"/>
  <text class="cls-3" transform="translate(144.04 199.88)">POINTS</text>
  <circle class="cls-4" cx="620" cy="175.5" r="158"/>
</svg>
