<svg id="Layer_1" data-name="Layer 1" xmlns="http://www.w3.org/2000/svg" width="254.01" height="250" viewBox="0 0 254.01 250">
  <defs>
    <style>
      .cls-1 {
        fill: #ff6;
      }

      .cls-2 {
        fill: #fc3;
      }

      .cls-3, .cls-4 {
        fill: #c93;
      }

      .cls-3 {
        opacity: 0.49;
      }

      .cls-5 {
        fill: #fff;
        stroke: #c93;
        stroke-width: 0.42px;
      }

      .cls-11, .cls-12, .cls-5 {
        stroke-miterlimit: 10;
      }

      .cls-6 {
        fill: #f4eded;
      }

      .cls-7 {
        fill: #302d2d;
      }

      .cls-8 {
        fill: #dbd1d1;
      }

      .cls-9 {
        fill: #f4f2f2;
      }

      .cls-10 {
        fill: #19180d;
      }

      .cls-11 {
        fill: #f7f7f7;
        stroke: #b26b6b;
        stroke-width: 0.47px;
      }

      .cls-12 {
        fill: none;
        stroke: #514d4d;
        stroke-width: 1.4px;
      }

      .cls-13 {
        fill: #383535;
      }

      .cls-14 {
        fill: #b26b6b;
      }
    </style>
  </defs>
  <g>
    <g>
      <path class="cls-1" d="M168.12,134.83c-4.24,17.5,30.41,42.71,28.15,45.87s-36.51-26.62-42.58-20.12c-5.54,5.94,15.74,38.58,11.82,41.94s-27.11-28.72-35-23.7c-8.56,5.45,2.43,45.62.08,46.14-2.54.56-13.58-48.51-25-48-2.85.13-3.4,3.22-10.57,10.7-8.23,8.57-19.79,17.29-22.17,15.56C69.26,200.6,89.53,175.78,83.81,170c-6-6-35.75,13.56-38.31,10.08S69.9,156.72,66.66,152c-1-1.43-4.2-.73-11.83.56-6.47,1.1-31.58,5.31-32.44,3-1.12-2.93,38.41-15.92,37-22-1.62-6.92-54.73-.9-55-3.54s49.45-9,49.11-14.08C53.2,112.54,30.87,111.3,31,109s20.79.68,25.76-7.55c6.68-11.06-18.79-36-16.68-37.74s22,23,30.79,19.44c10.59-4.3-2.64-51.62,4.23-53.65C80.85,27.78,90.63,61,105.32,61c17.31,0,27.85-46.13,36.83-44.5S141.89,64,159.72,75.79,214.54,54.67,216,57.22s-39.85,28.25-36.31,41.4c3.91,14.55,61.17,8.13,61.33,11.27C241.18,113.28,173.59,112.26,168.12,134.83Z"/>
      <ellipse class="cls-2" cx="116.54" cy="119.69" rx="55.54" ry="56.43"/>
      <ellipse class="cls-1" cx="94.48" cy="119.16" rx="6.73" ry="7.52"/>
      <ellipse class="cls-1" cx="117.66" cy="117.85" rx="6.33" ry="8.83"/>
      <path class="cls-3" d="M156.28,148.25l-2.94-1c1.15-.89,9.63-7.68,11.43-18.9a24.45,24.45,0,0,0-.69-11l2.94,1c12.66,5.18,21,9.28,20.39,11-.85,2.52-21.07-1.66-21.58.05-.62,2.12,29.82,11,29.4,12.33-.22.65-8.32-.31-21.74-.39-4.36,0-6.21.06-7,1.44-3,5.08,12,20.22,10.92,21.71C176.79,165.22,171.84,162,156.28,148.25Z"/>
      <path class="cls-3" d="M166.48,119.9l-3.08.43c.6-1.3,4.88-11,1.09-21.79A25.41,25.41,0,0,0,158.57,89l3.08-.43c13.74-.92,23.09-.89,23.39.86.46,2.62-19.53,7.72-19.16,9.46.46,2.16,31.81-3.21,32.06-1.86.12.67-7.55,3.36-19.51,9.13-3.89,1.88-5.5,2.76-5.56,4.36-.23,5.81,20.41,12.72,20.14,14.53C192.86,126,186.89,125.29,166.48,119.9Z"/>
      <path class="cls-3" d="M130.37,167.07l-1.92-2.33c1.48-.15,12.47-1.44,20.4-9.9a25.24,25.24,0,0,0,5.74-9.62l1.92,2.34c7.65,10.91,12.25,18.67,10.81,19.79C165.16,169,150.6,155,149.2,156.18c-1.73,1.44,18.69,24.74,17.58,25.61-.55.43-6.79-4.58-18-11.63-3.64-2.29-5.24-3.18-6.72-2.44-5.42,2.69-1.49,23.2-3.28,23.87C137.85,192,135.57,186.64,130.37,167.07Z"/>
      <path class="cls-4" d="M117.4,97.49l-2.63,4.72a34.54,34.54,0,0,1,7.93,5.18,32.91,32.91,0,0,1,7,8.54l3.53-3.36Z"/>
      <path class="cls-4" d="M77.41,111.72,81,115a22.12,22.12,0,0,1,8.4-8.46,23.22,23.22,0,0,1,8.66-2.83l-3.74-5.26a33.77,33.77,0,0,0-8.54,4.44A32.6,32.6,0,0,0,77.41,111.72Z"/>
      <ellipse class="cls-5" cx="94.48" cy="119.16" rx="2.13" ry="2.8"/>
      <ellipse class="cls-5" cx="117.23" cy="119.16" rx="2.13" ry="2.8"/>
      <path class="cls-3" d="M101.5,168.64l-.09-3.17c1.2.76,10.18,6.29,21,3.78a24.21,24.21,0,0,0,9.86-4.83l.09,3.17c-.58,14-1.6,23.5-3.33,23.6-2.59.14-5.4-20.74-7.13-20.58-2.14.2-.29,32.62-1.62,32.71-.66,0-2.44-8.06-6.77-20.89-1.4-4.18-2.09-5.91-3.62-6.17-5.62-.95-14.52,19.12-16.25,18.62C92.74,194.61,94.1,188.65,101.5,168.64Z"/>
      <path class="cls-3" d="M130.74,167.67l-1.41-2.77a29.3,29.3,0,0,0,20.26-7.19,27.49,27.49,0,0,0,6.75-9.24l1.4,2.77c5.34,12.77,8.38,21.7,6.89,22.65-2.24,1.43-13.46-15.72-14.93-14.71-1.81,1.25,13.36,29.14,12.21,29.89-.57.37-5.53-5.94-14.73-15.17-3-3-4.33-4.21-5.8-3.67-5.39,2-4.92,24.29-6.67,24.71C133.78,195.16,132.5,189.18,130.74,167.67Z"/>
      <path class="cls-3" d="M75.82,151l1.5-2.71c.63,1.35,5.4,11.36,15.73,15.73a22.89,22.89,0,0,0,10.66,1.85l-1.5,2.71c-7.46,11.42-13,18.75-14.52,17.79C85.45,185,93.47,165.77,92,164.87c-1.9-1.11-16.47,27.17-17.62,26.45-.58-.37,2-8.22,4.71-21.56.9-4.34,1.18-6.2,0-7.34-4.24-4.15-21.67,7.34-22.88,5.89C55.56,167.54,59.66,163.36,75.82,151Z"/>
      <path class="cls-3" d="M65.76,116l3.06-.53c-.55,1.32-4.48,11.18-.31,21.81a25.36,25.36,0,0,0,6.26,9.32l-3.06.53c-13.7,1.37-23,1.64-23.42-.1-.55-2.6,19.25-8.35,18.81-10.07-.53-2.14-31.67,4.23-32,2.9-.15-.67,7.41-3.6,19.17-9.76,3.82-2,5.39-2.94,5.4-4.53,0-5.83-20.86-12.06-20.65-13.88C39.17,110.7,45.17,111.25,65.76,116Z"/>
      <path class="cls-3" d="M71.37,145.47l2.46-1.8A31.32,31.32,0,0,0,84,163.2a27.29,27.29,0,0,0,10,5.55l-2.46,1.81c-11.53,7.19-19.7,11.51-20.87,10.12-1.74-2.07,13.1-15.81,11.89-17.16-1.51-1.67-26.13,17.58-27,16.52-.46-.53,4.87-6.43,12.35-17,2.44-3.45,3.39-5,2.63-6.38-2.78-5.19-24.33-1.63-25-3.34C45.19,152.38,50.79,150.25,71.37,145.47Z"/>
      <path class="cls-3" d="M78.75,87.51l2.87,1.14c-1.22.82-10.16,7-12.75,18.13a24.52,24.52,0,0,0-.09,11.06l-2.87-1.14c-12.26-6-20.25-10.61-19.56-12.26,1-2.47,20.91,3,21.53,1.33.78-2.07-29-12.91-28.45-14.19.26-.63,8.28.85,21.65,1.79,4.35.31,6.21.34,7.12-1C71.55,87.51,57.63,71.44,58.85,70,59.49,69.26,64.2,72.84,78.75,87.51Z"/>
      <path class="cls-3" d="M143.07,74.39l-.3,3a34.57,34.57,0,0,0-22-6.2,27.8,27.8,0,0,0-11.11,3.22l.29-3c2.34-12.94,4.59-21.59,6.45-21.45,2.78.2,3.22,19.91,5.08,20,2.31.09,4.31-30.2,5.74-30.11.72.05,1.62,7.78,4.66,20.23,1,4,1.51,5.75,3.11,6.18,5.88,1.6,17.83-15.86,19.62-15.17C155.6,51.43,153.42,56.78,143.07,74.39Z"/>
      <path class="cls-3" d="M107.5,73.37l1.15,2.75c-1.46-.25-12.39-1.94-22.49,4.07a26.4,26.4,0,0,0-8.33,7.7l-1.16-2.75C72.54,72.62,70.39,64,72.1,63.26c2.56-1,12.43,16.3,14.12,15.55,2.09-.92-10.68-28.73-9.36-29.27.66-.27,5.18,6.21,13.86,15.95,2.82,3.17,4.09,4.45,5.74,4.14,6-1.14,8.23-21.88,10.14-22C107.62,47.49,108.25,53.2,107.5,73.37Z"/>
      <path class="cls-3" d="M164.05,95.86l-1.94,2.32a32.17,32.17,0,0,0-14.85-16.6,28.07,28.07,0,0,0-11.15-3.09L138,76.17c9.37-9.62,16.21-15.7,17.69-14.62,2.21,1.61-8.71,18.36-7.19,19.39,1.89,1.27,20.9-23.08,22.05-22.26.57.42-3.1,7.37-7.68,19.38-1.49,3.91-2,5.6-.92,6.8,4,4.4,24-4,25.12-2.52C187.7,83.14,182.8,86.48,164.05,95.86Z"/>
      <path class="cls-4" d="M95.28,133.54l1.6,7.9a24.76,24.76,0,0,1,9.46-2.55A24.11,24.11,0,0,1,117.61,141c0-2.45,0-4.9,0-7.35Z"/>
    </g>
    <ellipse class="cls-6" cx="94.83" cy="118.61" rx="8.08" ry="12.13" transform="translate(-8.52 7.35) rotate(-4.25)"/>
    <ellipse class="cls-7" cx="96.67" cy="121.79" rx="5.34" ry="8.52" transform="translate(-12.36 10.93) rotate(-6.08)"/>
    <ellipse class="cls-8" cx="97.67" cy="126.7" rx="2.84" ry="3.21"/>
    <ellipse class="cls-9" cx="114.16" cy="118.58" rx="13.25" ry="8.65" transform="translate(-15.81 219.6) rotate(-83.95)"/>
    <path class="cls-10" d="M131.47,134.36c2,4.42-11,22.49-26.25,21.49-14.84-1-25.85-19.63-23.56-23.77,1.5-2.71,8,2.06,23.33,3C122.11,136.21,130.1,131.28,131.47,134.36Z"/>
    <rect class="cls-11" x="105.66" y="137.98" width="5.01" height="8.48"/>
    <polygon class="cls-11" points="104.34 147.1 99.35 146.61 100 138.16 105 138.65 104.34 147.1"/>
    <path class="cls-12" d="M131.47,134.36c2,4.42-11,22.49-26.25,21.49-14.84-1-25.85-19.63-23.56-23.77,1.5-2.71,8,2.06,23.33,3C122.11,136.21,130.1,131.28,131.47,134.36Z"/>
    <ellipse class="cls-13" cx="111.88" cy="120.04" rx="8.53" ry="5.33" transform="translate(-10.02 229.9) rotate(-89.04)"/>
    <ellipse class="cls-8" cx="111.76" cy="124.24" rx="2.84" ry="3.21"/>
    <path class="cls-14" d="M109.61,158.22c-4.27,2.15-10.45-2.47-10-5,.27-1.48,3-3,4.83-2.56,1.33.32,1.48,1.53,2.84,1.56,1.16,0,1.49-.85,3.17-1.15.44-.08,2.14-.37,2.71.37C114.09,152.66,112.4,156.81,109.61,158.22Z"/>
  </g>
</svg>
