<svg id="Layer_1" data-name="Layer 1" xmlns="http://www.w3.org/2000/svg" width="488.28" height="240" viewBox="0 0 488.28 240">
  <defs>
    <style>
      .cls-1 {
        fill: #ccc;
      }

      .cls-2 {
        fill: #437741;
      }

      .cls-3 {
        fill: none;
      }

      .cls-4 {
        fill: #feffed;
      }

      .cls-5 {
        fill: #666;
      }
    </style>
  </defs>
  <ellipse class="cls-1" cx="439.66" cy="191.89" rx="48.62" ry="46"/>
  <ellipse class="cls-2" cx="239.62" cy="194" rx="48.62" ry="46"/>
  <rect class="cls-3" width="169" height="72"/>
  <g>
    <path class="cls-4" d="M80.33,33.12l-1.24.32c-1.44.38-2.25,2.37-1.7,4.15A43.49,43.49,0,0,1,77.62,62c-.58,2,.53,4.16,2.17,4.16h1.56a2.25,2.25,0,0,0,2-1.44,34.74,34.74,0,0,0-.62-30.32A2.11,2.11,0,0,0,80.33,33.12Z" transform="translate(169 142)"/>
    <path class="cls-4" d="M95.57,26.3a3,3,0,0,0-3.32-1.76L90.51,25c-2,.53-3.14,3.32-2.37,5.81a60.82,60.82,0,0,1,.31,34.13c-.8,2.81.76,5.82,3,5.82h2.2a3.19,3.19,0,0,0,2.76-2,48,48,0,0,0,4.45-20.59A47.5,47.5,0,0,0,95.57,26.3Z" transform="translate(169 142)"/>
    <path class="cls-4" d="M69.66,23.88l-7.89,9.84H39.23a4.81,4.81,0,0,0-4.81,4.81v20a3.62,3.62,0,0,0,3.63,3.63H59a.86.86,0,0,0,.49.44L67.34,71c2.66,3,4.23,2.68,4.23.31V33.72L72,23A1.34,1.34,0,0,0,69.66,23.88Z" transform="translate(169 142)"/>
  </g>
  <g>
    <path class="cls-5" d="M285,24.68l-5.84,5.69a1.75,1.75,0,0,0-.15,2.35q3.08,3.93,6.16,7.84a1.77,1.77,0,0,0,3.15-1.14L288,25.9A1.76,1.76,0,0,0,285,24.68Z" transform="translate(169 142)"/>
    <path class="cls-5" d="M263.29,18.2,258.15,22a1,1,0,0,0-.22,1.45l9.66,13.15a1,1,0,0,1-.84,1.65H242.48a7,7,0,0,0-7,7V66.38a5.73,5.73,0,0,0,5.74,5.73h26.66a1,1,0,0,1,.81.4l13.36,16.77a1.91,1.91,0,0,0,3.4-1.16l.38-23.57a1,1,0,0,1,1.88-.6l3.43,4.67a1,1,0,0,0,1.46.22l5.14-3.78a1,1,0,0,0,.22-1.45L264.74,18.42A1,1,0,0,0,263.29,18.2Z" transform="translate(169 142)"/>
  </g>
</svg>
