<svg id="Layer_1" data-name="Layer 1" xmlns="http://www.w3.org/2000/svg" width="447" height="105" viewBox="0 0 447 105">
  <defs>
    <style>
      .cls-1 {
        fill: #ccc;
      }

      .cls-2 {
        fill: #437741;
      }

      .cls-3 {
        fill: #feffed;
      }

      .cls-4 {
        fill: #99999d;
      }
    </style>
  </defs>
  <ellipse class="cls-1" cx="270.66" cy="49.89" rx="48.62" ry="46"/>
  <ellipse class="cls-2" cx="70.62" cy="52" rx="48.62" ry="46"/>
  <g>
    <path class="cls-3" d="M80.33,33.12l-1.24.32c-1.44.38-2.25,2.37-1.7,4.15A43.49,43.49,0,0,1,77.62,62c-.58,2,.53,4.16,2.17,4.16h1.56a2.25,2.25,0,0,0,2-1.44,34.74,34.74,0,0,0-.62-30.32A2.11,2.11,0,0,0,80.33,33.12Z"/>
    <path class="cls-3" d="M95.57,26.3a3,3,0,0,0-3.32-1.76L90.51,25c-2,.53-3.14,3.32-2.37,5.81a60.82,60.82,0,0,1,.31,34.13c-.8,2.81.76,5.82,3,5.82h2.2a3.19,3.19,0,0,0,2.76-2,48,48,0,0,0,4.45-20.59A47.5,47.5,0,0,0,95.57,26.3Z"/>
    <path class="cls-3" d="M69.66,23.88l-7.89,9.84H39.23a4.81,4.81,0,0,0-4.81,4.81v20a3.62,3.62,0,0,0,3.63,3.63H59a.86.86,0,0,0,.49.44L67.34,71c2.66,3,4.23,2.68,4.23.31V33.72L72,23A1.34,1.34,0,0,0,69.66,23.88Z"/>
  </g>
  <g>
    <path class="cls-4" d="M288.34,20.31l-6.23,6.07a1.88,1.88,0,0,0-.17,2.51l6.58,8.36A1.88,1.88,0,0,0,291.88,36l-.35-14.43A1.88,1.88,0,0,0,288.34,20.31Z"/>
    <path class="cls-4" d="M265.15,13.39l-5.48,4a1.11,1.11,0,0,0-.24,1.55l10.31,14a1.11,1.11,0,0,1-.89,1.77H242.94a7.46,7.46,0,0,0-7.46,7.46V64.8a6.12,6.12,0,0,0,6.12,6.12H270a1.12,1.12,0,0,1,.87.41l14.25,17.9A2,2,0,0,0,288.8,88l.41-25.15a1.11,1.11,0,0,1,2-.64l3.66,5a1.11,1.11,0,0,0,1.55.24l5.49-4a1.1,1.1,0,0,0,.23-1.55L266.7,13.63A1.11,1.11,0,0,0,265.15,13.39Z"/>
  </g>
</svg>
