<svg id="Layer_1" data-name="Layer 1" xmlns="http://www.w3.org/2000/svg" width="254.01" height="250" viewBox="0 0 254.01 250">
  <defs>
    <style>
      .cls-1 {
        fill: #f5b346;
      }

      .cls-2 {
        fill: #fc3;
      }

      .cls-3 {
        fill: #001300;
      }

      .cls-4 {
        fill: #fff;
      }

      .cls-5 {
        fill: #231f20;
      }

      .cls-6 {
        fill: none;
      }

      .cls-7 {
        fill: #c96;
      }

      .cls-8 {
        fill: #fcc139;
        opacity: 0.54;
      }

      .cls-12, .cls-13, .cls-9 {
        opacity: 0.5;
      }

      .cls-10, .cls-12, .cls-14 {
        fill: #feefcd;
      }

      .cls-11 {
        opacity: 0.4;
      }

      .cls-13 {
        fill: #c9ab6d;
      }

      .cls-14 {
        opacity: 0.2;
      }
    </style>
  </defs>
  <g>
    <path class="cls-1" d="M181.55,83a20.09,20.09,0,0,0,19-5.45c8.46-8.58,8.93-11.14,9.94-18.39s-6.12-13.64-2-16,8.94,7.34,7.74,9.86,3.77-1.95,6.95,1.65,5,13.58,4.57,15.71-6.2,7.41-10.87,4.15-3.42-7-4.68-3.25S205.12,94.1,200.6,96.44s-18.1,9.8-23.29,10.38-5.16-.27-5.16-.27l7.14-23.42Z"/>
    <path class="cls-1" d="M57,87,71,89.84l12.61-1.49,2.16,1.4,6.45,21-19.94-6.23S53.45,93.65,52.45,91s-7.77,9.91-13.16,6.19S27.75,80.28,30.5,76.13s6.58-7.82,10.18-5.49,3.39-11.42,7.56-14.21,5,3.7,5,3.7A50.47,50.47,0,0,0,49.72,66c-.42,1.27-2.2,9.34.21,13.76A22.14,22.14,0,0,0,57,87Z"/>
    <path class="cls-2" d="M75.24,66.49S78,77.16,82,90.76c4.73,16.36,11.13,37,16.34,48.26,9.54,20.69,18.51,37.06,29.73,42.8s18.63-4.18,21.32-7,24-65.77,24-65.77L186,65.84l4.79.25s9.47-15.83,8.85-18.87S61.38,43,61.38,43s-1.89,1.19-1.72,6.35,3.07,16.06,3.07,16.06Z"/>
    <path class="cls-1" d="M110.5,163.13c-.06,30.86-5.35,43.47-5.35,43.47s-18.64,4.61-20.23,7.53-3.9,5.39,1.24,6.08,21.49-11.33,21.49-11.33l15.77-30.77Z"/>
    <path class="cls-1" d="M152.88,162.13s3.49,18.36,6.14,26.23,5,13.58,5,13.58,18.15-1.63,17.27,2.19,5.09,11.44-6.88,6.09l-12-5.35a77.47,77.47,0,0,1-14.16-15.78l-6.64-9.8,7.81-8.57Z"/>
    <path class="cls-3" d="M151,78.87c4.79,1,7.92,6.62,7,12.5s-6.48,15.75-11.26,14.72-7-12.57-6.06-18.44S146.2,77.85,151,78.87Z"/>
    <path class="cls-3" d="M123.27,78.48c4.86-.27,9,4.39,9.24,10.41s-3.25,17.22-8.1,17.49-9.25-10.5-9.49-16.51S118.42,78.75,123.27,78.48Z"/>
    <ellipse class="cls-4" cx="147.5" cy="98.88" rx="6.69" ry="4.43" transform="translate(36.62 237.59) rotate(-85.2)"/>
    <ellipse class="cls-4" cx="124.25" cy="99.03" rx="4.39" ry="6.69" transform="matrix(1, -0.08, 0.08, 1, -7.79, 10.65)"/>
    <ellipse class="cls-3" cx="147.16" cy="102.02" rx="2.08" ry="2.45"/>
    <ellipse class="cls-3" cx="124.67" cy="102.89" rx="2.08" ry="2.45"/>
    <g>
      <path class="cls-5" d="M161.44,106.41l.56,6.9c.23,2.84-1.57,5.37-4,5.64l-2.94.33a4,4,0,0,1-2.9-.88l-.13,2.33c-.15,2.84-2.27,5-4.7,4.83l-2.94-.22a4.23,4.23,0,0,1-3.09-1.82c-.41,2.63-2.51,4.51-4.82,4.22l-2.94-.37a4.77,4.77,0,0,1-3.86-4.09,4.18,4.18,0,0,1-3.32,1.77h-3c-2.44,0-4.43-2.33-4.43-5.17v-2.16h-2.21c-2.44,0-4.43-2.32-4.43-5.17v-7.77a20.67,20.67,0,0,1-2.16-3.79c-.24-.55-1-.32-.93.3,1.24,20.43,13.4,36.47,28.24,36.48,15.67,0,29.43-16.14,29.45-38.2A85.1,85.1,0,0,1,161.44,106.41Z"/>
      <path class="cls-6" d="M139.11,99l-2.94-.36c-2.42-.31-4.61,1.76-4.87,4.59l-.5,5.53v6.08a47.78,47.78,0,0,0,6.73.46c1,0,2,0,3-.08l.76-13.89a6.24,6.24,0,0,1,.19-1.16A4.12,4.12,0,0,0,139.11,99Z"/>
      <path class="cls-4" d="M140.26,119.85l.25-4.61c-1,.05-1.95.08-3,.08a47.78,47.78,0,0,1-6.73-.46v5a5.63,5.63,0,0,1-1.11,3.4,4.77,4.77,0,0,0,3.86,4.09l2.94.37c2.31.29,4.41-1.59,4.82-4.22A5.74,5.74,0,0,1,140.26,119.85Z"/>
      <path class="cls-6" d="M142.09,115.12a37.49,37.49,0,0,0,8.07-1.57L148.8,96.73,146,96.52a4.52,4.52,0,0,0-4.51,3.67,5.63,5.63,0,0,1,1.58,4.52Z"/>
      <path class="cls-4" d="M150.25,114.61l-.09-1.06a37.49,37.49,0,0,1-8.07,1.57l-.73,8c0,.13,0,.25-.05.38a4.23,4.23,0,0,0,3.09,1.82l2.94.22c2.43.19,4.55-2,4.7-4.83l.13-2.33A5.4,5.4,0,0,1,150.25,114.61Z"/>
      <path class="cls-6" d="M141.46,100.19a6.24,6.24,0,0,0-.19,1.16l-.76,13.89c.54,0,1.07-.07,1.58-.12l.95-10.41A5.63,5.63,0,0,0,141.46,100.19Z"/>
      <path class="cls-4" d="M142.09,115.12c-.51,0-1,.09-1.58.12l-.25,4.61a5.74,5.74,0,0,0,1.05,3.67c0-.13,0-.25.05-.38Z"/>
      <path class="cls-6" d="M126.37,96.17h-2.21v16.38a5.52,5.52,0,0,1,0,.71,34.88,34.88,0,0,0,6.14,1.52l.55-6v-7.44C130.8,98.5,128.8,96.17,126.37,96.17Z"/>
      <path class="cls-4" d="M129.62,121.68l.63-6.9a34.88,34.88,0,0,1-6.14-1.52c-.3,2.51-2.15,4.46-4.38,4.46H119v2.16c0,2.84,2,5.17,4.43,5.17h3a4.18,4.18,0,0,0,3.32-1.77A6.06,6.06,0,0,1,129.62,121.68Z"/>
      <path class="cls-6" d="M130.25,114.78l.55.08v-6.08Z"/>
      <path class="cls-4" d="M130.8,114.86l-.55-.08-.63,6.9a6.06,6.06,0,0,0,.07,1.6,5.63,5.63,0,0,0,1.11-3.4Z"/>
      <path class="cls-6" d="M152.48,112.7a23.73,23.73,0,0,0,9-6.29l-.93-11.55c-.23-2.83-2.4-4.93-4.83-4.66l-2.93.32c-2.43.27-4.22,2.81-4,5.64l0,.57h.12c2.43.18,4.29,2.65,4.13,5.49Z"/>
      <path class="cls-4" d="M152.17,118.4a4,4,0,0,0,2.9.88L158,119c2.42-.27,4.22-2.8,4-5.64l-.56-6.9a23.73,23.73,0,0,1-9,6.29Z"/>
      <path class="cls-6" d="M148.92,96.74h-.12l1.36,16.82c.82-.26,1.59-.55,2.32-.85l.57-10.47C153.21,99.39,151.35,96.92,148.92,96.74Z"/>
      <path class="cls-4" d="M150.16,113.55l.09,1.06a5.4,5.4,0,0,0,1.92,3.79l.31-5.7C151.75,113,151,113.29,150.16,113.55Z"/>
      <path class="cls-6" d="M119.73,88.84h-3c-2.44,0-4.43,2.33-4.43,5.17v10.77a22.58,22.58,0,0,0,6.64,6.09v-9.53c0-2.84,2-5.17,4.43-5.17h.74V94C124.16,91.17,122.17,88.84,119.73,88.84Z"/>
      <path class="cls-4" d="M116.78,117.72H119v-6.85a22.58,22.58,0,0,1-6.64-6.09v7.77C112.35,115.4,114.34,117.72,116.78,117.72Z"/>
      <path class="cls-6" d="M123.42,96.17c-2.44,0-4.43,2.33-4.43,5.17v9.53a27.67,27.67,0,0,0,5.12,2.39,5.52,5.52,0,0,0,0-.71V96.17Z"/>
      <path class="cls-4" d="M124.11,113.26a27.67,27.67,0,0,1-5.12-2.39v6.85h.74C122,117.72,123.81,115.77,124.11,113.26Z"/>
    </g>
    <path class="cls-7" d="M142.41,136.15c3.74-2.14,4.16-5.64,1.73-6.29-2-.54-4.8,2.95-6.71,1.32-4.32-3.69-7.76.64-6.56,3.49C131.87,137,136.49,139.53,142.41,136.15Z"/>
    <path class="cls-8" d="M199.28,53.22,61.59,51.5,58.13,28.32l144.23,3.44Q200.82,42.48,199.28,53.22Z"/>
    <g class="cls-9">
      <path class="cls-10" d="M90.73,35.85,77.37,33.23c-.16,0-.25-.15-.21-.27h0a.32.32,0,0,1,.36-.17l13.35,2.62c.16,0,.26.16.22.28h0A.32.32,0,0,1,90.73,35.85Z"/>
      <path class="cls-10" d="M91.69,35.19,78.34,32.57c-.16,0-.26-.16-.22-.28h0a.33.33,0,0,1,.37-.16l13.35,2.62c.16,0,.26.15.22.27h0A.34.34,0,0,1,91.69,35.19Z"/>
      <path class="cls-10" d="M84.36,29.08,78.1,38.41a.35.35,0,0,1-.4.1h0c-.15-.06-.21-.19-.13-.3l6.26-9.33a.33.33,0,0,1,.4-.1h0A.2.2,0,0,1,84.36,29.08Z"/>
      <path class="cls-10" d="M86,29.48l-6.26,9.33a.35.35,0,0,1-.4.1h0c-.15,0-.21-.19-.13-.3l6.26-9.33a.34.34,0,0,1,.4-.1h0C86.05,29.23,86.11,29.37,86,29.48Z"/>
      <path class="cls-10" d="M87.41,30l-6.26,9.33a.38.38,0,0,1-.41.1h0a.22.22,0,0,1-.13-.31l6.27-9.33a.36.36,0,0,1,.4-.1h0A.22.22,0,0,1,87.41,30Z"/>
    </g>
    <g class="cls-9">
      <path class="cls-10" d="M129.44,39.35l-22.6-3.66c-.27,0-.43-.22-.36-.39h0a.59.59,0,0,1,.62-.23l22.59,3.67c.27,0,.44.21.37.38h0A.59.59,0,0,1,129.44,39.35Z"/>
      <path class="cls-10" d="M131.08,38.42l-22.6-3.66c-.27,0-.43-.22-.36-.39h0a.57.57,0,0,1,.61-.23l22.6,3.67c.27,0,.43.21.36.38h0A.56.56,0,0,1,131.08,38.42Z"/>
      <path class="cls-10" d="M118.67,29.88l-10.6,13.06a.68.68,0,0,1-.68.14h0c-.24-.08-.34-.28-.22-.43l10.6-13.06a.66.66,0,0,1,.68-.14h0C118.7,29.53,118.8,29.72,118.67,29.88Z"/>
      <path class="cls-10" d="M121.5,30.44,110.9,43.5a.67.67,0,0,1-.68.14h0c-.25-.08-.35-.27-.22-.43l10.6-13.06a.66.66,0,0,1,.68-.14h0C121.52,30.09,121.62,30.28,121.5,30.44Z"/>
      <path class="cls-10" d="M123.83,31.2l-10.6,13.06a.67.67,0,0,1-.68.14h0c-.25-.08-.35-.27-.22-.43l10.6-13.06a.68.68,0,0,1,.68-.14h0C123.85,30.85,124,31.05,123.83,31.2Z"/>
    </g>
    <g class="cls-9">
      <path class="cls-10" d="M154.39,39.07,143.17,36a.27.27,0,0,1-.18-.32h0a.25.25,0,0,1,.31-.2l11.21,3.09a.26.26,0,0,1,.18.32h0A.25.25,0,0,1,154.39,39.07Z"/>
      <path class="cls-10" d="M155.2,38.28,144,35.2a.28.28,0,0,1-.18-.33h0a.25.25,0,0,1,.31-.19l11.21,3.09a.25.25,0,0,1,.18.32h0A.24.24,0,0,1,155.2,38.28Z"/>
      <path class="cls-10" d="M149,31.09l-5.26,11a.24.24,0,0,1-.34.12h0a.28.28,0,0,1-.11-.36l5.26-11a.25.25,0,0,1,.34-.12h0A.28.28,0,0,1,149,31.09Z"/>
      <path class="cls-10" d="M150.44,31.56l-5.26,11a.23.23,0,0,1-.33.11h0a.26.26,0,0,1-.11-.36l5.26-11a.24.24,0,0,1,.33-.12h0A.27.27,0,0,1,150.44,31.56Z"/>
      <path class="cls-10" d="M151.6,32.21l-5.26,11a.25.25,0,0,1-.34.12h0a.28.28,0,0,1-.11-.36l5.26-11a.24.24,0,0,1,.34-.11h0A.28.28,0,0,1,151.6,32.21Z"/>
    </g>
    <g class="cls-11">
      <path class="cls-10" d="M187.52,38.56l-9.79-6.68c-.12-.08-.17-.21-.12-.29h0c0-.08.19-.08.31,0l9.8,6.68c.11.08.16.21.11.29h0C187.78,38.64,187.64,38.64,187.52,38.56Z"/>
      <path class="cls-10" d="M188.38,38.38l-9.8-6.68c-.11-.08-.17-.21-.11-.29h0c.05-.08.19-.08.3,0l9.8,6.68c.12.08.17.21.12.29h0C188.64,38.46,188.5,38.46,188.38,38.38Z"/>
      <path class="cls-10" d="M183.81,31.08l-6.42,5.09a.29.29,0,0,1-.33-.06h0c-.1-.1-.12-.22,0-.28l6.42-5.1a.27.27,0,0,1,.32.06h0C183.86,30.89,183.89,31,183.81,31.08Z"/>
      <path class="cls-10" d="M185,32l-6.42,5.1a.26.26,0,0,1-.32-.07h0c-.11-.09-.13-.22-.05-.28l6.42-5.09a.26.26,0,0,1,.33.06h0C185.08,31.78,185.1,31.91,185,32Z"/>
      <path class="cls-10" d="M186,32.87,179.56,38a.27.27,0,0,1-.32-.06h0c-.1-.1-.13-.23-.05-.29l6.42-5.09a.29.29,0,0,1,.33.06h0C186,32.69,186.06,32.81,186,32.87Z"/>
    </g>
    <path class="cls-12" d="M84.5,92.77c3.31,19.72,8.07,32.93,11.75,41.29,9.53,21.62,24.7,39.81,25,40.2h0c-9.62-22.09-14.13-38-18.53-46.56-1-2-5.54-4.3-8.61-11.09C89.72,107,86.54,98.54,84.5,92.77Z"/>
    <path class="cls-13" d="M178.08,106l19.41-13.48,14.38-21.62c-1,4-6.47,24.63-22.88,32.34A29.8,29.8,0,0,1,178.08,106Z"/>
    <path class="cls-14" d="M147.46,165.43l-26.05-21c-.31-.25-.16-1.35.34-2.45h0c.5-1.1,1.16-1.8,1.47-1.55l26.05,21c.31.25.15,1.36-.34,2.46h0C148.43,165,147.77,165.68,147.46,165.43Z"/>
    <path class="cls-14" d="M145.18,175l-29.92-22.48c-.36-.27-.33-1.21.06-2.1h0c.39-.89,1-1.39,1.36-1.13l29.92,22.48c.36.27.33,1.21-.06,2.1h0C146.15,174.75,145.53,175.25,145.18,175Z"/>
    <path class="cls-14" d="M134,143.78l-10.51,21.47c-.13.25-.79-.24-1.47-1.09h0c-.68-.85-1.13-1.76-1-2l10.52-21.47c.12-.25.78.24,1.46,1.09h0C133.66,142.62,134.12,143.53,134,143.78Z"/>
    <path class="cls-14" d="M145.52,145l-12.28,26.44c-.15.31-.87-.08-1.6-.87h0c-.73-.79-1.21-1.7-1.06-2l12.28-26.43c.15-.32.86.08,1.59.87h0C145.19,143.82,145.66,144.73,145.52,145Z"/>
    <path class="cls-14" d="M151.65,148.71,140.4,178.18c-.13.35-.89,0-1.68-.66h0c-.79-.71-1.33-1.58-1.19-1.93l11.24-29.46c.14-.36.89-.06,1.69.65h0C151.25,147.49,151.78,148.36,151.65,148.71Z"/>
    <path class="cls-12" d="M64.35,91.81c19.43,6.35,21.19,4,21.19,4L82.68,88l-18.46.26-6.7-1.46Z"/>
    <path class="cls-13" d="M139.07,182l9.44-17.69q3.42-11.1,6.83-22.2c.5,3.53,2.82,22-8.18,33.9A27.24,27.24,0,0,1,139.07,182Z"/>
    <path class="cls-12" d="M61.37,43.12c-2.68,13.53-.77,18.71,1.9,20.7,3.45,2.58,7.57-.63,11.19,2.63,4,3.59,1.54,9.78,6.13,13.29,1.9,1.46,4.78,2.28,5.87,1.17C88.28,79.06,85,72,82.63,68.2,79.74,63.53,77,61.52,74.1,55.68c-.64-1.29-1.17-2.5-1.63-3.61a60.4,60.4,0,0,0-3.8-7.56c-4.41-8.26-6.14-16.42-7.26-16.19C60.79,28.45,60.36,31.16,61.37,43.12Z"/>
    <path class="cls-12" d="M31.28,85.38c-2.49-4.12-1.82-6.53-1.47-7.39s.67-.85,3.74-4.69c1.74-2.16,1.85-2.44,2.46-2.7,2.47-1,4.56,1.82,6.21.89,2.14-1.21,1.14-7.43,1.67-7.45,0,0,0,0,.11.06.76.22,3.07-7.85,4.14-7.69s2.55,6.86-.51,11.68c-1.38,2.17-3.63,4.19-5.34,7.66-.38.75-.68,1.45-.93,2.08a31.21,31.21,0,0,1-2.22,4.42c-2.7,5-2.7,9.18-4.1,9.33C34.34,91.65,33.17,90.72,31.28,85.38Z"/>
  </g>
</svg>
